<svg xmlns="http://www.w3.org/2000/svg" xmlns:svg="http://www.w3.org/2000/svg" id="svg2" width="728" height="90" version="1.1" viewBox="0 0 728 90"><metadata id="metadata7"/><g id="layer1" transform="translate(0,-962.36218)"><rect id="rect6019" width="729.957" height="87.69" x=".022" y="960.322" fill="#018094" fill-opacity="1" fill-rule="nonzero" stroke="none" stroke-width=".999" color="#000" display="inline" enable-background="accumulate" overflow="visible" visibility="visible" style="marker:none"/><path id="rect10004-8-8-3-5-4-7-3-4-6-9-8" fill="#028da4" fill-opacity="1" fill-rule="nonzero" stroke="none" stroke-width="1" d="m 476.11649,989.37894 0,27.59506 -27.67346,0 z" color="#000" display="inline" enable-background="accumulate" overflow="visible" visibility="visible" style="marker:none"/><path id="rect10004-8-8-3-5-4-7-3-4-6-2-37-88" fill="#017689" fill-opacity="1" fill-rule="nonzero" stroke="none" stroke-width="1" d="m 503.75803,1016.974 0,-27.59506 -27.67344,0 z" color="#000" display="inline" enable-background="accumulate" overflow="visible" visibility="visible" style="marker:none"/><path id="rect10004-8-8-3-5-4-7-3-4-6-1-2-9" fill="#02697b" fill-opacity="1" fill-rule="nonzero" stroke="none" stroke-width="1" d="m 531.39958,989.37894 0,27.59506 -27.67346,0 z" color="#000" display="inline" enable-background="accumulate" overflow="visible" visibility="visible" style="marker:none"/><path id="rect10004-8-8-3-5-4-7-3-4-6-2-9-8-8" fill="#028da4" fill-opacity="1" fill-rule="nonzero" stroke="none" stroke-width="1" d="m 559.04111,989.37894 0,27.59506 -27.67344,0 z" color="#000" display="inline" enable-background="accumulate" overflow="visible" visibility="visible" style="marker:none"/><path id="rect10004-8-8-3-5-4-7-3-4-6-6-4-5" fill="#017689" fill-opacity="1" fill-rule="nonzero" stroke="none" stroke-width="1" d="m 476.11649,1017.0205 0,27.595 -27.67346,0 z" color="#000" display="inline" enable-background="accumulate" overflow="visible" visibility="visible" style="marker:none"/><path id="rect10004-8-8-3-5-4-7-3-4-6-2-3-2-50" fill="#02697b" fill-opacity="1" fill-rule="nonzero" stroke="none" stroke-width="1" d="m 503.75803,1017.0205 0,27.595 -27.67344,0 z" color="#000" display="inline" enable-background="accumulate" overflow="visible" visibility="visible" style="marker:none"/><path id="rect10004-8-8-3-5-4-7-3-4-6-1-5-2-4" fill="#028da4" fill-opacity="1" fill-rule="nonzero" stroke="none" stroke-width="1" d="m 531.39958,1017.0205 0,27.595 -27.67346,0 z" color="#000" display="inline" enable-background="accumulate" overflow="visible" visibility="visible" style="marker:none"/><path id="rect10004-8-8-3-5-4-7-3-4-6-2-9-9-8-9" fill="#028da4" fill-opacity="1" fill-rule="nonzero" stroke="none" stroke-width="1" d="m 531.36767,1044.6155 0,-27.595 27.67344,0 z" color="#000" display="inline" enable-background="accumulate" overflow="visible" visibility="visible" style="marker:none"/><path id="rect10004-8-8-3-5-4-7-3-4-6-94-3" fill="#017689" fill-opacity="1" fill-rule="nonzero" stroke="none" stroke-width="1" d="m 228.14839,988.662 0,27.595 -27.67345,0 z" color="#000" display="inline" enable-background="accumulate" overflow="visible" visibility="visible" style="marker:none"/><path id="rect10004-8-8-3-5-4-7-3-4-6-2-5-34" fill="#028da4" fill-opacity="1" fill-rule="nonzero" stroke="none" stroke-width="1" d="m 255.78993,988.662 0,27.595 -27.67344,0 z" color="#000" display="inline" enable-background="accumulate" overflow="visible" visibility="visible" style="marker:none"/><path id="rect10004-8-8-3-5-4-7-3-4-6-1-1-3" fill="#028da4" fill-opacity="1" fill-rule="nonzero" stroke="none" stroke-width="1" d="m 283.43146,988.662 0,27.595 -27.67343,0 z" color="#000" display="inline" enable-background="accumulate" overflow="visible" visibility="visible" style="marker:none"/><path id="rect10004-8-8-3-5-4-7-3-4-6-2-9-97-9" fill="#02697b" fill-opacity="1" fill-rule="nonzero" stroke="none" stroke-width="1" d="m 311.07302,988.662 0,27.595 -27.67344,0 z" color="#000" display="inline" enable-background="accumulate" overflow="visible" visibility="visible" style="marker:none"/><path id="rect10004-8-8-3-5-4-7-3-4-6-6-7-42" fill="#028da4" fill-opacity="1" fill-rule="nonzero" stroke="none" stroke-width="1" d="m 228.14839,1016.3035 0,27.5951 -27.67345,0 z" color="#000" display="inline" enable-background="accumulate" overflow="visible" visibility="visible" style="marker:none"/><path id="rect10004-8-8-3-5-4-7-3-4-6-2-3-3-34" fill="#017689" fill-opacity="1" fill-rule="nonzero" stroke="none" stroke-width="1" d="m 255.78993,1016.3035 0,27.5951 -27.67344,0 z" color="#000" display="inline" enable-background="accumulate" overflow="visible" visibility="visible" style="marker:none"/><path id="rect10004-8-8-3-5-4-7-3-4-6-1-5-4-6" fill="#02697b" fill-opacity="1" fill-rule="nonzero" stroke="none" stroke-width="1" d="m 283.43146,1016.3035 0,27.5951 -27.67343,0 z" color="#000" display="inline" enable-background="accumulate" overflow="visible" visibility="visible" style="marker:none"/><path id="rect10004-8-8-3-5-4-7-3-4-6-2-9-9-3-7" fill="#017689" fill-opacity="1" fill-rule="nonzero" stroke="none" stroke-width="1" d="m 283.39958,1043.8986 0,-27.5951 27.67344,0 z" color="#000" display="inline" enable-background="accumulate" overflow="visible" visibility="visible" style="marker:none"/><path id="rect10004-8-8-3-5-4-7-3-4-6-9-4-4" fill="#017689" fill-opacity="1" fill-rule="nonzero" stroke="none" stroke-width="1" d="m 586.68266,989.37894 0,27.59506 -27.67345,0 z" color="#000" display="inline" enable-background="accumulate" overflow="visible" visibility="visible" style="marker:none"/><path id="rect10004-8-8-3-5-4-7-3-4-6-2-37-5-5" fill="#017689" fill-opacity="1" fill-rule="nonzero" stroke="none" stroke-width="1" d="m 614.3242,989.37894 0,27.59506 -27.67346,0 z" color="#000" display="inline" enable-background="accumulate" overflow="visible" visibility="visible" style="marker:none"/><path id="rect10004-8-8-3-5-4-7-3-4-6-1-2-2-7" fill="#017689" fill-opacity="1" fill-rule="nonzero" stroke="none" stroke-width="1" d="m 641.96575,989.37894 0,27.59506 -27.67345,0 z" color="#000" display="inline" enable-background="accumulate" overflow="visible" visibility="visible" style="marker:none"/><path id="rect10004-8-8-3-5-4-7-3-4-6-2-9-8-9-0" fill="#028ea5" fill-opacity="1" fill-rule="nonzero" stroke="none" stroke-width="1" d="m 669.6073,1016.974 0,-27.59506 -27.67346,0 z" color="#000" display="inline" enable-background="accumulate" overflow="visible" visibility="visible" style="marker:none"/><path id="rect10004-8-8-3-5-4-7-3-4-6-6-4-8-0" fill="#017689" fill-opacity="1" fill-rule="nonzero" stroke="none" stroke-width="1" d="m 586.68266,1017.0205 0,27.595 -27.67345,0 z" color="#000" display="inline" enable-background="accumulate" overflow="visible" visibility="visible" style="marker:none"/><path id="rect10004-8-8-3-5-4-7-3-4-6-2-3-2-1-3" fill="#017689" fill-opacity="1" fill-rule="nonzero" stroke="none" stroke-width="1" d="m 586.65074,1044.6155 0,-27.595 27.67346,0 z" color="#000" display="inline" enable-background="accumulate" overflow="visible" visibility="visible" style="marker:none"/><path id="rect10004-8-8-3-5-4-7-3-4-6-1-5-2-9-3" fill="#017689" fill-opacity="1" fill-rule="nonzero" stroke="none" stroke-width="1" d="m 641.96575,1017.0205 0,27.595 -27.67345,0 z" color="#000" display="inline" enable-background="accumulate" overflow="visible" visibility="visible" style="marker:none"/><path id="rect10004-8-8-3-5-4-7-3-4-6-2-9-9-8-7-0" fill="#017689" fill-opacity="1" fill-rule="nonzero" stroke="none" stroke-width="1" d="m 669.6073,1017.0205 0,27.595 -27.67346,0 z" color="#000" display="inline" enable-background="accumulate" overflow="visible" visibility="visible" style="marker:none"/><path id="rect10004-8-8-3-5-4-7-3-4-6-94-5-0" fill="#017689" fill-opacity="1" fill-rule="nonzero" stroke="none" stroke-width="1" d="m 338.71453,988.662 0,27.595 -27.67342,0 z" color="#000" display="inline" enable-background="accumulate" overflow="visible" visibility="visible" style="marker:none"/><path id="rect10004-8-8-3-5-4-7-3-4-6-2-5-3-8" fill="#017689" fill-opacity="1" fill-rule="nonzero" stroke="none" stroke-width="1" d="m 366.35609,988.662 0,27.595 -27.67343,0 z" color="#000" display="inline" enable-background="accumulate" overflow="visible" visibility="visible" style="marker:none"/><path id="rect10004-8-8-3-5-4-7-3-4-6-1-1-0-5" fill="#017689" fill-opacity="1" fill-rule="nonzero" stroke="none" stroke-width="1" d="m 393.99763,988.662 0,27.595 -27.67343,0 z" color="#000" display="inline" enable-background="accumulate" overflow="visible" visibility="visible" style="marker:none"/><path id="rect10004-8-8-3-5-4-7-3-4-6-2-9-97-8-4" fill="#028ea5" fill-opacity="1" fill-rule="nonzero" stroke="none" stroke-width="1" d="m 421.63918,988.662 0,27.595 -27.67343,0 z" color="#000" display="inline" enable-background="accumulate" overflow="visible" visibility="visible" style="marker:none"/><path id="rect10004-8-8-3-5-4-7-3-4-6-6-7-4-4" fill="#017689" fill-opacity="1" fill-rule="nonzero" stroke="none" stroke-width="1" d="m 338.71453,1016.3035 0,27.5951 -27.67342,0 z" color="#000" display="inline" enable-background="accumulate" overflow="visible" visibility="visible" style="marker:none"/><path id="rect10004-8-8-3-5-4-7-3-4-6-2-3-3-3-2" fill="#017689" fill-opacity="1" fill-rule="nonzero" stroke="none" stroke-width="1" d="m 366.35609,1016.3035 0,27.5951 -27.67343,0 z" color="#000" display="inline" enable-background="accumulate" overflow="visible" visibility="visible" style="marker:none"/><path id="rect10004-8-8-3-5-4-7-3-4-6-1-5-4-9-2" fill="#028ea5" fill-opacity="1" fill-rule="nonzero" stroke="none" stroke-width="1" d="m 393.99763,1016.3035 0,27.5951 -27.67343,0 z" color="#000" display="inline" enable-background="accumulate" overflow="visible" visibility="visible" style="marker:none"/><path id="rect10004-8-8-3-5-4-7-3-4-6-2-9-9-3-5-1" fill="#028ea5" fill-opacity="1" fill-rule="nonzero" stroke="none" stroke-width="1" d="m 393.96575,1043.8986 0,-27.5951 27.67343,0 z" color="#000" display="inline" enable-background="accumulate" overflow="visible" visibility="visible" style="marker:none"/><path id="rect10004-8-8-3-5-4-7-3-4-6-2-37-5-5-4" fill="#017689" fill-opacity="1" fill-rule="nonzero" stroke="none" stroke-width="1" d="m 697.24884,989.37894 0,27.59506 -27.67346,0 z" color="#000" display="inline" enable-background="accumulate" overflow="visible" visibility="visible" style="marker:none"/><path id="rect10004-8-8-3-5-4-7-3-4-6-1-2-2-7-1" fill="#017689" fill-opacity="1" fill-rule="nonzero" stroke="none" stroke-width="1" d="m 722.67019,991.59353 -25.45327,25.38417 25.45327,0 0,-25.38417 z" color="#000" display="inline" enable-background="accumulate" overflow="visible" visibility="visible" style="marker:none"/><path id="rect10004-8-8-3-5-4-7-3-4-6-2-3-2-1-3-8" fill="#028ea5" fill-opacity="1" fill-rule="nonzero" stroke="none" stroke-width="1" d="m 669.57538,1044.6155 0,-27.595 27.67346,0 z" color="#000" display="inline" enable-background="accumulate" overflow="visible" visibility="visible" style="marker:none"/><path id="rect10004-8-8-3-5-4-7-3-4-6-1-5-2-9-3-4" fill="#017689" fill-opacity="1" fill-rule="nonzero" stroke="none" stroke-width="1" d="m 722.67019,1019.2351 -25.45327,25.3841 25.45327,0 0,-25.3841 z" color="#000" display="inline" enable-background="accumulate" overflow="visible" visibility="visible" style="marker:none"/><path id="rect10004-8-8-3-5-4-7-3-4-6-2-5-3-8-9" fill="#017689" fill-opacity="1" fill-rule="nonzero" stroke="none" stroke-width="1" d="m 449.28072,988.662 0,27.595 -27.67342,0 z" color="#000" display="inline" enable-background="accumulate" overflow="visible" visibility="visible" style="marker:none"/><path id="rect10004-8-8-3-5-4-7-3-4-6-2-3-3-3-2-2" fill="#017689" fill-opacity="1" fill-rule="nonzero" stroke="none" stroke-width="1" d="m 449.28072,1016.3035 0,27.5951 -27.67342,0 z" color="#000" display="inline" enable-background="accumulate" overflow="visible" visibility="visible" style="marker:none"/><rect id="rect12930" width="730.701" height="5.66" x="-.168" y="1047.738" fill="#fff" fill-opacity="1" fill-rule="nonzero" stroke="none" stroke-width="1" color="#000" display="inline" enable-background="accumulate" overflow="visible" rx="0" ry="0" visibility="visible" style="marker:none"/><path id="rect10004-8-8-3-5-4-7-3-4-6-6-4" fill="#017689" fill-opacity="1" fill-rule="nonzero" stroke="none" stroke-width="1" d="m 228.13131,988.37345 0,-27.59504 -27.67346,0 z" color="#000" display="inline" enable-background="accumulate" overflow="visible" visibility="visible" style="marker:none"/><path id="rect10004-8-8-3-5-4-7-3-4-6-2-3-2" fill="#017689" fill-opacity="1" fill-rule="nonzero" stroke="none" stroke-width="1" d="m 393.83649,960.73509 0,27.59504 -27.67344,0 z" color="#000" display="inline" enable-background="accumulate" overflow="visible" visibility="visible" style="marker:none"/><path id="rect10004-8-8-3-5-4-7-3-4-6-1-5-2" fill="#017689" fill-opacity="1" fill-rule="nonzero" stroke="none" stroke-width="1" d="m 338.84048,961.24388 0,27.59504 27.67345,0 z" color="#000" display="inline" enable-background="accumulate" overflow="visible" visibility="visible" style="marker:none"/><path id="rect10004-8-8-3-5-4-7-3-4-6-2-9-9-8" fill="#028ea5" fill-opacity="1" fill-rule="nonzero" stroke="none" stroke-width="1" d="m 37.055932,960.77841 0,27.59504 -27.6734405,0 z" color="#000" display="inline" enable-background="accumulate" overflow="visible" visibility="visible" style="marker:none"/><path id="rect10004-8-8-3-5-4-7-3-4-6-94" fill="#028ea5" fill-opacity="1" fill-rule="nonzero" stroke="none" stroke-width="1" d="m 283.366,961.15082 0,27.59505 -27.67345,0 z" color="#000" display="inline" enable-background="accumulate" overflow="visible" visibility="visible" style="marker:none"/><path id="rect10004-8-8-3-5-4-7-3-4-6-2-5" fill="#017689" fill-opacity="1" fill-rule="nonzero" stroke="none" stroke-width="1" d="m 311.09418,961.14711 0,27.59505 -27.67344,0 z" color="#000" display="inline" enable-background="accumulate" overflow="visible" visibility="visible" style="marker:none"/><path id="rect10004-8-8-3-5-4-7-3-4-6-1-1" fill="#02697b" fill-opacity="1" fill-rule="nonzero" stroke="none" stroke-width="1" d="m 9.4462815,988.41995 0,27.59505 -27.6734295,0 z" color="#000" display="inline" enable-background="accumulate" overflow="visible" visibility="visible" style="marker:none"/><path id="rect10004-8-8-3-5-4-7-3-4-6-2-9-97" fill="#028ea5" fill-opacity="1" fill-rule="nonzero" stroke="none" stroke-width="1" d="m 9.4144015,988.41997 0,27.59503 27.6734405,0 z" color="#000" display="inline" enable-background="accumulate" overflow="visible" visibility="visible" style="marker:none"/><path id="rect10004-8-8-3-5-4-7-3-4-6-6-7" fill="#028ea5" fill-opacity="1" fill-rule="nonzero" stroke="none" stroke-width="1" d="m 227.91833,988.40396 0,-27.595 27.67345,0 z" color="#000" display="inline" enable-background="accumulate" overflow="visible" visibility="visible" style="marker:none"/><path id="rect10004-8-8-3-5-4-7-3-4-6-2-3-3" fill="#028ea5" fill-opacity="1" fill-rule="nonzero" stroke="none" stroke-width="1" d="m 311.10829,961.01445 0,27.595 27.67344,0 z" color="#000" display="inline" enable-background="accumulate" overflow="visible" visibility="visible" style="marker:none"/><path id="rect10004-8-8-3-5-4-7-3-4-6-1-5-4" fill="#017689" fill-opacity="1" fill-rule="nonzero" stroke="none" stroke-width="1" d="m 9.4462815,1016.0615 0,27.595 -27.6734295,0 z" color="#000" display="inline" enable-background="accumulate" overflow="visible" visibility="visible" style="marker:none"/><path id="rect10004-8-8-3-5-4-7-3-4-6-2-9-9-3" fill="#017689" fill-opacity="1" fill-rule="nonzero" stroke="none" stroke-width="1" d="m 37.087842,1016.0615 0,27.595 -27.6734405,0 z" color="#000" display="inline" enable-background="accumulate" overflow="visible" visibility="visible" style="marker:none"/><path id="rect10004-8-8-3-5-4-7-3-4-6-6-4-8" fill="#017689" fill-opacity="1" fill-rule="nonzero" stroke="none" stroke-width="1" d="m 64.697482,960.77841 0,27.59504 -27.67345,0 z" color="#000" display="inline" enable-background="accumulate" overflow="visible" visibility="visible" style="marker:none"/><path id="rect10004-8-8-3-5-4-7-3-4-6-2-3-2-1" fill="#028ea5" fill-opacity="1" fill-rule="nonzero" stroke="none" stroke-width="1" d="m 64.665562,960.77841 0,27.59504 27.673457,0 z" color="#000" display="inline" enable-background="accumulate" overflow="visible" visibility="visible" style="marker:none"/><path id="rect10004-8-8-3-5-4-7-3-4-6-1-5-2-9" fill="#028ea5" fill-opacity="1" fill-rule="nonzero" stroke="none" stroke-width="1" d="m 119.98057,960.77841 0,27.59504 -27.673451,0 z" color="#000" display="inline" enable-background="accumulate" overflow="visible" visibility="visible" style="marker:none"/><path id="rect10004-8-8-3-5-4-7-3-4-6-2-9-9-8-7" fill="#028ea5" fill-opacity="1" fill-rule="nonzero" stroke="none" stroke-width="1" d="m 147.62212,960.77841 0,27.59504 -27.67346,0 z" color="#000" display="inline" enable-background="accumulate" overflow="visible" visibility="visible" style="marker:none"/><path id="rect10004-8-8-3-5-4-7-3-4-6-94-5" fill="#028ea5" fill-opacity="1" fill-rule="nonzero" stroke="none" stroke-width="1" d="m 64.729352,988.41995 0,27.59505 -27.67342,0 z" color="#000" display="inline" enable-background="accumulate" overflow="visible" visibility="visible" style="marker:none"/><path id="rect10004-8-8-3-5-4-7-3-4-6-2-5-3" fill="#028ea5" fill-opacity="1" fill-rule="nonzero" stroke="none" stroke-width="1" d="m 92.370909,988.41997 0,27.59503 -27.673427,0 z" color="#000" display="inline" enable-background="accumulate" overflow="visible" visibility="visible" style="marker:none"/><path id="rect10004-8-8-3-5-4-7-3-4-6-1-1-0" fill="#028ea5" fill-opacity="1" fill-rule="nonzero" stroke="none" stroke-width="1" d="m 120.01245,988.41997 0,27.59503 -27.673431,0 z" color="#000" display="inline" enable-background="accumulate" overflow="visible" visibility="visible" style="marker:none"/><path id="rect10004-8-8-3-5-4-7-3-4-6-2-9-97-8" fill="#017689" fill-opacity="1" fill-rule="nonzero" stroke="none" stroke-width="1" d="m 147.654,988.41997 0,27.59503 -27.67343,0 z" color="#000" display="inline" enable-background="accumulate" overflow="visible" visibility="visible" style="marker:none"/><path id="rect10004-8-8-3-5-4-7-3-4-6-6-7-4" fill="#028ea5" fill-opacity="1" fill-rule="nonzero" stroke="none" stroke-width="1" d="m 64.729352,1043.6565 0,-27.595 -27.67342,0 z" color="#000" display="inline" enable-background="accumulate" overflow="visible" visibility="visible" style="marker:none"/><path id="rect10004-8-8-3-5-4-7-3-4-6-2-3-3-3" fill="#028ea5" fill-opacity="1" fill-rule="nonzero" stroke="none" stroke-width="1" d="m 92.339019,1043.6565 0,-27.595 27.673431,0 z" color="#000" display="inline" enable-background="accumulate" overflow="visible" visibility="visible" style="marker:none"/><path id="rect10004-8-8-3-5-4-7-3-4-6-1-5-4-9" fill="#017689" fill-opacity="1" fill-rule="nonzero" stroke="none" stroke-width="1" d="m 120.01245,1016.0615 0,27.595 -27.673431,0 z" color="#000" display="inline" enable-background="accumulate" overflow="visible" visibility="visible" style="marker:none"/><path id="rect10004-8-8-3-5-4-7-3-4-6-2-9-9-3-5" fill="#028ea5" fill-opacity="1" fill-rule="nonzero" stroke="none" stroke-width="1" d="m 147.654,1016.0615 0,27.595 -27.67343,0 z" color="#000" display="inline" enable-background="accumulate" overflow="visible" visibility="visible" style="marker:none"/><path id="rect10004-8-8-3-5-4-7-3-4-6-2-3-2-1-0" fill="#02697b" fill-opacity="1" fill-rule="nonzero" stroke="none" stroke-width="1" d="m 175.26366,960.77841 0,27.59504 -27.67346,0 z" color="#000" display="inline" enable-background="accumulate" overflow="visible" visibility="visible" style="marker:none"/><path id="rect10004-8-8-3-5-4-7-3-4-6-1-5-2-9-7" fill="#028ea5" fill-opacity="1" fill-rule="nonzero" stroke="none" stroke-width="1" d="m 175.23174,960.78168 25.45327,25.38416 0,-25.38416 -25.45327,0 z" color="#000" display="inline" enable-background="accumulate" overflow="visible" visibility="visible" style="marker:none"/><path id="rect10004-8-8-3-5-4-7-3-4-6-2-5-3-2" fill="#02697b" fill-opacity="1" fill-rule="nonzero" stroke="none" stroke-width="1" d="m 175.29554,988.41995 0,27.59505 -27.67342,0 z" color="#000" display="inline" enable-background="accumulate" overflow="visible" visibility="visible" style="marker:none"/><path id="rect10004-8-8-3-5-4-7-3-4-6-1-1-0-7" fill="#02697b" fill-opacity="1" fill-rule="nonzero" stroke="none" stroke-width="1" d="m 200.68501,990.66911 -25.41869,25.34959 25.41869,0 0,-25.34959 z" color="#000" display="inline" enable-background="accumulate" overflow="visible" visibility="visible" style="marker:none"/><path id="rect10004-8-8-3-5-4-7-3-4-6-2-3-3-3-7" fill="#017689" fill-opacity="1" fill-rule="nonzero" stroke="none" stroke-width="1" d="m 175.29554,1016.0615 0,27.595 -27.67342,0 z" color="#000" display="inline" enable-background="accumulate" overflow="visible" visibility="visible" style="marker:none"/><path id="rect10004-8-8-3-5-4-7-3-4-6-1-5-4-9-1" fill="#017689" fill-opacity="1" fill-rule="nonzero" stroke="none" stroke-width="1" d="m 200.68501,1018.3106 -25.41869,25.3496 25.41869,0 0,-25.3496 z" color="#000" display="inline" enable-background="accumulate" overflow="visible" visibility="visible" style="marker:none"/><path id="rect10004-8-8-3-5-4-7-3-4-6-2-5-3-9" fill="#017689" fill-opacity="1" fill-rule="nonzero" stroke="none" stroke-width="1" d="m 92.370909,1043.3787 0,-27.595 -27.673427,0 z" color="#000" display="inline" enable-background="accumulate" overflow="visible" visibility="visible" style="marker:none"/><path id="rect10004-8-8-3-5-4-7-3-4-6-2-9-97-8-4-9" fill="#028ea5" fill-opacity="1" fill-rule="nonzero" stroke="none" stroke-width="1" d="m 449.63918,960.662 0,27.595 -27.67343,0 z" color="#000" display="inline" enable-background="accumulate" overflow="visible" visibility="visible" style="marker:none"/><path id="rect10004-8-8-3-5-4-7-3-4-6-2-9-97-8-4-9-2" fill="#028ea5" fill-opacity="1" fill-rule="nonzero" stroke="none" stroke-width="1" d="m 503.63918,962.662 0,27.595 -27.67343,0 z" color="#000" display="inline" enable-background="accumulate" overflow="visible" visibility="visible" style="marker:none"/><path id="rect10004-8-8-3-5-4-7-3-4-6-9-4-4-4" fill="#017689" fill-opacity="1" fill-rule="nonzero" stroke="none" stroke-width="1" d="m 613.86734,961.92377 0,27.59507 -27.67345,0 z" color="#000" display="inline" enable-background="accumulate" overflow="visible" visibility="visible" style="marker:none"/><path id="rect10004-8-8-3-5-4-7-3-4-6-1-2-9-9" fill="#02697b" fill-opacity="1" fill-rule="nonzero" stroke="none" stroke-width="1" d="m 531.28737,962.93391 0,27.59505 -27.67346,0 z" color="#000" display="inline" enable-background="accumulate" overflow="visible" visibility="visible" style="marker:none"/><path id="rect10004-8-8-3-5-4-7-3-4-6-1-1-0-5-3" fill="#017689" fill-opacity="1" fill-rule="nonzero" stroke="none" stroke-width="1" d="m 531.34185,962.52897 0,27.59496 27.67343,0 z" color="#000" display="inline" enable-background="accumulate" overflow="visible" visibility="visible" style="marker:none"/><path id="rect10004-8-8-3-5-4-7-3-4-6-2-3-2-9" fill="#017689" fill-opacity="1" fill-rule="nonzero" stroke="none" stroke-width="1" d="m 669.29946,961.92378 0,27.59504 -27.67344,0 z" color="#000" display="inline" enable-background="accumulate" overflow="visible" visibility="visible" style="marker:none"/><path id="rect10004-8-8-3-5-4-7-3-4-6-2-9-8-9-0-3" fill="#028ea5" fill-opacity="1" fill-rule="nonzero" stroke="none" stroke-width="1" d="m 669.39922,989.84082 0,-27.59506 27.67346,0 z" color="#000" display="inline" enable-background="accumulate" overflow="visible" visibility="visible" style="marker:none"/><path id="rect10004-8-8-3-5-4-7-3-4-6-2-9-8-9-0-3-1" fill="#028ea5" fill-opacity="1" fill-rule="nonzero" stroke="none" stroke-width="1" d="m 614.09935,989.51882 0,-27.59506 27.67346,0 z" color="#000" display="inline" enable-background="accumulate" overflow="visible" visibility="visible" style="marker:none"/><path id="rect10004-8-8-3-5-4-7-3-4-6-2-3-2-4" fill="#017689" fill-opacity="1" fill-rule="nonzero" stroke="none" stroke-width="1" d="m 393.43717,960.73509 0,27.59504 27.67344,0 z" color="#000" display="inline" enable-background="accumulate" overflow="visible" visibility="visible" style="marker:none"/><path id="rect10004-8-8-3-5-4-7-3-4-6-1-1-0-5-3-6" fill="#017689" fill-opacity="1" fill-rule="nonzero" stroke="none" stroke-width="1" d="m 559.34185,962.52897 0,27.59496 27.67343,0 z" color="#000" display="inline" enable-background="accumulate" overflow="visible" visibility="visible" style="marker:none"/><path id="rect10004-8-8-3-5-4-7-3-4-6-1-2-9-9-9" fill="#02697b" fill-opacity="1" fill-rule="nonzero" stroke="none" stroke-width="1" d="m 723.28737,962.93391 0,27.59505 -27.67346,0 z" color="#000" display="inline" enable-background="accumulate" overflow="visible" visibility="visible" style="marker:none"/><text id="text3000-5-67-4-9" x="34.73" y="1033.091" fill="#fff" fill-opacity="1" stroke="none" font-family="Cantarell" font-size="47.388" font-stretch="normal" font-style="normal" font-variant="normal" font-weight="bold" letter-spacing="0" text-anchor="start" transform="scale(1.0020838,0.99792054)" word-spacing="0" writing-mode="lr-tb" xml:space="preserve" style="line-height:125%;-inkscape-font-specification:'Cantarell Bold';text-align:start"><tspan id="tspan3002-4-3-7-3" x="34.73" y="1033.091">GUADEC</tspan></text><g id="g5813-7-9-5-5" fill="#fff" fill-opacity="1" transform="matrix(0.52616501,0,0,0.52397902,-370.20962,801.54893)"><text id="text5815-4-9-5-2" x="792.45" y="357.884" fill="#fff" fill-opacity="1" stroke="none" font-family="Cantarell" font-size="29.501" font-stretch="normal" font-style="normal" font-variant="normal" font-weight="normal" letter-spacing="0" text-anchor="start" word-spacing="0" writing-mode="lr-tb" xml:space="preserve" style="line-height:125%;-inkscape-font-specification:Cantarell;text-align:start"><tspan id="tspan5817-2-1-6-0" x="792.45" y="357.884">The</tspan></text><text font-style="normal" style="line-height:125%;-inkscape-font-specification:Cantarell;text-align:start" id="text5819-6-8-4-8" x="973.197" y="357.884" fill="#fff" fill-opacity="1" stroke="none" font-family="Cantarell" font-size="29.501" font-stretch="normal" font-variant="normal" font-weight="normal" letter-spacing="0" text-anchor="start" word-spacing="0" writing-mode="lr-tb" xml:space="preserve"><tspan id="tspan5821-3-7-7-4" x="973.197" y="357.884">Conference</tspan></text><g id="g5823-9-0-4-5" fill="#fff" fill-opacity="1" transform="matrix(0.92337906,0,0,0.92337906,65.460957,27.451834)"><g id="g5825-0-72-0-1" fill="#fff" fill-opacity="1" transform="matrix(0.11840388,0,0,0.11840388,865.19335,299.21794)"><g id="g5827-6-1-4-8" fill="#fff" fill-opacity="1" transform="matrix(1.293235,0,0,1.293235,-4878.321,-1224.915)"><g id="g5829-3-5-5-2" fill="#fff" fill-opacity="1" fill-rule="nonzero" stroke="none" transform="matrix(2.438586,0,0,2.438586,3659.952,1113.451)"><g id="g5831-9-9-9-9" fill="#fff" fill-opacity="1"><path id="path5833-6-0-5-6" fill="#fff" fill-opacity="1" d="M 86.068,0 C 61.466,0 56.851,35.041 70.691,35.041 84.529,35.041 110.671,0 86.068,0 Z"/><path id="path5835-8-9-6-0" fill="#fff" fill-opacity="1" d="M 45.217,30.699 C 52.586,31.149 60.671,2.577 46.821,4.374 32.976,6.171 37.845,30.249 45.217,30.699 Z"/><path id="path5837-7-5-9-4" fill="#fff" fill-opacity="1" d="M 11.445,48.453 C 16.686,46.146 12.12,23.581 3.208,29.735 -5.7,35.89 6.204,50.759 11.445,48.453 Z"/><path id="path5839-9-1-5-5" fill="#fff" fill-opacity="1" d="M 26.212,36.642 C 32.451,35.37 32.793,9.778 21.667,14.369 10.539,18.961 19.978,37.916 26.212,36.642 l 0,0 z"/><path id="path5841-6-3-1-9" fill="#fff" fill-opacity="1" d="m 58.791,93.913 c 1.107,8.454 -6.202,12.629 -13.36,7.179 C 22.644,83.743 83.16,75.088 79.171,51.386 75.86,31.712 15.495,37.769 8.621,68.553 3.968,89.374 27.774,118.26 52.614,118.26 c 12.22,0 26.315,-11.034 28.952,-25.012 C 83.58,82.589 57.867,86.86 58.791,93.913 l 0,0 z"/></g></g><g id="g5843-8-4-8-7" fill="#fff" fill-opacity="1"><path id="path5845-0-0-5-9" fill="#fff" fill-opacity="1" stroke="none" d="m 4176.2963,1214.4401 c -15.1078,0.4069 -27.0386,5.8367 -35.8126,16.25 -9.0861,10.8369 -13.6562,25.8104 -13.6562,44.9063 0,19.0432 4.5703,33.9757 13.6562,44.8124 9.1305,10.8369 21.6664,16.25 37.6563,16.25 16.034,0 28.6014,-5.4131 37.6875,-16.25 9.0859,-10.8367 13.6251,-25.7692 13.625,-44.8124 -1e-4,-19.0959 -4.5391,-34.0694 -13.625,-44.9063 -9.0861,-10.8366 -21.6536,-16.2499 -37.6875,-16.25 -0.6246,0 -1.2296,-0.016 -1.8437,0 z m 1.125,22 c 0.2415,-0.01 0.4737,0 0.7187,0 7.8833,10e-5 13.9919,3.4114 18.3125,10.25 4.3203,6.8388 6.4999,16.4913 6.5,28.9063 0,12.3623 -2.1799,21.9427 -6.5,28.7812 -4.3204,6.8389 -10.4293,10.2812 -18.3125,10.2812 -7.8391,0 -13.8983,-3.4423 -18.2187,-10.2812 -4.3204,-6.8385 -6.4999,-16.4189 -6.5,-28.7812 0,-12.4149 2.1798,-22.0675 6.5,-28.9063 4.1852,-6.6249 10.0123,-10.0428 17.5,-10.25 z" font-family="Bitstream Vera Sans" font-size="148.7" font-stretch="normal" font-style="normal" font-variant="normal" font-weight="bold" text-anchor="start" writing-mode="lr-tb" style="line-height:125%;text-align:start"/><path id="path5847-4-6-1-8" fill="#fff" fill-opacity="1" stroke="none" d="m 4005.6293,1325.612 c -13.3076,11.1757 -33.1067,11.0472 -41.3549,11.0472 -16.6133,0 -29.7747,-5.471 -39.4842,-16.413 -9.7097,-10.9946 -14.5644,-25.8819 -14.5644,-44.6622 0,-18.9906 4.9438,-33.9305 14.8316,-44.82 9.8878,-10.8892 23.4277,-16.3339 40.62,-16.334 6.6363,10e-5 12.9831,0.7366 19.0406,2.2094 6.1019,1.473 11.8475,3.6562 17.2368,6.5494 l -6.921,20.4608 c -3.0298,-1.6586 -6.4987,-3.2932 -9.7145,-4.4424 -5.4784,-1.8411 -10.979,-2.7617 -16.5018,-2.7618 -10.2442,10e-5 -18.15,3.3932 -23.7173,10.1792 -5.523,6.7336 -8.2844,16.3867 -8.2844,28.9594 0,12.4676 2.6723,22.0945 8.0172,28.8806 5.3446,6.7861 13.3768,10.1791 22.7818,10.1791 9.5548,0 15.4728,-2.4084 18.6291,-4.9461 l 0,-20.3835 -20.7001,0 0,-20.3584 40.0855,0" font-family="Bitstream Vera Sans" font-size="148.7" font-stretch="normal" font-style="normal" font-variant="normal" font-weight="bold" text-anchor="start" writing-mode="lr-tb" style="line-height:125%;text-align:start"/><path id="path5849-2-6-6-0" fill="#fff" fill-opacity="1" stroke="none" d="m 4023.2108,1216.5605 16.2279,0 51.2775,70.8022 0,-70.8022 21.8853,0 0,117.8103 -16.2279,0 -51.2774,-70.8022 0,70.8022 -21.8854,0 0,-117.8103" font-family="Bitstream Vera Sans" font-size="148.7" font-stretch="normal" font-style="normal" font-variant="normal" font-weight="bold" text-anchor="start" writing-mode="lr-tb" style="line-height:125%;text-align:start"/><path id="path5851-0-2-0-7" fill="#fff" fill-opacity="1" stroke="none" d="m 4246.3361,1216.5605 32.7366,0 22.7151,73.5479 22.8487,-73.5479 27.6698,0 12.5,117.8103 -24.3186,0 -7.5,-73.668 -22.9823,74.0213 -16.3015,0 -22.9824,-76.5213 -7.5,76.168 -24.3854,0 12.5,-117.8103" font-family="Bitstream Vera Sans" font-size="148.7" font-stretch="normal" font-style="normal" font-variant="normal" font-weight="bold" text-anchor="start" writing-mode="lr-tb" style="line-height:125%;text-align:start"/><path id="path5853-8-1-9-1" fill="#fff" fill-opacity="1" stroke="none" d="m 4382.3597,1216.5605 69.4147,0 0,22.9624 -43.6933,0 0,24.4365 33.5877,0 0,20.4623 -33.5877,0 0,26.9868 45.1631,0 0,22.9623 -70.8845,0 0,-117.8103" font-family="Bitstream Vera Sans" font-size="148.7" font-stretch="normal" font-style="normal" font-variant="normal" font-weight="bold" text-anchor="start" writing-mode="lr-tb" style="line-height:125%;text-align:start"/><text id="text5855-1-9-0-9" x="4474.618" y="1215.743" fill="#fff" fill-opacity="1" stroke="none" font-family="Bitstream Vera Sans" font-size="30.69" font-style="normal" font-weight="normal" xml:space="preserve"><tspan id="tspan5857-8-2-5-1" x="4474.618" y="1215.743" fill="#fff" fill-opacity="1" letter-spacing="11.063"><tspan id="tspan5859-5-2-3-6" fill="#fff" fill-opacity="1" letter-spacing=".252">TM</tspan></tspan></text></g></g></g></g></g><flowRoot font-weight="normal" style="line-height:125%;text-align:start" id="flowRoot8910-62-1-5" fill="#fff" fill-opacity="1" stroke="none" font-family="Sans" font-size="18.739" font-style="normal" letter-spacing="0" text-anchor="start" transform="matrix(0.60036505,0,0,0.60036505,280.47343,982.95624)" word-spacing="0" xml:space="preserve"><flowRegion id="flowRegion8912-5-8-1"><rect style="text-align:start" id="rect8914-1-7-6" width="299.011" height="119.849" x="-44.504" y="-12.321" fill="#fff" fill-opacity="1" font-size="18.739" text-anchor="start"/></flowRegion><flowPara id="flowPara8932-8-3-7" fill="#fff" fill-opacity="1" font-family="Sans" font-size="18.739" font-stretch="normal" font-style="normal" font-variant="normal" font-weight="bold" text-anchor="start" style="line-height:150%;-inkscape-font-specification:'Sans Bold';text-align:start">AUGUST 7 - 9</flowPara></flowRoot><flowRoot font-weight="normal" style="line-height:125%;text-align:start" id="flowRoot8910-62-1-2-9-1-0" fill="#fff" fill-opacity="1" stroke="none" font-family="Sans" font-size="33.313" font-style="normal" letter-spacing="0" text-anchor="start" transform="matrix(0.60036505,0,0,0.60036505,257.37239,996.32076)" word-spacing="0" xml:space="preserve"><flowRegion id="flowRegion8912-5-8-8-1-4-4"><rect style="text-align:start" id="rect8914-1-7-2-9-6-0" width="244.719" height="61.412" x="-7.804" y="-13.936" fill="#fff" fill-opacity="1" font-size="33.313" text-anchor="start"/></flowRegion><flowPara style="line-height:150%;text-align:start" id="flowPara8932-8-3-2-1-1-2" fill="#fff" fill-opacity="1" font-size="33.313" text-anchor="start">CONFERENCE</flowPara></flowRoot><flowRoot font-weight="normal" style="line-height:125%;text-align:start" id="flowRoot8910-62-1-6-8" fill="#fff" fill-opacity="1" stroke="none" font-family="Sans" font-size="18.739" font-style="normal" letter-spacing="0" text-anchor="start" transform="matrix(0.60036505,0,0,0.60036505,261.55372,981.54562)" word-spacing="0" xml:space="preserve"><flowRegion id="flowRegion8912-5-8-9-1"><rect style="text-align:start" id="rect8914-1-7-0-8" width="232.715" height="93.276" x="274.196" y="-9.971" fill="#fff" fill-opacity="1" font-size="18.739" text-anchor="start"/></flowRegion><flowPara id="flowPara8932-8-3-0-7" fill="#fff" fill-opacity="1" font-family="Sans" font-size="18.739" font-stretch="normal" font-style="normal" font-variant="normal" font-weight="bold" text-anchor="start" style="line-height:150%;-inkscape-font-specification:'Sans Bold';text-align:start">AUGUST 10 - 12</flowPara></flowRoot><flowRoot font-weight="normal" style="line-height:125%;text-align:start" id="flowRoot8910-62-1-2-9-0" fill="#fff" fill-opacity="1" stroke="none" font-family="Sans" font-size="33.313" font-style="normal" letter-spacing="0" text-anchor="start" transform="matrix(0.60036505,0,0,0.60036505,252.40972,403.98559)" word-spacing="0" xml:space="preserve"><flowRegion id="flowRegion8912-5-8-8-1-8"><rect style="text-align:start" id="rect8914-1-7-2-9-1" width="204.903" height="68.004" x="286.247" y="972.69" fill="#fff" fill-opacity="1" font-size="33.313" text-anchor="start"/></flowRegion><flowPara style="line-height:150%;text-align:start" id="flowPara8932-8-3-2-1-6" fill="#fff" fill-opacity="1" font-size="33.313" text-anchor="start">HACKFESTS</flowPara></flowRoot><g id="g6921" transform="translate(116,4)"><path id="path6933-0-4" fill="#fff" fill-opacity="1" fill-rule="nonzero" stroke="none" stroke-width="1" d="m 545.30097,1024.3996 -4.66451,1.8428 0,6.4957 c -4.39618,1.3762 -7.48397,4.558 -9.55937,8.2003 l 28.36713,0 c -2.12313,-3.6382 -4.80317,-6.8845 -9.1217,-8.2464 l 0,-6.4496 -5.02155,-1.8428 z m -2.23436,3.3054 0.8638,0 0,0.8408 -0.8638,0 0,-0.8408 z m 1.91188,0 0.85228,0 0,0.8408 -0.85228,0 0,-0.8408 z m 2.004,0 0.86381,0 0,0.8408 -0.86381,0 0,-0.8408 z m -3.91588,1.8082 0.8638,0 0,0.8523 -0.8638,0 0,-0.8523 z m 1.91188,0 0.85228,0 0,0.8523 -0.85228,0 0,-0.8523 z m 2.004,0 0.86381,0 0,0.8523 -0.86381,0 0,-0.8523 z" color="#000" display="inline" enable-background="accumulate" overflow="visible" visibility="visible" style="marker:none"/><path id="path13201-94-7" fill="#fff" fill-opacity="1" stroke="none" d="m 539.8001,1026.6519 11.48978,0 -5.83115,-3.4546 z"/><path id="path13308-1-2" fill="#fff" fill-opacity="1" stroke="none" d="m 504.77156,994.3049 c -2.74559,3.7288 -4.43418,9.8414 -4.43418,14.6615 l 8.96048,0 c 0,-4.8201 -1.68859,-10.9327 -4.43417,-14.6615 l -0.0921,0 z m -4.43418,14.8343 0,23.046 8.96048,0 0,-23.046 -8.96048,0 z m 4.44569,0.334 c 0.49142,0 0.88684,0.3954 0.88684,0.8868 0,0.4914 -0.39542,0.8868 -0.88684,0.8868 -0.49142,0 -0.89835,-0.3954 -0.89835,-0.8868 0,-0.4914 0.40693,-0.8868 0.89835,-0.8868 z m -2.16525,5.4707 0.96745,0 0,1.313 -0.96745,0 0,-1.313 z m 3.43216,0 0.96745,0 0,1.313 -0.96745,0 0,-1.313 z"/><path id="path13463-4-4" fill="#fff" fill-opacity="1" stroke="none" d="m 485.19319,1032.9784 4.6593,-6.5054 16.96694,0 0,-5.8901 2.81317,-0.1758 4.92303,0.967 1.72362,2.9854 10.84772,0 0.52747,6.509 0,4.7473 -42.72499,0 z"/><path id="path13516-4-2" fill="#fff" fill-opacity="1" stroke="none" d="m 483.55419,1033.8431 42.2013,0 39.40482,4.8652 18.81265,6.0814 -118.87202,0 z"/></g><flowRoot font-weight="normal" style="line-height:125%;text-align:start" id="flowRoot8910-62-1-2-9-0-0-4" fill="#fff" fill-opacity="1" stroke="none" font-family="Sans" font-size="39.481" font-style="normal" letter-spacing="0" text-anchor="start" transform="matrix(0.55086612,0,0,0.55086612,270.49237,1022.8389)" word-spacing="0" xml:space="preserve"><flowRegion id="flowRegion8912-5-8-8-1-8-2-9"><rect style="text-align:start" id="rect8914-1-7-2-9-1-4-3" width="548.44" height="92.828" x="-27.744" y="-8.667" fill="#fff" fill-opacity="1" text-anchor="start"/></flowRegion><flowPara style="line-height:150%;text-align:start" id="flowPara8932-8-3-2-1-6-6-8" fill="#fff" fill-opacity="1" font-size="19.863" text-anchor="start">Full schedule and registration on<flowSpan id="flowSpan6525" font-family="Sans" font-stretch="normal" font-style="normal" font-variant="normal" font-weight="bold" text-anchor="start" style="-inkscape-font-specification:'Sans Bold';text-align:start">www.guadec.org</flowSpan></flowPara></flowRoot></g></svg>