<svg xmlns="http://www.w3.org/2000/svg" xmlns:svg="http://www.w3.org/2000/svg" id="svg8" width="2in" height="2in" version="1.1" viewBox="0 0 2 2"><metadata id="metadata5"/><g id="layer1" transform="translate(0,-246.19998)"><circle marker-start="none" style="isolation:auto;mix-blend-mode:normal;solid-color:#000;solid-opacity:1;marker:none;font-variant-east_asian:normal" id="path7642" cx="1" cy="247.2" r="1" fill="#4a86cf" fill-opacity="1" fill-rule="nonzero" stroke="none" stroke-dasharray="none" stroke-dashoffset="0" stroke-linecap="butt" stroke-linejoin="miter" stroke-miterlimit="4" stroke-opacity="1" stroke-width=".01" marker-end="none" marker-mid="none" clip-rule="nonzero" color="#000" color-interpolation="sRGB" color-interpolation-filters="linearRGB" color-rendering="auto" display="inline" enable-background="accumulate" image-rendering="auto" opacity="1" overflow="visible" paint-order="normal" shape-rendering="auto" text-rendering="auto" vector-effect="none" visibility="visible"/><path id="path9066" fill="#4a86cf" fill-opacity="1" stroke-dasharray="none" stroke-dashoffset="0" stroke-linecap="butt" stroke-linejoin="miter" stroke-miterlimit="4" stroke-opacity="1" stroke-width=".01" d="m -3.8750001,245.03198 c 0,0.17257 -0.1398835,0.31249 -0.3125125,0.31249 -0.1726042,0 -0.3124873,-0.13993 -0.3124873,-0.31249 0,-0.17257 0.1398831,-0.31251 0.3124873,-0.31251 0.1726416,0 0.3125125,0.13994 0.3125125,0.31251 z" opacity="1" vector-effect="none"/><path id="path19157" fill="#01808e" fill-opacity="1" stroke-width=".01" d="m -3.875,247.40698 c 0,0.17257 -0.1398835,0.31249 -0.3125126,0.31249 -0.1726039,0 -0.3124874,-0.13993 -0.3124874,-0.31249 0,-0.17257 0.1398835,-0.31251 0.3124874,-0.31251 0.1726417,0 0.3125126,0.13994 0.3125126,0.31251 z"/><path id="path19143" fill="#f57900" fill-opacity="1" stroke-width=".01" d="m -3.8750002,246.61532 c 0,0.17259 -0.1398834,0.31249 -0.3125124,0.31249 -0.1726042,0 -0.3124872,-0.13992 -0.3124872,-0.31249 0,-0.17257 0.139883,-0.31251 0.3124872,-0.31251 0.1726416,0 0.3125124,0.13994 0.3125124,0.31251 z"/><path id="path19171" fill="#692c52" fill-opacity="1" stroke-width=".01" d="m -3.875,245.82365 c 0,0.17258 -0.1398835,0.31249 -0.3125126,0.31249 -0.1726039,0 -0.3124874,-0.13992 -0.3124874,-0.31249 0,-0.17257 0.1398835,-0.31251 0.3124874,-0.31251 0.1726417,0 0.3125126,0.13994 0.3125126,0.31251 z"/><path id="path19185" fill="#4e9a06" fill-opacity="1" stroke-width=".01" d="m -3.8750002,248.19865 c 0,0.17258 -0.1398834,0.31249 -0.3125123,0.31249 -0.1726043,0 -0.3124873,-0.13993 -0.3124873,-0.31249 0,-0.17257 0.139883,-0.31251 0.3124873,-0.31251 0.1726415,0 0.3125123,0.13994 0.3125123,0.31251 z"/><path id="path19316" fill="#fff" fill-opacity="1" stroke-width=".01" d="m -9.3229166,248.78331 c 0,0.17258 -0.1398834,0.3125 -0.3125125,0.3125 -0.1726042,0 -0.3124872,-0.13993 -0.3124872,-0.3125 0,-0.17256 0.139883,-0.3125 0.3124872,-0.3125 0.1726417,0 0.3125125,0.13994 0.3125125,0.3125 z"/><path id="path19318" fill="gray" fill-opacity="1" stroke-width=".01" d="m -3.875,244.24031 c 0,0.17258 -0.1398835,0.3125 -0.3125126,0.3125 -0.1726039,0 -0.3124874,-0.13993 -0.3124874,-0.3125 0,-0.17256 0.1398835,-0.3125 0.3124874,-0.3125 0.1726417,0 0.3125126,0.13994 0.3125126,0.3125 z"/><path id="path19347" fill="#333" fill-opacity="1" stroke-width=".01" d="m -3.875,243.44864 c 0,0.17258 -0.1398836,0.3125 -0.3125126,0.3125 -0.172604,0 -0.3124874,-0.13993 -0.3124874,-0.3125 0,-0.17256 0.1398834,-0.3125 0.3124874,-0.3125 0.1726416,0 0.3125126,0.13994 0.3125126,0.3125 z"/></g></svg>