<svg xmlns="http://www.w3.org/2000/svg" xmlns:svg="http://www.w3.org/2000/svg" id="svg8" width="166.08" height="192" version="1.1" viewBox="0 0 43.942 50.8"><defs id="defs2"><clipPath id="clipPath11622" clipPathUnits="userSpaceOnUse"><g id="g11624" transform="matrix(0.96968375,0,0,0.96968375,2344.6611,919.3584)"><g id="g11626"><path id="path11628" fill="#2e3436" d="m -1380.549,-396.694 c -11.948,0 -14.193,17.022 -7.469,17.022 6.721,0.001 19.421,-17.022 7.469,-17.022 z"/><path id="path11630" fill="#2e3436" d="m -1400.394,-381.782 c 3.582,0.22 7.508,-13.66 0.78,-12.788 -6.726,0.873 -4.361,12.571 -0.78,12.788 z"/><path id="path11632" fill="#2e3436" d="m -1416.799,-373.157 c 2.545,-1.122 0.327,-12.084 -4.003,-9.092 -4.327,2.991 1.458,10.212 4.003,9.092 z"/><path id="path11634" fill="#2e3436" d="m -1409.627,-378.894 c 3.032,-0.619 3.197,-13.05 -2.206,-10.82 -5.406,2.23 -0.821,11.438 2.206,10.82 z"/><path id="path11636" fill="#2e3436" d="m -1393.798,-351.072 c 0.537,4.105 -3.014,6.134 -6.491,3.487 -11.07,-8.428 18.329,-12.634 16.39,-24.147 -1.606,-9.558 -30.933,-6.617 -34.273,8.34 -2.261,10.114 9.305,24.147 21.371,24.147 5.938,0 12.785,-5.361 14.067,-12.151 0.977,-5.179 -11.514,-3.102 -11.064,0.324 z"/></g></g></clipPath></defs><metadata id="metadata5"/><g id="layer1" transform="translate(0,-246.19998)"><path clip-rule="nonzero" style="isolation:auto;mix-blend-mode:normal;solid-color:#000;solid-opacity:1;marker:none" id="path7642" fill="#75507b" fill-opacity="1" fill-rule="nonzero" stroke="none" stroke-dasharray="none" stroke-dashoffset="0" stroke-linecap="butt" stroke-linejoin="miter" stroke-miterlimit="4" stroke-opacity="1" stroke-width="3.016" marker-end="none" marker-mid="none" marker-start="none" d="m 44.049446,284.29929 -22.007645,12.70612 -22.00764421,-12.70612 1.1e-7,-25.41224 22.0076451,-12.70612 22.007644,12.70612 z" color="#000" color-interpolation="sRGB" color-interpolation-filters="linearRGB" color-rendering="auto" display="inline" enable-background="accumulate" image-rendering="auto" opacity="1" overflow="visible" paint-order="normal" shape-rendering="auto" text-rendering="auto" vector-effect="none" visibility="visible"/><path clip-rule="nonzero" style="isolation:auto;mix-blend-mode:normal;solid-color:#000;solid-opacity:1;marker:none;font-variant-east_asian:normal" id="path10850" fill="#fff" fill-opacity=".185" fill-rule="nonzero" stroke="none" stroke-dasharray="none" stroke-dashoffset="0" stroke-linecap="butt" stroke-linejoin="miter" stroke-miterlimit="4" stroke-opacity="1" stroke-width=".612" marker-end="none" marker-mid="none" marker-start="none" d="M 22.041801,246.18093 0.0341569,258.88705 44.049447,284.29929 v -25.41224 z" color="#000" color-interpolation="sRGB" color-interpolation-filters="linearRGB" color-rendering="auto" display="inline" enable-background="accumulate" image-rendering="auto" opacity=".762" overflow="visible" paint-order="normal" shape-rendering="auto" text-rendering="auto" vector-effect="none" visibility="visible"/><path clip-rule="nonzero" style="isolation:auto;mix-blend-mode:normal;solid-color:#000;solid-opacity:1;marker:none" id="path10866" fill="#fff" fill-opacity="1" fill-rule="nonzero" stroke="none" stroke-dasharray="none" stroke-dashoffset="0" stroke-linecap="butt" stroke-linejoin="miter" stroke-miterlimit="4" stroke-opacity="1" stroke-width=".612" marker-end="none" marker-mid="none" marker-start="none" d="m 21.955181,271.59326 22.007442,12.7062 -22.007442,12.7062 z" color="#000" color-interpolation="sRGB" color-interpolation-filters="linearRGB" color-rendering="auto" display="inline" enable-background="accumulate" image-rendering="auto" opacity=".1" overflow="visible" paint-order="normal" shape-rendering="auto" text-rendering="auto" vector-effect="none" visibility="visible"/><path clip-rule="nonzero" style="isolation:auto;mix-blend-mode:normal;solid-color:#000;solid-opacity:1;marker:none" id="path10885" fill="#fff" fill-opacity="1" fill-rule="nonzero" stroke="none" stroke-dasharray="none" stroke-dashoffset="0" stroke-linecap="butt" stroke-linejoin="miter" stroke-miterlimit="4" stroke-opacity="1" stroke-width=".612" marker-end="none" marker-mid="none" marker-start="none" d="m 44.049446,258.88705 -22.007443,12.7062 22.007443,12.7062 z" color="#000" color-interpolation="sRGB" color-interpolation-filters="linearRGB" color-rendering="auto" display="inline" enable-background="accumulate" image-rendering="auto" opacity=".079" overflow="visible" paint-order="normal" shape-rendering="auto" text-rendering="auto" vector-effect="none" visibility="visible"/><path clip-rule="nonzero" style="isolation:auto;mix-blend-mode:normal;solid-color:#000;solid-opacity:1;marker:none" id="path10887" fill="#fff" fill-opacity="1" fill-rule="nonzero" stroke="none" stroke-dasharray="none" stroke-dashoffset="0" stroke-linecap="butt" stroke-linejoin="miter" stroke-miterlimit="4" stroke-opacity="1" stroke-width=".612" marker-end="none" marker-mid="none" marker-start="none" d="m -0.052261,258.88706 22.007442,12.7062 -22.007442,12.7062 z" color="#000" color-interpolation="sRGB" color-interpolation-filters="linearRGB" color-rendering="auto" display="inline" enable-background="accumulate" image-rendering="auto" opacity=".1" overflow="visible" paint-order="normal" shape-rendering="auto" text-rendering="auto" vector-effect="none" visibility="visible"/><path clip-rule="nonzero" style="isolation:auto;mix-blend-mode:normal;solid-color:#000;solid-opacity:1;marker:none" id="path13567" fill="#5c3566" fill-opacity=".35" fill-rule="nonzero" stroke="none" stroke-dasharray="none" stroke-dashoffset="0" stroke-linecap="butt" stroke-linejoin="miter" stroke-miterlimit="4" stroke-opacity="1" stroke-width="2.598" marker-end="none" marker-mid="none" marker-start="none" d="m 41.003007,282.54043 -18.961206,10.94725 -18.961205,-10.94725 1e-7,-21.89452 18.9612059,-10.94725 18.961205,10.94725 z" color="#000" color-interpolation="sRGB" color-interpolation-filters="linearRGB" color-rendering="auto" display="inline" enable-background="accumulate" image-rendering="auto" opacity="1" overflow="visible" paint-order="normal" shape-rendering="auto" text-rendering="auto" vector-effect="none" visibility="visible"/><g id="g11537" display="inline" transform="matrix(1.5875,0,0,1.5875,-22.494819,-180.31509)"><path id="rect5238" fill="#fff" fill-opacity="1" fill-rule="nonzero" stroke="none" stroke-width="3" d="m 26,278 c -0.549959,0 -1,0.45004 -1,1 v 1 h -3 c -0.552014,0 -1,0.45004 -1,1 v 8 c 0,0.54996 0.447986,1 1,1 h 12 c 0.552014,0 1,-0.45004 1,-1 v -8 c 0,-0.54996 -0.447986,-1 -1,-1 h -3 v -1 c 0,-0.54996 -0.450041,-1 -1,-1 z m 2,3 c 2.209139,0 4,1.79086 4,4 0,2.20914 -1.790861,4 -4,4 -2.209139,0 -4,-1.79086 -4,-4 0,-2.20914 1.790861,-4 4,-4 z m 0,2 c -1.10457,0 -2,0.89543 -2,2 0,1.10457 0.89543,2 2,2 1.10457,0 2,-0.89543 2,-2 0,-1.10457 -0.89543,-2 -2,-2 z" color="#bebebe" display="inline" enable-background="accumulate" overflow="visible" visibility="visible" style="marker:none"/></g></g></svg>