<svg xmlns="http://www.w3.org/2000/svg" xmlns:svg="http://www.w3.org/2000/svg" id="svg2" width="940" height="500" version="1.1"><metadata id="metadata7"/><g id="layer1" transform="translate(0,-552.36217)"><rect id="rect11339-4" width="139.088" height="35.556" x="637.456" y="856.915" fill="#bebebe" fill-opacity="1" fill-rule="nonzero" stroke="none" stroke-width="20" color="#000" display="inline" enable-background="accumulate" overflow="visible" rx="0" ry="0" visibility="visible" style="marker:none"/><rect stroke-linejoin="round" style="marker:none" id="rect7162" width="360" height="223" x="521" y="639.362" fill="#fff" fill-opacity="1" fill-rule="nonzero" stroke="#bebebe" stroke-dasharray="none" stroke-dashoffset="0" stroke-linecap="round" stroke-miterlimit="4" stroke-opacity="1" stroke-width="20" color="#000" display="inline" enable-background="accumulate" overflow="visible" rx="16" ry="16" visibility="visible"/><path id="rect11317" fill="none" stroke="#bebebe" stroke-miterlimit="4" stroke-opacity="1" stroke-width="15" d="m 129.40056,651.67871 0,-43.37964 c 0,-16.45289 13.24552,-29.69855 29.69849,-29.69855 l 140.00713,0 c 16.45295,0 29.69847,13.24566 29.69847,29.69855 l -2e-5,176.77642 c 0,16.4531 13.24554,29.69855 29.6985,29.69855 l 143.4823,0" color="#000" display="inline" enable-background="accumulate" overflow="visible" visibility="visible" style="marker:none"/><rect id="rect10470" width="193.747" height="193.747" x="36.154" y="610.73" fill="#d6d6d1" fill-opacity="1" fill-rule="nonzero" stroke="none" stroke-width=".049" color="#000" display="inline" enable-background="accumulate" overflow="visible" rx="17.678" ry="17.678" visibility="visible" style="marker:none"/><rect id="rect11240" width="162.635" height="17.324" x="51.004" y="770.89" fill="#909090" fill-opacity="1" fill-rule="nonzero" stroke="none" stroke-width="1" color="#000" display="inline" enable-background="accumulate" overflow="visible" rx="8.662" ry="8.662" visibility="visible" style="marker:none"/><rect id="rect6794-5" width="152.626" height="219.835" x="-208.524" y="-1037.753" fill="#729fcf" fill-opacity="1" fill-rule="nonzero" stroke="#3465a4" stroke-dasharray="none" stroke-miterlimit="4" stroke-opacity="1" stroke-width="5" color="#000" display="inline" enable-background="accumulate" overflow="visible" rx="12.143" ry="12.143" transform="scale(-1,-1)" visibility="visible" style="marker:none"/><rect id="rect6805-6" width="44.556" height="44.595" x="-152.791" y="-875.935" fill="#dcdcd7" fill-opacity="1" fill-rule="nonzero" stroke="none" stroke-width="1" color="#000" display="inline" enable-background="accumulate" overflow="visible" rx="6.082" ry="6.082" transform="scale(-1,-1)" visibility="visible" style="marker:none"/><path id="path6837-6" fill="#729fcf" fill-opacity="1" stroke="none" stroke-width="2" d="M 116.875 273.84375 L 116.875 298.6875 L 105.15625 298.6875 L 105.15625 300.6875 L 116.875 300.6875 L 116.875 325.5625 L 118.875 325.5625 L 118.875 300.6875 L 125.90625 300.6875 L 125.90625 325.5625 L 127.90625 325.5625 L 127.90625 300.6875 L 135.40625 300.6875 L 135.40625 325.5625 L 137.40625 325.5625 L 137.40625 300.6875 L 144.21875 300.6875 L 144.21875 325.5625 L 146.21875 325.5625 L 146.21875 300.6875 L 156.84375 300.6875 L 156.84375 298.6875 L 146.21875 298.6875 L 146.21875 273.84375 L 144.21875 273.84375 L 144.21875 298.6875 L 137.40625 298.6875 L 137.40625 273.84375 L 135.40625 273.84375 L 135.40625 298.6875 L 127.90625 298.6875 L 127.90625 273.84375 L 125.90625 273.84375 L 125.90625 298.6875 L 118.875 298.6875 L 118.875 273.84375 L 116.875 273.84375 z" baseline-shift="baseline" color="#000" direction="ltr" display="inline" enable-background="accumulate" font-family="Sans" font-size="medium" font-stretch="normal" font-style="normal" font-variant="normal" font-weight="normal" letter-spacing="normal" overflow="visible" text-anchor="start" text-decoration="none" transform="translate(0,552.36217)" visibility="visible" word-spacing="normal" writing-mode="lr-tb" style="text-indent:0;text-align:start;line-height:normal;text-transform:none;block-progression:tb;marker:none;-inkscape-font-specification:Sans"/><rect id="rect11339" width="190" height="20.056" x="612" y="895.599" fill="#bebebe" fill-opacity="1" fill-rule="nonzero" stroke="none" stroke-width="20" color="#000" display="inline" enable-background="accumulate" overflow="visible" rx="5.093" ry="5.093" visibility="visible" style="marker:none"/><path font-size="medium" style="text-indent:0;text-align:start;line-height:normal;text-transform:none;block-progression:tb;marker:none;-inkscape-font-specification:Sans" id="rect7162-6" fill="#bebebe" fill-opacity="1" fill-rule="nonzero" stroke="none" stroke-width="20" d="m 557,923.375 c -14.23103,0 -20.32572,9.91006 -26,19.89796 l -20,35.20408 c -5.67427,9.98786 11.76897,19.89796 26,19.89796 l 328,0 c 14.23103,0 31.67427,-9.9101 26,-19.89796 L 871,943.27296 C 865.32572,933.28506 859.23103,923.375 845,923.375 z" baseline-shift="baseline" color="#000" direction="ltr" display="inline" enable-background="accumulate" font-family="Sans" font-stretch="normal" font-style="normal" font-variant="normal" font-weight="normal" letter-spacing="normal" overflow="visible" text-anchor="start" text-decoration="none" visibility="visible" word-spacing="normal" writing-mode="lr-tb"/><rect id="rect11424" width="170.953" height="39.887" x="616.312" y="725.85" fill="#729fcf" fill-opacity="1" fill-rule="nonzero" stroke="none" stroke-width="20" color="#000" display="inline" enable-background="accumulate" overflow="visible" visibility="visible" style="marker:none"/><path id="path11578" fill="#fff" fill-opacity="1" fill-rule="nonzero" stroke="none" stroke-width="20" d="m 647.75,193.625 a 9.125,9.125 0 1 1 -18.25,0 9.125,9.125 0 1 1 18.25,0 z" color="#000" display="inline" enable-background="accumulate" overflow="visible" transform="translate(6.25,551.23717)" visibility="visible" style="marker:none"/><path id="path11578-0" fill="#fff" fill-opacity="1" fill-rule="nonzero" stroke="none" stroke-width="20" d="m 647.75,193.625 a 9.125,9.125 0 1 1 -18.25,0 9.125,9.125 0 1 1 18.25,0 z" color="#000" display="inline" enable-background="accumulate" overflow="visible" transform="translate(34.25,551.23717)" visibility="visible" style="marker:none"/><path id="path11578-0-8" fill="#fff" fill-opacity="1" fill-rule="nonzero" stroke="none" stroke-width="20" d="m 647.75,193.625 a 9.125,9.125 0 1 1 -18.25,0 9.125,9.125 0 1 1 18.25,0 z" color="#000" display="inline" enable-background="accumulate" overflow="visible" transform="translate(62.25,551.23717)" visibility="visible" style="marker:none"/><path id="path11578-0-8-7" fill="#fff" fill-opacity="1" fill-rule="nonzero" stroke="none" stroke-width="20" d="m 647.75,193.625 a 9.125,9.125 0 1 1 -18.25,0 9.125,9.125 0 1 1 18.25,0 z" color="#000" display="inline" enable-background="accumulate" overflow="visible" transform="translate(90.25,551.23717)" visibility="visible" style="marker:none"/><path id="path11578-0-8-7-1" fill="#fff" fill-opacity="1" fill-rule="nonzero" stroke="none" stroke-width="20" d="m 647.75,193.625 a 9.125,9.125 0 1 1 -18.25,0 9.125,9.125 0 1 1 18.25,0 z" color="#000" display="inline" enable-background="accumulate" overflow="visible" transform="translate(118.25,551.23717)" visibility="visible" style="marker:none"/><text id="text11726" x="951.611" y="-178.738" fill="#3465a4" fill-opacity="1" stroke="none" font-family="Sans" font-size="5.496" font-style="normal" font-weight="normal" letter-spacing="0" transform="matrix(0,1,-1,0,0,0)" word-spacing="0" xml:space="preserve" style="line-height:125%"><tspan style="-inkscape-font-specification:Sans Bold" id="tspan11728" x="951.611" y="-178.738" fill="#3465a4" fill-opacity="1" font-weight="bold">Rupert Monkey</tspan><tspan id="tspan11732" x="951.611" y="-171.869" fill="#3465a4" fill-opacity="1" font-weight="bold" style="-inkscape-font-specification:Sans Bold">Senior Kernel Hacker</tspan><tspan style="-inkscape-font-specification:Sans Bold" id="tspan11730" x="951.611" y="-164.999" fill="#3465a4" fill-opacity="1" font-weight="bold">Monkey Industries</tspan></text></g></svg>