<svg xmlns="http://www.w3.org/2000/svg" xmlns:svg="http://www.w3.org/2000/svg" id="svg6019" width="1024" height="768" version="1.1"><metadata id="metadata6024"/><g id="layer1"><rect id="rect7002" width="1028" height="1048" x="0" y="0" fill="#fff" fill-opacity="1" fill-rule="nonzero" stroke="#babdb6" stroke-width="2" color="#000" display="inline" enable-background="accumulate" overflow="visible" visibility="visible" style="marker:none"/><rect id="rect6898-8" width="1041.984" height="482.551" x="-7.632" y="564.045" fill="#eeeeec" fill-opacity="1" fill-rule="nonzero" stroke="none" stroke-width="2" color="#000" display="inline" enable-background="accumulate" overflow="visible" visibility="visible" style="marker:none"/><g id="g19089" fill="#2e3436" fill-opacity="1" transform="matrix(2.0751239,0,0,2.0751239,-300.15304,-694.25706)"><g id="g15043" fill="#2e3436" fill-opacity="1" fill-rule="nonzero" stroke="none" transform="matrix(0.4314921,0,0,0.4314921,175.04372,357.6187)"><g id="g15045" fill="#2e3436" fill-opacity="1"><path id="path15047" fill="#2e3436" fill-opacity="1" d="M 86.068,0 C 61.466,0 56.851,35.041 70.691,35.041 84.529,35.041 110.671,0 86.068,0 z"/><path id="path15049" fill="#2e3436" fill-opacity="1" d="M 45.217,30.699 C 52.586,31.149 60.671,2.577 46.821,4.374 32.976,6.171 37.845,30.249 45.217,30.699 z"/><path id="path15051" fill="#2e3436" fill-opacity="1" d="M 11.445,48.453 C 16.686,46.146 12.12,23.581 3.208,29.735 -5.7,35.89 6.204,50.759 11.445,48.453 z"/><path id="path15053" fill="#2e3436" fill-opacity="1" d="M 26.212,36.642 C 32.451,35.37 32.793,9.778 21.667,14.369 10.539,18.961 19.978,37.916 26.212,36.642 l 0,0 z"/><path id="path15055" fill="#2e3436" fill-opacity="1" d="m 58.791,93.913 c 1.107,8.454 -6.202,12.629 -13.36,7.179 C 22.644,83.743 83.16,75.088 79.171,51.386 75.86,31.712 15.495,37.769 8.621,68.553 3.968,89.374 27.774,118.26 52.614,118.26 c 12.22,0 26.315,-11.034 28.952,-25.012 C 83.58,82.589 57.867,86.86 58.791,93.913 l 0,0 z"/></g></g><path id="path15059-5" fill="#2e3436" fill-opacity="1" stroke="none" d="m 266.40838,375.4882 c -2.67361,0.0725 -4.78454,1.03335 -6.3381,2.87533 -1.60665,1.91806 -2.41528,4.56691 -2.41528,7.94652 0,3.369 0.80863,6.01076 2.41528,7.92883 1.61549,1.91806 3.83436,2.87533 6.66368,2.87533 2.8364,0 5.06058,-0.95727 6.66899,-2.87533 1.60665,-1.91807 2.40997,-4.55983 2.40997,-7.92883 0,-3.37961 -0.80332,-6.02846 -2.40997,-7.94652 -1.60841,-1.91806 -3.83259,-2.87533 -6.66899,-2.87533 -0.1097,0 -0.21764,-0.004 -0.32558,0 z m 0.19818,3.89275 c 0.0425,-0.002 0.0849,0 0.1274,0 1.39431,0 2.47543,0.60338 3.23983,1.81367 0.7644,1.21029 1.15013,2.9178 1.15013,5.11543 0,2.18702 -0.38573,3.88214 -1.15013,5.09243 -0.7644,1.21029 -1.84552,1.81898 -3.23983,1.81898 -1.38724,0 -2.45951,-0.60869 -3.22391,-1.81898 -0.76439,-1.21029 -1.15013,-2.90541 -1.15013,-5.09243 0,-2.19763 0.38574,-3.90514 1.15013,-5.11543 0.74139,-1.17136 1.77121,-1.77651 3.09651,-1.81367 z" font-family="Bitstream Vera Sans" font-size="148.7" font-stretch="normal" font-style="normal" font-variant="normal" font-weight="bold" text-anchor="start" style="text-align:start;line-height:125%"/><path id="path15061-6" fill="#2e3436" fill-opacity="1" stroke="none" d="m 236.20947,395.15899 c -2.35511,1.97822 -5.85859,1.95522 -7.31837,1.95522 -2.93903,0 -5.2676,-0.96788 -6.98572,-2.90364 -1.71812,-1.94638 -2.57629,-4.58106 -2.57629,-7.90406 0,-3.36015 0.87409,-6.00368 2.62406,-7.93059 1.74997,-1.92692 4.14579,-2.88949 7.18744,-2.88949 1.17313,0 2.29673,0.13094 3.369,0.39105 1.07935,0.2601 2.09678,0.64761 3.04874,1.15897 l -1.22445,3.62026 c -0.53614,-0.29372 -1.14837,-0.58214 -1.71813,-0.78562 -0.96964,-0.32558 -1.94283,-0.48837 -2.91956,-0.48837 -1.81367,0 -3.21152,0.59984 -4.19709,1.79951 -0.97673,1.1926 -1.46509,2.90011 -1.46509,5.12428 0,2.20649 0.47244,3.91045 1.41732,5.11013 0.94664,1.20144 2.3675,1.80128 4.03076,1.80128 1.69158,0 2.73908,-0.42466 3.29645,-0.8741 l 0,-3.60787 -3.66272,0 0,-3.6008 7.09365,0" font-family="Bitstream Vera Sans" font-size="148.7" font-stretch="normal" font-style="normal" font-variant="normal" font-weight="bold" text-anchor="start" style="text-align:start;line-height:125%"/><path id="path15063-5" fill="#2e3436" fill-opacity="1" stroke="none" d="m 239.32014,375.86332 2.87179,0 9.07365,12.52759 0,-12.52759 3.87152,0 0,20.84569 -2.87179,0 -9.07188,-12.52758 0,12.52758 -3.87329,0 0,-20.84569" font-family="Bitstream Vera Sans" font-size="148.7" font-stretch="normal" font-style="normal" font-variant="normal" font-weight="bold" text-anchor="start" style="text-align:start;line-height:125%"/><path id="path15065-9" fill="#2e3436" fill-opacity="1" stroke="none" d="m 278.80149,375.86332 5.79136,0 4.02014,13.01418 4.04316,-13.01418 4.89602,0 2.21179,20.84569 -4.30326,0 -1.32707,-13.03541 -4.06616,13.09734 -2.88594,0 -4.06616,-13.5397 -1.32708,13.47777 -4.31388,0 2.2118,-20.84569" font-family="Bitstream Vera Sans" font-size="148.7" font-stretch="normal" font-style="normal" font-variant="normal" font-weight="bold" text-anchor="start" style="text-align:start;line-height:125%"/><path id="path15067-9" fill="#2e3436" fill-opacity="1" stroke="none" d="m 302.86931,375.86332 12.28163,0 0,4.06262 -7.73064,0 0,4.32449 5.94352,0 0,3.62026 -5.94352,0 0,4.7757 7.99076,0 0,4.06262 -12.54175,0 0,-20.84569" font-family="Bitstream Vera Sans" font-size="148.7" font-stretch="normal" font-style="normal" font-variant="normal" font-weight="bold" text-anchor="start" style="text-align:start;line-height:125%"/></g><rect id="rect6066" width="599.627" height="43.841" x="401.637" y="84.935" fill="#2e3436" fill-opacity="1" fill-rule="nonzero" stroke="none" stroke-width="2" color="#000" display="inline" enable-background="accumulate" overflow="visible" visibility="visible" style="marker:none"/><flowRoot id="flowRoot6836" fill="#000" fill-opacity="1" stroke="none" font-family="Sans" font-size="40" font-style="normal" font-weight="normal" letter-spacing="0" transform="translate(-15.556349,-2.8284271)" word-spacing="0" xml:space="preserve" style="line-height:125%"><flowRegion id="flowRegion6838"><rect id="rect6840" width="914.164" height="159.713" x="94.752" y="198.072"/></flowRegion><flowPara id="flowPara6842" font-size="40">What we do is important.</flowPara><flowPara id="flowPara6872" font-size="16">Lorem ipsum dolor sit amet, consectetuer adipiscing elit. In consectetuer, lorem eu lobortis egestas, velit odio imperdiet eros, sit amet sagittis nunc mi ac neque. Etiam sodales orci nec ligula. Maecenas convallis dui. Nulla blandit justo a metus.</flowPara></flowRoot><rect id="rect6898" width="1041.984" height="204.551" x="-7.632" y="364.045" fill="#4e9a06" fill-opacity="1" fill-rule="nonzero" stroke="none" stroke-width="2" color="#000" display="inline" enable-background="accumulate" overflow="visible" visibility="visible" style="marker:none"/><flowRoot id="flowRoot6836-9" fill="#eeeeec" fill-opacity="1" stroke="none" font-family="Sans" font-size="40" font-style="normal" font-weight="normal" letter-spacing="0" transform="translate(15.938747,251.12348)" word-spacing="0" xml:space="preserve" style="line-height:125%"><flowRegion id="flowRegion6838-4"><rect id="rect6840-9" width="393.151" height="52.326" x="94.752" y="198.072" fill="#eeeeec"/></flowRegion><flowPara id="flowPara6872-1" fill="#eeeeec" font-size="20">How can I help?</flowPara></flowRoot><rect id="rect6942" width="431.335" height="268.701" x="82.51" y="601.123" fill="#d3d7cf" fill-opacity="1" fill-rule="nonzero" stroke="none" stroke-width="2" color="#000" display="inline" enable-background="accumulate" overflow="visible" visibility="visible" style="marker:none"/><flowRoot id="flowRoot6836-0" fill="#000" fill-opacity="1" stroke="none" font-family="Sans" font-size="40" font-style="normal" font-weight="normal" letter-spacing="0" transform="translate(444.88911,402.01791)" word-spacing="0" xml:space="preserve" style="line-height:125%"><flowRegion id="flowRegion6838-8"><rect id="rect6840-8" width="398.808" height="311.127" x="94.752" y="198.072"/></flowRegion><flowPara id="flowPara6842-0" font-size="20">GNOME 3</flowPara><flowPara id="flowPara6844-5" font-size="16"/><flowPara id="flowPara6870-0" font-size="16">Lorem ipsum dolor sit amet, consectetuer adipiscing elit. In consectetuer, lorem eu lobortis egestas, velit odio imperdiet eros, sit amet sagittis nunc mi ac neque. Etiam sodales orci nec ligula. Maecenas convallis dui. Nulla blandit justo a metus. Nam laoreet dui sed magna. In commodo, dolor quis fermentum ullamcorper, urna massa volutpat massa, vitae mattis purus arcu nec nulla. Donec at diam a tellus dignissim vestibulum.</flowPara><flowPara id="flowPara6872-0" font-size="16"/></flowRoot><flowRoot id="flowRoot6836-8" fill="#eeeeec" fill-opacity="1" stroke="none" font-family="Sans" font-size="40" font-style="normal" font-weight="normal" letter-spacing="0" transform="translate(332.11328,-103.07039)" word-spacing="0" xml:space="preserve" style="line-height:125%"><flowRegion id="flowRegion6838-9"><rect id="rect6840-6" width="43.164" height="27.713" x="94.752" y="198.072" fill="#eeeeec"/></flowRegion><flowPara id="flowPara6872-4" fill="#eeeeec" font-size="16">Blog</flowPara></flowRoot><flowRoot id="flowRoot6836-8-1" fill="#eeeeec" fill-opacity="1" stroke="none" font-family="Sans" font-size="40" font-style="normal" font-weight="normal" letter-spacing="0" transform="translate(385.24322,-103.07039)" word-spacing="0" xml:space="preserve" style="line-height:125%"><flowRegion id="flowRegion6838-9-3"><rect id="rect6840-6-4" width="83.469" height="30.541" x="94.752" y="198.072" fill="#eeeeec"/></flowRegion><flowPara id="flowPara6872-4-6" fill="#eeeeec" font-size="16">GNOME 3</flowPara></flowRoot><flowRoot id="flowRoot6836-8-1-7" fill="#eeeeec" fill-opacity="1" stroke="none" font-family="Sans" font-size="40" font-style="normal" font-weight="normal" letter-spacing="0" transform="translate(481.20159,-103.07039)" word-spacing="0" xml:space="preserve" style="line-height:125%"><flowRegion id="flowRegion6838-9-3-4"><rect id="rect6840-6-4-9" width="101.853" height="30.541" x="94.752" y="198.072" fill="#eeeeec"/></flowRegion><flowPara id="flowPara6872-4-6-0" fill="#eeeeec" font-size="16">Contribute</flowPara></flowRoot><flowRoot id="flowRoot6836-8-1-7-4" fill="#eeeeec" fill-opacity="1" stroke="none" font-family="Sans" font-size="40" font-style="normal" font-weight="normal" letter-spacing="0" transform="translate(583.52392,-103.07039)" word-spacing="0" xml:space="preserve" style="line-height:125%"><flowRegion id="flowRegion6838-9-3-4-8"><rect id="rect6840-6-4-9-2" width="61.548" height="24.177" x="94.752" y="198.072" fill="#eeeeec"/></flowRegion><flowPara id="flowPara6872-4-6-0-0" fill="#eeeeec" font-size="16">About</flowPara></flowRoot><flowRoot id="flowRoot6836-8-1-7-4-3" fill="#eeeeec" fill-opacity="1" stroke="none" font-family="Sans" font-size="40" font-style="normal" font-weight="normal" letter-spacing="0" transform="translate(650.796,-103.07039)" word-spacing="0" xml:space="preserve" style="line-height:125%"><flowRegion id="flowRegion6838-9-3-4-8-3"><rect id="rect6840-6-4-9-2-0" width="107.51" height="24.177" x="94.752" y="198.072" fill="#eeeeec"/></flowRegion><flowPara id="flowPara6872-4-6-0-0-8" fill="#eeeeec" font-size="16">Technologies</flowPara></flowRoot><flowRoot id="flowRoot6836-8-1-7-4-3-0" fill="#eeeeec" fill-opacity="1" stroke="none" font-family="Sans" font-size="40" font-style="normal" font-weight="normal" letter-spacing="0" transform="translate(830.79601,-103.07039)" word-spacing="0" xml:space="preserve" style="line-height:125%"><flowRegion id="flowRegion6838-9-3-4-8-3-0"><rect id="rect6840-6-4-9-2-0-3" width="73.569" height="22.056" x="94.752" y="198.072" fill="#eeeeec"/></flowRegion><flowPara id="flowPara6872-4-6-0-0-8-4" fill="#eeeeec" font-size="16">Search</flowPara></flowRoot><path id="path6230" fill="#2e3436" fill-opacity="1" fill-rule="nonzero" stroke="#eeeeec" stroke-dasharray="none" stroke-dashoffset="0" stroke-linecap="round" stroke-linejoin="round" stroke-miterlimit="4" stroke-opacity="1" stroke-width="3.051" d="m 903,106 a 11.25,11.25 0 1 1 -22.5,0 11.25,11.25 0 1 1 22.5,0 z" color="#000" display="inline" enable-background="accumulate" overflow="visible" transform="matrix(0.65555556,0,0,0.65555556,321.28333,32.636111)" visibility="visible" style="marker:none"/><path id="path6232" fill="none" stroke="#eeeeec" stroke-dasharray="none" stroke-linecap="butt" stroke-linejoin="miter" stroke-miterlimit="4" stroke-opacity="1" stroke-width="2" d="m 910,107.5 8.625,8.625"/><flowRoot id="flowRoot6836-81" fill="#000" fill-opacity="1" stroke="none" font-family="Sans" font-size="40" font-style="normal" font-weight="normal" letter-spacing="0" transform="translate(-15.556349,121.17157)" word-spacing="0" xml:space="preserve" style="line-height:125%"><flowRegion id="flowRegion6838-98"><rect id="rect6840-2" width="194.164" height="43.713" x="94.752" y="198.072"/></flowRegion><flowPara id="flowPara6872-15" font-size="16">Tell me more.</flowPara></flowRoot></g></svg>