<svg xmlns="http://www.w3.org/2000/svg" xmlns:svg="http://www.w3.org/2000/svg" id="svg3230" width="240" height="660" version="1.1" viewBox="0 0 63.5 174.625"><defs id="defs3224"><filter id="filter5568" width="1.024" height="1.072" x="-.012" y="-.036" color-interpolation-filters="sRGB"><feGaussianBlur id="feGaussianBlur5570" stdDeviation="5.556"/></filter></defs><metadata id="metadata3227"/><g id="layer1" transform="translate(0,-122.37496)"><g id="g6087" transform="translate(-11.1125,8.9330949)"><g id="g4578" fill="#2e3436" stroke-width="5.185" filter="url(#filter5568)" opacity=".6" transform="matrix(0.05102824,0,0,0.05102824,22.679531,181.16777)"><g id="g4576" fill="#2e3436" stroke-width="5.185" transform="matrix(1.293235,0,0,1.293235,-4878.321,-1224.915)"><g id="g4556" fill="#2e3436" fill-opacity="1" fill-rule="nonzero" stroke="none" stroke-miterlimit="4" stroke-width="5.185" transform="matrix(2.438586,0,0,2.438586,3659.952,1113.451)"><g id="g4554" fill="#2e3436" fill-opacity="1" stroke-width="5.185"><path id="path4544" fill="#2e3436" fill-opacity="1" stroke-width="5.185" d="M 86.068,0 C 61.466,0 56.851,35.041 70.691,35.041 84.529,35.041 110.671,0 86.068,0 Z"/><path id="path4546" fill="#2e3436" fill-opacity="1" stroke-width="5.185" d="M 45.217,30.699 C 52.586,31.149 60.671,2.577 46.821,4.374 32.976,6.171 37.845,30.249 45.217,30.699 Z"/><path id="path4548" fill="#2e3436" fill-opacity="1" stroke-width="5.185" d="M 11.445,48.453 C 16.686,46.146 12.12,23.581 3.208,29.735 -5.7,35.89 6.204,50.759 11.445,48.453 Z"/><path id="path4550" fill="#2e3436" fill-opacity="1" stroke-width="5.185" d="M 26.212,36.642 C 32.451,35.37 32.793,9.778 21.667,14.369 10.539,18.961 19.978,37.916 26.212,36.642 Z"/><path id="path4552" fill="#2e3436" fill-opacity="1" stroke-width="5.185" d="m 58.791,93.913 c 1.107,8.454 -6.202,12.629 -13.36,7.179 C 22.644,83.743 83.16,75.088 79.171,51.386 75.86,31.712 15.495,37.769 8.621,68.553 3.968,89.374 27.774,118.26 52.614,118.26 c 12.22,0 26.315,-11.034 28.952,-25.012 C 83.58,82.589 57.867,86.86 58.791,93.913 Z"/></g></g><g id="g4574" fill="#2e3436" stroke-width="5.185"><path id="path4558" fill="#2e3436" fill-opacity="1" stroke="none" stroke-linecap="butt" stroke-linejoin="miter" stroke-opacity="1" stroke-width="6.913" d="m 4176.2963,1214.4401 c -15.1078,0.4069 -27.0386,5.8367 -35.8126,16.25 -9.0861,10.8369 -13.6562,25.8104 -13.6562,44.9063 0,19.0432 4.5703,33.9757 13.6562,44.8124 9.1305,10.8369 21.6664,16.25 37.6563,16.25 16.034,0 28.6014,-5.4131 37.6875,-16.25 9.0859,-10.8367 13.6251,-25.7692 13.625,-44.8124 -1e-4,-19.0959 -4.5391,-34.0694 -13.625,-44.9063 -9.0861,-10.8366 -21.6536,-16.2499 -37.6875,-16.25 -0.6246,0 -1.2296,-0.016 -1.8437,0 z m 1.125,22 c 0.2415,-0.01 0.4737,0 0.7187,0 7.8833,10e-5 13.9919,3.4114 18.3125,10.25 4.3203,6.8388 6.4999,16.4913 6.5,28.9063 0,12.3623 -2.1799,21.9427 -6.5,28.7812 -4.3204,6.8389 -10.4293,10.2812 -18.3125,10.2812 -7.8391,0 -13.8983,-3.4423 -18.2187,-10.2812 -4.3204,-6.8385 -6.4999,-16.4189 -6.5,-28.7812 0,-12.4149 2.1798,-22.0675 6.5,-28.9063 4.1852,-6.6249 10.0123,-10.0428 17.5,-10.25 z" font-family="Bitstream Vera Sans" font-size="148.7" font-stretch="normal" font-style="normal" font-variant="normal" font-weight="bold" text-anchor="start" writing-mode="lr-tb" style="line-height:125%;text-align:start"/><path id="path4560" fill="#2e3436" fill-opacity="1" stroke="none" stroke-linecap="butt" stroke-linejoin="miter" stroke-opacity="1" stroke-width="6.913" d="m 4005.6293,1325.612 c -13.3076,11.1757 -33.1067,11.0472 -41.3549,11.0472 -16.6133,0 -29.7747,-5.471 -39.4842,-16.413 -9.7097,-10.9946 -14.5644,-25.8819 -14.5644,-44.6622 0,-18.9906 4.9438,-33.9305 14.8316,-44.82 9.8878,-10.8892 23.4277,-16.3339 40.62,-16.334 6.6363,10e-5 12.9831,0.7366 19.0406,2.2094 6.1019,1.473 11.8475,3.6562 17.2368,6.5494 l -6.921,20.4608 c -3.0298,-1.6586 -6.4987,-3.2932 -9.7145,-4.4424 -5.4784,-1.8411 -10.979,-2.7617 -16.5018,-2.7618 -10.2442,10e-5 -18.15,3.3932 -23.7173,10.1792 -5.523,6.7336 -8.2844,16.3867 -8.2844,28.9594 0,12.4676 2.6723,22.0945 8.0172,28.8806 5.3446,6.7861 13.3768,10.1791 22.7818,10.1791 9.5548,0 15.4728,-2.4084 18.6291,-4.9461 v -20.3835 h -20.7001 v -20.3584 h 40.0855" font-family="Bitstream Vera Sans" font-size="148.7" font-stretch="normal" font-style="normal" font-variant="normal" font-weight="bold" text-anchor="start" writing-mode="lr-tb" style="line-height:125%;text-align:start"/><path id="path4562" fill="#2e3436" fill-opacity="1" stroke="none" stroke-linecap="butt" stroke-linejoin="miter" stroke-opacity="1" stroke-width="6.913" d="m 4023.2108,1216.5605 h 16.2279 l 51.2775,70.8022 v -70.8022 h 21.8853 v 117.8103 h -16.2279 l -51.2774,-70.8022 v 70.8022 h -21.8854 v -117.8103" font-family="Bitstream Vera Sans" font-size="148.7" font-stretch="normal" font-style="normal" font-variant="normal" font-weight="bold" text-anchor="start" writing-mode="lr-tb" style="line-height:125%;text-align:start"/><path id="path4564" fill="#2e3436" fill-opacity="1" stroke="none" stroke-linecap="butt" stroke-linejoin="miter" stroke-opacity="1" stroke-width="6.913" d="m 4246.3361,1216.5605 h 32.7366 l 22.7151,73.5479 22.8487,-73.5479 h 27.6698 l 12.5,117.8103 h -24.3186 l -7.5,-73.668 -22.9823,74.0213 h -16.3015 l -22.9824,-76.5213 -7.5,76.168 h -24.3854 l 12.5,-117.8103" font-family="Bitstream Vera Sans" font-size="148.7" font-stretch="normal" font-style="normal" font-variant="normal" font-weight="bold" text-anchor="start" writing-mode="lr-tb" style="line-height:125%;text-align:start"/><path id="path4566" fill="#2e3436" fill-opacity="1" stroke="none" stroke-linecap="butt" stroke-linejoin="miter" stroke-opacity="1" stroke-width="6.913" d="m 4382.3597,1216.5605 h 69.4147 v 22.9624 h -43.6933 v 24.4365 h 33.5877 v 20.4623 h -33.5877 v 26.9868 h 45.1631 v 22.9623 h -70.8845 v -117.8103" font-family="Bitstream Vera Sans" font-size="148.7" font-stretch="normal" font-style="normal" font-variant="normal" font-weight="bold" text-anchor="start" writing-mode="lr-tb" style="line-height:125%;text-align:start"/><text id="text4572" x="4474.618" y="1215.743" fill="#2e3436" fill-opacity="1" stroke="none" stroke-linecap="butt" stroke-linejoin="miter" stroke-opacity="1" stroke-width="6.913" font-family="Bitstream Vera Sans" font-size="30.69" font-style="normal" font-weight="normal" xml:space="preserve"><tspan id="tspan4570" x="4474.618" y="1215.743" fill="#2e3436" stroke-width="6.913" letter-spacing="11.063"><tspan id="tspan4568" fill="#2e3436" stroke-width="6.913" letter-spacing=".252">TM</tspan></tspan></text></g></g></g><g id="g4534" fill="#555753" fill-opacity="1" stroke-width="5.185" transform="matrix(0.05102824,0,0,0.05102824,22.679531,180.81141)"><g id="g4532" fill="#555753" fill-opacity="1" stroke-width="5.185" transform="matrix(1.293235,0,0,1.293235,-4878.321,-1224.915)"><g id="g4512" fill="#555753" fill-opacity="1" fill-rule="nonzero" stroke="none" stroke-miterlimit="4" stroke-width="5.185" transform="matrix(2.438586,0,0,2.438586,3659.952,1113.451)"><g id="g4510" fill="#555753" fill-opacity="1" stroke-width="5.185"><path id="path4500" fill="#555753" fill-opacity="1" stroke-width="5.185" d="M 86.068,0 C 61.466,0 56.851,35.041 70.691,35.041 84.529,35.041 110.671,0 86.068,0 Z"/><path id="path4502" fill="#555753" fill-opacity="1" stroke-width="5.185" d="M 45.217,30.699 C 52.586,31.149 60.671,2.577 46.821,4.374 32.976,6.171 37.845,30.249 45.217,30.699 Z"/><path id="path4504" fill="#555753" fill-opacity="1" stroke-width="5.185" d="M 11.445,48.453 C 16.686,46.146 12.12,23.581 3.208,29.735 -5.7,35.89 6.204,50.759 11.445,48.453 Z"/><path id="path4506" fill="#555753" fill-opacity="1" stroke-width="5.185" d="M 26.212,36.642 C 32.451,35.37 32.793,9.778 21.667,14.369 10.539,18.961 19.978,37.916 26.212,36.642 Z"/><path id="path4508" fill="#555753" fill-opacity="1" stroke-width="5.185" d="m 58.791,93.913 c 1.107,8.454 -6.202,12.629 -13.36,7.179 C 22.644,83.743 83.16,75.088 79.171,51.386 75.86,31.712 15.495,37.769 8.621,68.553 3.968,89.374 27.774,118.26 52.614,118.26 c 12.22,0 26.315,-11.034 28.952,-25.012 C 83.58,82.589 57.867,86.86 58.791,93.913 Z"/></g></g><g id="g4530" fill="#555753" fill-opacity="1" stroke-width="5.185"><path id="path4514" fill="#555753" fill-opacity="1" stroke="none" stroke-linecap="butt" stroke-linejoin="miter" stroke-opacity="1" stroke-width="6.913" d="m 4176.2963,1214.4401 c -15.1078,0.4069 -27.0386,5.8367 -35.8126,16.25 -9.0861,10.8369 -13.6562,25.8104 -13.6562,44.9063 0,19.0432 4.5703,33.9757 13.6562,44.8124 9.1305,10.8369 21.6664,16.25 37.6563,16.25 16.034,0 28.6014,-5.4131 37.6875,-16.25 9.0859,-10.8367 13.6251,-25.7692 13.625,-44.8124 -1e-4,-19.0959 -4.5391,-34.0694 -13.625,-44.9063 -9.0861,-10.8366 -21.6536,-16.2499 -37.6875,-16.25 -0.6246,0 -1.2296,-0.016 -1.8437,0 z m 1.125,22 c 0.2415,-0.01 0.4737,0 0.7187,0 7.8833,10e-5 13.9919,3.4114 18.3125,10.25 4.3203,6.8388 6.4999,16.4913 6.5,28.9063 0,12.3623 -2.1799,21.9427 -6.5,28.7812 -4.3204,6.8389 -10.4293,10.2812 -18.3125,10.2812 -7.8391,0 -13.8983,-3.4423 -18.2187,-10.2812 -4.3204,-6.8385 -6.4999,-16.4189 -6.5,-28.7812 0,-12.4149 2.1798,-22.0675 6.5,-28.9063 4.1852,-6.6249 10.0123,-10.0428 17.5,-10.25 z" font-family="Bitstream Vera Sans" font-size="148.7" font-stretch="normal" font-style="normal" font-variant="normal" font-weight="bold" text-anchor="start" writing-mode="lr-tb" style="line-height:125%;text-align:start"/><path id="path4516" fill="#555753" fill-opacity="1" stroke="none" stroke-linecap="butt" stroke-linejoin="miter" stroke-opacity="1" stroke-width="6.913" d="m 4005.6293,1325.612 c -13.3076,11.1757 -33.1067,11.0472 -41.3549,11.0472 -16.6133,0 -29.7747,-5.471 -39.4842,-16.413 -9.7097,-10.9946 -14.5644,-25.8819 -14.5644,-44.6622 0,-18.9906 4.9438,-33.9305 14.8316,-44.82 9.8878,-10.8892 23.4277,-16.3339 40.62,-16.334 6.6363,10e-5 12.9831,0.7366 19.0406,2.2094 6.1019,1.473 11.8475,3.6562 17.2368,6.5494 l -6.921,20.4608 c -3.0298,-1.6586 -6.4987,-3.2932 -9.7145,-4.4424 -5.4784,-1.8411 -10.979,-2.7617 -16.5018,-2.7618 -10.2442,10e-5 -18.15,3.3932 -23.7173,10.1792 -5.523,6.7336 -8.2844,16.3867 -8.2844,28.9594 0,12.4676 2.6723,22.0945 8.0172,28.8806 5.3446,6.7861 13.3768,10.1791 22.7818,10.1791 9.5548,0 15.4728,-2.4084 18.6291,-4.9461 v -20.3835 h -20.7001 v -20.3584 h 40.0855" font-family="Bitstream Vera Sans" font-size="148.7" font-stretch="normal" font-style="normal" font-variant="normal" font-weight="bold" text-anchor="start" writing-mode="lr-tb" style="line-height:125%;text-align:start"/><path id="path4518" fill="#555753" fill-opacity="1" stroke="none" stroke-linecap="butt" stroke-linejoin="miter" stroke-opacity="1" stroke-width="6.913" d="m 4023.2108,1216.5605 h 16.2279 l 51.2775,70.8022 v -70.8022 h 21.8853 v 117.8103 h -16.2279 l -51.2774,-70.8022 v 70.8022 h -21.8854 v -117.8103" font-family="Bitstream Vera Sans" font-size="148.7" font-stretch="normal" font-style="normal" font-variant="normal" font-weight="bold" text-anchor="start" writing-mode="lr-tb" style="line-height:125%;text-align:start"/><path id="path4520" fill="#555753" fill-opacity="1" stroke="none" stroke-linecap="butt" stroke-linejoin="miter" stroke-opacity="1" stroke-width="6.913" d="m 4246.3361,1216.5605 h 32.7366 l 22.7151,73.5479 22.8487,-73.5479 h 27.6698 l 12.5,117.8103 h -24.3186 l -7.5,-73.668 -22.9823,74.0213 h -16.3015 l -22.9824,-76.5213 -7.5,76.168 h -24.3854 l 12.5,-117.8103" font-family="Bitstream Vera Sans" font-size="148.7" font-stretch="normal" font-style="normal" font-variant="normal" font-weight="bold" text-anchor="start" writing-mode="lr-tb" style="line-height:125%;text-align:start"/><path id="path4522" fill="#555753" fill-opacity="1" stroke="none" stroke-linecap="butt" stroke-linejoin="miter" stroke-opacity="1" stroke-width="6.913" d="m 4382.3597,1216.5605 h 69.4147 v 22.9624 h -43.6933 v 24.4365 h 33.5877 v 20.4623 h -33.5877 v 26.9868 h 45.1631 v 22.9623 h -70.8845 v -117.8103" font-family="Bitstream Vera Sans" font-size="148.7" font-stretch="normal" font-style="normal" font-variant="normal" font-weight="bold" text-anchor="start" writing-mode="lr-tb" style="line-height:125%;text-align:start"/><text id="text4528" x="4474.618" y="1215.743" fill="#555753" fill-opacity="1" stroke="none" stroke-linecap="butt" stroke-linejoin="miter" stroke-opacity="1" stroke-width="6.913" font-family="Bitstream Vera Sans" font-size="30.69" font-style="normal" font-weight="normal" xml:space="preserve"><tspan id="tspan4526" x="4474.618" y="1215.743" fill="#555753" fill-opacity="1" stroke-width="6.913" letter-spacing="11.063"><tspan id="tspan4524" fill="#555753" fill-opacity="1" stroke-width="6.913" letter-spacing=".252">TM</tspan></tspan></text></g></g></g></g><g id="g5281" fill="#2e3436" stroke-width="5.185" transform="matrix(0.05102824,0,0,0.05102824,11.567035,152.24515)"><g id="g5279" fill="#2e3436" stroke-width="5.185" transform="matrix(1.293235,0,0,1.293235,-4878.321,-1224.915)"><g id="g5259" fill="#2e3436" fill-opacity="1" fill-rule="nonzero" stroke="none" stroke-miterlimit="4" stroke-width="5.185" transform="matrix(2.438586,0,0,2.438586,3659.952,1113.451)"><g id="g5257" fill="#2e3436" fill-opacity="1" stroke-width="5.185"><path id="path5247" fill="#2e3436" fill-opacity="1" stroke-width="5.185" d="M 86.068,0 C 61.466,0 56.851,35.041 70.691,35.041 84.529,35.041 110.671,0 86.068,0 Z"/><path id="path5249" fill="#2e3436" fill-opacity="1" stroke-width="5.185" d="M 45.217,30.699 C 52.586,31.149 60.671,2.577 46.821,4.374 32.976,6.171 37.845,30.249 45.217,30.699 Z"/><path id="path5251" fill="#2e3436" fill-opacity="1" stroke-width="5.185" d="M 11.445,48.453 C 16.686,46.146 12.12,23.581 3.208,29.735 -5.7,35.89 6.204,50.759 11.445,48.453 Z"/><path id="path5253" fill="#2e3436" fill-opacity="1" stroke-width="5.185" d="M 26.212,36.642 C 32.451,35.37 32.793,9.778 21.667,14.369 10.539,18.961 19.978,37.916 26.212,36.642 Z"/><path id="path5255" fill="#2e3436" fill-opacity="1" stroke-width="5.185" d="m 58.791,93.913 c 1.107,8.454 -6.202,12.629 -13.36,7.179 C 22.644,83.743 83.16,75.088 79.171,51.386 75.86,31.712 15.495,37.769 8.621,68.553 3.968,89.374 27.774,118.26 52.614,118.26 c 12.22,0 26.315,-11.034 28.952,-25.012 C 83.58,82.589 57.867,86.86 58.791,93.913 Z"/></g></g><g id="g5277" fill="#2e3436" stroke-width="5.185"><path id="path5261" fill="#2e3436" fill-opacity="1" stroke="none" stroke-linecap="butt" stroke-linejoin="miter" stroke-opacity="1" stroke-width="6.913" d="m 4176.2963,1214.4401 c -15.1078,0.4069 -27.0386,5.8367 -35.8126,16.25 -9.0861,10.8369 -13.6562,25.8104 -13.6562,44.9063 0,19.0432 4.5703,33.9757 13.6562,44.8124 9.1305,10.8369 21.6664,16.25 37.6563,16.25 16.034,0 28.6014,-5.4131 37.6875,-16.25 9.0859,-10.8367 13.6251,-25.7692 13.625,-44.8124 -1e-4,-19.0959 -4.5391,-34.0694 -13.625,-44.9063 -9.0861,-10.8366 -21.6536,-16.2499 -37.6875,-16.25 -0.6246,0 -1.2296,-0.016 -1.8437,0 z m 1.125,22 c 0.2415,-0.01 0.4737,0 0.7187,0 7.8833,10e-5 13.9919,3.4114 18.3125,10.25 4.3203,6.8388 6.4999,16.4913 6.5,28.9063 0,12.3623 -2.1799,21.9427 -6.5,28.7812 -4.3204,6.8389 -10.4293,10.2812 -18.3125,10.2812 -7.8391,0 -13.8983,-3.4423 -18.2187,-10.2812 -4.3204,-6.8385 -6.4999,-16.4189 -6.5,-28.7812 0,-12.4149 2.1798,-22.0675 6.5,-28.9063 4.1852,-6.6249 10.0123,-10.0428 17.5,-10.25 z" font-family="Bitstream Vera Sans" font-size="148.7" font-stretch="normal" font-style="normal" font-variant="normal" font-weight="bold" text-anchor="start" writing-mode="lr-tb" style="line-height:125%;text-align:start"/><path id="path5263" fill="#2e3436" fill-opacity="1" stroke="none" stroke-linecap="butt" stroke-linejoin="miter" stroke-opacity="1" stroke-width="6.913" d="m 4005.6293,1325.612 c -13.3076,11.1757 -33.1067,11.0472 -41.3549,11.0472 -16.6133,0 -29.7747,-5.471 -39.4842,-16.413 -9.7097,-10.9946 -14.5644,-25.8819 -14.5644,-44.6622 0,-18.9906 4.9438,-33.9305 14.8316,-44.82 9.8878,-10.8892 23.4277,-16.3339 40.62,-16.334 6.6363,10e-5 12.9831,0.7366 19.0406,2.2094 6.1019,1.473 11.8475,3.6562 17.2368,6.5494 l -6.921,20.4608 c -3.0298,-1.6586 -6.4987,-3.2932 -9.7145,-4.4424 -5.4784,-1.8411 -10.979,-2.7617 -16.5018,-2.7618 -10.2442,10e-5 -18.15,3.3932 -23.7173,10.1792 -5.523,6.7336 -8.2844,16.3867 -8.2844,28.9594 0,12.4676 2.6723,22.0945 8.0172,28.8806 5.3446,6.7861 13.3768,10.1791 22.7818,10.1791 9.5548,0 15.4728,-2.4084 18.6291,-4.9461 v -20.3835 h -20.7001 v -20.3584 h 40.0855" font-family="Bitstream Vera Sans" font-size="148.7" font-stretch="normal" font-style="normal" font-variant="normal" font-weight="bold" text-anchor="start" writing-mode="lr-tb" style="line-height:125%;text-align:start"/><path id="path5265" fill="#2e3436" fill-opacity="1" stroke="none" stroke-linecap="butt" stroke-linejoin="miter" stroke-opacity="1" stroke-width="6.913" d="m 4023.2108,1216.5605 h 16.2279 l 51.2775,70.8022 v -70.8022 h 21.8853 v 117.8103 h -16.2279 l -51.2774,-70.8022 v 70.8022 h -21.8854 v -117.8103" font-family="Bitstream Vera Sans" font-size="148.7" font-stretch="normal" font-style="normal" font-variant="normal" font-weight="bold" text-anchor="start" writing-mode="lr-tb" style="line-height:125%;text-align:start"/><path id="path5267" fill="#2e3436" fill-opacity="1" stroke="none" stroke-linecap="butt" stroke-linejoin="miter" stroke-opacity="1" stroke-width="6.913" d="m 4246.3361,1216.5605 h 32.7366 l 22.7151,73.5479 22.8487,-73.5479 h 27.6698 l 12.5,117.8103 h -24.3186 l -7.5,-73.668 -22.9823,74.0213 h -16.3015 l -22.9824,-76.5213 -7.5,76.168 h -24.3854 l 12.5,-117.8103" font-family="Bitstream Vera Sans" font-size="148.7" font-stretch="normal" font-style="normal" font-variant="normal" font-weight="bold" text-anchor="start" writing-mode="lr-tb" style="line-height:125%;text-align:start"/><path id="path5269" fill="#2e3436" fill-opacity="1" stroke="none" stroke-linecap="butt" stroke-linejoin="miter" stroke-opacity="1" stroke-width="6.913" d="m 4382.3597,1216.5605 h 69.4147 v 22.9624 h -43.6933 v 24.4365 h 33.5877 v 20.4623 h -33.5877 v 26.9868 h 45.1631 v 22.9623 h -70.8845 v -117.8103" font-family="Bitstream Vera Sans" font-size="148.7" font-stretch="normal" font-style="normal" font-variant="normal" font-weight="bold" text-anchor="start" writing-mode="lr-tb" style="line-height:125%;text-align:start"/><text id="text5275" x="4474.618" y="1215.743" fill="#2e3436" fill-opacity="1" stroke="none" stroke-linecap="butt" stroke-linejoin="miter" stroke-opacity="1" stroke-width="6.913" font-family="Bitstream Vera Sans" font-size="30.69" font-style="normal" font-weight="normal" xml:space="preserve"><tspan id="tspan5273" x="4474.618" y="1215.743" fill="#2e3436" stroke-width="6.913" letter-spacing="11.063"><tspan id="tspan5271" fill="#2e3436" stroke-width="6.913" letter-spacing=".252">TM</tspan></tspan></text></g></g></g><g font-family="PT Sans" style="line-height:6.00000048px;-inkscape-font-specification:'PT Sans Bold'" id="flowRoot5289" fill="#000" fill-opacity="1" stroke="none" stroke-linecap="butt" stroke-linejoin="miter" stroke-opacity="1" stroke-width="1.11" aria-label="www.gnome.org" font-size="40" font-stretch="normal" font-style="normal" font-variant="normal" font-weight="bold" letter-spacing="0" transform="matrix(0.23837693,0,0,0.23837693,-20.667198,129.22634)" word-spacing="0"><path font-stretch="normal" style="-inkscape-font-specification:'PT Sans'" id="path6139" stroke-width=".738" d="m 181.61952,217.54624 1.89836,4.82019 0.41269,1.58473 h 0.033 l 0.31364,-1.61774 1.46917,-4.78718 h 1.25457 l -2.77326,8.43534 h -0.6438 l -2.16248,-5.44748 -0.31365,-1.35362 h -0.0495 l -0.33015,1.37013 -2.07995,5.43097 h -0.64379 l -2.87231,-8.43534 h 1.43616 l 1.63424,4.80369 0.28063,1.60123 h 0.0165 l 0.39618,-1.63425 1.7663,-4.77067 z" font-family="PT Sans" font-size="16.508" font-style="normal" font-variant="normal" font-weight="normal" letter-spacing="2.857"/><path font-stretch="normal" style="-inkscape-font-specification:'PT Sans'" id="path6141" stroke-width=".738" d="m 196.5993,217.54624 1.89837,4.82019 0.41269,1.58473 h 0.033 l 0.31365,-1.61774 1.46917,-4.78718 h 1.25457 l -2.77327,8.43534 h -0.64379 l -2.16249,-5.44748 -0.31364,-1.35362 h -0.0495 l -0.33015,1.37013 -2.07995,5.43097 h -0.64379 l -2.87231,-8.43534 h 1.43615 l 1.63425,4.80369 0.28062,1.60123 h 0.0165 l 0.39618,-1.63425 1.76631,-4.77067 z" font-family="PT Sans" font-size="16.508" font-style="normal" font-variant="normal" font-weight="normal" letter-spacing="2.857"/><path font-stretch="normal" style="-inkscape-font-specification:'PT Sans'" id="path6143" stroke-width=".738" d="m 211.57909,217.54624 1.89837,4.82019 0.41269,1.58473 h 0.033 l 0.31364,-1.61774 1.46917,-4.78718 h 1.25458 l -2.77327,8.43534 h -0.64379 l -2.16249,-5.44748 -0.31364,-1.35362 h -0.0495 l -0.33015,1.37013 -2.07995,5.43097 h -0.6438 l -2.87231,-8.43534 h 1.43616 l 1.63424,4.80369 0.28063,1.60123 h 0.0165 l 0.39618,-1.63425 1.76631,-4.77067 z" font-family="PT Sans" font-size="16.508" font-style="normal" font-variant="normal" font-weight="normal" letter-spacing="2.857"/><path font-stretch="normal" style="-inkscape-font-specification:'PT Sans'" id="path6145" stroke-width=".738" d="m 219.71651,225.04065 q 0,-0.4457 0.24761,-0.69331 0.26412,-0.26412 0.69332,-0.26412 0.4457,0 0.70982,0.26412 0.26412,0.24761 0.26412,0.69331 0,0.4292 -0.26412,0.69332 -0.26412,0.26412 -0.70982,0.26412 -0.4292,0 -0.69332,-0.26412 -0.24761,-0.26412 -0.24761,-0.69332 z" font-family="PT Sans" font-size="16.508" font-style="normal" font-variant="normal" font-weight="normal" letter-spacing="2.857"/><path font-stretch="normal" style="-inkscape-font-specification:'PT Sans'" id="path6147" stroke-width=".738" d="m 232.90471,226.17967 q 0,1.60123 -0.85839,2.36058 -0.84188,0.75935 -2.50914,0.75935 -0.99046,0 -1.60123,-0.13206 -0.59428,-0.11556 -1.02347,-0.31365 l 0.34666,-1.12251 q 0.37967,0.14857 0.84188,0.28063 0.46221,0.13206 1.20505,0.13206 0.69332,0 1.12251,-0.13206 0.44571,-0.11555 0.70983,-0.41269 0.26412,-0.28063 0.36316,-0.74284 0.0991,-0.4457 0.0991,-1.07299 v -0.79236 h -0.066 q -0.33015,0.47872 -0.84189,0.74284 -0.51173,0.24761 -1.33711,0.24761 -1.66726,0 -2.45962,-1.03997 -0.77585,-1.03998 -0.77585,-3.23548 0,-2.11296 1.00696,-3.20246 1.00696,-1.106 2.97135,-1.106 0.94093,0 1.60123,0.14857 0.67681,0.14856 1.20505,0.34665 z m -3.31801,-1.35361 q 0.84188,0 1.3206,-0.41269 0.47872,-0.4292 0.67681,-1.3206 v -4.22593 q -0.6603,-0.31364 -1.68377,-0.31364 -1.12251,0 -1.7663,0.75934 -0.6438,0.75935 -0.6438,2.37709 0,0.69331 0.11555,1.27108 0.11556,0.57776 0.36317,0.99045 0.24761,0.41269 0.64379,0.64379 0.39618,0.23111 0.97395,0.23111 z" font-family="PT Sans" font-size="16.508" font-style="normal" font-variant="normal" font-weight="normal" letter-spacing="2.857"/><path font-stretch="normal" style="-inkscape-font-specification:'PT Sans'" id="path6149" stroke-width=".738" d="m 243.60466,225.8 v -4.70464 q 0,-1.28759 -0.37967,-1.93139 -0.36317,-0.6603 -1.35362,-0.6603 -0.8749,0 -1.45266,0.47872 -0.56126,0.46221 -0.79236,1.17204 V 225.8 h -1.3206 v -8.25376 h 0.92442 l 0.24761,1.00696 h 0.066 q 0.39618,-0.52824 1.05648,-0.8584 0.67681,-0.34665 1.60123,-0.34665 0.67681,0 1.18855,0.16507 0.51173,0.14857 0.84188,0.54475 0.34666,0.39618 0.51173,1.07299 0.18159,0.6603 0.18159,1.68377 V 225.8 Z" font-family="PT Sans" font-size="16.508" font-style="normal" font-variant="normal" font-weight="normal" letter-spacing="2.857"/><path font-stretch="normal" style="-inkscape-font-specification:'PT Sans'" id="path6151" stroke-width=".738" d="m 249.72817,221.67312 q 0,-2.09646 0.92442,-3.20246 0.94093,-1.12251 2.69072,-1.12251 0.92442,0 1.60123,0.31364 0.69332,0.29714 1.13902,0.8749 0.44571,0.56125 0.6603,1.37012 0.2146,0.79236 0.2146,1.76631 0,2.09645 -0.94093,3.21897 -0.92442,1.106 -2.67422,1.106 -0.92442,0 -1.61773,-0.29714 -0.67681,-0.31364 -1.12252,-0.87489 -0.4457,-0.57777 -0.6603,-1.37013 -0.21459,-0.80887 -0.21459,-1.78281 z m 1.37012,0 q 0,0.62728 0.11555,1.20505 0.13206,0.57776 0.39618,1.00696 0.26412,0.42919 0.69332,0.69331 0.42919,0.26412 1.03997,0.26412 2.24503,0.0165 2.24503,-3.16944 0,-0.6438 -0.13206,-1.22156 -0.11556,-0.57776 -0.37968,-1.00696 -0.26412,-0.42919 -0.69331,-0.67681 -0.4292,-0.26412 -1.03998,-0.26412 -2.24502,-0.0165 -2.24502,3.16945 z" font-family="PT Sans" font-size="16.508" font-style="normal" font-variant="normal" font-weight="normal" letter-spacing="2.857"/><path font-stretch="normal" style="-inkscape-font-specification:'PT Sans'" id="path6153" stroke-width=".738" d="m 266.71826,225.8 v -4.67163 q 0,-0.6603 -0.066,-1.13902 -0.0495,-0.49522 -0.2146,-0.82538 -0.16507,-0.33015 -0.47872,-0.49522 -0.29713,-0.16508 -0.79236,-0.16508 -0.75935,0 -1.27108,0.46221 -0.49522,0.46221 -0.69331,1.15553 V 225.8 h -1.32061 v -8.25376 h 0.92442 l 0.24762,1.00696 h 0.066 q 0.4457,-0.52824 1.02346,-0.8584 0.59428,-0.34665 1.5352,-0.34665 0.79237,0 1.28759,0.31364 0.51173,0.29714 0.79236,1.05648 0.37968,-0.64379 1.03998,-1.00696 0.67681,-0.36316 1.51869,-0.36316 0.69332,0 1.17203,0.16507 0.47872,0.14857 0.79236,0.54475 0.31365,0.39618 0.44571,1.07299 0.14857,0.67681 0.14857,1.71678 V 225.8 h -1.32061 v -4.96877 q 0,-0.59427 -0.066,-1.02346 -0.0495,-0.44571 -0.2311,-0.72633 -0.16508,-0.29714 -0.47872,-0.4292 -0.29714,-0.14857 -0.79236,-0.14857 -0.82538,0 -1.28759,0.46221 -0.46221,0.46221 -0.6603,1.32061 V 225.8 Z" font-family="PT Sans" font-size="16.508" font-style="normal" font-variant="normal" font-weight="normal" letter-spacing="2.857"/><path font-stretch="normal" style="-inkscape-font-specification:'PT Sans'" id="path6155" stroke-width=".738" d="m 284.17623,225.1397 q -0.49522,0.39618 -1.25457,0.62729 -0.74284,0.2311 -1.58472,0.2311 -0.94093,0 -1.63425,-0.29714 -0.69331,-0.31364 -1.13902,-0.87489 -0.4457,-0.57777 -0.6603,-1.37013 -0.2146,-0.79236 -0.2146,-1.78281 0,-2.11296 0.94093,-3.21897 0.94093,-1.106 2.69073,-1.106 0.56126,0 1.12251,0.13206 0.56126,0.11555 1.00696,0.46221 0.4457,0.34666 0.72633,0.99045 0.28063,0.62729 0.28063,1.66726 0,0.54475 -0.099,1.20505 h -5.29892 q 0,0.72633 0.14857,1.28759 0.14856,0.56125 0.46221,0.95743 0.31364,0.37968 0.80887,0.59427 0.51173,0.19809 1.23806,0.19809 0.56126,0 1.12251,-0.19809 0.56126,-0.19809 0.84189,-0.46221 z m -2.83929,-6.63603 q -0.97395,0 -1.56822,0.51174 -0.57776,0.51173 -0.69331,1.74979 h 4.09386 q 0,-1.25457 -0.47872,-1.74979 -0.47871,-0.51174 -1.35361,-0.51174 z" font-family="PT Sans" font-size="16.508" font-style="normal" font-variant="normal" font-weight="normal" letter-spacing="2.857"/><path font-stretch="normal" style="-inkscape-font-specification:'PT Sans'" id="path6157" stroke-width=".738" d="m 288.92858,225.04065 q 0,-0.4457 0.24761,-0.69331 0.26412,-0.26412 0.69332,-0.26412 0.4457,0 0.70982,0.26412 0.26412,0.24761 0.26412,0.69331 0,0.4292 -0.26412,0.69332 -0.26412,0.26412 -0.70982,0.26412 -0.4292,0 -0.69332,-0.26412 -0.24761,-0.26412 -0.24761,-0.69332 z" font-family="PT Sans" font-size="16.508" font-style="normal" font-variant="normal" font-weight="normal" letter-spacing="2.857"/><path font-stretch="normal" style="-inkscape-font-specification:'PT Sans'" id="path6159" stroke-width=".738" d="m 295.33219,221.67312 q 0,-2.09646 0.92442,-3.20246 0.94093,-1.12251 2.69073,-1.12251 0.92442,0 1.60123,0.31364 0.69332,0.29714 1.13902,0.8749 0.4457,0.56125 0.6603,1.37012 0.2146,0.79236 0.2146,1.76631 0,2.09645 -0.94093,3.21897 -0.92442,1.106 -2.67422,1.106 -0.92442,0 -1.61774,-0.29714 -0.67681,-0.31364 -1.12251,-0.87489 -0.4457,-0.57777 -0.6603,-1.37013 -0.2146,-0.80887 -0.2146,-1.78281 z m 1.37013,0 q 0,0.62728 0.11555,1.20505 0.13206,0.57776 0.39618,1.00696 0.26412,0.42919 0.69332,0.69331 0.42919,0.26412 1.03997,0.26412 2.24502,0.0165 2.24502,-3.16944 0,-0.6438 -0.13206,-1.22156 -0.11555,-0.57776 -0.37967,-1.00696 -0.26412,-0.42919 -0.69332,-0.67681 -0.42919,-0.26412 -1.03997,-0.26412 -2.24502,-0.0165 -2.24502,3.16945 z" font-family="PT Sans" font-size="16.508" font-style="normal" font-variant="normal" font-weight="normal" letter-spacing="2.857"/><path font-stretch="normal" style="-inkscape-font-specification:'PT Sans'" id="path6161" stroke-width=".738" d="m 311.38135,218.81732 q -0.49523,-0.16508 -0.94093,-0.16508 -0.70982,0 -1.12251,0.39618 -0.41269,0.37967 -0.51174,0.97395 V 225.8 h -1.3206 v -8.25376 h 0.92442 l 0.24762,1.00696 h 0.066 q 0.31364,-0.56126 0.74284,-0.8584 0.4457,-0.31364 1.12251,-0.31364 0.47872,0 1.07299,0.16508 z" font-family="PT Sans" font-size="16.508" font-style="normal" font-variant="normal" font-weight="normal" letter-spacing="2.857"/><path font-stretch="normal" style="-inkscape-font-specification:'PT Sans'" id="path6163" stroke-width=".738" d="m 322.27501,226.17967 q 0,1.60123 -0.85839,2.36058 -0.84188,0.75935 -2.50914,0.75935 -0.99046,0 -1.60123,-0.13206 -0.59428,-0.11556 -1.02347,-0.31365 l 0.34666,-1.12251 q 0.37967,0.14857 0.84188,0.28063 0.46221,0.13206 1.20505,0.13206 0.69332,0 1.12251,-0.13206 0.44571,-0.11555 0.70983,-0.41269 0.26412,-0.28063 0.36316,-0.74284 0.099,-0.4457 0.099,-1.07299 v -0.79236 h -0.066 q -0.33015,0.47872 -0.84189,0.74284 -0.51173,0.24761 -1.33711,0.24761 -1.66726,0 -2.45962,-1.03997 -0.77585,-1.03998 -0.77585,-3.23548 0,-2.11296 1.00696,-3.20246 1.00696,-1.106 2.97135,-1.106 0.94093,0 1.60123,0.14857 0.67681,0.14856 1.20505,0.34665 z m -3.31801,-1.35361 q 0.84188,0 1.3206,-0.41269 0.47872,-0.4292 0.67681,-1.3206 v -4.22593 q -0.6603,-0.31364 -1.68377,-0.31364 -1.12251,0 -1.7663,0.75934 -0.6438,0.75935 -0.6438,2.37709 0,0.69331 0.11556,1.27108 0.11555,0.57776 0.36316,0.99045 0.24761,0.41269 0.64379,0.64379 0.39618,0.23111 0.97395,0.23111 z" font-family="PT Sans" font-size="16.508" font-style="normal" font-variant="normal" font-weight="normal" letter-spacing="2.857"/></g><g id="g6102" fill="#2e3436" fill-opacity="1" transform="translate(-11.1125,9.2806936)"><g font-family="PT Sans" style="line-height:6.00000048px;-inkscape-font-specification:'PT Sans Bold'" id="flowRoot5245" fill="#2e3436" fill-opacity="1" stroke="none" stroke-linecap="butt" stroke-linejoin="miter" stroke-opacity="1" stroke-width=".952" aria-label="Gnome" font-size="40.634" font-stretch="normal" font-style="normal" font-variant="normal" font-weight="bold" letter-spacing="0" transform="matrix(0.2778194,0,0,0.2778194,-16.462339,179.52241)" word-spacing="0"><path id="path6106" fill="#2e3436" fill-opacity="1" stroke-width=".633" d="m 187.47461,211.13978 h 10.60545 v 12.67778 q -1.70662,1.42219 -4.10402,2.07233 -2.35677,0.65014 -4.6729,0.65014 -2.72248,0 -5.07924,-0.85331 -2.31614,-0.85331 -4.02276,-2.64121 -1.70662,-1.82852 -2.68184,-4.63226 -0.97521,-2.80374 -0.97521,-6.66396 0,-4.02276 1.13775,-6.8265 1.17838,-2.84437 3.04754,-4.59163 1.9098,-1.78789 4.26656,-2.55994 2.35677,-0.81268 4.7948,-0.81268 2.43804,0 4.26656,0.36571 1.86916,0.3657 2.96628,0.77204 l -1.13775,4.6729 q -1.01585,-0.40634 -2.2755,-0.60951 -1.25965,-0.2438 -3.21008,-0.2438 -1.74726,0 -3.21008,0.52824 -1.46282,0.52824 -2.55993,1.74726 -1.05648,1.17838 -1.66599,3.04754 -0.56888,1.86916 -0.56888,4.551 0,2.55994 0.56888,4.4291 0.56887,1.82852 1.58472,3.04754 1.01585,1.17838 2.35677,1.74726 1.38155,0.56887 2.92564,0.56887 1.05648,0 2.07233,-0.2438 1.01584,-0.28444 1.70662,-0.81268 v -5.36367 l -6.13572,-0.65015 z" font-family="PT Sans" font-size="40.634" font-stretch="normal" font-style="normal" font-variant="normal" font-weight="bold" style="-inkscape-font-specification:'PT Sans Bold'"/><path id="path6108" fill="#2e3436" fill-opacity="1" stroke-width=".633" d="m 214.5114,225.97116 v -11.54003 q 0,-2.47867 -0.73141,-3.57579 -0.69078,-1.09711 -2.3974,-1.09711 -1.50346,0 -2.55994,0.89394 -1.01585,0.85331 -1.46282,2.1536 v 13.16539 h -5.28241 V 205.6542 h 4.1853 l 0.6095,2.68184 h 0.16254 q 0.93458,-1.30029 2.47867,-2.2755 1.54409,-0.97521 3.98212,-0.97521 1.50346,0 2.68184,0.40633 1.17838,0.40634 1.99106,1.34092 0.81268,0.93458 1.21902,2.55994 0.40634,1.58472 0.40634,3.94149 v 12.63715 z" font-family="PT Sans" font-size="40.634" font-stretch="normal" font-style="normal" font-variant="normal" font-weight="bold" style="-inkscape-font-specification:'PT Sans Bold'"/><path id="path6110" fill="#2e3436" fill-opacity="1" stroke-width=".633" d="m 223.24451,215.81268 q 0,-5.16051 2.51931,-7.92361 2.5193,-2.80374 7.0703,-2.80374 2.43803,0 4.22592,0.77204 1.7879,0.77204 2.96628,2.19423 1.17838,1.38155 1.74726,3.37262 0.60951,1.99106 0.60951,4.38846 0,5.16051 -2.51931,7.96424 -2.47866,2.76311 -7.02966,2.76311 -2.43804,0 -4.22593,-0.77204 -1.78789,-0.77205 -3.00691,-2.1536 -1.17838,-1.42219 -1.78789,-3.41325 -0.56888,-1.99106 -0.56888,-4.38846 z m 5.44495,0 q 0,1.34092 0.2438,2.47867 0.24381,1.13775 0.73141,1.99106 0.48761,0.85331 1.25965,1.34092 0.81268,0.44697 1.9098,0.44697 2.07233,0 3.08817,-1.50345 1.01585,-1.50346 1.01585,-4.75417 0,-2.80374 -0.93458,-4.51037 -0.93458,-1.74725 -3.16944,-1.74725 -1.95043,0 -3.04755,1.46282 -1.09711,1.46282 -1.09711,4.7948 z" font-family="PT Sans" font-size="40.634" font-stretch="normal" font-style="normal" font-variant="normal" font-weight="bold" style="-inkscape-font-specification:'PT Sans Bold'"/><path id="path6112" fill="#2e3436" fill-opacity="1" stroke-width=".633" d="m 257.58462,225.97116 v -11.05243 q 0,-2.80374 -0.52824,-3.98212 -0.52824,-1.17838 -2.19423,-1.17838 -1.38156,0 -2.23487,0.77204 -0.85331,0.73141 -1.30028,1.90979 v 13.5311 h -5.28241 V 205.6542 h 4.10402 l 0.60951,2.68184 h 0.16254 q 0.93458,-1.30029 2.35676,-2.2755 1.46282,-0.97521 3.73832,-0.97521 1.95043,0 3.16945,0.81267 1.25965,0.77205 1.95043,2.64121 0.93458,-1.58472 2.3974,-2.5193 1.46282,-0.93458 3.53515,-0.93458 1.70662,0 2.88501,0.40633 1.21901,0.40634 1.95042,1.42219 0.77205,0.97522 1.13775,2.64121 0.36571,1.66599 0.36571,4.22592 v 12.19018 h -5.28241 v -11.41813 q 0,-2.3974 -0.52824,-3.57579 -0.48761,-1.21901 -2.23487,-1.21901 -1.42218,0 -2.2755,0.77204 -0.81267,0.77204 -1.21901,2.11296 v 13.32793 z" font-family="PT Sans" font-size="40.634" font-stretch="normal" font-style="normal" font-variant="normal" font-weight="bold" style="-inkscape-font-specification:'PT Sans Bold'"/><path id="path6114" fill="#2e3436" fill-opacity="1" stroke-width=".633" d="m 294.99575,224.2239 q -1.21901,0.97521 -3.33198,1.66599 -2.07233,0.65014 -4.42909,0.65014 -4.91671,0 -7.19221,-2.84437 -2.2755,-2.88501 -2.2755,-7.88298 0,-5.36368 2.55994,-8.04552 2.55994,-2.68183 7.1922,-2.68183 1.54409,0 3.00691,0.40633 1.46282,0.40634 2.60057,1.34092 1.13775,0.93458 1.82853,2.51931 0.69078,1.58472 0.69078,3.94149 0,0.85331 -0.12191,1.82852 -0.0813,0.97522 -0.28443,2.0317 h -12.19018 q 0.12191,2.55993 1.30029,3.86022 1.21902,1.30028 3.90085,1.30028 1.66599,0 2.96628,-0.4876 1.34092,-0.52824 2.0317,-1.05648 z m -7.5579,-14.91265 q -2.07233,0 -3.08818,1.25965 -0.97522,1.21902 -1.17838,3.29135 h 7.5579 q 0.16254,-2.19423 -0.69077,-3.37261 -0.81268,-1.17839 -2.60057,-1.17839 z" font-family="PT Sans" font-size="40.634" font-stretch="normal" font-style="normal" font-variant="normal" font-weight="bold" style="-inkscape-font-specification:'PT Sans Bold'"/></g><g id="g5491" fill="#2e3436" fill-opacity="1" fill-rule="nonzero" stroke="none" stroke-miterlimit="4" stroke-width="5.185" transform="matrix(0.16092597,0,0,0.16092597,15.273167,228.83492)"><g id="g5489" fill="#2e3436" fill-opacity="1" stroke-width="5.185"><path id="path5479" fill="#2e3436" fill-opacity="1" stroke-width="5.185" d="M 86.068,0 C 61.466,0 56.851,35.041 70.691,35.041 84.529,35.041 110.671,0 86.068,0 Z"/><path id="path5481" fill="#2e3436" fill-opacity="1" stroke-width="5.185" d="M 45.217,30.699 C 52.586,31.149 60.671,2.577 46.821,4.374 32.976,6.171 37.845,30.249 45.217,30.699 Z"/><path id="path5483" fill="#2e3436" fill-opacity="1" stroke-width="5.185" d="M 11.445,48.453 C 16.686,46.146 12.12,23.581 3.208,29.735 -5.7,35.89 6.204,50.759 11.445,48.453 Z"/><path id="path5485" fill="#2e3436" fill-opacity="1" stroke-width="5.185" d="M 26.212,36.642 C 32.451,35.37 32.793,9.778 21.667,14.369 10.539,18.961 19.978,37.916 26.212,36.642 Z"/><path id="path5487" fill="#2e3436" fill-opacity="1" stroke-width="5.185" d="m 58.791,93.913 c 1.107,8.454 -6.202,12.629 -13.36,7.179 C 22.644,83.743 83.16,75.088 79.171,51.386 75.86,31.712 15.495,37.769 8.621,68.553 3.968,89.374 27.774,118.26 52.614,118.26 c 12.22,0 26.315,-11.034 28.952,-25.012 C 83.58,82.589 57.867,86.86 58.791,93.913 Z"/></g></g></g><g id="g5606" fill="#2e3436" stroke-width="6.211" transform="matrix(0.05024466,-0.00902813,0.01346302,0.03369345,7.2233636,125.6159)"><g id="g5604" fill="#2e3436" stroke-width="6.211" transform="matrix(1.293235,0,0,1.293235,-4878.321,-1224.915)"><g id="g5584" fill="#2e3436" fill-opacity="1" fill-rule="nonzero" stroke="none" stroke-miterlimit="4" stroke-width="6.211" transform="matrix(2.438586,0,0,2.438586,3659.952,1113.451)"><g id="g5582" fill="#2e3436" fill-opacity="1" stroke-width="6.211"><path id="path5572" fill="#2e3436" fill-opacity="1" stroke-width="6.211" d="M 86.068,0 C 61.466,0 56.851,35.041 70.691,35.041 84.529,35.041 110.671,0 86.068,0 Z"/><path id="path5574" fill="#2e3436" fill-opacity="1" stroke-width="6.211" d="M 45.217,30.699 C 52.586,31.149 60.671,2.577 46.821,4.374 32.976,6.171 37.845,30.249 45.217,30.699 Z"/><path id="path5576" fill="#2e3436" fill-opacity="1" stroke-width="6.211" d="M 11.445,48.453 C 16.686,46.146 12.12,23.581 3.208,29.735 -5.7,35.89 6.204,50.759 11.445,48.453 Z"/><path id="path5578" fill="#2e3436" fill-opacity="1" stroke-width="6.211" d="M 26.212,36.642 C 32.451,35.37 32.793,9.778 21.667,14.369 10.539,18.961 19.978,37.916 26.212,36.642 Z"/><path id="path5580" fill="#2e3436" fill-opacity="1" stroke-width="6.211" d="m 58.791,93.913 c 1.107,8.454 -6.202,12.629 -13.36,7.179 C 22.644,83.743 83.16,75.088 79.171,51.386 75.86,31.712 15.495,37.769 8.621,68.553 3.968,89.374 27.774,118.26 52.614,118.26 c 12.22,0 26.315,-11.034 28.952,-25.012 C 83.58,82.589 57.867,86.86 58.791,93.913 Z"/></g></g><g id="g5602" fill="#2e3436" stroke-width="6.211"><path id="path5586" fill="#2e3436" fill-opacity="1" stroke="none" stroke-linecap="butt" stroke-linejoin="miter" stroke-opacity="1" stroke-width="8.282" d="m 4176.2963,1214.4401 c -15.1078,0.4069 -27.0386,5.8367 -35.8126,16.25 -9.0861,10.8369 -13.6562,25.8104 -13.6562,44.9063 0,19.0432 4.5703,33.9757 13.6562,44.8124 9.1305,10.8369 21.6664,16.25 37.6563,16.25 16.034,0 28.6014,-5.4131 37.6875,-16.25 9.0859,-10.8367 13.6251,-25.7692 13.625,-44.8124 -1e-4,-19.0959 -4.5391,-34.0694 -13.625,-44.9063 -9.0861,-10.8366 -21.6536,-16.2499 -37.6875,-16.25 -0.6246,0 -1.2296,-0.016 -1.8437,0 z m 1.125,22 c 0.2415,-0.01 0.4737,0 0.7187,0 7.8833,10e-5 13.9919,3.4114 18.3125,10.25 4.3203,6.8388 6.4999,16.4913 6.5,28.9063 0,12.3623 -2.1799,21.9427 -6.5,28.7812 -4.3204,6.8389 -10.4293,10.2812 -18.3125,10.2812 -7.8391,0 -13.8983,-3.4423 -18.2187,-10.2812 -4.3204,-6.8385 -6.4999,-16.4189 -6.5,-28.7812 0,-12.4149 2.1798,-22.0675 6.5,-28.9063 4.1852,-6.6249 10.0123,-10.0428 17.5,-10.25 z" font-family="Bitstream Vera Sans" font-size="148.7" font-stretch="normal" font-style="normal" font-variant="normal" font-weight="bold" text-anchor="start" writing-mode="lr-tb" style="line-height:125%;text-align:start"/><path id="path5588" fill="#2e3436" fill-opacity="1" stroke="none" stroke-linecap="butt" stroke-linejoin="miter" stroke-opacity="1" stroke-width="8.282" d="m 4005.6293,1325.612 c -13.3076,11.1757 -33.1067,11.0472 -41.3549,11.0472 -16.6133,0 -29.7747,-5.471 -39.4842,-16.413 -9.7097,-10.9946 -14.5644,-25.8819 -14.5644,-44.6622 0,-18.9906 4.9438,-33.9305 14.8316,-44.82 9.8878,-10.8892 23.4277,-16.3339 40.62,-16.334 6.6363,10e-5 12.9831,0.7366 19.0406,2.2094 6.1019,1.473 11.8475,3.6562 17.2368,6.5494 l -6.921,20.4608 c -3.0298,-1.6586 -6.4987,-3.2932 -9.7145,-4.4424 -5.4784,-1.8411 -10.979,-2.7617 -16.5018,-2.7618 -10.2442,10e-5 -18.15,3.3932 -23.7173,10.1792 -5.523,6.7336 -8.2844,16.3867 -8.2844,28.9594 0,12.4676 2.6723,22.0945 8.0172,28.8806 5.3446,6.7861 13.3768,10.1791 22.7818,10.1791 9.5548,0 15.4728,-2.4084 18.6291,-4.9461 v -20.3835 h -20.7001 v -20.3584 h 40.0855" font-family="Bitstream Vera Sans" font-size="148.7" font-stretch="normal" font-style="normal" font-variant="normal" font-weight="bold" text-anchor="start" writing-mode="lr-tb" style="line-height:125%;text-align:start"/><path id="path5590" fill="#2e3436" fill-opacity="1" stroke="none" stroke-linecap="butt" stroke-linejoin="miter" stroke-opacity="1" stroke-width="8.282" d="m 4023.2108,1216.5605 h 16.2279 l 51.2775,70.8022 v -70.8022 h 21.8853 v 117.8103 h -16.2279 l -51.2774,-70.8022 v 70.8022 h -21.8854 v -117.8103" font-family="Bitstream Vera Sans" font-size="148.7" font-stretch="normal" font-style="normal" font-variant="normal" font-weight="bold" text-anchor="start" writing-mode="lr-tb" style="line-height:125%;text-align:start"/><path id="path5592" fill="#2e3436" fill-opacity="1" stroke="none" stroke-linecap="butt" stroke-linejoin="miter" stroke-opacity="1" stroke-width="8.282" d="m 4246.3361,1216.5605 h 32.7366 l 22.7151,73.5479 22.8487,-73.5479 h 27.6698 l 12.5,117.8103 h -24.3186 l -7.5,-73.668 -22.9823,74.0213 h -16.3015 l -22.9824,-76.5213 -7.5,76.168 h -24.3854 l 12.5,-117.8103" font-family="Bitstream Vera Sans" font-size="148.7" font-stretch="normal" font-style="normal" font-variant="normal" font-weight="bold" text-anchor="start" writing-mode="lr-tb" style="line-height:125%;text-align:start"/><path id="path5594" fill="#2e3436" fill-opacity="1" stroke="none" stroke-linecap="butt" stroke-linejoin="miter" stroke-opacity="1" stroke-width="8.282" d="m 4382.3597,1216.5605 h 69.4147 v 22.9624 h -43.6933 v 24.4365 h 33.5877 v 20.4623 h -33.5877 v 26.9868 h 45.1631 v 22.9623 h -70.8845 v -117.8103" font-family="Bitstream Vera Sans" font-size="148.7" font-stretch="normal" font-style="normal" font-variant="normal" font-weight="bold" text-anchor="start" writing-mode="lr-tb" style="line-height:125%;text-align:start"/><text id="text5600" x="4474.618" y="1215.743" fill="#2e3436" fill-opacity="1" stroke="none" stroke-linecap="butt" stroke-linejoin="miter" stroke-opacity="1" stroke-width="8.282" font-family="Bitstream Vera Sans" font-size="30.69" font-style="normal" font-weight="normal" xml:space="preserve"><tspan id="tspan5598" x="4474.618" y="1215.743" fill="#2e3436" stroke-width="8.282" letter-spacing="11.063"><tspan id="tspan5596" fill="#2e3436" stroke-width="8.282" letter-spacing=".252">TM</tspan></tspan></text></g></g></g><g id="g5953" stroke-width="1.233" transform="matrix(0.81096044,0,0,0.81096044,-70.110281,143.4811)"><g id="g5797" fill="#2e3436" fill-opacity="1" fill-rule="nonzero" stroke="none" stroke-miterlimit="4" stroke-width="12.968" transform="matrix(0.01391777,0.07479024,-0.08213846,0.01093595,133.56325,164.93481)"><g id="g5795" fill="#2e3436" fill-opacity="1" stroke-width="12.968"><path id="path5785" fill="#2e3436" fill-opacity="1" stroke-width="12.968" d="M 86.068,0 C 61.466,0 56.851,35.041 70.691,35.041 84.529,35.041 110.671,0 86.068,0 Z"/><path id="path5787" fill="#2e3436" fill-opacity="1" stroke-width="12.968" d="M 45.217,30.699 C 52.586,31.149 60.671,2.577 46.821,4.374 32.976,6.171 37.845,30.249 45.217,30.699 Z"/><path id="path5789" fill="#2e3436" fill-opacity="1" stroke-width="12.968" d="M 11.445,48.453 C 16.686,46.146 12.12,23.581 3.208,29.735 -5.7,35.89 6.204,50.759 11.445,48.453 Z"/><path id="path5791" fill="#2e3436" fill-opacity="1" stroke-width="12.968" d="M 26.212,36.642 C 32.451,35.37 32.793,9.778 21.667,14.369 10.539,18.961 19.978,37.916 26.212,36.642 Z"/><path id="path5793" fill="#2e3436" fill-opacity="1" stroke-width="12.968" d="m 58.791,93.913 c 1.107,8.454 -6.202,12.629 -13.36,7.179 C 22.644,83.743 83.16,75.088 79.171,51.386 75.86,31.712 15.495,37.769 8.621,68.553 3.968,89.374 27.774,118.26 52.614,118.26 c 12.22,0 26.315,-11.034 28.952,-25.012 C 83.58,82.589 57.867,86.86 58.791,93.913 Z"/></g></g><g id="g5811" fill="#2e3436" fill-opacity="1" fill-rule="nonzero" stroke="none" stroke-miterlimit="4" stroke-width="12.968" transform="matrix(0.05571421,-0.05179968,-0.05947878,-0.05769402,140.18347,185.59979)"><g id="g5809" fill="#2e3436" fill-opacity="1" stroke-width="12.968"><path id="path5799" fill="#2e3436" fill-opacity="1" stroke-width="12.968" d="M 86.068,0 C 61.466,0 56.851,35.041 70.691,35.041 84.529,35.041 110.671,0 86.068,0 Z"/><path id="path5801" fill="#2e3436" fill-opacity="1" stroke-width="12.968" d="M 45.217,30.699 C 52.586,31.149 60.671,2.577 46.821,4.374 32.976,6.171 37.845,30.249 45.217,30.699 Z"/><path id="path5803" fill="#2e3436" fill-opacity="1" stroke-width="12.968" d="M 11.445,48.453 C 16.686,46.146 12.12,23.581 3.208,29.735 -5.7,35.89 6.204,50.759 11.445,48.453 Z"/><path id="path5805" fill="#2e3436" fill-opacity="1" stroke-width="12.968" d="M 26.212,36.642 C 32.451,35.37 32.793,9.778 21.667,14.369 10.539,18.961 19.978,37.916 26.212,36.642 Z"/><path id="path5807" fill="#2e3436" fill-opacity="1" stroke-width="12.968" d="m 58.791,93.913 c 1.107,8.454 -6.202,12.629 -13.36,7.179 C 22.644,83.743 83.16,75.088 79.171,51.386 75.86,31.712 15.495,37.769 8.621,68.553 3.968,89.374 27.774,118.26 52.614,118.26 c 12.22,0 26.315,-11.034 28.952,-25.012 C 83.58,82.589 57.867,86.86 58.791,93.913 Z"/></g></g><g id="g5825" fill="#2e3436" fill-opacity="1" fill-rule="nonzero" stroke="none" stroke-miterlimit="4" stroke-width="12.968" transform="matrix(0.002768,0.07602382,-0.08285366,-0.00126204,150.67743,167.10496)"><g id="g5823" fill="#2e3436" fill-opacity="1" stroke-width="12.968"><path id="path5813" fill="#2e3436" fill-opacity="1" stroke-width="12.968" d="M 86.068,0 C 61.466,0 56.851,35.041 70.691,35.041 84.529,35.041 110.671,0 86.068,0 Z"/><path id="path5815" fill="#2e3436" fill-opacity="1" stroke-width="12.968" d="M 45.217,30.699 C 52.586,31.149 60.671,2.577 46.821,4.374 32.976,6.171 37.845,30.249 45.217,30.699 Z"/><path id="path5817" fill="#2e3436" fill-opacity="1" stroke-width="12.968" d="M 11.445,48.453 C 16.686,46.146 12.12,23.581 3.208,29.735 -5.7,35.89 6.204,50.759 11.445,48.453 Z"/><path id="path5819" fill="#2e3436" fill-opacity="1" stroke-width="12.968" d="M 26.212,36.642 C 32.451,35.37 32.793,9.778 21.667,14.369 10.539,18.961 19.978,37.916 26.212,36.642 Z"/><path id="path5821" fill="#2e3436" fill-opacity="1" stroke-width="12.968" d="m 58.791,93.913 c 1.107,8.454 -6.202,12.629 -13.36,7.179 C 22.644,83.743 83.16,75.088 79.171,51.386 75.86,31.712 15.495,37.769 8.621,68.553 3.968,89.374 27.774,118.26 52.614,118.26 c 12.22,0 26.315,-11.034 28.952,-25.012 C 83.58,82.589 57.867,86.86 58.791,93.913 Z"/></g></g><g id="g5839" fill="#2e3436" fill-opacity="1" fill-rule="nonzero" stroke="none" stroke-miterlimit="4" stroke-width="12.968" transform="matrix(0.04040905,-0.06445455,-0.0723844,-0.0403339,157.72635,185.95524)"><g id="g5837" fill="#2e3436" fill-opacity="1" stroke-width="12.968"><path id="path5827" fill="#2e3436" fill-opacity="1" stroke-width="12.968" d="M 86.068,0 C 61.466,0 56.851,35.041 70.691,35.041 84.529,35.041 110.671,0 86.068,0 Z"/><path id="path5829" fill="#2e3436" fill-opacity="1" stroke-width="12.968" d="M 45.217,30.699 C 52.586,31.149 60.671,2.577 46.821,4.374 32.976,6.171 37.845,30.249 45.217,30.699 Z"/><path id="path5831" fill="#2e3436" fill-opacity="1" stroke-width="12.968" d="M 11.445,48.453 C 16.686,46.146 12.12,23.581 3.208,29.735 -5.7,35.89 6.204,50.759 11.445,48.453 Z"/><path id="path5833" fill="#2e3436" fill-opacity="1" stroke-width="12.968" d="M 26.212,36.642 C 32.451,35.37 32.793,9.778 21.667,14.369 10.539,18.961 19.978,37.916 26.212,36.642 Z"/><path id="path5835" fill="#2e3436" fill-opacity="1" stroke-width="12.968" d="m 58.791,93.913 c 1.107,8.454 -6.202,12.629 -13.36,7.179 C 22.644,83.743 83.16,75.088 79.171,51.386 75.86,31.712 15.495,37.769 8.621,68.553 3.968,89.374 27.774,118.26 52.614,118.26 c 12.22,0 26.315,-11.034 28.952,-25.012 C 83.58,82.589 57.867,86.86 58.791,93.913 Z"/></g></g><g id="g5853" fill="#2e3436" fill-opacity="1" fill-rule="nonzero" stroke="none" stroke-miterlimit="4" stroke-width="12.968" transform="matrix(0.01391777,0.07479024,-0.08213846,0.01093595,100.60346,163.22508)"><g id="g5851" fill="#2e3436" fill-opacity="1" stroke-width="12.968"><path id="path5841" fill="#2e3436" fill-opacity="1" stroke-width="12.968" d="M 86.068,0 C 61.466,0 56.851,35.041 70.691,35.041 84.529,35.041 110.671,0 86.068,0 Z"/><path id="path5843" fill="#2e3436" fill-opacity="1" stroke-width="12.968" d="M 45.217,30.699 C 52.586,31.149 60.671,2.577 46.821,4.374 32.976,6.171 37.845,30.249 45.217,30.699 Z"/><path id="path5845" fill="#2e3436" fill-opacity="1" stroke-width="12.968" d="M 11.445,48.453 C 16.686,46.146 12.12,23.581 3.208,29.735 -5.7,35.89 6.204,50.759 11.445,48.453 Z"/><path id="path5847" fill="#2e3436" fill-opacity="1" stroke-width="12.968" d="M 26.212,36.642 C 32.451,35.37 32.793,9.778 21.667,14.369 10.539,18.961 19.978,37.916 26.212,36.642 Z"/><path id="path5849" fill="#2e3436" fill-opacity="1" stroke-width="12.968" d="m 58.791,93.913 c 1.107,8.454 -6.202,12.629 -13.36,7.179 C 22.644,83.743 83.16,75.088 79.171,51.386 75.86,31.712 15.495,37.769 8.621,68.553 3.968,89.374 27.774,118.26 52.614,118.26 c 12.22,0 26.315,-11.034 28.952,-25.012 C 83.58,82.589 57.867,86.86 58.791,93.913 Z"/></g></g><g id="g5867" fill="#2e3436" fill-opacity="1" fill-rule="nonzero" stroke="none" stroke-miterlimit="4" stroke-width="12.968" transform="matrix(0.05571421,-0.05179968,-0.05947878,-0.05769402,107.22371,183.89009)"><g id="g5865" fill="#2e3436" fill-opacity="1" stroke-width="12.968"><path id="path5855" fill="#2e3436" fill-opacity="1" stroke-width="12.968" d="M 86.068,0 C 61.466,0 56.851,35.041 70.691,35.041 84.529,35.041 110.671,0 86.068,0 Z"/><path id="path5857" fill="#2e3436" fill-opacity="1" stroke-width="12.968" d="M 45.217,30.699 C 52.586,31.149 60.671,2.577 46.821,4.374 32.976,6.171 37.845,30.249 45.217,30.699 Z"/><path id="path5859" fill="#2e3436" fill-opacity="1" stroke-width="12.968" d="M 11.445,48.453 C 16.686,46.146 12.12,23.581 3.208,29.735 -5.7,35.89 6.204,50.759 11.445,48.453 Z"/><path id="path5861" fill="#2e3436" fill-opacity="1" stroke-width="12.968" d="M 26.212,36.642 C 32.451,35.37 32.793,9.778 21.667,14.369 10.539,18.961 19.978,37.916 26.212,36.642 Z"/><path id="path5863" fill="#2e3436" fill-opacity="1" stroke-width="12.968" d="m 58.791,93.913 c 1.107,8.454 -6.202,12.629 -13.36,7.179 C 22.644,83.743 83.16,75.088 79.171,51.386 75.86,31.712 15.495,37.769 8.621,68.553 3.968,89.374 27.774,118.26 52.614,118.26 c 12.22,0 26.315,-11.034 28.952,-25.012 C 83.58,82.589 57.867,86.86 58.791,93.913 Z"/></g></g><g id="g5881" fill="#2e3436" fill-opacity="1" fill-rule="nonzero" stroke="none" stroke-miterlimit="4" stroke-width="12.968" transform="matrix(0.002768,0.07602382,-0.08285366,-0.00126204,117.71766,165.39523)"><g id="g5879" fill="#2e3436" fill-opacity="1" stroke-width="12.968"><path id="path5869" fill="#2e3436" fill-opacity="1" stroke-width="12.968" d="M 86.068,0 C 61.466,0 56.851,35.041 70.691,35.041 84.529,35.041 110.671,0 86.068,0 Z"/><path id="path5871" fill="#2e3436" fill-opacity="1" stroke-width="12.968" d="M 45.217,30.699 C 52.586,31.149 60.671,2.577 46.821,4.374 32.976,6.171 37.845,30.249 45.217,30.699 Z"/><path id="path5873" fill="#2e3436" fill-opacity="1" stroke-width="12.968" d="M 11.445,48.453 C 16.686,46.146 12.12,23.581 3.208,29.735 -5.7,35.89 6.204,50.759 11.445,48.453 Z"/><path id="path5875" fill="#2e3436" fill-opacity="1" stroke-width="12.968" d="M 26.212,36.642 C 32.451,35.37 32.793,9.778 21.667,14.369 10.539,18.961 19.978,37.916 26.212,36.642 Z"/><path id="path5877" fill="#2e3436" fill-opacity="1" stroke-width="12.968" d="m 58.791,93.913 c 1.107,8.454 -6.202,12.629 -13.36,7.179 C 22.644,83.743 83.16,75.088 79.171,51.386 75.86,31.712 15.495,37.769 8.621,68.553 3.968,89.374 27.774,118.26 52.614,118.26 c 12.22,0 26.315,-11.034 28.952,-25.012 C 83.58,82.589 57.867,86.86 58.791,93.913 Z"/></g></g><g id="g5895" fill="#2e3436" fill-opacity="1" fill-rule="nonzero" stroke="none" stroke-miterlimit="4" stroke-width="12.968" transform="matrix(0.04040905,-0.06445455,-0.0723844,-0.0403339,124.7666,184.2455)"><g id="g5893" fill="#2e3436" fill-opacity="1" stroke-width="12.968"><path id="path5883" fill="#2e3436" fill-opacity="1" stroke-width="12.968" d="M 86.068,0 C 61.466,0 56.851,35.041 70.691,35.041 84.529,35.041 110.671,0 86.068,0 Z"/><path id="path5885" fill="#2e3436" fill-opacity="1" stroke-width="12.968" d="M 45.217,30.699 C 52.586,31.149 60.671,2.577 46.821,4.374 32.976,6.171 37.845,30.249 45.217,30.699 Z"/><path id="path5887" fill="#2e3436" fill-opacity="1" stroke-width="12.968" d="M 11.445,48.453 C 16.686,46.146 12.12,23.581 3.208,29.735 -5.7,35.89 6.204,50.759 11.445,48.453 Z"/><path id="path5889" fill="#2e3436" fill-opacity="1" stroke-width="12.968" d="M 26.212,36.642 C 32.451,35.37 32.793,9.778 21.667,14.369 10.539,18.961 19.978,37.916 26.212,36.642 Z"/><path id="path5891" fill="#2e3436" fill-opacity="1" stroke-width="12.968" d="m 58.791,93.913 c 1.107,8.454 -6.202,12.629 -13.36,7.179 C 22.644,83.743 83.16,75.088 79.171,51.386 75.86,31.712 15.495,37.769 8.621,68.553 3.968,89.374 27.774,118.26 52.614,118.26 c 12.22,0 26.315,-11.034 28.952,-25.012 C 83.58,82.589 57.867,86.86 58.791,93.913 Z"/></g></g></g></g></svg>