<svg xmlns="http://www.w3.org/2000/svg" xmlns:svg="http://www.w3.org/2000/svg" id="svg17999" width="920.755" height="215.605" version="1.1" viewBox="0 0 863.208 202.13"><metadata id="metadata18004"/><g id="layer1" transform="translate(-304.65163,-426.96993)"><g id="g17221" transform="matrix(0.44631094,0,0,0.44631094,97.797151,-158.36035)"><g id="g19712-4-6-3-4-4-8-1-8" fill="#4a90d8" fill-opacity="1" display="inline" transform="matrix(5.0709158,0,0,5.0709158,240.35485,281.11889)"><rect id="rect19714-2-9-4-3-9-3-7-4" width="16" height="16" x="44" y="255" fill="#000" fill-opacity="1" stroke="none" opacity="0"/><path id="rect43509-3-4-3-1-9-2-0-5-1-5-08" fill="#000" fill-opacity="1" fill-rule="nonzero" stroke="none" stroke-width="1" d="m 52.0002,255 c -1.65335,0 -3,1.34665 -3,3 l 0,1 -1.90625,0 c -0.60594,0 -1.09375,0.48781 -1.09375,1.09375 l 0,9.8125 c 0,0.60594 0.48781,1.09375 1.09375,1.09375 l 9.8125,0 c 0.60594,0 1.09375,-0.48781 1.09375,-1.09375 l 0,-9.8125 C 58.0002,259.48781 57.51239,259 56.90645,259 l -1.90625,0 0,-1 c 0,-1.65335 -1.34665,-3 -3,-3 z m 0,1 c 1.11665,0 2,0.88335 2,2 l 0,1 -4,0 0,-1 c 0,-1.11665 0.88335,-2 2,-2 z m -2.53125,4 c 0.28679,0 0.53125,0.22386 0.53125,0.5 0,0.27614 -0.24446,0.5 -0.53125,0.5 -0.28679,0 -0.5,-0.22386 -0.5,-0.5 0,-0.27614 0.21321,-0.5 0.5,-0.5 z m 5,0 c 0.28679,0 0.53125,0.22386 0.53125,0.5 0,0.27614 -0.24446,0.5 -0.53125,0.5 -0.28679,0 -0.5,-0.22386 -0.5,-0.5 0,-0.27614 0.21321,-0.5 0.5,-0.5 z" color="#000" display="inline" enable-background="accumulate" overflow="visible" visibility="visible" style="marker:none"/></g><g id="g22422-5-3-8-3-8-5-8-41" display="inline" transform="matrix(10.452226,0,0,10.452226,-2003.0731,-297.98825)"><rect id="rect21911-9-7-7-7-4-8-0-3" width="16" height="16" x="42" y="-42" fill="none" stroke="none" transform="translate(241.0002,217)"/><ellipse id="path10037-1-5-0-7-6-8-1-9" cx="14.75" cy="22.688" fill="#000" fill-opacity="1" fill-rule="nonzero" stroke="none" stroke-width="1" color="#000" display="inline" font-family="Bitstream Vera Sans" overflow="visible" rx="1.75" ry="1.813" transform="matrix(0.29306971,0,0,0.27586073,291.16455,179.24141)" visibility="visible" style="marker:none"/><path id="path10041-5-1-1-9-3-6-8-0" fill="#000" fill-opacity="1" stroke="none" d="m 52,-26 5,0 c 0,0 0.335043,-1 0,-2 -0.180363,0.156985 -1.565574,1 -2.5,1 -0.934426,0 -2.139275,-0.686029 -2.5,-1 -0.312432,1.225757 0,2 0,2 z" transform="translate(241.0002,217)"/><path id="rect22385-2-8-1-0-6-0-1-22" fill="#000" fill-opacity="1" stroke="none" d="m 42,-42 0,16 8.5,0 0,-2 -6.5,0 0,-12 12,0 0,4 2,0 0,-6 z" transform="translate(241.0002,217)"/><path id="path22396-6-2-4-9-8-9-6-1" fill="#000" fill-opacity="1" stroke="none" d="m 44,-36 0,2.21875 c 0,2.318646 2.781424,4.585963 6.5625,4.75 -0.624685,-0.741088 -1.03125,-1.671642 -1.03125,-2.71875 0,-1.246131 0.618674,-2.472073 1.46875,-3.25 -6,0.764515 -7,-1 -7,-1 z" transform="translate(241.0002,217)"/><path id="path22402-8-2-1-7-4-4-6-6" fill="#000" fill-opacity="1" stroke="none" d="m 290.0002,180 c -1.66667,-1.43664 -3.33333,-1.39359 -5,0 0,-1.10458 1.11929,-2 2.5,-2 1.38071,0 2.5,0.89542 2.5,2 z"/><path id="path22405-0-8-2-8-9-8-4-8" fill="#000" fill-opacity="1" stroke="none" d="m 292.0002,180 c 1.66667,-1.43664 3.33333,-1.39359 5,0 0,-1.10458 -1.11929,-2 -2.5,-2 -1.38071,0 -2.5,0.89542 -2.5,2 z"/><path id="path22411-0-8-0-9-8-3-1-0" fill="#000" fill-opacity="1" stroke="none" d="m 54.5,-35 c -1.932997,0 -3.5,1.567003 -3.5,3.5 0,1.932997 1.567003,3.5 3.5,3.5 1.932997,0 3.5,-1.567003 3.5,-3.5 0,-1.932997 -1.567003,-3.5 -3.5,-3.5 z m 0,2 c 0.82955,0 1.5,0.67158 1.5,1.5 0,0.82842 -0.67045,1.5 -1.5,1.5 -0.82955,0 -1.5,-0.67158 -1.5,-1.5 0,-0.82842 0.67045,-1.5 1.5,-1.5 z" transform="translate(241.0002,217)"/></g><g id="g26381-3-6-7-9-2-9-3-5" display="inline" transform="matrix(5.6502681,0,0,5.6502681,-912.99126,467.76492)"><rect id="rect26383-1-6-1-2-8-8-6-5" width="16" height="16" x="303" y="195" fill="none" stroke="none"/><path id="path26401-2-4-3-7-7-5-4-0" fill="#000" fill-opacity="1" fill-rule="nonzero" stroke="none" stroke-width="1" d="m 311.0002,196 c -3.86599,0 -7,3.13401 -7,7 0,3.86599 3.13401,7 7,7 3.86599,0 7,-3.13401 7,-7 0,-3.86599 -3.13401,-7 -7,-7 z m 2.90625,2.46875 c 0.0104,-3.2e-4 0.0208,-3.2e-4 0.0312,0 0.42264,-0.10441 0.78068,0.54007 0.46875,0.84375 l -2.40625,3.21875 c 0.0752,0.15039 0.0937,0.32043 0.0937,0.5 0,0.61805 -0.47571,1.125 -1.09375,1.125 -0.61804,0 -1.125,-0.50695 -1.125,-1.125 0,-0.13341 0.0509,-0.25636 0.0937,-0.375 l -1.3125,-1.3125 c -0.25698,-0.15718 -0.30568,-0.56716 -0.0927,-0.78017 0.21301,-0.21301 0.62299,-0.16431 0.78017,0.0927 l 1.3125,1.3125 c 0.10883,-0.0353 0.22316,-0.0625 0.34375,-0.0625 0.055,0 0.10335,0.0236 0.15625,0.0312 l 2.4375,-3.25 c 0.0685,-0.0923 0.1697,-0.15982 0.28125,-0.1875 0.01,-0.0109 0.0204,-0.0213 0.0312,-0.0312 z" color="#000" display="inline" enable-background="accumulate" overflow="visible" visibility="visible" style="marker:none"/></g><g id="g4158-6-9-8-6-8-8-7-3" display="inline" transform="matrix(7.7189818,0,0,7.7189818,-323.92273,-585.14135)"><rect id="rect18110-7-3-9-4-6-5-5-1-9" width="16" height="16" x="121" y="277" fill="none" stroke="none" stroke-width="1.781" color="#bebebe" display="inline" enable-background="new" overflow="visible" visibility="visible" style="marker:none"/><path id="path552-9-1-2-0-9-4-6-2" fill="#000" fill-opacity="1" fill-rule="nonzero" stroke="none" stroke-width="2.21" d="m 129,280 c -2.74958,0 -5,2.25041 -5,5 0,1.78334 0.9576,3.36255 2.375,4.25 0.16853,-0.0758 0.34883,-0.13986 0.53125,-0.1875 0.22859,-1.81667 1.71945,-3.25 3.59375,-3.25 1.00251,0 1.83852,0.47365 2.5,1.125 0.175,-0.0333 0.30776,-0.125 0.5,-0.125 0.0432,0 0.0823,-0.002 0.125,0 0.22408,-0.56633 0.375,-1.16979 0.375,-1.8125 0,-2.74959 -2.25042,-5 -5,-5 z" color="#bebebe" direction="ltr" display="inline" enable-background="new" font-family="Sans" font-size="medium" font-stretch="normal" font-style="normal" font-variant="normal" font-weight="normal" letter-spacing="normal" overflow="visible" text-anchor="start" text-decoration="none" visibility="visible" word-spacing="normal" writing-mode="lr-tb" style="line-height:normal;-inkscape-font-specification:Sans;text-indent:0;text-align:start;text-decoration-line:none;text-transform:none;block-progression:tb;marker:none"/><g id="g4927-4-5-2-7-1-4-9-3" fill="#4a90d8" fill-opacity="1" transform="translate(40,0)"><rect id="rect4906-8-9-7-1-1-8-4-0" width="2" height="2" x="81" y="284" fill="#000" fill-opacity="1" fill-rule="nonzero" stroke="none" stroke-width="2" color="#bebebe" display="inline" enable-background="new" overflow="visible" rx=".041" ry=".041" visibility="visible" style="marker:none"/><rect id="rect4906-4-8-3-2-6-3-7-0-1" width="2" height="2" x="95" y="284" fill="#000" fill-opacity="1" fill-rule="nonzero" stroke="none" stroke-width="2" color="#bebebe" display="inline" enable-background="new" overflow="visible" rx=".041" ry=".041" visibility="visible" style="marker:none"/></g><g id="use4998-0-7-1-4-5-4-6-8" fill="#4a90d8" fill-opacity="1" transform="matrix(0,1,-1,0,414,196)"><rect id="rect4088-1-1-4-3-9-2-6-4" width="2" height="2" x="81" y="284" fill="#000" fill-opacity="1" fill-rule="nonzero" stroke="none" stroke-width="2" color="#bebebe" display="inline" enable-background="new" overflow="visible" rx=".041" ry=".041" visibility="visible" style="marker:none"/></g><g id="use4998-8-2-6-2-2-0-0-8-02" fill="#4a90d8" fill-opacity="1" fill-rule="nonzero" stroke-dasharray="none" stroke-dashoffset="0" stroke-linecap="butt" stroke-linejoin="miter" stroke-miterlimit="4" stroke-opacity="1" stroke-width="1" color="#000" transform="matrix(-0.70710678,0.70710678,-0.70710678,-0.70710678,393.45795,423.59292)" visibility="visible" style="marker:none"><rect id="rect4075-0-9-8-6-9-1-1-2" width="2" height="2" x="81" y="284" fill="#000" fill-opacity="1" fill-rule="nonzero" stroke="none" stroke-width="2" color="#bebebe" display="inline" enable-background="new" overflow="visible" rx=".041" ry=".041" visibility="visible" style="marker:none"/><rect id="rect4077-7-9-8-5-1-2-6-8" width="2" height="2" x="95" y="284" fill="#000" fill-opacity="1" fill-rule="nonzero" stroke="none" stroke-width="2" color="#bebebe" display="inline" enable-background="new" overflow="visible" rx=".041" ry=".041" visibility="visible" style="marker:none"/></g><g id="use4998-2-4-4-6-8-0-8-0-13" fill="#4a90d8" fill-opacity="1" transform="matrix(0.70710678,0.70710678,-0.70710678,0.70710678,267.59292,20.542064)"><rect id="rect4081-2-3-4-7-4-7-4-4" width="2" height="2" x="81" y="284" fill="#000" fill-opacity="1" fill-rule="nonzero" stroke="none" stroke-width="2" color="#bebebe" display="inline" enable-background="new" overflow="visible" rx=".041" ry=".041" visibility="visible" style="marker:none"/></g><g id="g5609-1-0-6-1-0-2-4-4" fill="#4a90d8" fill-opacity="1" transform="translate(-60,-39)"><path id="path5094-5-03-9-6-0-7-8-0-3-3" fill="#000" fill-opacity="1" stroke="none" stroke-width="2.4" d="m 190.5,326 c -1.38071,0 -2.5,1.11929 -2.5,2.5 0,0.21842 0.0411,0.42306 0.0937,0.625 C 187.91429,329.0491 187.70711,329 187.5,329 c -0.82843,0 -1.5,0.67157 -1.5,1.5 0,0.82843 0.67157,1.5 1.5,1.5 l 8,0 c 0.82843,0 1.5,-0.67157 1.5,-1.5 0,-0.82843 -0.67157,-1.5 -1.5,-1.5 0,-1.10457 -0.89543,-2 -2,-2 -0.31572,0 -0.60948,0.0885 -0.875,0.21875 C 192.18795,326.49096 191.41074,326 190.5,326 Z" color="#000" display="inline" enable-background="accumulate" overflow="visible" visibility="visible" style="marker:none"/></g></g><g id="g35627-2-5-5-5-1-2-9-59" display="inline" transform="matrix(0.69138501,0,0,0.69138501,565.9506,1123.1437)"><rect id="rect35629-3-0-0-9-9-2-3-9" width="222.201" height="222.201" x="2187.893" y="599.978" fill="none" stroke="none" stroke-width="2" color="#bebebe" display="inline" overflow="visible" visibility="visible" style="marker:none"/><path id="path35631-2-5-3-7-6-8-6-7" fill="#000" fill-opacity="1" stroke="none" stroke-width="1" d="m 2297.2607,599.97774 c -2.5801,0.47051 -5.0192,1.6901 -6.9437,3.4719 l -68.1359,55.55024 c -0.2944,0.13476 -0.5832,0.27928 -0.8679,0.43398 0,0 -4.5255,4.12851 -9.1138,10.41568 -6.4323,8.0812 -9.2504,14.8892 -10.415,26.47315 0,0.16388 0,0.27012 0,0.434 0,0.1447 0,0.28927 0,0.43398 -0.056,0.72187 -0.056,1.4481 0,2.16994 l -7e-4,108.93055 c 7e-4,7.2713 6.6163,13.88685 13.8876,13.88756 l 99.8838,0 c -10.5009,-5.60943 -20.0966,-18.41919 -24.3701,-27.77512 l -61.626,0 0,-92.00509 55.9841,42.09667 6.1376,-12.32187 c -18.864,-15.19688 -38.4612,-29.48402 -57.7819,-44.09635 0.3596,-0.54675 0.4846,-1.21071 0.868,-1.73595 2.6497,-3.63103 4.4264,-5.75236 4.7738,-6.0758 l 0.4333,-0.43399 59.0221,-48.17248 59.89,49.04045 0.4334,0.43399 c 0.2917,0.35414 2.5043,3.46517 4.7738,6.94378 l -19.2301,15.27301 c 8.3635,-2.24223 15.5425,-1.52258 22.2774,0.30692 l 8.3103,-6.29744 0.2389,5.90702 c 6.2017,3.37888 12.0936,6.44786 20.5204,12.05162 0,-29.0113 -5.1613,-41.51667 -19.0948,-55.45023 -0.1416,-0.14777 -0.286,-0.29262 -0.4333,-0.434 l -69.0056,-55.98422 c -2.4912,-2.19703 -5.7921,-3.4545 -9.1137,-3.4719 -0.4333,-0.0208 -0.868,-0.0208 -1.3013,0 z" baseline-shift="baseline" color="#000" direction="ltr" display="inline" enable-background="accumulate" font-family="Sans" font-size="medium" font-stretch="normal" font-style="normal" font-variant="normal" font-weight="normal" letter-spacing="normal" overflow="visible" text-anchor="start" text-decoration="none" visibility="visible" word-spacing="normal" writing-mode="lr-tb" style="line-height:normal;-inkscape-font-specification:Sans;text-indent:0;text-align:start;text-decoration-line:none;text-transform:none;block-progression:tb;marker:none"/><path id="path4038-6-4-0-9-5-4-8-3" fill="#000" fill-opacity="1" fill-rule="nonzero" stroke="none" stroke-dasharray="none" stroke-dashoffset="0" stroke-linecap="butt" stroke-linejoin="miter" stroke-miterlimit="4" stroke-opacity="1" stroke-width="9.722" d="m 2272.2441,727.70117 -42.1757,71.37695 8.3691,4.94727 42.1777,-71.37891 -8.3711,-4.94531 z" baseline-shift="baseline" clip-rule="nonzero" color="#000" color-interpolation="sRGB" color-interpolation-filters="linearRGB" color-rendering="auto" direction="ltr" display="inline" enable-background="new" font-family="sans-serif" font-size="medium" font-stretch="normal" font-style="normal" font-variant="normal" font-weight="normal" image-rendering="auto" letter-spacing="normal" opacity="1" overflow="visible" shape-rendering="auto" text-anchor="start" text-decoration="none" text-rendering="auto" visibility="visible" word-spacing="normal" writing-mode="lr-tb" style="line-height:normal;text-indent:0;text-align:start;text-decoration-line:none;text-decoration-style:solid;text-decoration-color:#000;text-transform:none;block-progression:tb;white-space:normal;isolation:auto;mix-blend-mode:normal;solid-color:#000;solid-opacity:1;marker:none"/><path id="path4073-6-1-5-4-0-0-8-1" fill="#000" fill-opacity="1" fill-rule="nonzero" stroke="none" stroke-width="1" d="m 2354.5444,711.50722 c -30.6575,0 -55.7672,24.68098 -55.7672,55.33832 0,30.65721 25.1097,55.33819 55.7672,55.33819 30.6573,0 55.3384,-24.68098 55.3384,-55.33819 0,-30.65734 -24.6811,-55.33832 -55.3384,-55.33832 z m -7.7365,13.29832 c 4.1406,-0.8041 8.4911,3.08844 8.1506,7.29263 l 0,39.03709 18.446,18.44602 c 5.1661,5.16618 -4.7558,15.08745 -9.8666,9.86656 l -20.5909,-20.59094 -1.7158,-2.14494 0,-3.00277 0,-41.61102 c -0.1486,-2.97957 1.8835,-5.93472 4.7185,-6.86364 0.275,-0.16249 0.5624,-0.30692 0.8583,-0.42913 z" color="#000" display="inline" enable-background="new" overflow="visible" visibility="visible" style="marker:none"/></g><g id="g14165-3-7-4-2-0-6-3-19" display="inline" transform="matrix(4.5165761,0,0,4.529762,2234.7637,328.31576)"><rect id="rect14167-5-7-1-5-5-2-9-9" width="16.047" height="16" x="20" y="276" fill="none" stroke="none" stroke-width="1" color="#bebebe" display="inline" overflow="visible" visibility="visible" style="marker:none"/><path id="path60865-7-3-1-1-1-5-2-2-1" fill="#000" fill-opacity="1" fill-rule="nonzero" stroke="none" stroke-width="1.042" d="m 30,276.03125 c -2.19762,0 -4,1.69816 -4,3.78125 0,3.09857 3.14796,8.12532 4,8.1875 0.85204,0.0622 3.96875,-5.15111 3.96875,-8.1875 0,-2.08309 -1.77112,-3.78125 -3.96875,-3.78125 z M 29.9688,279 c 0.55228,0 1,0.44772 1,1 0,0.55228 -0.44772,1 -1,1 -0.55228,0 -1,-0.44772 -1,-1 0,-0.55228 0.44772,-1 1,-1 z" color="#000" display="inline" enable-background="accumulate" overflow="visible" visibility="visible" style="marker:none"/><path id="path7210-5-8-1-0-0-6-9-65" fill="#000" fill-opacity="1" stroke="none" stroke-width="2" d="m 34.78125,287 a 1.0001,1.0001 0 0 0 -0.34375,0.15625 l -4.28125,2.65625 -4.09375,-2.53125 a 1.0001,1.0001 0 0 0 -1.03125,0 l -4.59375,2.8125 A 1.0103227,1.0103227 0 1 0 21.5,291.8125 l 4.03125,-2.5 4.09375,2.53125 a 1.0001,1.0001 0 0 0 1.0625,0 l 4.8125,-3 A 1.0001,1.0001 0 0 0 34.78125,287 Z" baseline-shift="baseline" color="#000" direction="ltr" display="inline" enable-background="accumulate" font-family="Sans" font-size="medium" font-stretch="normal" font-style="normal" font-variant="normal" font-weight="normal" letter-spacing="normal" overflow="visible" text-anchor="start" text-decoration="none" visibility="visible" word-spacing="normal" writing-mode="lr-tb" style="line-height:normal;-inkscape-font-specification:Sans;text-indent:0;text-align:start;text-decoration-line:none;text-transform:none;block-progression:tb;marker:none"/></g><g id="g3898-4-0-9-0-1-2-1-1" display="inline" transform="matrix(4.1368918,0,0,4.1368918,1728.7055,-64.745274)"><path id="rect3900-4-3-6-3-6-0-2-2" fill="none" stroke="none" stroke-width="3" d="m 48,398 16,0 0,16 -16,0 z" color="#bebebe" display="inline" enable-background="accumulate" opacity=".515" overflow="visible" visibility="visible" style="marker:none"/><path id="path3908-8-0-4-8-8-5-8-6" fill="#000" fill-opacity="1" stroke="none" stroke-width="1" d="m -174,-39.984375 a 2.015625,2.015625 0 0 1 -2.01562,2.015625 2.015625,2.015625 0 0 1 -2.01563,-2.015625 A 2.015625,2.015625 0 0 1 -176.01562,-42 2.015625,2.015625 0 0 1 -174,-39.984375 Z" color="#000" display="inline" enable-background="new" overflow="visible" transform="translate(226,440)" visibility="visible" style="marker:none"/><path id="path3910-5-0-9-5-8-4-4-3" fill="#000" fill-opacity="1" fill-rule="nonzero" stroke="none" stroke-width="1" d="m -174,-39.984375 a 2.015625,2.015625 0 0 1 -2.01562,2.015625 2.015625,2.015625 0 0 1 -2.01563,-2.015625 A 2.015625,2.015625 0 0 1 -176.01562,-42 2.015625,2.015625 0 0 1 -174,-39.984375 Z" color="#000" display="inline" enable-background="new" overflow="visible" transform="translate(226,451.9375)" visibility="visible" style="marker:none"/><path id="path3912-7-3-3-5-1-5-3-5" fill="#000" fill-opacity="1" fill-rule="nonzero" stroke="none" stroke-width="1" d="m -174,-39.984375 a 2.015625,2.015625 0 0 1 -2.01562,2.015625 2.015625,2.015625 0 0 1 -2.01563,-2.015625 A 2.015625,2.015625 0 0 1 -176.01562,-42 2.015625,2.015625 0 0 1 -174,-39.984375 Z" color="#000" display="inline" enable-background="new" overflow="visible" transform="translate(238,451.9375)" visibility="visible" style="marker:none"/><path id="path3914-8-5-2-4-4-3-3-6" fill="#000" fill-opacity="1" fill-rule="nonzero" stroke="none" stroke-width="1" d="m -174,-39.984375 a 2.015625,2.015625 0 0 1 -2.01562,2.015625 2.015625,2.015625 0 0 1 -2.01563,-2.015625 A 2.015625,2.015625 0 0 1 -176.01562,-42 2.015625,2.015625 0 0 1 -174,-39.984375 Z" color="#000" display="inline" enable-background="new" overflow="visible" transform="translate(238,439.96875)" visibility="visible" style="marker:none"/><path id="rect3916-3-6-6-4-8-0-2-7" fill="#000" fill-opacity="1" fill-rule="nonzero" stroke="none" stroke-dasharray="none" stroke-dashoffset="0" stroke-linecap="butt" stroke-linejoin="miter" stroke-miterlimit="4" stroke-opacity="1" stroke-width="1.625" d="m 49.21875,399.21875 0,0.8125 0,12.78125 13.59375,0 0,-13.59375 -13.59375,0 z m 1.625,1.625 10.34375,0 0,10.34375 -10.34375,0 0,-10.34375 z" baseline-shift="baseline" clip-rule="nonzero" color="#000" color-interpolation="sRGB" color-interpolation-filters="linearRGB" color-rendering="auto" direction="ltr" display="inline" enable-background="new" font-family="sans-serif" font-size="medium" font-stretch="normal" font-style="normal" font-variant="normal" font-weight="normal" image-rendering="auto" letter-spacing="normal" opacity="1" overflow="visible" shape-rendering="auto" text-anchor="start" text-decoration="none" text-rendering="auto" visibility="visible" word-spacing="normal" writing-mode="lr-tb" style="line-height:normal;text-indent:0;text-align:start;text-decoration-line:none;text-decoration-style:solid;text-decoration-color:#000;text-transform:none;block-progression:tb;white-space:normal;isolation:auto;mix-blend-mode:normal;solid-color:#000;solid-opacity:1;marker:none"/><path id="rect3918-7-8-4-0-1-5-2-5" fill="#000" fill-opacity="1" fill-rule="nonzero" stroke="none" stroke-dasharray="none" stroke-dashoffset="0" stroke-linecap="butt" stroke-linejoin="miter" stroke-miterlimit="4" stroke-opacity="1" stroke-width="1.083" d="m 52.896484,402.95898 0,0.54102 0,5.54102 6.144532,0 0,-6.08204 -6.144532,0 z m 1.082032,1.08204 3.980468,0 0,3.91796 -3.980468,0 0,-3.91796 z" baseline-shift="baseline" clip-rule="nonzero" color="#000" color-interpolation="sRGB" color-interpolation-filters="linearRGB" color-rendering="auto" direction="ltr" display="inline" enable-background="new" font-family="sans-serif" font-size="medium" font-stretch="normal" font-style="normal" font-variant="normal" font-weight="normal" image-rendering="auto" letter-spacing="normal" opacity="1" overflow="visible" shape-rendering="auto" text-anchor="start" text-decoration="none" text-rendering="auto" visibility="visible" word-spacing="normal" writing-mode="lr-tb" style="line-height:normal;text-indent:0;text-align:start;text-decoration-line:none;text-decoration-style:solid;text-decoration-color:#000;text-transform:none;block-progression:tb;white-space:normal;isolation:auto;mix-blend-mode:normal;solid-color:#000;solid-opacity:1;marker:none"/><path id="path3937-2-4-0-4-1-2-3-0" fill="#000" fill-opacity="1" stroke="none" stroke-width="1" d="m -166.5,-31.765625 a 1.265625,1.265625 0 0 1 -1.26562,1.265625 1.265625,1.265625 0 0 1 -1.26563,-1.265625 1.265625,1.265625 0 0 1 1.26563,-1.265625 1.265625,1.265625 0 0 1 1.26562,1.265625 z" color="#000" display="inline" enable-background="new" overflow="visible" transform="matrix(1.1975309,0,0,1.1975309,259.38889,446.52469)" visibility="visible" style="marker:none"/><path id="path3939-6-3-2-6-0-8-8-7" fill="#000" fill-opacity="1" stroke="none" stroke-width="1" d="m -166.5,-31.765625 a 1.265625,1.265625 0 0 1 -1.26562,1.265625 1.265625,1.265625 0 0 1 -1.26563,-1.265625 1.265625,1.265625 0 0 1 1.26563,-1.265625 1.265625,1.265625 0 0 1 1.26562,1.265625 z" color="#000" display="inline" enable-background="new" overflow="visible" transform="matrix(1.1975309,0,0,1.1975309,254.38889,446.52469)" visibility="visible" style="marker:none"/><path id="path3941-3-7-5-7-7-0-8-7" fill="#000" fill-opacity="1" stroke="none" stroke-width="1" d="m -166.5,-31.765625 a 1.265625,1.265625 0 0 1 -1.26562,1.265625 1.265625,1.265625 0 0 1 -1.26563,-1.265625 1.265625,1.265625 0 0 1 1.26563,-1.265625 1.265625,1.265625 0 0 1 1.26562,1.265625 z" color="#000" display="inline" enable-background="new" overflow="visible" transform="matrix(1.1975309,0,0,1.1975309,254.38889,441.55594)" visibility="visible" style="marker:none"/><path id="path3943-6-5-3-6-8-5-7-5" fill="#000" fill-opacity="1" stroke="none" stroke-width="1" d="m -166.5,-31.765625 a 1.265625,1.265625 0 0 1 -1.26562,1.265625 1.265625,1.265625 0 0 1 -1.26563,-1.265625 1.265625,1.265625 0 0 1 1.26563,-1.265625 1.265625,1.265625 0 0 1 1.26562,1.265625 z" color="#000" display="inline" enable-background="new" overflow="visible" transform="matrix(1.1975309,0,0,1.1975309,259.45139,441.55594)" visibility="visible" style="marker:none"/><path id="path3945-4-1-6-8-3-6-3-8" fill="#000" fill-opacity="1" fill-rule="nonzero" stroke="none" stroke-dasharray="none" stroke-dashoffset="0" stroke-linecap="butt" stroke-linejoin="miter" stroke-miterlimit="4" stroke-opacity="1" stroke-width="1.083" d="m 58.88672,408.15234 -0.76563,0.76563 3.42579,3.42578 0.76562,-0.76563 -3.42578,-3.42578 z" baseline-shift="baseline" clip-rule="nonzero" color="#000" color-interpolation="sRGB" color-interpolation-filters="linearRGB" color-rendering="auto" direction="ltr" display="inline" enable-background="new" font-family="sans-serif" font-size="medium" font-stretch="normal" font-style="normal" font-variant="normal" font-weight="normal" image-rendering="auto" letter-spacing="normal" opacity="1" overflow="visible" shape-rendering="auto" text-anchor="start" text-decoration="none" text-rendering="auto" visibility="visible" word-spacing="normal" writing-mode="lr-tb" style="line-height:normal;text-indent:0;text-align:start;text-decoration-line:none;text-decoration-style:solid;text-decoration-color:#000;text-transform:none;block-progression:tb;white-space:normal;isolation:auto;mix-blend-mode:normal;solid-color:#000;solid-opacity:1;marker:none"/><path id="path3949-9-6-5-5-7-2-9-9" fill="#000" fill-opacity="1" fill-rule="nonzero" stroke="none" stroke-dasharray="none" stroke-dashoffset="0" stroke-linecap="butt" stroke-linejoin="miter" stroke-miterlimit="4" stroke-opacity="1" stroke-width="1.083" d="m 53.546875,408.15234 -3.425781,3.42578 0.765625,0.76563 3.425781,-3.42578 -0.765625,-0.76563 z" baseline-shift="baseline" clip-rule="nonzero" color="#000" color-interpolation="sRGB" color-interpolation-filters="linearRGB" color-rendering="auto" direction="ltr" display="inline" enable-background="new" font-family="sans-serif" font-size="medium" font-stretch="normal" font-style="normal" font-variant="normal" font-weight="normal" image-rendering="auto" letter-spacing="normal" opacity="1" overflow="visible" shape-rendering="auto" text-anchor="start" text-decoration="none" text-rendering="auto" visibility="visible" word-spacing="normal" writing-mode="lr-tb" style="line-height:normal;text-indent:0;text-align:start;text-decoration-line:none;text-decoration-style:solid;text-decoration-color:#000;text-transform:none;block-progression:tb;white-space:normal;isolation:auto;mix-blend-mode:normal;solid-color:#000;solid-opacity:1;marker:none"/><path id="path3953-1-6-8-4-3-9-0-0" fill="#000" fill-opacity="1" fill-rule="nonzero" stroke="none" stroke-dasharray="none" stroke-dashoffset="0" stroke-linecap="butt" stroke-linejoin="miter" stroke-miterlimit="4" stroke-opacity="1" stroke-width="1.083" d="m 61.546875,400.15234 -3.425781,3.42578 0.765625,0.76563 3.425781,-3.42578 -0.765625,-0.76563 z" baseline-shift="baseline" clip-rule="nonzero" color="#000" color-interpolation="sRGB" color-interpolation-filters="linearRGB" color-rendering="auto" direction="ltr" display="inline" enable-background="new" font-family="sans-serif" font-size="medium" font-stretch="normal" font-style="normal" font-variant="normal" font-weight="normal" image-rendering="auto" letter-spacing="normal" opacity="1" overflow="visible" shape-rendering="auto" text-anchor="start" text-decoration="none" text-rendering="auto" visibility="visible" word-spacing="normal" writing-mode="lr-tb" style="line-height:normal;text-indent:0;text-align:start;text-decoration-line:none;text-decoration-style:solid;text-decoration-color:#000;text-transform:none;block-progression:tb;white-space:normal;isolation:auto;mix-blend-mode:normal;solid-color:#000;solid-opacity:1;marker:none"/><path id="path3955-3-2-8-0-2-3-2-2" fill="#000" fill-opacity="1" fill-rule="nonzero" stroke="none" stroke-dasharray="none" stroke-dashoffset="0" stroke-linecap="butt" stroke-linejoin="miter" stroke-miterlimit="4" stroke-opacity="1" stroke-width="1.083" d="m 50.886719,400.15234 -0.765625,0.76563 3.425781,3.42578 0.765625,-0.76563 -3.425781,-3.42578 z" baseline-shift="baseline" clip-rule="nonzero" color="#000" color-interpolation="sRGB" color-interpolation-filters="linearRGB" color-rendering="auto" direction="ltr" display="inline" enable-background="new" font-family="sans-serif" font-size="medium" font-stretch="normal" font-style="normal" font-variant="normal" font-weight="normal" image-rendering="auto" letter-spacing="normal" opacity="1" overflow="visible" shape-rendering="auto" text-anchor="start" text-decoration="none" text-rendering="auto" visibility="visible" word-spacing="normal" writing-mode="lr-tb" style="line-height:normal;text-indent:0;text-align:start;text-decoration-line:none;text-decoration-style:solid;text-decoration-color:#000;text-transform:none;block-progression:tb;white-space:normal;isolation:auto;mix-blend-mode:normal;solid-color:#000;solid-opacity:1;marker:none"/></g><g id="g7597-3-6-2-9-2-2-9-5" fill="#4a90d8" fill-opacity="1" display="inline" transform="matrix(11.773509,0,0,11.773509,440.93652,-1717.1331)"><path id="rect7465-4-8-6-2-7-6-7-3-3" fill="#000" fill-opacity="1" fill-rule="nonzero" stroke="none" stroke-width="1" d="m 116.0002,278 0,5.5625 c 0,0.51569 -0.0522,1.10849 -0.4375,1.625 -0.38532,0.5165 -1.09467,0.8384 -2.0625,0.8125 l -4.0625,0 -1.03125,1 4.59375,0 3,3 0,-3 1,0 c 0.554,0 1,-0.446 1,-1 l 0,-7 c 0,-0.554 -0.446,-1 -1,-1 z" color="#000" display="inline" enable-background="accumulate" opacity="1" overflow="visible" visibility="visible" style="marker:none"/><path id="rect7465-1-0-9-2-8-7-9-3" fill="#000" fill-opacity="1" fill-rule="nonzero" stroke="none" stroke-width="1" d="m 105.0002,276 c -0.554,0 -1,0.446 -1,1 l 0,7 c 0,0.554 0.446,1 1,1 l 1,0 0,3 3,-3 5,0 c 0.554,0 1,-0.446 1,-1 l 0,-7 c 0,-0.554 -0.446,-1 -1,-1 l -9,0 z m 3,2 1,0 0,1 1,0 0,-1 1,0 0,1 1,0 0,1 -1,0 0,1 1,0 0,1 -1,0 0,1 -1,0 0,-1 -1,0 0,1 -1,0 0,-1 -1,0 0,-1 1,0 0,-1 -1,0 0,-1 1,0 0,-1 z m 1,2 0,1 1,0 0,-1 -1,0 z" color="#000" display="inline" enable-background="accumulate" overflow="visible" visibility="visible" style="marker:none"/><rect id="rect19714-0-3-4-6-5-7-6-0-0" width="16" height="16" x="103" y="275" fill="#000" fill-opacity="1" stroke="none" display="inline" opacity="0"/></g></g><g id="g10353-8-4" transform="matrix(12.633119,0,0,12.632164,-6275.323,-10882.881)"><g id="g7313-6-1-2" fill="#4a90d8" fill-opacity="1" transform="matrix(0.04290416,0,0,0.04290416,547.79027,895.32173)"><g id="g15043-2-6-9" fill="#4a90d8" fill-opacity="1" fill-rule="nonzero" stroke="none" stroke-miterlimit="4" transform="matrix(3.1536648,0,0,3.1536648,0.00834015,0)"><g id="g15045-9-6-8" fill="#4a90d8" fill-opacity="1"><path id="path15047-1-1-6" fill="#000" fill-opacity="1" d="M 86.068,0 C 61.466,0 56.851,35.041 70.691,35.041 84.529,35.041 110.671,0 86.068,0 Z"/><path id="path15049-7-8-0" fill="#000" fill-opacity="1" d="M 45.217,30.699 C 52.586,31.149 60.671,2.577 46.821,4.374 32.976,6.171 37.845,30.249 45.217,30.699 Z"/><path id="path15051-1-4-7" fill="#000" fill-opacity="1" d="M 11.445,48.453 C 16.686,46.146 12.12,23.581 3.208,29.735 -5.7,35.89 6.204,50.759 11.445,48.453 Z"/><path id="path15053-6-2-74" fill="#000" fill-opacity="1" d="M 26.212,36.642 C 32.451,35.37 32.793,9.778 21.667,14.369 10.539,18.961 19.978,37.916 26.212,36.642 l 0,0 z"/><path id="path15055-0-4-4" fill="#000" fill-opacity="1" d="m 58.791,93.913 c 1.107,8.454 -6.202,12.629 -13.36,7.179 C 22.644,83.743 83.16,75.088 79.171,51.386 75.86,31.712 15.495,37.769 8.621,68.553 3.968,89.374 27.774,118.26 52.614,118.26 c 12.22,0 26.315,-11.034 28.952,-25.012 C 83.58,82.589 57.867,86.86 58.791,93.913 l 0,0 z"/></g></g></g><g id="g19712-4-6-3-4-4-8-2-8-2" fill="#4a90d8" fill-opacity="1" display="inline" transform="translate(502.29929,640.32233)"><rect id="rect19714-2-9-4-3-9-3-9-7-7" width="16" height="16" x="44" y="255" fill="#000" fill-opacity="1" stroke="none" opacity="0"/></g></g></g></svg>