<svg xmlns="http://www.w3.org/2000/svg" xmlns:svg="http://www.w3.org/2000/svg" id="svg21721" width="1024" height="1000" version="1.1"><metadata id="metadata21726"/><g id="layer1" transform="translate(0,232)"><flowRoot id="flowRoot22293" fill="#000" fill-opacity="1" stroke="none" font-family="Sans" font-size="40" font-style="normal" font-weight="normal" letter-spacing="0" transform="matrix(0.5308752,0,0,0.5308752,-2.0105795,198.80347)" word-spacing="0" xml:space="preserve" style="line-height:125%"><flowRegion id="flowRegion22295"><rect id="rect22297" width="533.646" height="144.246" x="59" y="448"/></flowRegion><flowPara id="flowPara22299">GNOME 3.8 - Jon McCann talks of future in GNOME</flowPara></flowRoot><flowRoot id="flowRoot22301" fill="#000" fill-opacity="1" stroke="none" font-family="Sans" font-size="40" font-style="normal" font-weight="normal" letter-spacing="0" transform="matrix(0.36885547,0,0,0.36885547,-8.017018,202.8244)" word-spacing="0" xml:space="preserve" style="line-height:125%"><flowRegion id="flowRegion22303"><rect id="rect22305" width="338.704" height="166.17" x="103.238" y="572.838"/></flowRegion><flowPara id="flowPara22307">March 19, 2013</flowPara></flowRoot><flowRoot id="flowRoot22309" fill="#000" fill-opacity="1" stroke="none" font-family="Sans" font-size="40" font-style="normal" font-weight="normal" letter-spacing="0" transform="matrix(0.33454741,0,0,0.33454741,-86.303553,477.99522)" word-spacing="0" xml:space="preserve" style="line-height:125%"><flowRegion id="flowRegion22311"><rect id="rect22313" width="914.996" height="480.833" x="350.725" y="55.236"/></flowRegion><flowPara id="flowPara22321">The GNOME Project is proud to announce the imminent release of GNOME 3.8 in less than two weeks. As with every release, there are many new features and technical improvements. We asked William Jon McCann, a GNOME designer, about the direction of the project and what he is anticipating for GNOME in the future. Question: [...]</flowPara></flowRoot><flowRoot id="flowRoot22293-6" fill="#000" fill-opacity="1" stroke="none" font-family="Sans" font-size="40" font-style="normal" font-weight="normal" letter-spacing="0" transform="matrix(0.5308752,0,0,0.5308752,324.98942,198.80347)" word-spacing="0" xml:space="preserve" style="line-height:125%"><flowRegion id="flowRegion22295-9"><rect id="rect22297-2" width="533.646" height="144.246" x="59" y="448"/></flowRegion><flowPara id="flowPara22299-6">GNOME 3.8 - Jon McCann talks of future in GNOME</flowPara></flowRoot><flowRoot id="flowRoot22301-6" fill="#000" fill-opacity="1" stroke="none" font-family="Sans" font-size="40" font-style="normal" font-weight="normal" letter-spacing="0" transform="matrix(0.36885547,0,0,0.36885547,318.98298,202.8244)" word-spacing="0" xml:space="preserve" style="line-height:125%"><flowRegion id="flowRegion22303-5"><rect id="rect22305-9" width="338.704" height="166.17" x="103.238" y="572.838"/></flowRegion><flowPara id="flowPara22307-1">March 19, 2013</flowPara></flowRoot><flowRoot id="flowRoot22309-6" fill="#000" fill-opacity="1" stroke="none" font-family="Sans" font-size="40" font-style="normal" font-weight="normal" letter-spacing="0" transform="matrix(0.33454741,0,0,0.33454741,240.69644,477.99522)" word-spacing="0" xml:space="preserve" style="line-height:125%"><flowRegion id="flowRegion22311-3"><rect id="rect22313-8" width="914.996" height="480.833" x="350.725" y="55.236"/></flowRegion><flowPara id="flowPara22321-6">The GNOME Project is proud to announce the imminent release of GNOME 3.8 in less than two weeks. As with every release, there are many new features and technical improvements. We asked William Jon McCann, a GNOME designer, about the direction of the project and what he is anticipating for GNOME in the future. Question: [...]</flowPara></flowRoot><flowRoot id="flowRoot22293-6-5" fill="#000" fill-opacity="1" stroke="none" font-family="Sans" font-size="40" font-style="normal" font-weight="normal" letter-spacing="0" transform="matrix(0.5308752,0,0,0.5308752,656.98942,198.80347)" word-spacing="0" xml:space="preserve" style="line-height:125%"><flowRegion id="flowRegion22295-9-6"><rect id="rect22297-2-5" width="533.646" height="144.246" x="59" y="448"/></flowRegion><flowPara id="flowPara22299-6-9">GNOME 3.8 - Jon McCann talks of future in GNOME</flowPara></flowRoot><flowRoot id="flowRoot22301-6-6" fill="#000" fill-opacity="1" stroke="none" font-family="Sans" font-size="40" font-style="normal" font-weight="normal" letter-spacing="0" transform="matrix(0.36885547,0,0,0.36885547,650.98298,202.8244)" word-spacing="0" xml:space="preserve" style="line-height:125%"><flowRegion id="flowRegion22303-5-4"><rect id="rect22305-9-7" width="338.704" height="166.17" x="103.238" y="572.838"/></flowRegion><flowPara id="flowPara22307-1-1">March 19, 2013</flowPara></flowRoot><flowRoot id="flowRoot22309-6-9" fill="#000" fill-opacity="1" stroke="none" font-family="Sans" font-size="40" font-style="normal" font-weight="normal" letter-spacing="0" transform="matrix(0.33454741,0,0,0.33454741,572.69644,477.99522)" word-spacing="0" xml:space="preserve" style="line-height:125%"><flowRegion id="flowRegion22311-3-5"><rect id="rect22313-8-7" width="914.996" height="480.833" x="350.725" y="55.236"/></flowRegion><flowPara id="flowPara22321-6-5">The GNOME Project is proud to announce the imminent release of GNOME 3.8 in less than two weeks. As with every release, there are many new features and technical improvements. We asked William Jon McCann, a GNOME designer, about the direction of the project and what he is anticipating for GNOME in the future. Question: [...]</flowPara></flowRoot><rect id="rect22437" width="380.132" height="279.474" x="30.406" y="-55.402" fill="#000" fill-opacity=".533" stroke="none"/><flowRoot id="flowRoot22439" fill="#000" fill-opacity="1" stroke="none" font-family="Sans" font-size="40" font-style="normal" font-weight="normal" letter-spacing="0" transform="matrix(0.75543829,0,0,0.75543829,60.296406,-94.56706)" word-spacing="0" xml:space="preserve" style="line-height:125%"><flowRegion id="flowRegion22441"><rect id="rect22443" width="688.722" height="301.227" x="511.945" y="42.508"/></flowRegion><flowPara id="flowPara22445">Get things done with ease, comfort and control.</flowPara></flowRoot><flowRoot id="flowRoot22447" fill="#000" fill-opacity="1" stroke="none" font-family="Sans" font-size="40" font-style="normal" font-weight="normal" letter-spacing="0" transform="matrix(0.40884258,0,0,0.40884258,269.64453,-17.522007)" word-spacing="0" xml:space="preserve" style="line-height:125%"><flowRegion id="flowRegion22449"><rect id="rect22451" width="1290.67" height="404.88" x="430" y="128"/></flowRegion><flowPara id="flowPara22453">GNOME takes elegance to a new level. We&apos;ve swept away the clutter and made a simple and easy-to-use experice. Lorem ipsum dolor sit amet, consectetur adipiscing elit. Phasellus mattis quam ut sem rutrum quis faucibus lacus porttitor. Cras elit nulla, pellentesque</flowPara></flowRoot><rect id="rect22523" width="64.347" height="64.347" x="649.124" y="685.47" fill="#3465a4" fill-opacity=".533" stroke="none" rx="12.728" ry="12.728"/><rect id="rect22523-7" width="64.347" height="64.347" x="734.684" y="685.47" fill="#3465a4" fill-opacity=".533" stroke="none" rx="12.728" ry="12.728"/><rect id="rect22523-7-3" width="64.347" height="64.347" x="816.001" y="685.47" fill="#3465a4" fill-opacity=".533" stroke="none" rx="12.728" ry="12.728"/><rect id="rect22523-7-3-8" width="64.347" height="64.347" x="901.49" y="685.47" fill="#3465a4" fill-opacity=".533" stroke="none" rx="12.728" ry="12.728"/><flowRoot id="flowRoot22625" fill="#000" fill-opacity="1" stroke="none" font-family="Sans" font-size="40" font-style="normal" font-weight="normal" letter-spacing="0" transform="matrix(0.36338544,0,0,0.36338544,13.545854,153.41878)" word-spacing="0" xml:space="preserve" style="line-height:125%"><flowRegion id="flowRegion22627"><rect id="rect22629" width="1190.518" height="404.531" x="43.841" y="333.836"/></flowRegion><flowPara style="-inkscape-font-specification:Sans Bold" id="flowPara22631" font-weight="bold">Make a donation and become a Friend of GNOME!</flowPara><flowPara id="flowPara22681">Your donation will ensure that GNOME continues to be a free and open source desktop by providing resources to developers, software and education for end users, and promotion for GNOME worldwide.</flowPara><flowPara id="flowPara22633"/><flowPara id="flowPara22635"/></flowRoot><flowRoot id="flowRoot22625-7" fill="#000" fill-opacity="1" stroke="none" font-family="Sans" font-size="40" font-style="normal" font-weight="normal" letter-spacing="0" transform="matrix(0.36338544,0,0,0.36338544,530.31959,147.41878)" word-spacing="0" xml:space="preserve" style="line-height:125%"><flowRegion id="flowRegion22627-7"><rect id="rect22629-7" width="1182.734" height="307.237" x="43.841" y="333.836"/></flowRegion><flowPara style="-inkscape-font-specification:Sans Bold" id="flowPara22635-9" font-weight="bold">Get involved!</flowPara><flowPara id="flowPara22677">The GNOME Project is a diverse international community which involves hundreds of contributors, many of whom are volunteers. Anyone can contribute to the GNOME!</flowPara></flowRoot><path id="path22683" fill="none" stroke="#000" stroke-linecap="butt" stroke-linejoin="miter" stroke-opacity="1" stroke-width="1" d="m 33.941125,249.18463 929.138315,0"/><path id="path22685" fill="none" stroke="#000" stroke-linecap="butt" stroke-linejoin="miter" stroke-opacity="1" stroke-width="1" d="m 29.698485,387.77756 936.209375,0"/><g id="layer1-1" transform="translate(-274.76368,-994.58622)"><g id="g19089" fill="#132c51" fill-opacity="1" transform="matrix(2.1582668,0,0,2.1582668,-69.641399,10.380302)"><g id="g15043" fill="#132c51" fill-opacity="1" fill-rule="nonzero" stroke="none" transform="matrix(0.4314921,0,0,0.4314921,175.04372,357.6187)"><g id="g15045" fill="#132c51" fill-opacity="1"><path id="path15047" fill="#132c51" fill-opacity="1" d="M 86.068,0 C 61.466,0 56.851,35.041 70.691,35.041 84.529,35.041 110.671,0 86.068,0 z"/><path id="path15049" fill="#132c51" fill-opacity="1" d="M 45.217,30.699 C 52.586,31.149 60.671,2.577 46.821,4.374 32.976,6.171 37.845,30.249 45.217,30.699 z"/><path id="path15051" fill="#132c51" fill-opacity="1" d="M 11.445,48.453 C 16.686,46.146 12.12,23.581 3.208,29.735 -5.7,35.89 6.204,50.759 11.445,48.453 z"/><path id="path15053" fill="#132c51" fill-opacity="1" d="M 26.212,36.642 C 32.451,35.37 32.793,9.778 21.667,14.369 10.539,18.961 19.978,37.916 26.212,36.642 l 0,0 z"/><path id="path15055" fill="#132c51" fill-opacity="1" d="m 58.791,93.913 c 1.107,8.454 -6.202,12.629 -13.36,7.179 C 22.644,83.743 83.16,75.088 79.171,51.386 75.86,31.712 15.495,37.769 8.621,68.553 3.968,89.374 27.774,118.26 52.614,118.26 c 12.22,0 26.315,-11.034 28.952,-25.012 C 83.58,82.589 57.867,86.86 58.791,93.913 l 0,0 z"/></g></g><path id="path15059-5" fill="#132c51" fill-opacity="1" stroke="none" d="m 266.40838,375.4882 c -2.67361,0.0725 -4.78454,1.03335 -6.3381,2.87533 -1.60665,1.91806 -2.41528,4.56691 -2.41528,7.94652 0,3.369 0.80863,6.01076 2.41528,7.92883 1.61549,1.91806 3.83436,2.87533 6.66368,2.87533 2.8364,0 5.06058,-0.95727 6.66899,-2.87533 1.60665,-1.91807 2.40997,-4.55983 2.40997,-7.92883 0,-3.37961 -0.80332,-6.02846 -2.40997,-7.94652 -1.60841,-1.91806 -3.83259,-2.87533 -6.66899,-2.87533 -0.1097,0 -0.21764,-0.004 -0.32558,0 z m 0.19818,3.89275 c 0.0425,-0.002 0.0849,0 0.1274,0 1.39431,0 2.47543,0.60338 3.23983,1.81367 0.7644,1.21029 1.15013,2.9178 1.15013,5.11543 0,2.18702 -0.38573,3.88214 -1.15013,5.09243 -0.7644,1.21029 -1.84552,1.81898 -3.23983,1.81898 -1.38724,0 -2.45951,-0.60869 -3.22391,-1.81898 -0.76439,-1.21029 -1.15013,-2.90541 -1.15013,-5.09243 0,-2.19763 0.38574,-3.90514 1.15013,-5.11543 0.74139,-1.17136 1.77121,-1.77651 3.09651,-1.81367 z" font-family="Bitstream Vera Sans" font-size="148.7" font-stretch="normal" font-style="normal" font-variant="normal" font-weight="bold" text-anchor="start" style="text-align:start;line-height:125%"/><path id="path15061-6" fill="#132c51" fill-opacity="1" stroke="none" d="m 236.20947,395.15899 c -2.35511,1.97822 -5.85859,1.95522 -7.31837,1.95522 -2.93903,0 -5.2676,-0.96788 -6.98572,-2.90364 -1.71812,-1.94638 -2.57629,-4.58106 -2.57629,-7.90406 0,-3.36015 0.87409,-6.00368 2.62406,-7.93059 1.74997,-1.92692 4.14579,-2.88949 7.18744,-2.88949 1.17313,0 2.29673,0.13094 3.369,0.39105 1.07935,0.2601 2.09678,0.64761 3.04874,1.15897 l -1.22445,3.62026 c -0.53614,-0.29372 -1.14837,-0.58214 -1.71813,-0.78562 -0.96964,-0.32558 -1.94283,-0.48837 -2.91956,-0.48837 -1.81367,0 -3.21152,0.59984 -4.19709,1.79951 -0.97673,1.1926 -1.46509,2.90011 -1.46509,5.12428 0,2.20649 0.47244,3.91045 1.41732,5.11013 0.94664,1.20144 2.3675,1.80128 4.03076,1.80128 1.69158,0 2.73908,-0.42466 3.29645,-0.8741 l 0,-3.60787 -3.66272,0 0,-3.6008 7.09365,0" font-family="Bitstream Vera Sans" font-size="148.7" font-stretch="normal" font-style="normal" font-variant="normal" font-weight="bold" text-anchor="start" style="text-align:start;line-height:125%"/><path id="path15063-5" fill="#132c51" fill-opacity="1" stroke="none" d="m 239.32014,375.86332 2.87179,0 9.07365,12.52759 0,-12.52759 3.87152,0 0,20.84569 -2.87179,0 -9.07188,-12.52758 0,12.52758 -3.87329,0 0,-20.84569" font-family="Bitstream Vera Sans" font-size="148.7" font-stretch="normal" font-style="normal" font-variant="normal" font-weight="bold" text-anchor="start" style="text-align:start;line-height:125%"/><path id="path15065-9" fill="#132c51" fill-opacity="1" stroke="none" d="m 278.80149,375.86332 5.79136,0 4.02014,13.01418 4.04316,-13.01418 4.89602,0 2.21179,20.84569 -4.30326,0 -1.32707,-13.03541 -4.06616,13.09734 -2.88594,0 -4.06616,-13.5397 -1.32708,13.47777 -4.31388,0 2.2118,-20.84569" font-family="Bitstream Vera Sans" font-size="148.7" font-stretch="normal" font-style="normal" font-variant="normal" font-weight="bold" text-anchor="start" style="text-align:start;line-height:125%"/><path id="path15067-9" fill="#132c51" fill-opacity="1" stroke="none" d="m 302.86931,375.86332 12.28163,0 0,4.06262 -7.73064,0 0,4.32449 5.94352,0 0,3.62026 -5.94352,0 0,4.7757 7.99076,0 0,4.06262 -12.54175,0 0,-20.84569" font-family="Bitstream Vera Sans" font-size="148.7" font-stretch="normal" font-style="normal" font-variant="normal" font-weight="bold" text-anchor="start" style="text-align:start;line-height:125%"/></g><rect id="rect22733" width="598.212" height="53.74" x="656.601" y="820.72" fill="#132c51" fill-opacity="1" stroke="none"/></g></g></svg>