<svg xmlns="http://www.w3.org/2000/svg" xmlns:svg="http://www.w3.org/2000/svg" id="svg9264" width="524.409" height="744.094" version="1.1"><metadata id="metadata4"/><g id="layer1" transform="translate(0,-308.26769)"><path id="rect9346" fill="#018094" fill-opacity="1" stroke="none" d="m 0.12626849,308.26769 524.26921151,0 0,324.09448 -524.26921151,0 z"/><g id="g3311" transform="translate(1.9196719,-0.07331)"><g id="g3301"><path id="rect3259-2-8-6" fill="#fff" fill-opacity="1" stroke="none" stroke-width="2" d="m 167.62211,361.07494 0,108.10675 c 0,31.9945 23.31399,56.84901 43.91836,75.28863 20.60438,18.43961 41.02266,30.88764 41.02266,30.88764 l 7.72191,4.34358 8.20453,-4.8262 c 0,0 19.98878,-12.31753 40.54003,-30.88764 20.55125,-18.57011 43.91837,-43.23421 43.91837,-74.80601 L 352.94797,361.07494 Z" baseline-shift="baseline" color="#bebebe" direction="ltr" display="inline" enable-background="accumulate" font-family="Sans" font-size="xx-small" font-stretch="normal" font-style="normal" font-variant="normal" font-weight="normal" letter-spacing="normal" overflow="visible" text-anchor="start" text-decoration="none" visibility="visible" word-spacing="normal" writing-mode="lr-tb" style="text-indent:0;text-align:start;line-height:normal;text-transform:none;block-progression:tb;marker:none;-inkscape-font-specification:Sans"/><g id="g15043" fill="#2e3436" fill-opacity="1" fill-rule="nonzero" stroke="none" transform="matrix(1.035036,0,0,1.035036,210.49469,393.43387)"><g id="g15045" fill="#2e3436" fill-opacity="1"><path id="path15047" fill="#018094" fill-opacity="1" d="M 86.068,0 C 61.466,0 56.851,35.041 70.691,35.041 84.529,35.041 110.671,0 86.068,0 Z"/><path id="path15049" fill="#018094" fill-opacity="1" d="M 45.217,30.699 C 52.586,31.149 60.671,2.577 46.821,4.374 32.976,6.171 37.845,30.249 45.217,30.699 Z"/><path id="path15051" fill="#018094" fill-opacity="1" d="M 11.445,48.453 C 16.686,46.146 12.12,23.581 3.208,29.735 -5.7,35.89 6.204,50.759 11.445,48.453 Z"/><path id="path15053" fill="#018094" fill-opacity="1" d="M 26.212,36.642 C 32.451,35.37 32.793,9.778 21.667,14.369 10.539,18.961 19.978,37.916 26.212,36.642 L 26.212,36.642 Z"/><path id="path15055" fill="#018094" fill-opacity="1" d="m 58.791,93.913 c 1.107,8.454 -6.202,12.629 -13.36,7.179 C 22.644,83.743 83.16,75.088 79.171,51.386 75.86,31.712 15.495,37.769 8.621,68.553 3.968,89.374 27.774,118.26 52.614,118.26 c 12.22,0 26.315,-11.034 28.952,-25.012 C 83.58,82.589 57.867,86.86 58.791,93.913 L 58.791,93.913 Z"/></g></g></g></g><flowRoot id="flowRoot9312" fill="#000" fill-opacity="1" stroke="none" font-family="Sans" font-size="14.549" font-style="normal" font-weight="normal" letter-spacing="0" text-anchor="start" transform="matrix(1.0997427,0,0,1.0997427,23.324613,335.2491)" word-spacing="0" xml:space="preserve" style="text-align:justify;line-height:150%"><flowRegion id="flowRegion9314"><rect style="text-align:justify;line-height:150%" id="rect9316" width="356.898" height="154.85" x="38.571" y="359.809" font-size="14.549" text-anchor="start"/></flowRegion><flowPara id="flowPara10640" font-family="Cantarell" font-size="15.913" font-stretch="normal" font-style="normal" font-variant="normal" font-weight="normal" text-anchor="start" style="text-align:justify;line-height:150%;-inkscape-font-specification:Cantarell">Software should make people feel safe and put them in control. GNOME was founded to promote software freedom. We remain committed to the empowerment of our users, and have launched a campaign to make GNOME 3 the most secure computing environment available.</flowPara></flowRoot><flowRoot id="flowRoot9312-4" fill="#000" fill-opacity="1" stroke="none" font-family="Sans" font-size="14.153" font-style="normal" font-weight="normal" letter-spacing="0" transform="matrix(1.1305281,0,0,1.1305281,22.236201,536.87835)" word-spacing="0" xml:space="preserve" style="line-height:125%"><flowRegion id="flowRegion9314-5"><rect id="rect9316-3" width="375.112" height="134.698" x="38.571" y="359.809" font-size="14.153"/></flowRegion><flowPara id="flowPara10646" font-family="Cantarell" font-size="14.153" font-stretch="normal" font-style="normal" font-variant="normal" font-weight="bold" style="line-height:170.00000477%;-inkscape-font-specification:Cantarell Bold"/><flowPara id="flowPara10644" fill="#4e9a06" font-family="Cantarell" font-size="14.153" font-stretch="normal" font-style="normal" font-variant="normal" font-weight="bold" style="line-height:170.00000477%;-inkscape-font-specification:Cantarell Bold">www.gnome.org/friends</flowPara></flowRoot><flowRoot id="flowRoot9312-4-1" fill="#018094" fill-opacity="1" stroke="none" font-family="Sans" font-size="16.346" font-style="normal" font-weight="normal" letter-spacing="0" transform="matrix(1.9577083,0,0,1.9577083,-12.285935,-34.260035)" word-spacing="0" xml:space="preserve" style="line-height:125%"><flowRegion id="flowRegion9314-5-0"><rect id="rect9316-3-9" width="186.705" height="57.743" x="38.571" y="359.809" fill="#018094" fill-opacity="1" font-size="16.346"/></flowRegion><flowPara id="flowPara10644-5" fill="#018094" fill-opacity="1" font-family="Cantarell" font-size="16.346" font-stretch="normal" font-style="normal" font-variant="normal" font-weight="bold" style="line-height:170.00000477%;-inkscape-font-specification:Cantarell Bold">Putting you in control</flowPara></flowRoot><flowRoot id="flowRoot3005" fill="#000" fill-opacity="1" stroke="none" font-family="Sans" font-size="14.153" font-style="normal" font-weight="normal" letter-spacing="0" transform="matrix(1.1305281,0,0,1.1305281,21.852201,512.87835)" word-spacing="0" xml:space="preserve" style="line-height:150%"><flowRegion id="flowRegion3007"><rect style="line-height:150%" id="rect3009" width="362.476" height="124.767" x="38.571" y="359.809" font-size="14.153"/></flowRegion><flowPara style="line-height:150%;-inkscape-font-specification:Cantarell Bold" id="flowPara3013" fill="#000" font-family="Cantarell" font-size="14.153" font-stretch="normal" font-style="normal" font-variant="normal" font-weight="bold">Become a Friend of GNOME and help us reach our goal of $20000.</flowPara></flowRoot></g></svg>