<svg xmlns="http://www.w3.org/2000/svg" xmlns:svg="http://www.w3.org/2000/svg" id="svg9264" width="1052.362" height="744.094" version="1.1"><metadata id="metadata4"/><g id="layer1" transform="translate(0,-308.26766)"><path id="rect9346" fill="#018094" fill-opacity="1" stroke="none" d="m 0.12626849,308.26769 1052.26923151,0 0,324.09448 -1052.26923151,0 z"/><flowRoot id="flowRoot9312" fill="#000" fill-opacity="1" stroke="none" font-family="Sans" font-size="14.549" font-style="normal" font-weight="normal" letter-spacing="0" text-anchor="start" transform="matrix(1.0997427,0,0,1.0997427,9.343363,335.2491)" word-spacing="0" xml:space="preserve" style="text-align:justify;line-height:150%"><flowRegion id="flowRegion9314"><rect style="text-align:justify;line-height:150%" id="rect9316" width="388.724" height="162.124" x="38.571" y="359.809" font-size="14.549" text-anchor="start"/></flowRegion><flowPara id="flowPara10640" font-family="Cantarell" font-size="14.549" font-stretch="normal" font-style="normal" font-variant="normal" font-weight="normal" text-anchor="start" style="text-align:justify;line-height:150%;-inkscape-font-specification:Cantarell">Software should make people feel safe and put them in control. GNOME was founded to promote software freedom. We remain committed to the empowerment of our users, and have launched a campaign to make GNOME 3 the most secure computing environment available.</flowPara></flowRoot><flowRoot id="flowRoot9312-4" fill="#018094" fill-opacity="1" stroke="none" font-family="Sans" font-size="14.153" font-style="normal" font-weight="normal" letter-spacing="0" transform="matrix(1.1305281,0,0,1.1305281,8.236201,499.87835)" word-spacing="0" xml:space="preserve" style="line-height:125%"><flowRegion id="flowRegion9314-5"><rect id="rect9316-3" width="375.112" height="134.698" x="38.571" y="359.809" fill="#018094" fill-opacity="1" font-size="14.153"/></flowRegion><flowPara id="flowPara10646" fill="#018094" fill-opacity="1" font-family="Cantarell" font-size="14.153" font-stretch="normal" font-style="normal" font-variant="normal" font-weight="bold" style="line-height:170.00000477%;-inkscape-font-specification:Cantarell Bold"/><flowPara id="flowPara10644" fill="#018094" fill-opacity="1" font-family="Cantarell" font-size="14.153" font-stretch="normal" font-style="normal" font-variant="normal" font-weight="bold" style="line-height:170.00000477%;-inkscape-font-specification:Cantarell Bold">www.gnome.org/friends</flowPara></flowRoot><flowRoot id="flowRoot9312-4-1" fill="#018094" fill-opacity="1" stroke="none" font-family="Sans" font-size="16.346" font-style="normal" font-weight="normal" letter-spacing="0" transform="matrix(1.9577083,0,0,1.9577083,-26.285935,-34.260035)" word-spacing="0" xml:space="preserve" style="line-height:125%"><flowRegion id="flowRegion9314-5-0"><rect id="rect9316-3-9" width="186.705" height="57.743" x="38.571" y="359.809" fill="#018094" fill-opacity="1" font-size="16.346"/></flowRegion><flowPara id="flowPara10644-5" fill="#018094" fill-opacity="1" font-family="Cantarell" font-size="16.346" font-stretch="normal" font-style="normal" font-variant="normal" font-weight="bold" style="line-height:170.00000477%;-inkscape-font-specification:Cantarell Bold">Putting you in control</flowPara></flowRoot><flowRoot id="flowRoot3005" fill="#000" fill-opacity="1" stroke="none" font-family="Sans" font-size="14.153" font-style="normal" font-weight="normal" letter-spacing="0" transform="matrix(1.1305281,0,0,1.1305281,7.852201,467.87835)" word-spacing="0" xml:space="preserve" style="line-height:150%"><flowRegion id="flowRegion3007"><rect style="line-height:150%" id="rect3009" width="362.476" height="124.767" x="38.571" y="359.809" font-size="14.153"/></flowRegion><flowPara style="line-height:150%;-inkscape-font-specification:Cantarell Bold" id="flowPara3013" fill="#000" font-family="Cantarell" font-size="14.153" font-stretch="normal" font-style="normal" font-variant="normal" font-weight="bold">Become a Friend of GNOME and help us reach our goal of $20000.</flowPara></flowRoot><path id="rect3259-2-8-6-8-7-5" fill="#fff" fill-opacity="1" stroke="none" stroke-width="20" d="m 169.8752,360.13134 0,110.96451 c 0,32.94854 23.59127,57.57609 43.30621,75.21989 19.85753,17.77129 39.48458,29.72207 39.48458,29.72207 l 0.0906,0.0546 0.0722,0.0544 7.28113,4.09335 2.89796,1.6301 2.8798,-1.6844 7.73391,-4.54618 0.0544,-0.0361 0.0364,-0.0362 c 0,0 19.23521,-11.83384 39.03177,-29.72207 19.6282,-17.73597 43.26998,-42.15436 43.26998,-74.749 l 0,-110.96452 -186.13887,0 z m 11.59179,28.58363 162.95528,0 0,87.44305 c 0,26.87502 -20.36529,48.90238 -39.4483,66.14568 -18.76967,16.96038 -36.96017,28.22779 -37.23866,28.39991 l -4.85404,2.86174 -4.18393,-2.3546 c 0,0 -0.0888,-0.0532 -0.0906,-0.0546 l -0.0908,-0.0544 c -0.50674,-0.31015 -18.90767,-11.61601 -37.60086,-28.34527 -19.09585,-17.08965 -39.44837,-39.28115 -39.44837,-66.59849 l 0,-87.44307 z" baseline-shift="baseline" color="#bebebe" direction="ltr" display="inline" enable-background="accumulate" font-family="Sans" font-size="medium" font-stretch="normal" font-style="normal" font-variant="normal" font-weight="normal" letter-spacing="normal" overflow="visible" text-anchor="start" text-decoration="none" visibility="visible" word-spacing="normal" writing-mode="lr-tb" style="text-indent:0;text-align:start;line-height:normal;text-transform:none;block-progression:tb;marker:none;-inkscape-font-specification:Sans"/><g id="g15043-8-8-2" fill="#fff" fill-opacity="1" fill-rule="nonzero" stroke="none" transform="matrix(0.97962528,0,0,0.97962528,217.35005,411.21867)"><g id="g15045-2-6" fill="#fff" fill-opacity="1"><path id="path15047-5-5-6" fill="#fff" fill-opacity="1" d="M 86.068,0 C 61.466,0 56.851,35.041 70.691,35.041 84.529,35.041 110.671,0 86.068,0 z"/><path id="path15049-5-9-0" fill="#fff" fill-opacity="1" d="M 45.217,30.699 C 52.586,31.149 60.671,2.577 46.821,4.374 32.976,6.171 37.845,30.249 45.217,30.699 z"/><path id="path15051-1-5-9" fill="#fff" fill-opacity="1" d="M 11.445,48.453 C 16.686,46.146 12.12,23.581 3.208,29.735 -5.7,35.89 6.204,50.759 11.445,48.453 z"/><path id="path15053-6-9-5" fill="#fff" fill-opacity="1" d="M 26.212,36.642 C 32.451,35.37 32.793,9.778 21.667,14.369 10.539,18.961 19.978,37.916 26.212,36.642 l 0,0 z"/><path id="path15055-2-1-5" fill="#fff" fill-opacity="1" d="m 58.791,93.913 c 1.107,8.454 -6.202,12.629 -13.36,7.179 C 22.644,83.743 83.16,75.088 79.171,51.386 75.86,31.712 15.495,37.769 8.621,68.553 3.968,89.374 27.774,118.26 52.614,118.26 c 12.22,0 26.315,-11.034 28.952,-25.012 C 83.58,82.589 57.867,86.86 58.791,93.913 l 0,0 z"/></g></g><flowRoot id="flowRoot9312-0" fill="#000" fill-opacity="1" stroke="none" font-family="Sans" font-size="14.549" font-style="normal" font-weight="normal" letter-spacing="0" text-anchor="start" transform="matrix(1.0997427,0,0,1.0997427,535.34336,335.24909)" word-spacing="0" xml:space="preserve" style="text-align:justify;line-height:150%"><flowRegion id="flowRegion9314-1"><rect style="text-align:justify;line-height:150%" id="rect9316-5" width="388.724" height="162.124" x="38.571" y="359.809" font-size="14.549" text-anchor="start"/></flowRegion><flowPara id="flowPara10640-6" font-family="Cantarell" font-size="14.549" font-stretch="normal" font-style="normal" font-variant="normal" font-weight="normal" text-anchor="start" style="text-align:justify;line-height:150%;-inkscape-font-specification:Cantarell">Software should make people feel safe and put them in control. GNOME was founded to promote software freedom. We remain committed to the empowerment of our users, and have launched a campaign to make GNOME 3 the most secure computing environment available.</flowPara></flowRoot><flowRoot id="flowRoot9312-4-4" fill="#018094" fill-opacity="1" stroke="none" font-family="Sans" font-size="14.153" font-style="normal" font-weight="normal" letter-spacing="0" transform="matrix(1.1305281,0,0,1.1305281,534.2362,499.87834)" word-spacing="0" xml:space="preserve" style="line-height:125%"><flowRegion id="flowRegion9314-5-2"><rect id="rect9316-3-4" width="375.112" height="134.698" x="38.571" y="359.809" fill="#018094" fill-opacity="1" font-size="14.153"/></flowRegion><flowPara id="flowPara10646-9" fill="#018094" fill-opacity="1" font-family="Cantarell" font-size="14.153" font-stretch="normal" font-style="normal" font-variant="normal" font-weight="bold" style="line-height:170.00000477%;-inkscape-font-specification:Cantarell Bold"/><flowPara id="flowPara10644-4" fill="#018094" fill-opacity="1" font-family="Cantarell" font-size="14.153" font-stretch="normal" font-style="normal" font-variant="normal" font-weight="bold" style="line-height:170.00000477%;-inkscape-font-specification:Cantarell Bold">www.gnome.org/friends</flowPara></flowRoot><flowRoot id="flowRoot9312-4-1-8" fill="#018094" fill-opacity="1" stroke="none" font-family="Sans" font-size="16.346" font-style="normal" font-weight="normal" letter-spacing="0" transform="matrix(1.9577083,0,0,1.9577083,499.71407,-34.260037)" word-spacing="0" xml:space="preserve" style="line-height:125%"><flowRegion id="flowRegion9314-5-0-4"><rect id="rect9316-3-9-9" width="186.705" height="57.743" x="38.571" y="359.809" fill="#018094" fill-opacity="1" font-size="16.346"/></flowRegion><flowPara id="flowPara10644-5-3" fill="#018094" fill-opacity="1" font-family="Cantarell" font-size="16.346" font-stretch="normal" font-style="normal" font-variant="normal" font-weight="bold" style="line-height:170.00000477%;-inkscape-font-specification:Cantarell Bold">Putting you in control</flowPara></flowRoot><flowRoot id="flowRoot3005-0" fill="#000" fill-opacity="1" stroke="none" font-family="Sans" font-size="14.153" font-style="normal" font-weight="normal" letter-spacing="0" transform="matrix(1.1305281,0,0,1.1305281,533.8522,467.87834)" word-spacing="0" xml:space="preserve" style="line-height:150%"><flowRegion id="flowRegion3007-7"><rect style="line-height:150%" id="rect3009-9" width="362.476" height="124.767" x="38.571" y="359.809" font-size="14.153"/></flowRegion><flowPara style="line-height:150%;-inkscape-font-specification:Cantarell Bold" id="flowPara3013-7" fill="#000" font-family="Cantarell" font-size="14.153" font-stretch="normal" font-style="normal" font-variant="normal" font-weight="bold">Become a Friend of GNOME and help us reach our goal of $20000.</flowPara></flowRoot><path id="rect3259-2-8-6-8-7-5-8" fill="#fff" fill-opacity="1" stroke="none" stroke-width="20" d="m 695.8752,360.13133 0,110.96451 c 0,32.94854 23.59127,57.57609 43.30621,75.21989 19.85753,17.77129 39.48458,29.72207 39.48458,29.72207 l 0.0906,0.0546 0.0722,0.0544 7.28113,4.09335 2.89796,1.6301 2.8798,-1.6844 7.73391,-4.54618 0.0544,-0.0361 0.0364,-0.0362 c 0,0 19.23521,-11.83384 39.03177,-29.72207 19.6282,-17.73597 43.26998,-42.15436 43.26998,-74.749 l 0,-110.96452 -186.13887,0 z m 11.59179,28.58363 162.95528,0 0,87.44305 c 0,26.87502 -20.36529,48.90238 -39.4483,66.14568 -18.76967,16.96038 -36.96017,28.22779 -37.23866,28.39991 l -4.85404,2.86174 -4.18393,-2.3546 c 0,0 -0.0888,-0.0532 -0.0906,-0.0546 l -0.0908,-0.0544 c -0.50674,-0.31015 -18.90767,-11.61601 -37.60086,-28.34527 -19.09585,-17.08965 -39.44837,-39.28115 -39.44837,-66.59849 l 0,-87.44307 z" baseline-shift="baseline" color="#bebebe" direction="ltr" display="inline" enable-background="accumulate" font-family="Sans" font-size="medium" font-stretch="normal" font-style="normal" font-variant="normal" font-weight="normal" letter-spacing="normal" overflow="visible" text-anchor="start" text-decoration="none" visibility="visible" word-spacing="normal" writing-mode="lr-tb" style="text-indent:0;text-align:start;line-height:normal;text-transform:none;block-progression:tb;marker:none;-inkscape-font-specification:Sans"/><g id="g15043-8-8-2-2" fill="#fff" fill-opacity="1" fill-rule="nonzero" stroke="none" transform="matrix(0.97962528,0,0,0.97962528,743.35005,411.21866)"><g id="g15045-2-6-2" fill="#fff" fill-opacity="1"><path id="path15047-5-5-6-1" fill="#fff" fill-opacity="1" d="M 86.068,0 C 61.466,0 56.851,35.041 70.691,35.041 84.529,35.041 110.671,0 86.068,0 z"/><path id="path15049-5-9-0-0" fill="#fff" fill-opacity="1" d="M 45.217,30.699 C 52.586,31.149 60.671,2.577 46.821,4.374 32.976,6.171 37.845,30.249 45.217,30.699 z"/><path id="path15051-1-5-9-1" fill="#fff" fill-opacity="1" d="M 11.445,48.453 C 16.686,46.146 12.12,23.581 3.208,29.735 -5.7,35.89 6.204,50.759 11.445,48.453 z"/><path id="path15053-6-9-5-7" fill="#fff" fill-opacity="1" d="M 26.212,36.642 C 32.451,35.37 32.793,9.778 21.667,14.369 10.539,18.961 19.978,37.916 26.212,36.642 l 0,0 z"/><path id="path15055-2-1-5-6" fill="#fff" fill-opacity="1" d="m 58.791,93.913 c 1.107,8.454 -6.202,12.629 -13.36,7.179 C 22.644,83.743 83.16,75.088 79.171,51.386 75.86,31.712 15.495,37.769 8.621,68.553 3.968,89.374 27.774,118.26 52.614,118.26 c 12.22,0 26.315,-11.034 28.952,-25.012 C 83.58,82.589 57.867,86.86 58.791,93.913 l 0,0 z"/></g></g></g></svg>