<svg xmlns="http://www.w3.org/2000/svg" xmlns:svg="http://www.w3.org/2000/svg" xmlns:xlink="http://www.w3.org/1999/xlink" id="svg19724" width="400" height="400" version="1.1" viewBox="0 0 400 400"><defs id="defs19726"><linearGradient id="linearGradient3778-0"><stop id="stop3780-4" offset="0" stop-color="#688c9d" stop-opacity="1"/><stop id="stop3782-9" offset="1" stop-color="#93adb9" stop-opacity="1"/></linearGradient><linearGradient id="linearGradient19808" x1="512.5" x2="512.5" y1="610.862" y2="299.804" gradientTransform="matrix(1.6581939,0,0,1.4687459,-220.53981,-939.06051)" gradientUnits="userSpaceOnUse" xlink:href="#linearGradient3778-0"/><linearGradient id="linearGradient20370" x1="176.428" x2="176.428" y1="1112.68" y2="1165.106" gradientTransform="matrix(2.0147946,0,0,1.7846051,-298.13062,-1971.4928)" gradientUnits="userSpaceOnUse" xlink:href="#linearGradient3778-0"/></defs><metadata id="metadata19729"/><g id="layer1" transform="translate(0,-652.36218)"><rect id="rect7368" width="401.222" height="421.1" x="-.824" y="650.599" fill="#4a90d9" fill-opacity="1" fill-rule="nonzero" stroke="none" stroke-width="2.13" color="#000" display="inline" enable-background="accumulate" overflow="visible" visibility="visible" style="marker:none"/><g id="g7370" fill="#276eb9" fill-opacity="1" stroke-width=".648" opacity=".48" transform="matrix(3.2898307,0,0,3.2898312,-3029.0047,-1014.4979)"><path id="path7386" fill="#276eb9" fill-opacity="1" fill-rule="nonzero" stroke="none" stroke-width=".648" d="M 933.02108,518.95224 V 506.68046 H 920.71442 Z" color="#000" display="inline" enable-background="accumulate" overflow="visible" visibility="visible" style="marker:none"/><path id="path7392" fill="#276eb9" fill-opacity="1" fill-rule="nonzero" stroke="none" stroke-width=".648" d="M 945.32772,518.97292 V 531.2447 H 933.02108 Z" color="#000" display="inline" enable-background="accumulate" overflow="visible" visibility="visible" style="marker:none"/><path id="path7394" fill="#276eb9" fill-opacity="1" fill-rule="nonzero" stroke="none" stroke-width=".648" d="m 957.62018,531.26538 v 12.27179 h -12.30664 z" color="#000" display="inline" enable-background="accumulate" overflow="visible" visibility="visible" style="marker:none"/><path id="path7400" fill="#276eb9" fill-opacity="1" fill-rule="nonzero" stroke="none" stroke-width=".648" d="m 945.31354,543.55784 v 12.27177 h -12.30665 z" color="#000" display="inline" enable-background="accumulate" overflow="visible" visibility="visible" style="marker:none"/><path id="path7426" fill="#276eb9" fill-opacity="1" fill-rule="nonzero" stroke="none" stroke-width=".648" d="m 982.19092,506.68046 v 12.27178 h -12.30665 z" color="#000" display="inline" enable-background="accumulate" overflow="visible" visibility="visible" style="marker:none"/><path id="path7428" fill="#276eb9" fill-opacity="1" fill-rule="nonzero" stroke="none" stroke-width=".648" d="m 1019.0825,518.97292 v 12.27178 h -12.3067 z" color="#000" display="inline" enable-background="accumulate" overflow="visible" visibility="visible" style="marker:none"/><path id="path7432" fill="#276eb9" fill-opacity="1" fill-rule="nonzero" stroke="none" stroke-width=".648" d="m 1006.7758,543.55784 v 12.27177 h -12.30661 z" color="#000" display="inline" enable-background="accumulate" overflow="visible" visibility="visible" style="marker:none"/><path id="path7434" fill="#276eb9" fill-opacity="1" fill-rule="nonzero" stroke="none" stroke-width=".648" d="m 982.17672,555.8503 v 12.27178 h 12.30666 z" color="#000" display="inline" enable-background="accumulate" overflow="visible" visibility="visible" style="marker:none"/><path id="path7438" fill="#276eb9" fill-opacity="1" fill-rule="nonzero" stroke="none" stroke-width=".648" d="m 933.03526,568.14276 v 12.27178 h -12.30665 z" color="#000" display="inline" enable-background="accumulate" overflow="visible" visibility="visible" style="marker:none"/><path id="path7442" fill="#276eb9" fill-opacity="1" fill-rule="nonzero" stroke="none" stroke-width=".648" d="m 969.91265,568.14277 v 12.27177 H 957.606 Z" color="#000" display="inline" enable-background="accumulate" overflow="visible" visibility="visible" style="marker:none"/><path id="path7446" fill="#276eb9" fill-opacity="1" fill-rule="nonzero" stroke="none" stroke-width=".648" d="M 957.62018,580.43522 V 592.707 h -12.30664 z" color="#000" display="inline" enable-background="accumulate" overflow="visible" visibility="visible" style="marker:none"/><path id="path7450" fill="#276eb9" fill-opacity="1" fill-rule="nonzero" stroke="none" stroke-width=".648" d="M 945.31354,604.99946 V 592.72768 H 933.00689 Z" color="#000" display="inline" enable-background="accumulate" overflow="visible" visibility="visible" style="marker:none"/><path id="path7452" fill="#276eb9" fill-opacity="1" fill-rule="nonzero" stroke="none" stroke-width=".648" d="m 933.02108,605.02014 v 12.27178 h -12.30666 z" color="#000" display="inline" enable-background="accumulate" overflow="visible" visibility="visible" style="marker:none"/><path id="path7454" fill="#276eb9" fill-opacity="1" fill-rule="nonzero" stroke="none" stroke-width=".648" d="m 1019.0825,568.14277 v 12.27178 h -12.3067 z" color="#000" display="inline" enable-background="accumulate" overflow="visible" visibility="visible" style="marker:none"/><path id="path7466" fill="#276eb9" fill-opacity="1" fill-rule="nonzero" stroke="none" stroke-width=".648" d="m 994.48338,592.72768 v 12.27178 h -12.30666 z" color="#000" display="inline" enable-background="accumulate" overflow="visible" visibility="visible" style="marker:none"/><path id="path7470" fill="#276eb9" fill-opacity="1" fill-rule="nonzero" stroke="none" stroke-width=".648" d="m 982.19092,605.02015 v 12.27178 h -12.30665 z" color="#000" display="inline" enable-background="accumulate" overflow="visible" visibility="visible" style="marker:none"/><path id="path7474" fill="#276eb9" fill-opacity="1" fill-rule="nonzero" stroke="none" stroke-width=".648" d="m 1006.7758,605.02015 v 12.27178 h -12.30661 z" color="#000" display="inline" enable-background="accumulate" overflow="visible" visibility="visible" style="marker:none"/><path id="path7476" fill="#276eb9" fill-opacity="1" fill-rule="nonzero" stroke="none" stroke-width=".648" d="m 1019.0683,605.02015 v 12.27178 h -12.3066 z" color="#000" display="inline" enable-background="accumulate" overflow="visible" visibility="visible" style="marker:none"/><path id="path7478" fill="#276eb9" fill-opacity="1" fill-rule="nonzero" stroke="none" stroke-width=".648" d="m 1031.3749,531.26538 v 12.27179 h -12.3066 z" color="#000" display="inline" enable-background="accumulate" overflow="visible" visibility="visible" style="marker:none"/><path id="path7484" fill="#276eb9" fill-opacity="1" fill-rule="nonzero" stroke="none" stroke-width=".648" d="m 1042.6659,556.83515 -11.3193,11.28858 h 11.3193 z" color="#000" display="inline" enable-background="accumulate" overflow="visible" visibility="visible" style="marker:none"/><path id="path7488" fill="#276eb9" fill-opacity="1" fill-rule="nonzero" stroke="none" stroke-width=".648" d="m 1042.6659,569.14297 -11.304,11.27321 h 11.304 z" color="#000" display="inline" enable-background="accumulate" overflow="visible" visibility="visible" style="marker:none"/><path id="path7490" fill="#276eb9" fill-opacity="1" fill-rule="nonzero" stroke="none" stroke-width=".648" d="m 1031.3608,592.72768 v 12.27178 h -12.3067 z" color="#000" display="inline" enable-background="accumulate" overflow="visible" visibility="visible" style="marker:none"/><path id="path7492" fill="#276eb9" fill-opacity="1" fill-rule="nonzero" stroke="none" stroke-width=".648" d="m 1042.6659,593.71253 -11.3193,11.28858 h 11.3193 z" color="#000" display="inline" enable-background="accumulate" overflow="visible" visibility="visible" style="marker:none"/><path id="path7494" fill="#276eb9" fill-opacity="1" fill-rule="nonzero" stroke="none" stroke-width=".648" d="m 1042.6659,606.00499 -11.3193,11.28858 h 11.3193 z" color="#000" display="inline" enable-background="accumulate" overflow="visible" visibility="visible" style="marker:none"/></g><g id="g7496" fill="#2464a8" fill-opacity="1" stroke-width=".648" opacity=".48" transform="matrix(3.2898307,0,0,3.2898312,-3554.4688,-1014.4979)"><path id="path7508" fill="#2464a8" fill-opacity="1" fill-rule="nonzero" stroke="none" stroke-width=".648" d="m 1117.1464,518.97292 v 12.27178 h -12.3066 z" color="#000" display="inline" enable-background="accumulate" overflow="visible" visibility="visible" style="marker:none"/><path id="path7516" fill="#2464a8" fill-opacity="1" fill-rule="nonzero" stroke="none" stroke-width=".648" d="m 1117.1322,592.72768 v 12.27178 h -12.3066 z" color="#000" display="inline" enable-background="accumulate" overflow="visible" visibility="visible" style="marker:none"/><path id="path7518" fill="#2464a8" fill-opacity="1" fill-rule="nonzero" stroke="none" stroke-width=".648" d="m 1104.8398,605.02014 v 12.27178 h -12.3067 z" color="#000" display="inline" enable-background="accumulate" overflow="visible" visibility="visible" style="marker:none"/><path id="path7520" fill="#2464a8" fill-opacity="1" fill-rule="nonzero" stroke="none" stroke-width=".648" d="m 1154.0238,568.14277 v 12.27177 h -12.3066 z" color="#000" display="inline" enable-background="accumulate" overflow="visible" visibility="visible" style="marker:none"/><path id="path7534" fill="#2464a8" fill-opacity="1" fill-rule="nonzero" stroke="none" stroke-width=".648" d="m 1190.9012,518.97292 v 12.27178 h -12.3066 z" color="#000" display="inline" enable-background="accumulate" overflow="visible" visibility="visible" style="marker:none"/><path id="path7538" fill="#2464a8" fill-opacity="1" fill-rule="nonzero" stroke="none" stroke-width=".648" d="m 1154.0238,543.41362 v -12.27178 h -12.3066 z" color="#000" display="inline" enable-background="accumulate" overflow="visible" visibility="visible" style="marker:none"/></g><g id="g7540" fill="#3281d4" fill-opacity="1" stroke-width=".648" opacity=".48" transform="matrix(3.2898307,0,0,3.2898312,-4079.2828,-1014.4979)"><path id="path7542" fill="#3281d4" fill-opacity="1" fill-rule="nonzero" stroke="none" stroke-width=".648" d="m 1288.951,506.68046 v 12.27178 h -12.3066 z" color="#000" display="inline" enable-background="accumulate" overflow="visible" visibility="visible" style="marker:none"/><path id="path7544" fill="#3281d4" fill-opacity="1" fill-rule="nonzero" stroke="none" stroke-width=".648" d="m 1252.0878,518.97292 v 12.27178 h -12.3067 z" color="#000" display="inline" enable-background="accumulate" overflow="visible" visibility="visible" style="marker:none"/><path id="path7546" fill="#3281d4" fill-opacity="1" fill-rule="nonzero" stroke="none" stroke-width=".648" d="m 1276.6585,518.97292 v 12.27178 h 12.3067 z" color="#000" display="inline" enable-background="accumulate" overflow="visible" visibility="visible" style="marker:none"/><path id="path7548" fill="#3281d4" fill-opacity="1" fill-rule="nonzero" stroke="none" stroke-width=".648" d="m 1239.7811,543.53716 v -12.27179 h 12.3067 z" color="#000" display="inline" enable-background="accumulate" overflow="visible" visibility="visible" style="marker:none"/><path id="path7550" fill="#3281d4" fill-opacity="1" fill-rule="nonzero" stroke="none" stroke-width=".648" d="m 1264.3803,531.26538 v 12.27179 h -12.3067 z" color="#000" display="inline" enable-background="accumulate" overflow="visible" visibility="visible" style="marker:none"/><path id="path7552" fill="#3281d4" fill-opacity="1" fill-rule="nonzero" stroke="none" stroke-width=".648" d="m 1288.951,543.55784 v 12.27177 h -12.3066 z" color="#000" display="inline" enable-background="accumulate" overflow="visible" visibility="visible" style="marker:none"/><path id="path7554" fill="#3281d4" fill-opacity="1" fill-rule="nonzero" stroke="none" stroke-width=".648" d="m 1264.3661,555.85029 v 12.27178 h -12.3067 z" color="#000" display="inline" enable-background="accumulate" overflow="visible" visibility="visible" style="marker:none"/><path id="path7560" fill="#3281d4" fill-opacity="1" fill-rule="nonzero" stroke="none" stroke-width=".648" d="m 1301.2293,506.68046 v 12.27178 h 12.3067 z" color="#000" display="inline" enable-background="accumulate" overflow="visible" visibility="visible" style="marker:none"/><path id="path7562" fill="#3281d4" fill-opacity="1" fill-rule="nonzero" stroke="none" stroke-width=".648" d="m 1325.8284,506.68046 v 12.27178 h -12.3066 z" color="#000" display="inline" enable-background="accumulate" overflow="visible" visibility="visible" style="marker:none"/><path id="path7564" fill="#3281d4" fill-opacity="1" fill-rule="nonzero" stroke="none" stroke-width=".648" d="m 1338.1209,506.68046 v 12.27178 h -12.3066 z" color="#000" display="inline" enable-background="accumulate" overflow="visible" visibility="visible" style="marker:none"/><path id="path7566" fill="#3281d4" fill-opacity="1" fill-rule="nonzero" stroke="none" stroke-width=".648" d="M 1301.2577,518.97292 V 531.2447 H 1288.951 Z" color="#000" display="inline" enable-background="accumulate" overflow="visible" visibility="visible" style="marker:none"/><path id="path7568" fill="#3281d4" fill-opacity="1" fill-rule="nonzero" stroke="none" stroke-width=".648" d="m 1313.5501,518.97292 v 12.27178 h -12.3066 z" color="#000" display="inline" enable-background="accumulate" overflow="visible" visibility="visible" style="marker:none"/><path id="path7570" fill="#3281d4" fill-opacity="1" fill-rule="nonzero" stroke="none" stroke-width=".648" d="M 1325.8426,518.97292 V 531.2447 H 1313.536 Z" color="#000" display="inline" enable-background="accumulate" overflow="visible" visibility="visible" style="marker:none"/><path id="path7572" fill="#3281d4" fill-opacity="1" fill-rule="nonzero" stroke="none" stroke-width=".648" d="M 1301.2577,543.53717 V 531.26538 H 1288.951 Z" color="#000" display="inline" enable-background="accumulate" overflow="visible" visibility="visible" style="marker:none"/><path id="path7574" fill="#3281d4" fill-opacity="1" fill-rule="nonzero" stroke="none" stroke-width=".648" d="m 1351.0716,543.53717 v -12.27179 h 12.3066 z" color="#000" display="inline" enable-background="accumulate" overflow="visible" visibility="visible" style="marker:none"/><path id="path7578" fill="#3281d4" fill-opacity="1" fill-rule="nonzero" stroke="none" stroke-width=".648" d="m 1313.536,543.55784 v 12.27177 h -12.3067 z" color="#000" display="inline" enable-background="accumulate" overflow="visible" visibility="visible" style="marker:none"/><path id="path7580" fill="#3281d4" fill-opacity="1" fill-rule="nonzero" stroke="none" stroke-width=".648" d="m 1338.1209,555.82961 v -12.27177 h -12.3066 z" color="#000" display="inline" enable-background="accumulate" overflow="visible" visibility="visible" style="marker:none"/><path id="path7582" fill="#3281d4" fill-opacity="1" fill-rule="nonzero" stroke="none" stroke-width=".648" d="m 1301.2435,555.8503 v 12.27178 h -12.3067 z" color="#000" display="inline" enable-background="accumulate" overflow="visible" visibility="visible" style="marker:none"/><path id="path7584" fill="#3281d4" fill-opacity="1" fill-rule="nonzero" stroke="none" stroke-width=".648" d="m 1325.8284,555.8503 v 12.27178 h -12.3066 z" color="#000" display="inline" enable-background="accumulate" overflow="visible" visibility="visible" style="marker:none"/><path id="path7586" fill="#3281d4" fill-opacity="1" fill-rule="nonzero" stroke="none" stroke-width=".648" d="m 1276.6727,568.14277 v 12.27177 h -12.3066 z" color="#000" display="inline" enable-background="accumulate" overflow="visible" visibility="visible" style="marker:none"/><path id="path7590" fill="#3281d4" fill-opacity="1" fill-rule="nonzero" stroke="none" stroke-width=".648" d="m 1252.0736,592.72768 v 12.27178 h -12.3067 z" color="#000" display="inline" enable-background="accumulate" overflow="visible" visibility="visible" style="marker:none"/><path id="path7592" fill="#3281d4" fill-opacity="1" fill-rule="nonzero" stroke="none" stroke-width=".648" d="m 1288.951,592.72768 v 12.27178 h -12.3066 z" color="#000" display="inline" enable-background="accumulate" overflow="visible" visibility="visible" style="marker:none"/><path id="path7594" fill="#3281d4" fill-opacity="1" fill-rule="nonzero" stroke="none" stroke-width=".648" d="m 1276.6585,605.02014 v 12.27178 h -12.3066 z" color="#000" display="inline" enable-background="accumulate" overflow="visible" visibility="visible" style="marker:none"/><path id="path7596" fill="#3281d4" fill-opacity="1" fill-rule="nonzero" stroke="none" stroke-width=".648" d="m 1276.6444,617.29192 v -12.27178 h 12.3066 z" color="#000" display="inline" enable-background="accumulate" overflow="visible" visibility="visible" style="marker:none"/><path id="path7598" fill="#3281d4" fill-opacity="1" fill-rule="nonzero" stroke="none" stroke-width=".648" d="M 1301.2577,580.41454 V 568.14277 H 1288.951 Z" color="#000" display="inline" enable-background="accumulate" overflow="visible" visibility="visible" style="marker:none"/><path id="path7600" fill="#3281d4" fill-opacity="1" fill-rule="nonzero" stroke="none" stroke-width=".648" d="m 1351.0716,580.41454 v -12.27177 h 12.3066 z" color="#000" display="inline" enable-background="accumulate" overflow="visible" visibility="visible" style="marker:none"/><path id="path7602" fill="#3281d4" fill-opacity="1" fill-rule="nonzero" stroke="none" stroke-width=".648" d="m 1338.1209,604.99946 v -12.27178 h -12.3066 z" color="#000" display="inline" enable-background="accumulate" overflow="visible" visibility="visible" style="marker:none"/><path id="path7606" fill="#3281d4" fill-opacity="1" fill-rule="nonzero" stroke="none" stroke-width=".648" d="m 1350.3992,506.68191 11.3193,11.28858 v -11.28858 z" color="#000" display="inline" enable-background="accumulate" overflow="visible" visibility="visible" style="marker:none"/><path id="path7608" fill="#3281d4" fill-opacity="1" fill-rule="nonzero" stroke="none" stroke-width=".648" d="m 1361.7185,544.54269 -11.3193,11.28858 h 11.3193 z" color="#000" display="inline" enable-background="accumulate" overflow="visible" visibility="visible" style="marker:none"/><path id="path7610" fill="#3281d4" fill-opacity="1" fill-rule="nonzero" stroke="none" stroke-width=".648" d="m 1350.4134,555.85029 v 12.27178 h -12.3067 z" color="#000" display="inline" enable-background="accumulate" overflow="visible" visibility="visible" style="marker:none"/><path id="path7612" fill="#3281d4" fill-opacity="1" fill-rule="nonzero" stroke="none" stroke-width=".648" d="M 1350.4275,580.43522 V 592.707 h -12.3066 z" color="#000" display="inline" enable-background="accumulate" overflow="visible" visibility="visible" style="marker:none"/><path id="path7614" fill="#3281d4" fill-opacity="1" fill-rule="nonzero" stroke="none" stroke-width=".648" d="m 1338.1067,617.29192 v -12.27178 h 12.3067 z" color="#000" display="inline" enable-background="accumulate" overflow="visible" visibility="visible" style="marker:none"/><path id="path7616" fill="#3281d4" fill-opacity="1" fill-rule="nonzero" stroke="none" stroke-width=".648" d="m 1313.536,580.41454 v -12.27177 h 12.3066 z" color="#000" display="inline" enable-background="accumulate" overflow="visible" visibility="visible" style="marker:none"/></g><rect id="rect7618" width="402.828" height="83.8" x="-1.222" y="984.351" fill="#fff" fill-opacity="1" fill-rule="nonzero" stroke="none" stroke-width="2.131" color="#000" display="inline" enable-background="accumulate" overflow="visible" rx="0" ry="0" visibility="visible" style="marker:none"/><g id="g7628" fill="#fff" fill-opacity="1" stroke-width=".508" transform="matrix(0.80303208,0,0,0.79969586,-563.53983,427.29852)"><text id="text7630" x="797.357" y="357.884" fill="#fff" fill-opacity="1" stroke="none" stroke-width=".508" font-family="Source Sans Pro" font-size="27.656" font-stretch="normal" font-style="normal" font-variant="normal" font-weight="normal" letter-spacing="0" text-anchor="start" word-spacing="0" writing-mode="lr-tb" xml:space="preserve" style="line-height:125%;-inkscape-font-specification:'Source Sans Pro';text-align:start"><tspan id="tspan7632" x="797.357" y="357.884" stroke-width=".508">The</tspan></text><text id="text7634" x="973.197" y="357.884" fill="#fff" fill-opacity="1" stroke="none" stroke-width=".508" font-family="Source Sans Pro" font-size="27.656" font-stretch="normal" font-style="normal" font-variant="normal" font-weight="normal" letter-spacing="0" text-anchor="start" word-spacing="0" writing-mode="lr-tb" xml:space="preserve" style="line-height:125%;-inkscape-font-specification:'Source Sans Pro';text-align:start"><tspan id="tspan7636" x="973.197" y="357.884" stroke-width=".508">Conference</tspan></text><g id="g7638" fill="#fff" fill-opacity="1" stroke-width=".508" transform="matrix(0.92337906,0,0,0.92337906,65.460957,27.451834)"><g id="g7640" fill="#fff" fill-opacity="1" stroke-width=".508" transform="matrix(0.11840388,0,0,0.11840388,865.19335,299.21794)"><g id="g7642" fill="#fff" fill-opacity="1" stroke-width=".508" transform="matrix(1.293235,0,0,1.293235,-4878.321,-1224.915)"><g id="g7644" fill="#fff" fill-opacity="1" fill-rule="nonzero" stroke="none" stroke-width=".508" transform="matrix(2.438586,0,0,2.438586,3659.952,1113.451)"><g id="g7646" fill="#fff" fill-opacity="1" stroke-width=".508"><path id="path7648" fill="#fff" fill-opacity="1" stroke-width=".508" d="M 86.068,0 C 61.466,0 56.851,35.041 70.691,35.041 84.529,35.041 110.671,0 86.068,0 Z"/><path id="path7650" fill="#fff" fill-opacity="1" stroke-width=".508" d="M 45.217,30.699 C 52.586,31.149 60.671,2.577 46.821,4.374 32.976,6.171 37.845,30.249 45.217,30.699 Z"/><path id="path7652" fill="#fff" fill-opacity="1" stroke-width=".508" d="M 11.445,48.453 C 16.686,46.146 12.12,23.581 3.208,29.735 -5.7,35.89 6.204,50.759 11.445,48.453 Z"/><path id="path7654" fill="#fff" fill-opacity="1" stroke-width=".508" d="M 26.212,36.642 C 32.451,35.37 32.793,9.778 21.667,14.369 10.539,18.961 19.978,37.916 26.212,36.642 Z"/><path id="path7656" fill="#fff" fill-opacity="1" stroke-width=".508" d="m 58.791,93.913 c 1.107,8.454 -6.202,12.629 -13.36,7.179 C 22.644,83.743 83.16,75.088 79.171,51.386 75.86,31.712 15.495,37.769 8.621,68.553 3.968,89.374 27.774,118.26 52.614,118.26 c 12.22,0 26.315,-11.034 28.952,-25.012 C 83.58,82.589 57.867,86.86 58.791,93.913 Z"/></g></g><g id="g7658" fill="#fff" fill-opacity="1" stroke-width=".508"><path font-size="148.7" style="line-height:125%;text-align:start" id="path7660" fill="#fff" fill-opacity="1" stroke="none" stroke-width=".508" d="m 4176.2963,1214.4401 c -15.1078,0.4069 -27.0386,5.8367 -35.8126,16.25 -9.0861,10.8369 -13.6562,25.8104 -13.6562,44.9063 0,19.0432 4.5703,33.9757 13.6562,44.8124 9.1305,10.8369 21.6664,16.25 37.6563,16.25 16.034,0 28.6014,-5.4131 37.6875,-16.25 9.0859,-10.8367 13.6251,-25.7692 13.625,-44.8124 -1e-4,-19.0959 -4.5391,-34.0694 -13.625,-44.9063 -9.0861,-10.8366 -21.6536,-16.2499 -37.6875,-16.25 -0.6246,0 -1.2296,-0.016 -1.8437,0 z m 1.125,22 c 0.2415,-0.01 0.4737,0 0.7187,0 7.8833,10e-5 13.9919,3.4114 18.3125,10.25 4.3203,6.8388 6.4999,16.4913 6.5,28.9063 0,12.3623 -2.1799,21.9427 -6.5,28.7812 -4.3204,6.8389 -10.4293,10.2812 -18.3125,10.2812 -7.8391,0 -13.8983,-3.4423 -18.2187,-10.2812 -4.3204,-6.8385 -6.4999,-16.4189 -6.5,-28.7812 0,-12.4149 2.1798,-22.0675 6.5,-28.9063 4.1852,-6.6249 10.0123,-10.0428 17.5,-10.25 z" font-family="Bitstream Vera Sans" font-stretch="normal" font-style="normal" font-variant="normal" font-weight="bold" text-anchor="start" writing-mode="lr-tb"/><path font-size="148.7" style="line-height:125%;text-align:start" id="path7662" fill="#fff" fill-opacity="1" stroke="none" stroke-width=".508" d="m 4005.6293,1325.612 c -13.3076,11.1757 -33.1067,11.0472 -41.3549,11.0472 -16.6133,0 -29.7747,-5.471 -39.4842,-16.413 -9.7097,-10.9946 -14.5644,-25.8819 -14.5644,-44.6622 0,-18.9906 4.9438,-33.9305 14.8316,-44.82 9.8878,-10.8892 23.4277,-16.3339 40.62,-16.334 6.6363,10e-5 12.9831,0.7366 19.0406,2.2094 6.1019,1.473 11.8475,3.6562 17.2368,6.5494 l -6.921,20.4608 c -3.0298,-1.6586 -6.4987,-3.2932 -9.7145,-4.4424 -5.4784,-1.8411 -10.979,-2.7617 -16.5018,-2.7618 -10.2442,10e-5 -18.15,3.3932 -23.7173,10.1792 -5.523,6.7336 -8.2844,16.3867 -8.2844,28.9594 0,12.4676 2.6723,22.0945 8.0172,28.8806 5.3446,6.7861 13.3768,10.1791 22.7818,10.1791 9.5548,0 15.4728,-2.4084 18.6291,-4.9461 v -20.3835 h -20.7001 v -20.3584 h 40.0855" font-family="Bitstream Vera Sans" font-stretch="normal" font-style="normal" font-variant="normal" font-weight="bold" text-anchor="start" writing-mode="lr-tb"/><path font-size="148.7" style="line-height:125%;text-align:start" id="path7664" fill="#fff" fill-opacity="1" stroke="none" stroke-width=".508" d="m 4023.2108,1216.5605 h 16.2279 l 51.2775,70.8022 v -70.8022 h 21.8853 v 117.8103 h -16.2279 l -51.2774,-70.8022 v 70.8022 h -21.8854 v -117.8103" font-family="Bitstream Vera Sans" font-stretch="normal" font-style="normal" font-variant="normal" font-weight="bold" text-anchor="start" writing-mode="lr-tb"/><path font-size="148.7" style="line-height:125%;text-align:start" id="path7666" fill="#fff" fill-opacity="1" stroke="none" stroke-width=".508" d="m 4246.3361,1216.5605 h 32.7366 l 22.7151,73.5479 22.8487,-73.5479 h 27.6698 l 12.5,117.8103 h -24.3186 l -7.5,-73.668 -22.9823,74.0213 h -16.3015 l -22.9824,-76.5213 -7.5,76.168 h -24.3854 l 12.5,-117.8103" font-family="Bitstream Vera Sans" font-stretch="normal" font-style="normal" font-variant="normal" font-weight="bold" text-anchor="start" writing-mode="lr-tb"/><path font-size="148.7" style="line-height:125%;text-align:start" id="path7668" fill="#fff" fill-opacity="1" stroke="none" stroke-width=".508" d="m 4382.3597,1216.5605 h 69.4147 v 22.9624 h -43.6933 v 24.4365 h 33.5877 v 20.4623 h -33.5877 v 26.9868 h 45.1631 v 22.9623 h -70.8845 v -117.8103" font-family="Bitstream Vera Sans" font-stretch="normal" font-style="normal" font-variant="normal" font-weight="bold" text-anchor="start" writing-mode="lr-tb"/><text id="text7670" x="4474.618" y="1215.743" fill="#fff" fill-opacity="1" stroke="none" stroke-width=".508" font-family="Bitstream Vera Sans" font-size="30.69" font-style="normal" font-weight="normal" xml:space="preserve"><tspan id="tspan7672" x="4474.618" y="1215.743" fill="#fff" fill-opacity="1" stroke-width=".508" letter-spacing="11.063"><tspan id="tspan7674" fill="#fff" fill-opacity="1" stroke-width=".508" letter-spacing=".252">TM</tspan></tspan></text></g></g></g></g></g><text id="text7961" x="200.093" y="851.41" fill="#fff" fill-opacity="1" fill-rule="nonzero" stroke="none" stroke-dasharray="none" stroke-dashoffset="0" stroke-linecap="butt" stroke-linejoin="miter" stroke-miterlimit="4" stroke-opacity="1" stroke-width=".414" marker-end="none" marker-mid="none" marker-start="none" baseline-shift="baseline" color="#000" direction="ltr" display="inline" enable-background="accumulate" font-family="Source Sans Pro" font-size="36.603" font-stretch="normal" font-style="normal" font-variant="normal" font-weight="normal" letter-spacing="0" opacity="1" overflow="visible" text-anchor="middle" text-decoration="none" visibility="visible" word-spacing="0" writing-mode="lr-tb" xml:space="preserve" style="line-height:39.52030563px;-inkscape-font-specification:'Source Sans Pro, Normal';font-variant-ligatures:normal;font-variant-caps:normal;font-variant-numeric:normal;font-feature-settings:normal;text-indent:0;text-align:center;text-decoration-line:none;text-transform:none;marker:none"><tspan stroke-width=".414" style="-inkscape-font-specification:'Source Sans Pro, Normal';font-variant-ligatures:normal;font-variant-caps:normal;font-variant-numeric:normal;font-feature-settings:normal;text-align:center;marker:none" id="tspan7959" x="200.093" y="851.41" fill="#fff" fill-opacity="1" stroke="none" stroke-dasharray="none" stroke-dashoffset="0" stroke-linecap="butt" stroke-linejoin="miter" stroke-miterlimit="4" stroke-opacity="1" marker-end="none" marker-mid="none" marker-start="none" font-family="Source Sans Pro" font-size="36.603" font-stretch="normal" font-style="normal" font-variant="normal" font-weight="normal" text-anchor="middle" writing-mode="lr-tb">2017</tspan></text><text id="text3000-5-67-4-9" x="48.711" y="798.134" fill="#fff" fill-opacity="1" stroke="none" stroke-width=".312" font-family="Cantarell" font-size="74.379" font-stretch="normal" font-style="normal" font-variant="normal" font-weight="bold" letter-spacing="0" text-anchor="start" transform="scale(1.0020838,0.99792054)" word-spacing="0" writing-mode="lr-tb" xml:space="preserve" style="line-height:125%;-inkscape-font-specification:'Cantarell Bold';text-align:start"><tspan id="tspan3002-4-3-7-3" x="48.711" y="798.134" fill="#fff" stroke-width=".312">GUADEC</tspan></text><path d="m 372.30234,845.69863 -0.12864,25.91726 v 115.69023 h -17.41338 v -57.18838 l -6.36845,-5.02144 v -62.85476 h 17.79044 l 0.10851,-22.26502 z" style="isolation:auto;mix-blend-mode:normal;solid-color:#000;solid-opacity:1;marker:none" id="path8696" fill="#fff" fill-opacity="1" fill-rule="nonzero" stroke="none" stroke-dasharray="none" stroke-dashoffset="0" stroke-linecap="butt" stroke-linejoin="miter" stroke-miterlimit="4" stroke-opacity="1" stroke-width=".599" marker-end="none" marker-mid="none" marker-start="none" clip-rule="nonzero" color="#000" color-interpolation="sRGB" color-interpolation-filters="linearRGB" color-rendering="auto" display="inline" enable-background="accumulate" image-rendering="auto" opacity="1" overflow="visible" paint-order="normal" shape-rendering="auto" text-rendering="auto" visibility="visible"/><path id="path7917" fill="#fff" fill-opacity="1" fill-rule="nonzero" stroke="none" stroke-dasharray="none" stroke-dashoffset="0" stroke-linecap="square" stroke-linejoin="miter" stroke-miterlimit="4" stroke-opacity="1" stroke-width=".941" marker-end="none" marker-mid="none" marker-start="none" d="m 306.56471,951.08422 c -30.54545,0.0246 -56.46069,15.8638 -60.92651,34.53919 h 121.87151 c -4.467,-18.68011 -30.39108,-34.52165 -60.945,-34.53919 z m 0,11.08851 c 1.34871,0 2.43451,1.08567 2.43451,2.43427 0,1.34879 -1.0858,2.43447 -2.43451,2.43447 -1.34831,0 -2.43571,-1.08568 -2.43571,-2.43447 0,-1.3486 1.0874,-2.43427 2.43571,-2.43427 z" clip-path="none" clip-rule="nonzero" color="#000" color-interpolation="sRGB" color-interpolation-filters="linearRGB" color-rendering="auto" display="inline" enable-background="accumulate" image-rendering="auto" opacity="1" overflow="visible" paint-order="normal" shape-rendering="auto" text-rendering="auto" vector-effect="none" visibility="visible" style="isolation:auto;mix-blend-mode:normal;solid-color:#000;solid-opacity:1;marker:none"/><path clip-rule="nonzero" style="isolation:auto;mix-blend-mode:normal;solid-color:#000;solid-opacity:1;marker:none" id="path8083" fill="#fff" fill-opacity="1" fill-rule="nonzero" stroke="none" stroke-dasharray="none" stroke-dashoffset="0" stroke-linecap="square" stroke-linejoin="miter" stroke-miterlimit="4" stroke-opacity="1" stroke-width=".941" marker-end="none" marker-mid="none" marker-start="none" d="m 142.74425,906.81291 -16.05824,8.45734 h -2.73038 L -17.006393,996.6534 153.93789,994.3932 v -73.33823 c 0,-3.27795 -1.73381,-5.78472 -5.85069,-5.78472 h -19.34699 l 14.2999,-7.51924 h 6.75519 l 1.33062,-0.83945 z" color="#000" color-interpolation="sRGB" color-interpolation-filters="linearRGB" color-rendering="auto" display="inline" enable-background="accumulate" image-rendering="auto" opacity="1" overflow="visible" paint-order="normal" shape-rendering="auto" text-rendering="auto" vector-effect="none" visibility="visible"/><path clip-rule="nonzero" style="isolation:auto;mix-blend-mode:normal;solid-color:#000;solid-opacity:1;marker:none" id="path8095" fill="#fff" fill-opacity="1" fill-rule="nonzero" stroke="none" stroke-dasharray="none" stroke-dashoffset="0" stroke-linecap="square" stroke-linejoin="miter" stroke-miterlimit="4" stroke-opacity="1" stroke-width=".941" marker-end="none" marker-mid="none" marker-start="none" d="m 170.30808,922.8817 -0.25326,1.93794 c -3.97697,0.1873 -7.25004,2.96346 -7.86108,6.6298 -0.0442,0.27457 -0.83214,0.54842 -0.84862,0.85735 h 3.17056 c 0.0643,-1.13075 1.00098,-2.01462 2.13342,-2.01483 1.13202,7.7e-4 2.06667,0.88464 2.13139,2.01483 h 0.63878 2.08717 0.66812 c 0.0643,-1.13075 1.00058,-2.01462 2.133,-2.01483 1.13204,7.7e-4 2.06708,0.88464 2.13181,2.01483 h 3.15288 c -0.0402,-0.32402 -0.80641,-0.57024 -0.85586,-0.85735 -0.64239,-3.73134 -4.04211,-6.57283 -8.12882,-6.64167 l -0.24924,-1.92607 z m -3.65858,7.80351 c -0.9636,-2.4e-4 -1.74468,0.78085 -1.74428,1.74431 4.1e-4,0.011 8.1e-4,0.0202 8.1e-4,0.0323 h -0.0402 v 0.20862 h -2.7569 c 0.78309,1.06503 1.21242,2.35053 1.21363,3.67782 0,1.57254 -0.60179,3.08551 -1.67473,4.23502 l -0.4434,-0.94156 -1.18268,-0.011 0.0563,3.67781 h -2.14988 v 51.41207 h 25.10159 v -51.41207 h -2.15029 l 0.0602,-3.67773 -1.18267,0.011 -0.44502,0.9415 c -1.07293,-1.14949 -1.67071,-2.66245 -1.67313,-4.23499 4.1e-4,-1.32724 0.43015,-2.61276 1.21324,-3.67782 h -2.83811 v -0.36219 0 c -0.0643,-0.9135 -0.82409,-1.62174 -1.73984,-1.62158 -0.9636,-2.4e-4 -1.74428,0.78084 -1.74428,1.74427 4e-4,0.011 8.1e-4,0.0202 10e-4,0.032 h -0.0402 v 0.20864 h -1.04238 -2.08718 -1.04077 v -0.36222 0 c -0.0643,-0.91353 -0.82369,-1.62174 -1.73986,-1.62156 z" color="#000" color-interpolation="sRGB" color-interpolation-filters="linearRGB" color-rendering="auto" display="inline" enable-background="accumulate" image-rendering="auto" opacity="1" overflow="visible" paint-order="normal" shape-rendering="auto" text-rendering="auto" vector-effect="none" visibility="visible"/><path clip-rule="nonzero" style="isolation:auto;mix-blend-mode:normal;solid-color:#000;solid-opacity:1;marker:none" id="path8078" fill="#fff" fill-opacity="1" fill-rule="nonzero" stroke="none" stroke-dasharray="none" stroke-dashoffset="0" stroke-linecap="square" stroke-linejoin="miter" stroke-miterlimit="4" stroke-opacity="1" stroke-width=".941" marker-end="none" marker-mid="none" marker-start="none" d="m 233.19956,881.89253 -5.84987,32.10284 -0.99899,0.14279 0.14468,-1.85496 h -1.4267 l -0.71355,5.27943 v 7.56082 l -0.99896,-3.1391 -2.03411,7.59123 v 39.49219 h 11.86739 0.58289 11.8658 v -39.49219 l -2.03409,-7.59123 -0.99857,3.1391 v -7.56082 l -0.71356,-5.27943 h -1.42548 l 0.14467,1.85496 -0.99897,-0.14279 -5.85028,-32.10284 z" color="#000" color-interpolation="sRGB" color-interpolation-filters="linearRGB" color-rendering="auto" display="inline" enable-background="accumulate" image-rendering="auto" opacity="1" overflow="visible" paint-order="normal" shape-rendering="auto" text-rendering="auto" vector-effect="none" visibility="visible"/><path clip-rule="nonzero" style="isolation:auto;mix-blend-mode:normal;solid-color:#000;solid-opacity:1;marker:none" id="rect8131" fill="#fff" fill-opacity="1" fill-rule="nonzero" stroke="none" stroke-dasharray="none" stroke-dashoffset="0" stroke-linecap="square" stroke-linejoin="miter" stroke-miterlimit="4" stroke-opacity="1" stroke-width=".941" marker-end="none" marker-mid="none" marker-start="none" d="m 168.23699,967.3557 5.74939,-8.67631 4.84247,8.67631 h 87.88976 v 18.83819 h -98.48162 z" color="#000" color-interpolation="sRGB" color-interpolation-filters="linearRGB" color-rendering="auto" display="inline" enable-background="accumulate" image-rendering="auto" opacity="1" overflow="visible" paint-order="normal" shape-rendering="auto" text-rendering="auto" vector-effect="none" visibility="visible"/><rect id="rect8135" width="3.228" height="9.685" x="186.294" y="963.054" fill="#fff" fill-opacity="1" fill-rule="nonzero" stroke="none" stroke-dasharray="none" stroke-dashoffset="0" stroke-linecap="square" stroke-linejoin="miter" stroke-miterlimit="4" stroke-opacity="1" stroke-width=".941" marker-end="none" marker-mid="none" marker-start="none" clip-rule="nonzero" color="#000" color-interpolation="sRGB" color-interpolation-filters="linearRGB" color-rendering="auto" display="inline" enable-background="accumulate" image-rendering="auto" opacity="1" overflow="visible" paint-order="normal" shape-rendering="auto" text-rendering="auto" vector-effect="none" visibility="visible" style="isolation:auto;mix-blend-mode:normal;solid-color:#000;solid-opacity:1;marker:none"/><rect id="rect8137" width="3.027" height="7.264" x="190.733" y="964.668" fill="#fff" fill-opacity="1" fill-rule="nonzero" stroke="none" stroke-dasharray="none" stroke-dashoffset="0" stroke-linecap="square" stroke-linejoin="miter" stroke-miterlimit="4" stroke-opacity="1" stroke-width=".941" marker-end="none" marker-mid="none" marker-start="none" clip-rule="nonzero" color="#000" color-interpolation="sRGB" color-interpolation-filters="linearRGB" color-rendering="auto" display="inline" enable-background="accumulate" image-rendering="auto" opacity="1" overflow="visible" paint-order="normal" shape-rendering="auto" text-rendering="auto" vector-effect="none" visibility="visible" style="isolation:auto;mix-blend-mode:normal;solid-color:#000;solid-opacity:1;marker:none"/><text id="text7961-3" x="199.877" y="1024.744" fill="#4a90d9" fill-opacity="1" fill-rule="nonzero" stroke="none" stroke-dasharray="none" stroke-dashoffset="0" stroke-linecap="butt" stroke-linejoin="miter" stroke-miterlimit="4" stroke-opacity="1" stroke-width=".414" marker-end="none" marker-mid="none" marker-start="none" baseline-shift="baseline" color="#000" direction="ltr" display="inline" enable-background="accumulate" font-family="Source Sans Pro" font-size="20.688" font-stretch="normal" font-style="normal" font-variant="normal" font-weight="normal" letter-spacing="0" opacity="1" overflow="visible" text-anchor="middle" text-decoration="none" visibility="visible" word-spacing="0" writing-mode="lr-tb" xml:space="preserve" style="line-height:53.96266174px;-inkscape-font-specification:'Source Sans Pro, Normal';font-variant-ligatures:normal;font-variant-caps:normal;font-variant-numeric:normal;font-feature-settings:normal;text-indent:0;text-align:center;text-decoration-line:none;text-transform:none;marker:none"><tspan id="tspan7959-8" x="199.877" y="1024.744" fill="#4a90d9" fill-opacity="1" stroke="none" stroke-dasharray="none" stroke-dashoffset="0" stroke-linecap="butt" stroke-linejoin="miter" stroke-miterlimit="4" stroke-opacity="1" stroke-width=".414" marker-end="none" marker-mid="none" marker-start="none" font-family="Source Sans Pro" font-size="20.688" font-stretch="normal" font-style="normal" font-variant="normal" font-weight="normal" text-anchor="middle" writing-mode="lr-tb" style="-inkscape-font-specification:'Source Sans Pro, Normal';font-variant-ligatures:normal;font-variant-caps:normal;font-variant-numeric:normal;font-feature-settings:normal;text-align:center;marker:none">Manchester, United Kingdom</tspan></text></g></svg>