<svg xmlns="http://www.w3.org/2000/svg" xmlns:svg="http://www.w3.org/2000/svg" id="svg7384" width="560" height="624" version="1.1"><metadata id="metadata90"/><title id="title9167">Gnome Symbolic Icon Theme</title><g id="layer9" display="inline" transform="translate(-128.99995,87)"><g id="g3909" transform="translate(-5.99961,14.781308)"><path font-size="medium" style="text-indent:0;text-align:start;line-height:normal;text-transform:none;block-progression:tb;marker:none;-inkscape-font-specification:Sans" id="rect3259-2-8-6" fill="#bebebe" fill-opacity="1" stroke="none" stroke-width="2" d="m 214.99956,-25.718806 0,33.333333 0,200.000003 c 0,69.05566 50.32,122.70066 94.79166,162.49999 44.47167,39.79934 88.54167,66.66667 88.54167,66.66667 l 16.66667,9.375 17.70833,-10.41667 c 0,0 43.143,-26.58566 87.5,-66.66666 44.357,-40.081 94.79167,-93.315 94.79167,-161.45833 l 0,-200.000003 0,-33.333333 -33.33334,0 -333.33333,0 -33.33333,0 z m 66.66667,66.666666 266.66666,0 0,166.66667 c 0,30.65599 -32.89867,77.28099 -71.875,112.49999 -30.19633,27.28567 -49.29633,37.96667 -61.45833,45.83334 -11.79234,-7.41434 -30.953,-17.49167 -61.45834,-44.79167 -38.86166,-34.77833 -71.87499,-80.908 -71.87499,-113.54166 l 0,-166.66667 z" baseline-shift="baseline" color="#bebebe" direction="ltr" display="inline" enable-background="accumulate" font-family="Sans" font-stretch="normal" font-style="normal" font-variant="normal" font-weight="normal" letter-spacing="normal" overflow="visible" text-anchor="start" text-decoration="none" visibility="visible" word-spacing="normal" writing-mode="lr-tb"/><g id="g15043" fill="#bebebe" fill-opacity="1" fill-rule="nonzero" stroke="none" transform="matrix(1.662939,0,0,1.662939,335.00396,77.88911)"><g id="g15045" fill="#bebebe" fill-opacity="1"><path id="path15047" fill="#bebebe" fill-opacity="1" d="M 86.068,0 C 61.466,0 56.851,35.041 70.691,35.041 84.529,35.041 110.671,0 86.068,0 z"/><path id="path15049" fill="#bebebe" fill-opacity="1" d="M 45.217,30.699 C 52.586,31.149 60.671,2.577 46.821,4.374 32.976,6.171 37.845,30.249 45.217,30.699 z"/><path id="path15051" fill="#bebebe" fill-opacity="1" d="M 11.445,48.453 C 16.686,46.146 12.12,23.581 3.208,29.735 -5.7,35.89 6.204,50.759 11.445,48.453 z"/><path id="path15053" fill="#bebebe" fill-opacity="1" d="M 26.212,36.642 C 32.451,35.37 32.793,9.778 21.667,14.369 10.539,18.961 19.978,37.916 26.212,36.642 l 0,0 z"/><path id="path15055" fill="#bebebe" fill-opacity="1" d="m 58.791,93.913 c 1.107,8.454 -6.202,12.629 -13.36,7.179 C 22.644,83.743 83.16,75.088 79.171,51.386 75.86,31.712 15.495,37.769 8.621,68.553 3.968,89.374 27.774,118.26 52.614,118.26 c 12.22,0 26.315,-11.034 28.952,-25.012 C 83.58,82.589 57.867,86.86 58.791,93.913 l 0,0 z"/></g></g></g></g></svg>