<svg xmlns="http://www.w3.org/2000/svg" xmlns:svg="http://www.w3.org/2000/svg" id="svg7469" width="159.643" height="51mm" version="1.1" viewBox="0 0 149.665 180.709"><metadata id="metadata7474"/><g id="layer1" display="none" transform="translate(-356.64456,-527.00804)"><g id="g7313" fill="#4a90d8" fill-opacity="1" transform="matrix(0.44653268,0,0,0.44653268,363.73117,534.09465)"><g id="g15043" fill="#4a90d8" fill-opacity="1" fill-rule="nonzero" stroke="none" stroke-miterlimit="4" transform="matrix(3.1536648,0,0,3.1536648,0.00834015,0)"><g id="g15045" fill="#4a90d8" fill-opacity="1"><path id="path15047" fill="#4a90d8" fill-opacity="1" d="M 86.068,0 C 61.466,0 56.851,35.041 70.691,35.041 84.529,35.041 110.671,0 86.068,0 Z"/><path id="path15049" fill="#4a90d8" fill-opacity="1" d="M 45.217,30.699 C 52.586,31.149 60.671,2.577 46.821,4.374 32.976,6.171 37.845,30.249 45.217,30.699 Z"/><path id="path15051" fill="#4a90d8" fill-opacity="1" d="M 11.445,48.453 C 16.686,46.146 12.12,23.581 3.208,29.735 -5.7,35.89 6.204,50.759 11.445,48.453 Z"/><path id="path15053" fill="#4a90d8" fill-opacity="1" d="M 26.212,36.642 C 32.451,35.37 32.793,9.778 21.667,14.369 10.539,18.961 19.978,37.916 26.212,36.642 l 0,0 z"/><path id="path15055" fill="#4a90d8" fill-opacity="1" d="m 58.791,93.913 c 1.107,8.454 -6.202,12.629 -13.36,7.179 C 22.644,83.743 83.16,75.088 79.171,51.386 75.86,31.712 15.495,37.769 8.621,68.553 3.968,89.374 27.774,118.26 52.614,118.26 c 12.22,0 26.315,-11.034 28.952,-25.012 C 83.58,82.589 57.867,86.86 58.791,93.913 l 0,0 z"/></g></g></g></g><g id="g7298" display="none" transform="translate(-356.64456,-527.00804)"><g id="g7302" fill="#4a90d8" fill-opacity="1" fill-rule="nonzero" stroke="none" stroke-miterlimit="4" transform="matrix(1.4082144,0,0,1.4082144,363.73489,534.09465)"><g id="g7304" fill="#4a90d8" fill-opacity="1"><path id="path7306" fill="#4a90d8" fill-opacity="1" d="M 86.068,0 C 61.466,0 56.851,35.041 70.691,35.041 84.529,35.041 110.671,0 86.068,0 Z"/><path id="path7308" fill="#4a90d8" fill-opacity="1" d="M 45.217,30.699 C 52.586,31.149 60.671,2.577 46.821,4.374 32.976,6.171 37.845,30.249 45.217,30.699 Z"/><path id="path7310" fill="#4a90d8" fill-opacity="1" d="M 11.445,48.453 C 16.686,46.146 12.12,23.581 3.208,29.735 -5.7,35.89 6.204,50.759 11.445,48.453 Z"/><path id="path7312" fill="#4a90d8" fill-opacity="1" d="M 26.212,36.642 C 32.451,35.37 32.793,9.778 21.667,14.369 10.539,18.961 19.978,37.916 26.212,36.642 l 0,0 z"/><path id="path7314" fill="#4a90d8" fill-opacity="1" d="m 58.791,93.913 c 1.107,8.454 -6.202,12.629 -13.36,7.179 C 22.644,83.743 83.16,75.088 79.171,51.386 75.86,31.712 15.495,37.769 8.621,68.553 3.968,89.374 27.774,118.26 52.614,118.26 c 12.22,0 26.315,-11.034 28.952,-25.012 C 83.58,82.589 57.867,86.86 58.791,93.913 l 0,0 z"/></g></g></g><g id="g7323" display="none" transform="translate(-356.64456,-527.00804)"><g id="g7325" fill="#2c3335" fill-opacity="1" fill-rule="nonzero" stroke="none" stroke-miterlimit="4" transform="matrix(1.4082144,0,0,1.4082144,363.73489,534.09465)"><g id="g7327" fill="#2c3335" fill-opacity="1"><path id="path7329" fill="#2c3335" fill-opacity="1" d="M 86.068,0 C 61.466,0 56.851,35.041 70.691,35.041 84.529,35.041 110.671,0 86.068,0 Z"/><path id="path7331" fill="#2c3335" fill-opacity="1" d="M 45.217,30.699 C 52.586,31.149 60.671,2.577 46.821,4.374 32.976,6.171 37.845,30.249 45.217,30.699 Z"/><path id="path7333" fill="#2c3335" fill-opacity="1" d="M 11.445,48.453 C 16.686,46.146 12.12,23.581 3.208,29.735 -5.7,35.89 6.204,50.759 11.445,48.453 Z"/><path id="path7335" fill="#2c3335" fill-opacity="1" d="M 26.212,36.642 C 32.451,35.37 32.793,9.778 21.667,14.369 10.539,18.961 19.978,37.916 26.212,36.642 l 0,0 z"/><path id="path7337" fill="#2c3335" fill-opacity="1" d="m 58.791,93.913 c 1.107,8.454 -6.202,12.629 -13.36,7.179 C 22.644,83.743 83.16,75.088 79.171,51.386 75.86,31.712 15.495,37.769 8.621,68.553 3.968,89.374 27.774,118.26 52.614,118.26 c 12.22,0 26.315,-11.034 28.952,-25.012 C 83.58,82.589 57.867,86.86 58.791,93.913 l 0,0 z"/></g></g></g><g id="g7339" display="none" transform="translate(-356.64456,-527.00804)"><g id="g7341" fill="#909090" fill-opacity="1" fill-rule="nonzero" stroke="none" stroke-miterlimit="4" transform="matrix(1.4082144,0,0,1.4082144,363.73489,534.09465)"><g id="g7343" fill="#909090" fill-opacity="1"><path id="path7345" fill="#909090" fill-opacity="1" d="M 86.068,0 C 61.466,0 56.851,35.041 70.691,35.041 84.529,35.041 110.671,0 86.068,0 Z"/><path id="path7347" fill="#909090" fill-opacity="1" d="M 45.217,30.699 C 52.586,31.149 60.671,2.577 46.821,4.374 32.976,6.171 37.845,30.249 45.217,30.699 Z"/><path id="path7349" fill="#909090" fill-opacity="1" d="M 11.445,48.453 C 16.686,46.146 12.12,23.581 3.208,29.735 -5.7,35.89 6.204,50.759 11.445,48.453 Z"/><path id="path7351" fill="#909090" fill-opacity="1" d="M 26.212,36.642 C 32.451,35.37 32.793,9.778 21.667,14.369 10.539,18.961 19.978,37.916 26.212,36.642 l 0,0 z"/><path id="path7353" fill="#909090" fill-opacity="1" d="m 58.791,93.913 c 1.107,8.454 -6.202,12.629 -13.36,7.179 C 22.644,83.743 83.16,75.088 79.171,51.386 75.86,31.712 15.495,37.769 8.621,68.553 3.968,89.374 27.774,118.26 52.614,118.26 c 12.22,0 26.315,-11.034 28.952,-25.012 C 83.58,82.589 57.867,86.86 58.791,93.913 l 0,0 z"/></g></g></g><g id="g7355" transform="translate(-356.64456,-527.00804)"><g id="g7357" fill="#f5f5f5" fill-opacity="1" fill-rule="nonzero" stroke="none" stroke-miterlimit="4" transform="matrix(1.4082144,0,0,1.4082144,363.73489,534.09465)"><g id="g7359" fill="#f5f5f5" fill-opacity="1"><path id="path7361" fill="#f5f5f5" fill-opacity="1" d="M 86.068,0 C 61.466,0 56.851,35.041 70.691,35.041 84.529,35.041 110.671,0 86.068,0 Z"/><path id="path7363" fill="#f5f5f5" fill-opacity="1" d="M 45.217,30.699 C 52.586,31.149 60.671,2.577 46.821,4.374 32.976,6.171 37.845,30.249 45.217,30.699 Z"/><path id="path7365" fill="#f5f5f5" fill-opacity="1" d="M 11.445,48.453 C 16.686,46.146 12.12,23.581 3.208,29.735 -5.7,35.89 6.204,50.759 11.445,48.453 Z"/><path id="path7367" fill="#f5f5f5" fill-opacity="1" d="M 26.212,36.642 C 32.451,35.37 32.793,9.778 21.667,14.369 10.539,18.961 19.978,37.916 26.212,36.642 l 0,0 z"/><path id="path7369" fill="#f5f5f5" fill-opacity="1" d="m 58.791,93.913 c 1.107,8.454 -6.202,12.629 -13.36,7.179 C 22.644,83.743 83.16,75.088 79.171,51.386 75.86,31.712 15.495,37.769 8.621,68.553 3.968,89.374 27.774,118.26 52.614,118.26 c 12.22,0 26.315,-11.034 28.952,-25.012 C 83.58,82.589 57.867,86.86 58.791,93.913 l 0,0 z"/></g></g></g></svg>