<svg xmlns="http://www.w3.org/2000/svg" xmlns:svg="http://www.w3.org/2000/svg" id="svg2" width="744.094" height="1052.362" version="1.1"><metadata id="metadata7"/><g id="layer1"><path id="path7154" fill="#729fcf" fill-opacity="1" stroke="none" d="m 156.9777,484.55545 a 44.547726,44.547726 0 1 1 -89.095448,0 44.547726,44.547726 0 1 1 89.095448,0 z" transform="matrix(0.32476224,0,0,0.32476224,58.430877,-86.246107)"/><rect id="rect7156" width="12.731" height="38.194" x="80.187" y="128.163" fill="#729fcf" fill-opacity="1" stroke="none" rx="6.366" ry="6.366"/><rect id="rect7156-3" width="12.731" height="38.194" x="96.555" y="128.163" fill="#729fcf" fill-opacity="1" stroke="none" rx="6.366" ry="6.366"/><path id="rect7176" fill="#729fcf" fill-opacity="1" stroke="none" d="m 85.974097,88.812023 17.360903,0 c 3.52658,0 6.36566,2.83909 6.36566,6.36566 l 8.18401,43.980957 -46.460253,0 8.18401,-43.980957 c 0.64516,-3.46706 2.83909,-6.36566 6.36567,-6.36566 z"/><path id="path7154-5" fill="#729fcf" fill-opacity="1" stroke="none" d="m 156.9777,484.55545 a 44.547726,44.547726 0 1 1 -89.095448,0 44.547726,44.547726 0 1 1 89.095448,0 z" transform="matrix(0.32476224,0,0,0.32476224,115.71894,-86.246107)"/><rect id="rect7156-7" width="12.731" height="38.194" x="137.475" y="128.163" fill="#729fcf" fill-opacity="1" stroke="none" rx="6.366" ry="6.366"/><rect id="rect7156-3-8" width="12.731" height="38.194" x="153.843" y="128.163" fill="#729fcf" fill-opacity="1" stroke="none" rx="6.366" ry="6.366"/><path id="rect7176-7" fill="#729fcf" fill-opacity="1" stroke="none" d="m 143.26216,88.812023 17.3609,0 c 3.52658,0 6.36566,2.83909 6.36566,6.36567 l 8.18401,43.980947 -46.46025,0 8.18401,-43.980947 c 0.64516,-3.46706 2.83909,-6.36567 6.36567,-6.36567 z"/><path id="path7154-5-6" fill="#729fcf" fill-opacity="1" stroke="none" d="m 156.9777,484.55545 a 44.547726,44.547726 0 1 1 -89.095448,0 44.547726,44.547726 0 1 1 89.095448,0 z" transform="matrix(0.32476224,0,0,0.32476224,173.007,-86.246107)"/><rect id="rect7156-7-2" width="12.731" height="38.194" x="194.763" y="128.163" fill="#729fcf" fill-opacity="1" stroke="none" rx="6.366" ry="6.366"/><rect id="rect7156-3-8-8" width="12.731" height="38.194" x="211.131" y="128.163" fill="#729fcf" fill-opacity="1" stroke="none" rx="6.366" ry="6.366"/><path id="rect7176-7-5" fill="#729fcf" fill-opacity="1" stroke="none" d="m 200.55022,88.812033 17.3609,0 c 3.52658,0 6.36566,2.83909 6.36566,6.36566 l 8.18401,43.980947 -46.46025,0 8.18401,-43.980947 c 0.64516,-3.46706 2.83909,-6.36566 6.36567,-6.36566 z"/><path id="path7154-5-6-6" fill="#729fcf" fill-opacity="1" stroke="none" d="m 156.9777,484.55545 a 44.547726,44.547726 0 1 1 -89.095448,0 44.547726,44.547726 0 1 1 89.095448,0 z" transform="matrix(0.32476224,0,0,0.32476224,230.29506,-86.246107)"/><rect id="rect7156-7-2-5" width="12.731" height="38.194" x="252.051" y="128.163" fill="#729fcf" fill-opacity="1" stroke="none" rx="6.366" ry="6.366"/><rect id="rect7156-3-8-8-5" width="12.731" height="38.194" x="268.419" y="128.163" fill="#729fcf" fill-opacity="1" stroke="none" rx="6.366" ry="6.366"/><path id="rect7176-7-5-9" fill="#729fcf" fill-opacity="1" stroke="none" d="m 257.83828,88.812033 17.3609,0 c 3.52658,0 6.36566,2.83909 6.36566,6.36567 l 8.18401,43.980937 -46.46025,0 8.18401,-43.980937 c 0.64515,-3.46707 2.83909,-6.36567 6.36567,-6.36567 z"/><path id="path7154-5-6-6-7" fill="#729fcf" fill-opacity="1" stroke="none" d="m 156.9777,484.55545 a 44.547726,44.547726 0 1 1 -89.095448,0 44.547726,44.547726 0 1 1 89.095448,0 z" transform="matrix(0.32476224,0,0,0.32476224,287.58312,-86.246107)"/><rect id="rect7156-7-2-5-8" width="12.731" height="38.194" x="309.339" y="128.163" fill="#729fcf" fill-opacity="1" stroke="none" rx="6.366" ry="6.366"/><rect id="rect7156-3-8-8-5-6" width="12.731" height="38.194" x="325.707" y="128.163" fill="#729fcf" fill-opacity="1" stroke="none" rx="6.366" ry="6.366"/><path id="rect7176-7-5-9-1" fill="#729fcf" fill-opacity="1" stroke="none" d="m 315.12633,88.812033 17.36091,0 c 3.52657,0 6.36566,2.83909 6.36566,6.36567 l 8.18401,43.980937 -46.46025,0 8.18401,-43.980937 c 0.64515,-3.46706 2.83908,-6.36567 6.36566,-6.36567 z"/><path id="path7154-5-6-6-7-5" fill="#729fcf" fill-opacity="1" stroke="none" d="m 156.9777,484.55545 a 44.547726,44.547726 0 1 1 -89.095448,0 44.547726,44.547726 0 1 1 89.095448,0 z" transform="matrix(0.32476224,0,0,0.32476224,344.87118,-86.246107)"/><rect id="rect7156-7-2-5-8-2" width="12.731" height="38.194" x="366.627" y="128.163" fill="#729fcf" fill-opacity="1" stroke="none" rx="6.366" ry="6.366"/><rect id="rect7156-3-8-8-5-6-2" width="12.731" height="38.194" x="382.995" y="128.163" fill="#729fcf" fill-opacity="1" stroke="none" rx="6.366" ry="6.366"/><path id="rect7176-7-5-9-1-0" fill="#729fcf" fill-opacity="1" stroke="none" d="m 372.41439,88.812043 17.36091,0 c 3.52657,0 6.36566,2.83909 6.36566,6.36566 l 8.18401,43.980937 -46.46025,0 8.18401,-43.980937 c 0.64515,-3.46706 2.83908,-6.36566 6.36566,-6.36566 z"/><path id="path7154-5-6-6-7-5-9" fill="#729fcf" fill-opacity="1" stroke="none" d="m 156.9777,484.55545 a 44.547726,44.547726 0 1 1 -89.095448,0 44.547726,44.547726 0 1 1 89.095448,0 z" transform="matrix(0.32476224,0,0,0.32476224,402.15924,-86.246107)"/><rect id="rect7156-7-2-5-8-2-7" width="12.731" height="38.194" x="423.915" y="128.163" fill="#729fcf" fill-opacity="1" stroke="none" rx="6.366" ry="6.366"/><rect id="rect7156-3-8-8-5-6-2-7" width="12.731" height="38.194" x="440.283" y="128.163" fill="#729fcf" fill-opacity="1" stroke="none" rx="6.366" ry="6.366"/><path id="rect7176-7-5-9-1-0-7" fill="#729fcf" fill-opacity="1" stroke="none" d="m 429.70245,88.812043 17.36091,0 c 3.52657,0 6.36566,2.83909 6.36566,6.36567 l 8.184,43.980927 -46.46024,0 8.18401,-43.980927 c 0.64515,-3.46706 2.83908,-6.36567 6.36566,-6.36567 z"/><path id="path7154-5-6-6-7-5-9-9" fill="#729fcf" fill-opacity="1" stroke="none" d="m 156.9777,484.55545 a 44.547726,44.547726 0 1 1 -89.095448,0 44.547726,44.547726 0 1 1 89.095448,0 z" transform="matrix(0.32476224,0,0,0.32476224,459.44728,-86.246107)"/><rect id="rect7156-7-2-5-8-2-7-7" width="12.731" height="38.194" x="481.204" y="128.163" fill="#729fcf" fill-opacity="1" stroke="none" rx="6.366" ry="6.366"/><rect id="rect7156-3-8-8-5-6-2-7-3" width="12.731" height="38.194" x="497.572" y="128.163" fill="#729fcf" fill-opacity="1" stroke="none" rx="6.366" ry="6.366"/><path id="rect7176-7-5-9-1-0-7-4" fill="#729fcf" fill-opacity="1" stroke="none" d="m 486.99052,88.812053 17.3609,0 c 3.52657,0 6.36565,2.83909 6.36565,6.36566 l 8.18401,43.980927 -46.46025,0 8.18401,-43.980927 c 0.64514,-3.46706 2.83907,-6.36566 6.36568,-6.36566 z"/><path id="path7154-5-6-6-7-5-9-9-5" fill="#729fcf" fill-opacity="1" stroke="none" d="m 156.9777,484.55545 a 44.547726,44.547726 0 1 1 -89.095448,0 44.547726,44.547726 0 1 1 89.095448,0 z" transform="matrix(0.32476224,0,0,0.32476224,516.73534,-86.246107)"/><rect id="rect7156-7-2-5-8-2-7-7-9" width="12.731" height="38.194" x="538.492" y="128.163" fill="#729fcf" fill-opacity="1" stroke="none" rx="6.366" ry="6.366"/><rect id="rect7156-3-8-8-5-6-2-7-3-9" width="12.731" height="38.194" x="554.86" y="128.163" fill="#729fcf" fill-opacity="1" stroke="none" rx="6.366" ry="6.366"/><path id="rect7176-7-5-9-1-0-7-4-3" fill="#729fcf" fill-opacity="1" stroke="none" d="m 544.27858,88.812053 17.3609,0 c 3.52657,0 6.36565,2.83909 6.36565,6.36567 l 8.18405,43.980917 -46.46029,0 8.18401,-43.980917 c 0.64514,-3.46707 2.83907,-6.36567 6.36568,-6.36567 z"/><path id="path7154-5-6-6-7-5-9-9-5-6" fill="#729fcf" fill-opacity="1" stroke="none" d="m 156.9777,484.55545 a 44.547726,44.547726 0 1 1 -89.095448,0 44.547726,44.547726 0 1 1 89.095448,0 z" transform="matrix(0.32476224,0,0,0.32476224,574.02338,-86.246107)"/><rect id="rect7156-7-2-5-8-2-7-7-9-7" width="12.731" height="38.194" x="595.78" y="128.163" fill="#729fcf" fill-opacity="1" stroke="none" rx="6.366" ry="6.366"/><rect id="rect7156-3-8-8-5-6-2-7-3-9-0" width="12.731" height="38.194" x="612.148" y="128.163" fill="#729fcf" fill-opacity="1" stroke="none" rx="6.366" ry="6.366"/><path id="rect7176-7-5-9-1-0-7-4-3-4" fill="#729fcf" fill-opacity="1" stroke="none" d="m 601.56668,88.812053 17.3609,0 c 3.5265,0 6.3656,2.83909 6.3656,6.36567 l 8.184,43.980917 -46.4602,0 8.184,-43.980917 c 0.6451,-3.46706 2.839,-6.36567 6.3657,-6.36567 z"/><path id="path7154-5-6-6-7-5-9-9-5-6-1" fill="#babdb6" fill-opacity="1" stroke="none" d="m 156.9777,484.55545 a 44.547726,44.547726 0 1 1 -89.095448,0 44.547726,44.547726 0 1 1 89.095448,0 z" transform="matrix(0.32476224,0,0,0.32476224,631.31148,-86.246107)"/><rect id="rect7156-7-2-5-8-2-7-7-9-7-0" width="12.731" height="38.194" x="653.068" y="128.163" fill="#babdb6" fill-opacity="1" stroke="none" rx="6.366" ry="6.366"/><rect id="rect7156-3-8-8-5-6-2-7-3-9-0-1" width="12.731" height="38.194" x="669.436" y="128.163" fill="#babdb6" fill-opacity="1" stroke="none" rx="6.366" ry="6.366"/><path id="rect7176-7-5-9-1-0-7-4-3-4-7" fill="#babdb6" fill-opacity="1" stroke="none" d="m 658.85468,88.812063 17.3609,0 c 3.5266,0 6.3657,2.83909 6.3657,6.36566 l 8.184,43.980917 -46.4603,0 8.184,-43.980917 c 0.6452,-3.46706 2.8391,-6.36566 6.3657,-6.36566 z"/></g></svg>