<svg xmlns="http://www.w3.org/2000/svg" xmlns:svg="http://www.w3.org/2000/svg" id="svg2" width="297mm" height="210mm" version="1.1" viewBox="0 0 1052.362 744.094"><defs id="defs4"><filter id="filter5374" color-interpolation-filters="sRGB"><feColorMatrix id="feColorMatrix5376" values="0.21 0.72 0.072 0 0 0.21 0.72 0.072 0 0 0.21 0.72 0.072 0 0 0 0 0 1 0"/></filter></defs><metadata id="metadata7"/><g id="layer1" transform="translate(0,-308.26772)"><rect id="rect4136" width="1024.295" height="717.208" x="14.034" y="321.711" fill="none" fill-opacity="1" stroke="#555753" stroke-dasharray="none" stroke-dashoffset="0" stroke-linecap="round" stroke-linejoin="round" stroke-miterlimit="4" stroke-opacity="1" stroke-width="5" opacity="1"/><flowRoot id="flowRoot4210" fill="#000" fill-opacity="1" stroke="none" stroke-linecap="butt" stroke-linejoin="miter" stroke-opacity="1" stroke-width="1" font-family="sans-serif" font-size="40" font-style="normal" font-weight="normal" letter-spacing="0" word-spacing="0" xml:space="preserve" style="line-height:125%"><flowRegion id="flowRegion4212"><rect id="rect4214" width="887.924" height="501.036" x="-14.142" y="253.16"/></flowRegion><flowPara id="flowPara4216"/></flowRoot><g id="g7265" opacity=".041" transform="matrix(4.2838658,0,0,4.2838658,1.0615296,1433.2651)"><path id="rect10004-8-8-3-5-4-7-3-4-6-9" fill="#017689" fill-opacity="1" fill-rule="nonzero" stroke="none" stroke-width="1" d="M 2.7226562 -0.03515625 L 0 2.6796875 L 0 29.070312 L 92.083984 29.070312 L 92.083984 -0.03515625 L 2.7226562 -0.03515625 z" color="#000" display="inline" enable-background="accumulate" overflow="visible" transform="matrix(0.23343402,0,0,0.23343402,-0.24779712,-262.61266)" visibility="visible" style="marker:none"/><path id="rect10004-8-8-3-5-4-7-3-4-6-2-37" fill="#017689" fill-opacity="1" fill-rule="nonzero" stroke="none" stroke-width="1" d="M 121.13477 -0.03515625 L 91.947266 29.070312 L 210.49609 29.070312 L 210.49609 -0.03515625 L 121.13477 -0.03515625 z" color="#000" display="inline" enable-background="accumulate" overflow="visible" transform="matrix(0.23343402,0,0,0.23343402,-0.24779712,-262.61266)" visibility="visible" style="marker:none"/><path id="rect10004-8-8-3-5-4-7-3-4-6-1-2" fill="#017689" fill-opacity="1" fill-rule="nonzero" stroke="none" stroke-width="1" d="M 239.54688 -0.03515625 L 210.35938 29.070312 L 328.9082 29.070312 L 328.9082 -0.03515625 L 239.54688 -0.03515625 z" color="#000" display="inline" enable-background="accumulate" overflow="visible" transform="matrix(0.23343402,0,0,0.23343402,-0.24779712,-262.61266)" visibility="visible" style="marker:none"/><path id="rect10004-8-8-3-5-4-7-3-4-6-2-9-8" fill="#017689" fill-opacity="1" fill-rule="nonzero" stroke="none" stroke-width="1" d="M 357.95898 -0.03515625 L 328.77148 29.070312 L 447.32227 29.070312 L 447.32227 -0.03515625 L 357.95898 -0.03515625 z" color="#000" display="inline" enable-background="accumulate" overflow="visible" transform="matrix(0.23343402,0,0,0.23343402,-0.24779712,-262.61266)" visibility="visible" style="marker:none"/><path id="rect10004-8-8-3-5-4-7-3-4-6-6-4" fill="#017689" fill-opacity="1" fill-rule="nonzero" stroke="none" stroke-width="1" d="M 0 29.269531 L 0 55.660156 L 92.083984 147.48242 L 92.083984 29.269531 L 0 29.269531 z" color="#000" display="inline" enable-background="accumulate" overflow="visible" transform="matrix(0.23343402,0,0,0.23343402,-0.24779712,-262.61266)" visibility="visible" style="marker:none"/><path id="rect10004-8-8-3-5-4-7-3-4-6-2-3-2" fill="#017689" fill-opacity="1" fill-rule="nonzero" stroke="none" stroke-width="1" d="m 48.88922,-255.7803 0,27.59504 -27.67344,0 z" color="#000" display="inline" enable-background="accumulate" overflow="visible" visibility="visible" style="marker:none"/><path id="rect10004-8-8-3-5-4-7-3-4-6-1-5-2" fill="#017689" fill-opacity="1" fill-rule="nonzero" stroke="none" stroke-width="1" d="m 48.85731,-228.18526 0,-27.59504 27.67346,0 z" color="#000" display="inline" enable-background="accumulate" overflow="visible" visibility="visible" style="marker:none"/><path id="rect10004-8-8-3-5-4-7-3-4-6-2-9-9-8" fill="#028ea5" fill-opacity="1" fill-rule="nonzero" stroke="none" stroke-width="1" d="m 104.1723,-255.7803 0,27.59504 -27.67344,0 z" color="#000" display="inline" enable-background="accumulate" overflow="visible" visibility="visible" style="marker:none"/><path id="rect10004-8-8-3-5-4-7-3-4-6-94" fill="#028ea5" fill-opacity="1" fill-rule="nonzero" stroke="none" stroke-width="1" d="M 92.220703 147.68164 L 0 239.64062 L 0 265.89453 L 92.220703 265.89453 L 92.220703 147.68164 z" color="#000" display="inline" enable-background="accumulate" overflow="visible" transform="matrix(0.23343402,0,0,0.23343402,-0.24779712,-262.61266)" visibility="visible" style="marker:none"/><path id="rect10004-8-8-3-5-4-7-3-4-6-2-5" fill="#017689" fill-opacity="1" fill-rule="nonzero" stroke="none" stroke-width="1" d="m 48.92112,-228.13876 0,27.59505 -27.67344,0 z" color="#000" display="inline" enable-background="accumulate" overflow="visible" visibility="visible" style="marker:none"/><path id="rect10004-8-8-3-5-4-7-3-4-6-1-1" fill="#02697b" fill-opacity="1" fill-rule="nonzero" stroke="none" stroke-width="1" d="m 76.56265,-228.13876 0,27.59505 -27.67343,0 z" color="#000" display="inline" enable-background="accumulate" overflow="visible" visibility="visible" style="marker:none"/><path id="rect10004-8-8-3-5-4-7-3-4-6-2-9-97" fill="#028ea5" fill-opacity="1" fill-rule="nonzero" stroke="none" stroke-width="1" d="m 76.53077,-228.13874 0,27.59504 27.67344,0 z" color="#000" display="inline" enable-background="accumulate" overflow="visible" visibility="visible" style="marker:none"/><path id="rect10004-8-8-3-5-4-7-3-4-6-6-7" fill="#028ea5" fill-opacity="1" fill-rule="nonzero" stroke="none" stroke-width="1" d="M 0 266.09375 L 0 358.05469 L 92.220703 266.09375 L 0 266.09375 z" color="#000" display="inline" enable-background="accumulate" overflow="visible" transform="matrix(0.23343402,0,0,0.23343402,-0.24779712,-262.61266)" visibility="visible" style="marker:none"/><path id="rect10004-8-8-3-5-4-7-3-4-6-2-3-3" fill="#028ea5" fill-opacity="1" fill-rule="nonzero" stroke="none" stroke-width="1" d="m 48.92112,-200.4972 0,27.59505 -27.67344,0 z" color="#000" display="inline" enable-background="accumulate" overflow="visible" visibility="visible" style="marker:none"/><path id="rect10004-8-8-3-5-4-7-3-4-6-1-5-4" fill="#017689" fill-opacity="1" fill-rule="nonzero" stroke="none" stroke-width="1" d="m 76.56265,-200.4972 0,27.59505 -27.67343,0 z" color="#000" display="inline" enable-background="accumulate" overflow="visible" visibility="visible" style="marker:none"/><path id="rect10004-8-8-3-5-4-7-3-4-6-2-9-9-3" fill="#017689" fill-opacity="1" fill-rule="nonzero" stroke="none" stroke-width="1" d="m 104.20421,-200.4972 0,27.59505 -27.67344,0 z" color="#000" display="inline" enable-background="accumulate" overflow="visible" visibility="visible" style="marker:none"/><path id="rect10004-8-8-3-5-4-7-3-4-6-9-1" fill="#017689" fill-opacity="1" fill-rule="nonzero" stroke="none" stroke-width="1" d="M 92.083984 384.50781 L 0 476.33008 L 0 502.7207 L 92.083984 502.7207 L 92.083984 384.50781 z" color="#000" display="inline" enable-background="accumulate" overflow="visible" transform="matrix(0.23343402,0,0,0.23343402,-0.24779712,-262.61266)" visibility="visible" style="marker:none"/><path id="rect10004-8-8-3-5-4-7-3-4-6-2-37-8" fill="#017689" fill-opacity="1" fill-rule="nonzero" stroke="none" stroke-width="1" d="m 48.88922,-172.85566 0,27.59503 -27.67344,0 z" color="#000" display="inline" enable-background="accumulate" overflow="visible" visibility="visible" style="marker:none"/><path id="rect10004-8-8-3-5-4-7-3-4-6-1-2-0" fill="#017689" fill-opacity="1" fill-rule="nonzero" stroke="none" stroke-width="1" d="m 76.53077,-172.85566 0,27.59503 -27.67346,0 z" color="#000" display="inline" enable-background="accumulate" overflow="visible" visibility="visible" style="marker:none"/><path id="rect10004-8-8-3-5-4-7-3-4-6-2-9-8-1" fill="#028ea5" fill-opacity="1" fill-rule="nonzero" stroke="none" stroke-width="1" d="m 104.1723,-172.85566 0,27.59503 -27.67344,0 z" color="#000" display="inline" enable-background="accumulate" overflow="visible" visibility="visible" style="marker:none"/><path id="rect10004-8-8-3-5-4-7-3-4-6-6-4-1" fill="#017689" fill-opacity="1" fill-rule="nonzero" stroke="none" stroke-width="1" d="M 92.083984 502.91992 L 0 594.74219 L 0 621.13281 L 92.083984 621.13281 L 92.083984 502.91992 z" color="#000" display="inline" enable-background="accumulate" overflow="visible" transform="matrix(0.23343402,0,0,0.23343402,-0.24779712,-262.61266)" visibility="visible" style="marker:none"/><path id="rect10004-8-8-3-5-4-7-3-4-6-2-3-2-5" fill="#028ea5" fill-opacity="1" fill-rule="nonzero" stroke="none" stroke-width="1" d="m 48.88922,-145.21413 0,27.59504 -27.67344,0 z" color="#000" display="inline" enable-background="accumulate" overflow="visible" visibility="visible" style="marker:none"/><path id="rect10004-8-8-3-5-4-7-3-4-6-1-5-2-2" fill="#017689" fill-opacity="1" fill-rule="nonzero" stroke="none" stroke-width="1" d="m 76.53077,-145.21413 0,27.59504 -27.67346,0 z" color="#000" display="inline" enable-background="accumulate" overflow="visible" visibility="visible" style="marker:none"/><path id="rect10004-8-8-3-5-4-7-3-4-6-2-9-9-8-2" fill="#017689" fill-opacity="1" fill-rule="nonzero" stroke="none" stroke-width="1" d="m 104.1723,-145.21413 0,27.59504 -27.67344,0 z" color="#000" display="inline" enable-background="accumulate" overflow="visible" visibility="visible" style="marker:none"/><path id="rect10004-8-8-3-5-4-7-3-4-6-9-4" fill="#017689" fill-opacity="1" fill-rule="nonzero" stroke="none" stroke-width="1" d="M 476.37305 -0.03515625 L 447.18555 29.070312 L 565.73438 29.070312 L 565.73438 -0.03515625 L 476.37305 -0.03515625 z" color="#000" display="inline" enable-background="accumulate" overflow="visible" transform="matrix(0.23343402,0,0,0.23343402,-0.24779712,-262.61266)" visibility="visible" style="marker:none"/><path id="rect10004-8-8-3-5-4-7-3-4-6-2-37-5" fill="#017689" fill-opacity="1" fill-rule="nonzero" stroke="none" stroke-width="1" d="M 594.78516 -0.03515625 L 565.59766 29.070312 L 684.14648 29.070312 L 684.14648 -0.03515625 L 594.78516 -0.03515625 z" color="#000" display="inline" enable-background="accumulate" overflow="visible" transform="matrix(0.23343402,0,0,0.23343402,-0.24779712,-262.61266)" visibility="visible" style="marker:none"/><path id="rect10004-8-8-3-5-4-7-3-4-6-1-2-2" fill="#017689" fill-opacity="1" fill-rule="nonzero" stroke="none" stroke-width="1" d="M 713.19727 -0.03515625 L 684.00977 29.070312 L 802.56055 29.070312 L 802.56055 -0.03515625 L 713.19727 -0.03515625 z" color="#000" display="inline" enable-background="accumulate" overflow="visible" transform="matrix(0.23343402,0,0,0.23343402,-0.24779712,-262.61266)" visibility="visible" style="marker:none"/><path id="rect10004-8-8-3-5-4-7-3-4-6-2-9-8-9" fill="#028ea5" fill-opacity="1" fill-rule="nonzero" stroke="none" stroke-width="1" d="M 831.61133 -0.03515625 L 802.42383 29.070312 L 920.97266 29.070312 L 920.97266 -0.03515625 L 831.61133 -0.03515625 z" color="#000" display="inline" enable-background="accumulate" overflow="visible" transform="matrix(0.23343402,0,0,0.23343402,-0.24779712,-262.61266)" visibility="visible" style="marker:none"/><path id="rect10004-8-8-3-5-4-7-3-4-6-6-4-8" fill="#017689" fill-opacity="1" fill-rule="nonzero" stroke="none" stroke-width="1" d="m 131.81385,-255.7803 0,27.59504 -27.67345,0 z" color="#000" display="inline" enable-background="accumulate" overflow="visible" visibility="visible" style="marker:none"/><path id="rect10004-8-8-3-5-4-7-3-4-6-2-3-2-1" fill="#028ea5" fill-opacity="1" fill-rule="nonzero" stroke="none" stroke-width="1" d="m 131.78193,-255.7803 0,27.59504 27.67346,0 z" color="#000" display="inline" enable-background="accumulate" overflow="visible" visibility="visible" style="marker:none"/><path id="rect10004-8-8-3-5-4-7-3-4-6-1-5-2-9" fill="#028ea5" fill-opacity="1" fill-rule="nonzero" stroke="none" stroke-width="1" d="m 187.09694,-255.7803 0,27.59504 -27.67345,0 z" color="#000" display="inline" enable-background="accumulate" overflow="visible" visibility="visible" style="marker:none"/><path id="rect10004-8-8-3-5-4-7-3-4-6-2-9-9-8-7" fill="#028ea5" fill-opacity="1" fill-rule="nonzero" stroke="none" stroke-width="1" d="m 214.73849,-255.7803 0,27.59504 -27.67346,0 z" color="#000" display="inline" enable-background="accumulate" overflow="visible" visibility="visible" style="marker:none"/><path id="rect10004-8-8-3-5-4-7-3-4-6-94-5" fill="#028ea5" fill-opacity="1" fill-rule="nonzero" stroke="none" stroke-width="1" d="m 131.84572,-228.13876 0,27.59505 -27.67342,0 z" color="#000" display="inline" enable-background="accumulate" overflow="visible" visibility="visible" style="marker:none"/><path id="rect10004-8-8-3-5-4-7-3-4-6-2-5-3" fill="#028ea5" fill-opacity="1" fill-rule="nonzero" stroke="none" stroke-width="1" d="m 159.48728,-228.13874 0,27.59504 -27.67343,0 z" color="#000" display="inline" enable-background="accumulate" overflow="visible" visibility="visible" style="marker:none"/><path id="rect10004-8-8-3-5-4-7-3-4-6-1-1-0" fill="#028ea5" fill-opacity="1" fill-rule="nonzero" stroke="none" stroke-width="1" d="m 187.12882,-228.13874 0,27.59504 -27.67343,0 z" color="#000" display="inline" enable-background="accumulate" overflow="visible" visibility="visible" style="marker:none"/><path id="rect10004-8-8-3-5-4-7-3-4-6-2-9-97-8" fill="#017689" fill-opacity="1" fill-rule="nonzero" stroke="none" stroke-width="1" d="m 214.77037,-228.13874 0,27.59504 -27.67343,0 z" color="#000" display="inline" enable-background="accumulate" overflow="visible" visibility="visible" style="marker:none"/><path id="rect10004-8-8-3-5-4-7-3-4-6-6-7-4" fill="#028ea5" fill-opacity="1" fill-rule="nonzero" stroke="none" stroke-width="1" d="m 131.84572,-172.90215 0,-27.59505 -27.67342,0 z" color="#000" display="inline" enable-background="accumulate" overflow="visible" visibility="visible" style="marker:none"/><path id="rect10004-8-8-3-5-4-7-3-4-6-2-3-3-3" fill="#028ea5" fill-opacity="1" fill-rule="nonzero" stroke="none" stroke-width="1" d="m 159.45539,-172.90215 0,-27.59505 27.67343,0 z" color="#000" display="inline" enable-background="accumulate" overflow="visible" visibility="visible" style="marker:none"/><path id="rect10004-8-8-3-5-4-7-3-4-6-1-5-4-9" fill="#017689" fill-opacity="1" fill-rule="nonzero" stroke="none" stroke-width="1" d="m 187.12882,-200.4972 0,27.59505 -27.67343,0 z" color="#000" display="inline" enable-background="accumulate" overflow="visible" visibility="visible" style="marker:none"/><path id="rect10004-8-8-3-5-4-7-3-4-6-2-9-9-3-5" fill="#028ea5" fill-opacity="1" fill-rule="nonzero" stroke="none" stroke-width="1" d="m 214.77037,-200.49719 0,27.59505 -27.67343,0 z" color="#000" display="inline" enable-background="accumulate" overflow="visible" visibility="visible" style="marker:none"/><path id="rect10004-8-8-3-5-4-7-3-4-6-9-1-8" fill="#017689" fill-opacity="1" fill-rule="nonzero" stroke="none" stroke-width="1" d="m 131.81385,-172.85566 0,27.59503 -27.67345,0 z" color="#000" display="inline" enable-background="accumulate" overflow="visible" visibility="visible" style="marker:none"/><path id="rect10004-8-8-3-5-4-7-3-4-6-2-37-8-4" fill="#028ea5" fill-opacity="1" fill-rule="nonzero" stroke="none" stroke-width="1" d="m 159.45539,-172.85566 0,27.59503 -27.67346,0 z" color="#000" display="inline" enable-background="accumulate" overflow="visible" visibility="visible" style="marker:none"/><path id="rect10004-8-8-3-5-4-7-3-4-6-1-2-0-8" fill="#017689" fill-opacity="1" fill-rule="nonzero" stroke="none" stroke-width="1" d="m 187.09694,-172.85566 0,27.59503 -27.67345,0 z" color="#000" display="inline" enable-background="accumulate" overflow="visible" visibility="visible" style="marker:none"/><path id="rect10004-8-8-3-5-4-7-3-4-6-2-9-8-1-9" fill="#028ea5" fill-opacity="1" fill-rule="nonzero" stroke="none" stroke-width="1" d="m 214.73849,-145.26063 0,-27.59503 -27.67346,0 z" color="#000" display="inline" enable-background="accumulate" overflow="visible" visibility="visible" style="marker:none"/><path id="rect10004-8-8-3-5-4-7-3-4-6-6-4-1-3" fill="#028ea5" fill-opacity="1" fill-rule="nonzero" stroke="none" stroke-width="1" d="m 131.81385,-145.21412 0,27.59505 -27.67345,0 z" color="#000" display="inline" enable-background="accumulate" overflow="visible" visibility="visible" style="marker:none"/><path id="rect10004-8-8-3-5-4-7-3-4-6-2-3-2-5-8" fill="#017689" fill-opacity="1" fill-rule="nonzero" stroke="none" stroke-width="1" d="m 131.78193,-145.21412 0,27.59505 27.67346,0 z" color="#000" display="inline" enable-background="accumulate" overflow="visible" visibility="visible" style="marker:none"/><path id="rect10004-8-8-3-5-4-7-3-4-6-1-5-2-2-1" fill="#028ba1" fill-opacity="1" fill-rule="nonzero" stroke="none" stroke-width="1" d="m 187.09694,-145.21412 0,27.59505 -27.67345,0 z" color="#000" display="inline" enable-background="accumulate" overflow="visible" visibility="visible" style="marker:none"/><path id="rect10004-8-8-3-5-4-7-3-4-6-2-9-9-8-2-2" fill="#017689" fill-opacity="1" fill-rule="nonzero" stroke="none" stroke-width="1" d="m 187.06503,-145.21412 0,27.59505 27.67346,0 z" color="#000" display="inline" enable-background="accumulate" overflow="visible" visibility="visible" style="marker:none"/><path id="rect10004-8-8-3-5-4-7-3-4-6-3" fill="#017689" fill-opacity="1" fill-rule="nonzero" stroke="none" stroke-width="1" d="M 92.220703 621.33203 L 0 713.29102 L 0 739.54492 L 92.220703 739.54492 L 92.220703 621.33203 z" color="#000" display="inline" enable-background="accumulate" overflow="visible" transform="matrix(0.23343402,0,0,0.23343402,-0.24779712,-262.61266)" visibility="visible" style="marker:none"/><path id="rect10004-8-8-3-5-4-7-3-4-6-2-96" fill="#017689" fill-opacity="1" fill-rule="nonzero" stroke="none" stroke-width="1" d="m 48.92112,-117.57256 0,27.59504 -27.67344,0 z" color="#000" display="inline" enable-background="accumulate" overflow="visible" visibility="visible" style="marker:none"/><path id="rect10004-8-8-3-5-4-7-3-4-6-1-7" fill="#028ea5" fill-opacity="1" fill-rule="nonzero" stroke="none" stroke-width="1" d="m 76.56265,-117.57256 0,27.59504 -27.67343,0 z" color="#000" display="inline" enable-background="accumulate" overflow="visible" visibility="visible" style="marker:none"/><path id="rect10004-8-8-3-5-4-7-3-4-6-2-9-5" fill="#017689" fill-opacity="1" fill-rule="nonzero" stroke="none" stroke-width="1" d="m 104.20421,-117.57256 0,27.59504 -27.67344,0 z" color="#000" display="inline" enable-background="accumulate" overflow="visible" visibility="visible" style="marker:none"/><path id="rect10004-8-8-3-5-4-7-3-4-6-6-1" fill="#017689" fill-opacity="1" fill-rule="nonzero" stroke="none" stroke-width="1" d="M 92.220703 739.74414 L 87.794922 744.1582 L 92.220703 744.1582 L 92.220703 739.74414 z" color="#000" display="inline" enable-background="accumulate" overflow="visible" transform="matrix(0.23343402,0,0,0.23343402,-0.24779712,-262.61266)" visibility="visible" style="marker:none"/><path id="rect10004-8-8-3-5-4-7-3-4-6-2-3-39" fill="#028da4" fill-opacity="1" fill-rule="nonzero" stroke="none" stroke-width="1" d="M 210.63281 739.74414 L 206.20703 744.1582 L 210.63281 744.1582 L 210.63281 739.74414 z" color="#000" display="inline" enable-background="accumulate" overflow="visible" transform="matrix(0.23343402,0,0,0.23343402,-0.24779712,-262.61266)" visibility="visible" style="marker:none"/><path id="rect10004-8-8-3-5-4-7-3-4-6-1-5-8" fill="#017689" fill-opacity="1" fill-rule="nonzero" stroke="none" stroke-width="1" d="M 329.04492 739.74414 L 324.61914 744.1582 L 329.04492 744.1582 L 329.04492 739.74414 z" color="#000" display="inline" enable-background="accumulate" overflow="visible" transform="matrix(0.23343402,0,0,0.23343402,-0.24779712,-262.61266)" visibility="visible" style="marker:none"/><path id="rect10004-8-8-3-5-4-7-3-4-6-2-9-9-5" fill="#017689" fill-opacity="1" fill-rule="nonzero" stroke="none" stroke-width="1" d="M 447.45898 739.74414 L 443.0332 744.1582 L 447.45898 744.1582 L 447.45898 739.74414 z" color="#000" display="inline" enable-background="accumulate" overflow="visible" transform="matrix(0.23343402,0,0,0.23343402,-0.24779712,-262.61266)" visibility="visible" style="marker:none"/><path id="rect10004-8-8-3-5-4-7-3-4-6-17-5" fill="#028ea5" fill-opacity="1" fill-rule="nonzero" stroke="none" stroke-width="1" d="m 131.84572,-89.97752 0,-27.59504 -27.67342,0 z" color="#000" display="inline" enable-background="accumulate" overflow="visible" visibility="visible" style="marker:none"/><path id="rect10004-8-8-3-5-4-7-3-4-6-2-8-1" fill="#02697b" fill-opacity="1" fill-rule="nonzero" stroke="none" stroke-width="1" d="m 159.48728,-117.57256 0,27.59504 -27.67343,0 z" color="#000" display="inline" enable-background="accumulate" overflow="visible" visibility="visible" style="marker:none"/><path id="rect10004-8-8-3-5-4-7-3-4-6-1-0-6" fill="#028ea5" fill-opacity="1" fill-rule="nonzero" stroke="none" stroke-width="1" d="m 159.45539,-89.97752 0,-27.59504 27.67343,0 z" color="#000" display="inline" enable-background="accumulate" overflow="visible" visibility="visible" style="marker:none"/><path id="rect10004-8-8-3-5-4-7-3-4-6-2-9-93-5" fill="#017689" fill-opacity="1" fill-rule="nonzero" stroke="none" stroke-width="1" d="m 214.77037,-117.57254 0,27.59503 -27.67343,0 z" color="#000" display="inline" enable-background="accumulate" overflow="visible" visibility="visible" style="marker:none"/><path id="rect10004-8-8-3-5-4-7-3-4-6-6-71-3" fill="#017689" fill-opacity="1" fill-rule="nonzero" stroke="none" stroke-width="1" d="M 565.87109 739.74414 L 561.44531 744.1582 L 565.87109 744.1582 L 565.87109 739.74414 z" color="#000" display="inline" enable-background="accumulate" overflow="visible" transform="matrix(0.23343402,0,0,0.23343402,-0.24779712,-262.61266)" visibility="visible" style="marker:none"/><path id="rect10004-8-8-3-5-4-7-3-4-6-2-3-34-4" fill="#017689" fill-opacity="1" fill-rule="nonzero" stroke="none" stroke-width="1" d="M 684.2832 739.74414 L 679.85742 744.1582 L 684.2832 744.1582 L 684.2832 739.74414 z" color="#000" display="inline" enable-background="accumulate" overflow="visible" transform="matrix(0.23343402,0,0,0.23343402,-0.24779712,-262.61266)" visibility="visible" style="marker:none"/><path id="rect10004-8-8-3-5-4-7-3-4-6-1-5-5-1" fill="#017689" fill-opacity="1" fill-rule="nonzero" stroke="none" stroke-width="1" d="M 802.69531 739.74414 L 798.26953 744.1582 L 802.69531 744.1582 L 802.69531 739.74414 z" color="#000" display="inline" enable-background="accumulate" overflow="visible" transform="matrix(0.23343402,0,0,0.23343402,-0.24779712,-262.61266)" visibility="visible" style="marker:none"/><path id="rect10004-8-8-3-5-4-7-3-4-6-2-9-9-6-8" fill="#017689" fill-opacity="1" fill-rule="nonzero" stroke="none" stroke-width="1" d="M 921.10938 739.74414 L 916.68359 744.1582 L 921.10938 744.1582 L 921.10938 739.74414 z" color="#000" display="inline" enable-background="accumulate" overflow="visible" transform="matrix(0.23343402,0,0,0.23343402,-0.24779712,-262.61266)" visibility="visible" style="marker:none"/><path id="rect10004-8-8-3-5-4-7-3-4-6-2-37-5-8" fill="#028ea5" fill-opacity="1" fill-rule="nonzero" stroke="none" stroke-width="1" d="M 950.02344 -0.03515625 L 920.83594 29.070312 L 1039.3848 29.070312 L 1039.3848 -0.03515625 L 950.02344 -0.03515625 z" color="#000" display="inline" enable-background="accumulate" overflow="visible" transform="matrix(0.23343402,0,0,0.23343402,-0.24779712,-262.61266)" visibility="visible" style="marker:none"/><path id="rect10004-8-8-3-5-4-7-3-4-6-1-2-2-1" fill="#02697b" fill-opacity="1" fill-rule="nonzero" stroke="none" stroke-width="1" d="M 1052.3262 16.042969 L 1039.248 29.085938 L 1052.3262 29.085938 L 1052.3262 16.042969 z" color="#000" display="inline" enable-background="accumulate" overflow="visible" transform="matrix(0.23343402,0,0,0.23343402,-0.24779712,-262.61266)" visibility="visible" style="marker:none"/><path id="rect10004-8-8-3-5-4-7-3-4-6-2-3-2-1-0" fill="#02697b" fill-opacity="1" fill-rule="nonzero" stroke="none" stroke-width="1" d="m 242.38003,-255.7803 0,27.59504 -27.67346,0 z" color="#000" display="inline" enable-background="accumulate" overflow="visible" visibility="visible" style="marker:none"/><path id="rect10004-8-8-3-5-4-7-3-4-6-1-5-2-9-7" fill="#028ea5" fill-opacity="1" fill-rule="nonzero" stroke="none" stroke-width="1" d="M 1039.248 29.283203 L 1052.3262 42.326172 L 1052.3262 29.283203 L 1039.248 29.283203 z" color="#000" display="inline" enable-background="accumulate" overflow="visible" transform="matrix(0.23343402,0,0,0.23343402,-0.24779712,-262.61266)" visibility="visible" style="marker:none"/><path id="rect10004-8-8-3-5-4-7-3-4-6-2-5-3-2" fill="#02697b" fill-opacity="1" fill-rule="nonzero" stroke="none" stroke-width="1" d="m 242.41191,-228.13876 0,27.59505 -27.67342,0 z" color="#000" display="inline" enable-background="accumulate" overflow="visible" visibility="visible" style="marker:none"/><path id="rect10004-8-8-3-5-4-7-3-4-6-1-1-0-7" fill="#02697b" fill-opacity="1" fill-rule="nonzero" stroke="none" stroke-width="1" d="M 1052.3262 253.01562 L 1039.3965 265.91016 L 1052.3262 265.91016 L 1052.3262 253.01562 z" color="#000" display="inline" enable-background="accumulate" overflow="visible" transform="matrix(0.23343402,0,0,0.23343402,-0.24779712,-262.61266)" visibility="visible" style="marker:none"/><path id="rect10004-8-8-3-5-4-7-3-4-6-2-3-3-3-7" fill="#017689" fill-opacity="1" fill-rule="nonzero" stroke="none" stroke-width="1" d="m 242.41191,-200.4972 0,27.59505 -27.67342,0 z" color="#000" display="inline" enable-background="accumulate" overflow="visible" visibility="visible" style="marker:none"/><path id="rect10004-8-8-3-5-4-7-3-4-6-1-5-4-9-1" fill="#017689" fill-opacity="1" fill-rule="nonzero" stroke="none" stroke-width="1" d="M 1052.3262 371.42969 L 1039.3965 384.32422 L 1052.3262 384.32422 L 1052.3262 371.42969 z" color="#000" display="inline" enable-background="accumulate" overflow="visible" transform="matrix(0.23343402,0,0,0.23343402,-0.24779712,-262.61266)" visibility="visible" style="marker:none"/><path id="rect10004-8-8-3-5-4-7-3-4-6-2-37-8-4-0" fill="#017689" fill-opacity="1" fill-rule="nonzero" stroke="none" stroke-width="1" d="m 242.38003,-172.85566 0,27.59503 -27.67346,0 z" color="#000" display="inline" enable-background="accumulate" overflow="visible" visibility="visible" style="marker:none"/><path id="rect10004-8-8-3-5-4-7-3-4-6-1-2-0-8-6" fill="#028ea5" fill-opacity="1" fill-rule="nonzero" stroke="none" stroke-width="1" d="M 1052.3262 489.69336 L 1039.248 502.73633 L 1052.3262 502.73633 L 1052.3262 489.69336 z" color="#000" display="inline" enable-background="accumulate" overflow="visible" transform="matrix(0.23343402,0,0,0.23343402,-0.24779712,-262.61266)" visibility="visible" style="marker:none"/><path id="rect10004-8-8-3-5-4-7-3-4-6-2-3-2-5-8-8" fill="#028ea5" fill-opacity="1" fill-rule="nonzero" stroke="none" stroke-width="1" d="m 242.38003,-145.21413 0,27.59504 -27.67346,0 z" color="#000" display="inline" enable-background="accumulate" overflow="visible" visibility="visible" style="marker:none"/><path id="rect10004-8-8-3-5-4-7-3-4-6-1-5-2-2-1-3" fill="#017689" fill-opacity="1" fill-rule="nonzero" stroke="none" stroke-width="1" d="M 1052.3262 608.10547 L 1039.248 621.14844 L 1052.3262 621.14844 L 1052.3262 608.10547 z" color="#000" display="inline" enable-background="accumulate" overflow="visible" transform="matrix(0.23343402,0,0,0.23343402,-0.24779712,-262.61266)" visibility="visible" style="marker:none"/><path id="rect10004-8-8-3-5-4-7-3-4-6-2-8-1-3" fill="#017689" fill-opacity="1" fill-rule="nonzero" stroke="none" stroke-width="1" d="m 242.41191,-117.57256 0,27.59504 -27.67342,0 z" color="#000" display="inline" enable-background="accumulate" overflow="visible" visibility="visible" style="marker:none"/><path id="rect10004-8-8-3-5-4-7-3-4-6-1-0-6-3" fill="#017689" fill-opacity="1" fill-rule="nonzero" stroke="none" stroke-width="1" d="M 1052.3262 726.66797 L 1039.3965 739.5625 L 1052.3262 739.5625 L 1052.3262 726.66797 z" color="#000" display="inline" enable-background="accumulate" overflow="visible" transform="matrix(0.23343402,0,0,0.23343402,-0.24779712,-262.61266)" visibility="visible" style="marker:none"/><path id="rect10004-8-8-3-5-4-7-3-4-6-2-3-34-4-5" fill="#028ba1" fill-opacity="1" fill-rule="nonzero" stroke="none" stroke-width="1" d="M 1039.5215 739.74414 L 1035.0957 744.1582 L 1039.5215 744.1582 L 1039.5215 739.74414 z" color="#000" display="inline" enable-background="accumulate" overflow="visible" transform="matrix(0.23343402,0,0,0.23343402,-0.24779712,-262.61266)" visibility="visible" style="marker:none"/><path id="rect10004-8-8-3-5-4-7-3-4-6-2-5-3-9" fill="#017689" fill-opacity="1" fill-rule="nonzero" stroke="none" stroke-width="1" d="m 159.48728,-173.17996 0,-27.59504 -27.67343,0 z" color="#000" display="inline" enable-background="accumulate" overflow="visible" visibility="visible" style="marker:none"/><path id="rect10004-8-8-3-5-4-7-3-4-6-1-0-6-2" fill="#028ea5" fill-opacity="1" fill-rule="nonzero" stroke="none" stroke-width="1" d="m 159.45539,-89.97752 0,-27.59504 27.67343,0 z" color="#000" display="inline" enable-background="accumulate" overflow="visible" visibility="visible" style="marker:none"/></g><flowRoot id="flowRoot4218" fill="#000" fill-opacity="1" stroke="none" stroke-linecap="butt" stroke-linejoin="miter" stroke-opacity="1" stroke-width="1" font-family="sans-serif" font-size="40" font-style="normal" font-weight="normal" letter-spacing="0" transform="matrix(0.76866202,0,0,0.76866202,187.28246,515.94725)" word-spacing="0" xml:space="preserve" style="line-height:125%"><flowRegion id="flowRegion4220"><rect id="rect4222" width="1136.72" height="309.285" x="-124.249" y="103.658"/></flowRegion><flowPara id="flowPara4415" font-family="DejaVu Sans" font-size="40" font-stretch="normal" font-style="normal" font-variant="normal" font-weight="normal" text-anchor="middle" writing-mode="lr-tb" style="line-height:150%;-inkscape-font-specification:'DejaVu Sans';text-align:center"/><flowPara style="line-height:150%;-inkscape-font-specification:'DejaVu Sans, Ultra-Light';text-align:center" id="flowPara4238" font-family="DejaVu Sans" font-size="40" font-stretch="normal" font-style="normal" font-variant="normal" font-weight="200" text-anchor="middle" writing-mode="lr-tb">birnen</flowPara><flowPara id="flowPara5963" font-family="DejaVu Sans" font-size="40" font-stretch="normal" font-style="normal" font-variant="normal" font-weight="200" text-anchor="middle" writing-mode="lr-tb" style="line-height:150%;-inkscape-font-specification:'DejaVu Sans, Ultra-Light';text-align:center">has successfully completed the workshop</flowPara><flowPara style="line-height:150%;-inkscape-font-specification:'DejaVu Sans';text-align:center" id="flowPara4232" font-family="DejaVu Sans" font-size="40" font-stretch="normal" font-style="normal" font-variant="normal" font-weight="normal" text-anchor="middle" writing-mode="lr-tb">banane</flowPara><flowPara id="flowPara4240" font-family="DejaVu Sans" font-size="40" font-stretch="normal" font-style="normal" font-variant="normal" font-weight="200" text-anchor="middle" writing-mode="lr-tb" style="line-height:150%;-inkscape-font-specification:'DejaVu Sans, Ultra-Light';text-align:center">at GUADEC in Karlsruhe, Germany on August 11th, 2016</flowPara><flowPara style="line-height:150%;-inkscape-font-specification:'DejaVu Sans, Ultra-Light';text-align:center" id="flowPara4230" font-family="DejaVu Sans" font-size="40" font-stretch="normal" font-style="normal" font-variant="normal" font-weight="200" text-anchor="middle" writing-mode="lr-tb"/></flowRoot><g id="g4745" fill="#555753" fill-opacity="1" transform="matrix(1.172651,0,0,1.2098875,722.03819,3435.4508)"><g id="g4747" fill="#555753" fill-opacity="1" fill-rule="nonzero" stroke="none" stroke-miterlimit="4" transform="matrix(0.95129,0,0,0.95129,-319.7124,-2517.86)"><g id="g4749" fill="#555753" fill-opacity="1"><path id="path4751" fill="#555753" fill-opacity="1" d="M 86.068,0 C 61.466,0 56.851,35.041 70.691,35.041 84.529,35.041 110.671,0 86.068,0 Z"/><path id="path4753" fill="#555753" fill-opacity="1" d="M 45.217,30.699 C 52.586,31.149 60.671,2.577 46.821,4.374 32.976,6.171 37.845,30.249 45.217,30.699 Z"/><path id="path4755" fill="#555753" fill-opacity="1" d="M 11.445,48.453 C 16.686,46.146 12.12,23.581 3.208,29.735 -5.7,35.89 6.204,50.759 11.445,48.453 Z"/><path id="path4757" fill="#555753" fill-opacity="1" d="M 26.212,36.642 C 32.451,35.37 32.793,9.778 21.667,14.369 10.539,18.961 19.978,37.916 26.212,36.642 l 0,0 z"/><path id="path4759" fill="#555753" fill-opacity="1" d="m 58.791,93.913 c 1.107,8.454 -6.202,12.629 -13.36,7.179 C 22.644,83.743 83.16,75.088 79.171,51.386 75.86,31.712 15.495,37.769 8.621,68.553 3.968,89.374 27.774,118.26 52.614,118.26 c 12.22,0 26.315,-11.034 28.952,-25.012 C 83.58,82.589 57.867,86.86 58.791,93.913 l 0,0 z"/></g></g><g id="g4761" fill="#555753" fill-opacity="1" transform="matrix(0.390099,0,0,0.390099,-1747.456,-2952.216)"><path id="path4763" fill="#555753" fill-opacity="1" stroke="none" stroke-linecap="butt" stroke-linejoin="miter" stroke-opacity="1" stroke-width="1pt" d="m 4176.2963,1214.4401 c -15.1078,0.4069 -27.0386,5.8367 -35.8126,16.25 -9.0861,10.8369 -13.6562,25.8104 -13.6562,44.9063 0,19.0432 4.5703,33.9757 13.6562,44.8124 9.1305,10.8369 21.6664,16.25 37.6563,16.25 16.034,0 28.6014,-5.4131 37.6875,-16.25 9.0859,-10.8367 13.6251,-25.7692 13.625,-44.8124 -1e-4,-19.0959 -4.5391,-34.0694 -13.625,-44.9063 -9.0861,-10.8366 -21.6536,-16.2499 -37.6875,-16.25 -0.6246,0 -1.2296,-0.016 -1.8437,0 z m 1.125,22 c 0.2415,-0.01 0.4737,0 0.7187,0 7.8833,10e-5 13.9919,3.4114 18.3125,10.25 4.3203,6.8388 6.4999,16.4913 6.5,28.9063 0,12.3623 -2.1799,21.9427 -6.5,28.7812 -4.3204,6.8389 -10.4293,10.2812 -18.3125,10.2812 -7.8391,0 -13.8983,-3.4423 -18.2187,-10.2812 -4.3204,-6.8385 -6.4999,-16.4189 -6.5,-28.7812 0,-12.4149 2.1798,-22.0675 6.5,-28.9063 4.1852,-6.6249 10.0123,-10.0428 17.5,-10.25 z" font-family="Bitstream Vera Sans" font-size="148.7" font-stretch="normal" font-style="normal" font-variant="normal" font-weight="bold" text-anchor="start" writing-mode="lr-tb" style="line-height:125%;text-align:start"/><path id="path4765" fill="#555753" fill-opacity="1" stroke="none" stroke-linecap="butt" stroke-linejoin="miter" stroke-opacity="1" stroke-width="1pt" d="m 4005.6293,1325.612 c -13.3076,11.1757 -33.1067,11.0472 -41.3549,11.0472 -16.6133,0 -29.7747,-5.471 -39.4842,-16.413 -9.7097,-10.9946 -14.5644,-25.8819 -14.5644,-44.6622 0,-18.9906 4.9438,-33.9305 14.8316,-44.82 9.8878,-10.8892 23.4277,-16.3339 40.62,-16.334 6.6363,10e-5 12.9831,0.7366 19.0406,2.2094 6.1019,1.473 11.8475,3.6562 17.2368,6.5494 l -6.921,20.4608 c -3.0298,-1.6586 -6.4987,-3.2932 -9.7145,-4.4424 -5.4784,-1.8411 -10.979,-2.7617 -16.5018,-2.7618 -10.2442,10e-5 -18.15,3.3932 -23.7173,10.1792 -5.523,6.7336 -8.2844,16.3867 -8.2844,28.9594 0,12.4676 2.6723,22.0945 8.0172,28.8806 5.3446,6.7861 13.3768,10.1791 22.7818,10.1791 9.5548,0 15.4728,-2.4084 18.6291,-4.9461 l 0,-20.3835 -20.7001,0 0,-20.3584 40.0855,0" font-family="Bitstream Vera Sans" font-size="148.7" font-stretch="normal" font-style="normal" font-variant="normal" font-weight="bold" text-anchor="start" writing-mode="lr-tb" style="line-height:125%;text-align:start"/><path id="path4767" fill="#555753" fill-opacity="1" stroke="none" stroke-linecap="butt" stroke-linejoin="miter" stroke-opacity="1" stroke-width="1pt" d="m 4023.2108,1216.5605 16.2279,0 51.2775,70.8022 0,-70.8022 21.8853,0 0,117.8103 -16.2279,0 -51.2774,-70.8022 0,70.8022 -21.8854,0 0,-117.8103" font-family="Bitstream Vera Sans" font-size="148.7" font-stretch="normal" font-style="normal" font-variant="normal" font-weight="bold" text-anchor="start" writing-mode="lr-tb" style="line-height:125%;text-align:start"/><path id="path4769" fill="#555753" fill-opacity="1" stroke="none" stroke-linecap="butt" stroke-linejoin="miter" stroke-opacity="1" stroke-width="1pt" d="m 4246.3361,1216.5605 32.7366,0 22.7151,73.5479 22.8487,-73.5479 27.6698,0 12.5,117.8103 -24.3186,0 -7.5,-73.668 -22.9823,74.0213 -16.3015,0 -22.9824,-76.5213 -7.5,76.168 -24.3854,0 12.5,-117.8103" font-family="Bitstream Vera Sans" font-size="148.7" font-stretch="normal" font-style="normal" font-variant="normal" font-weight="bold" text-anchor="start" writing-mode="lr-tb" style="line-height:125%;text-align:start"/><path id="path4771" fill="#555753" fill-opacity="1" stroke="none" stroke-linecap="butt" stroke-linejoin="miter" stroke-opacity="1" stroke-width="1pt" d="m 4382.3597,1216.5605 69.4147,0 0,22.9624 -43.6933,0 0,24.4365 33.5877,0 0,20.4623 -33.5877,0 0,26.9868 45.1631,0 0,22.9623 -70.8845,0 0,-117.8103" font-family="Bitstream Vera Sans" font-size="148.7" font-stretch="normal" font-style="normal" font-variant="normal" font-weight="bold" text-anchor="start" writing-mode="lr-tb" style="line-height:125%;text-align:start"/></g></g><g id="g4395" transform="translate(-1.2802426,0)"><g id="g6271" transform="translate(-12.826071,0)"><path id="path4248-9" fill="none" fill-rule="evenodd" stroke="#000" stroke-linecap="butt" stroke-linejoin="miter" stroke-opacity="1" stroke-width="1" d="m 245.78175,887.70734 277.79195,0"/><path id="path4248-9-9" fill="none" fill-rule="evenodd" stroke="#000" stroke-linecap="butt" stroke-linejoin="miter" stroke-opacity="1" stroke-width="1" d="m 561.78175,887.70734 277.79195,0"/><flowRoot id="flowRoot4218-4-1" fill="#000" fill-opacity="1" stroke="none" stroke-linecap="butt" stroke-linejoin="miter" stroke-opacity="1" stroke-width="1" font-family="sans-serif" font-size="30.746" font-style="normal" font-weight="normal" letter-spacing="0" transform="translate(283.65502,911.73731)" word-spacing="0" xml:space="preserve" style="line-height:125%"><flowRegion id="flowRegion4220-9-5"><rect id="rect4222-1-4" width="245.276" height="60.988" x="-21.025" y="-13.416"/></flowRegion><flowPara id="flowPara4385" font-family="DejaVu Sans" font-size="15" font-stretch="normal" font-style="normal" font-variant="normal" font-weight="200" text-anchor="middle" writing-mode="lr-tb" style="line-height:150%;-inkscape-font-specification:'DejaVu Sans, Ultra-Light';text-align:center">traube</flowPara><flowPara id="flowPara4389" font-family="DejaVu Sans" font-size="15" font-stretch="normal" font-style="normal" font-variant="normal" font-weight="200" text-anchor="middle" writing-mode="lr-tb" style="line-height:150%;-inkscape-font-specification:'DejaVu Sans, Ultra-Light';text-align:center">Instructor</flowPara></flowRoot><flowRoot id="flowRoot4218-4-1-2" fill="#000" fill-opacity="1" stroke="none" stroke-linecap="butt" stroke-linejoin="miter" stroke-opacity="1" stroke-width="1" font-family="sans-serif" font-size="30.746" font-style="normal" font-weight="normal" letter-spacing="0" transform="translate(579.76952,909.717)" word-spacing="0" xml:space="preserve" style="line-height:125%"><flowRegion id="flowRegion4220-9-5-2"><rect id="rect4222-1-4-7" width="283.661" height="80.181" x="-21.025" y="-13.416"/></flowRegion><flowPara style="line-height:150%;-inkscape-font-specification:'DejaVu Sans, Ultra-Light';text-align:center" id="flowPara4230-0-1-0" font-family="DejaVu Sans" font-size="15" font-stretch="normal" font-style="normal" font-variant="normal" font-weight="200" text-anchor="middle" writing-mode="lr-tb">apfel</flowPara><flowPara id="flowPara4393" font-family="DejaVu Sans" font-size="15" font-stretch="normal" font-style="normal" font-variant="normal" font-weight="200" text-anchor="middle" writing-mode="lr-tb" style="line-height:150%;-inkscape-font-specification:'DejaVu Sans, Ultra-Light';text-align:center">Director, GNOME Foundation</flowPara></flowRoot></g></g></g></svg>