<svg xmlns="http://www.w3.org/2000/svg" xmlns:svg="http://www.w3.org/2000/svg" id="svg14375" width="1024" height="768" version="1.1" viewBox="0 0 1024 768"><defs id="defs14369"><filter id="filter17318" color-interpolation-filters="sRGB"><feBlend id="feBlend17320" in2="BackgroundImage" mode="multiply"/></filter></defs><metadata id="metadata14372"/><g id="layer1" transform="translate(0,-93.799992)"><rect id="rect6607" width="1024" height="768" x="0" y="93.8" fill="#4a86cf" fill-opacity="1" fill-rule="nonzero" stroke="none" stroke-dasharray="none" stroke-dashoffset="0" stroke-linecap="butt" stroke-linejoin="miter" stroke-miterlimit="4" stroke-opacity="1" stroke-width="1.067" clip-rule="nonzero" color="#000" color-interpolation="sRGB" color-interpolation-filters="linearRGB" color-rendering="auto" display="inline" enable-background="accumulate" image-rendering="auto" opacity="1" overflow="visible" shape-rendering="auto" text-rendering="auto" vector-effect="none" visibility="visible" style="isolation:auto;mix-blend-mode:normal;solid-color:#000;solid-opacity:1;marker:none;font-variant-east_asian:normal"/><g id="g8462" fill="#fff" fill-opacity="1" stroke-width="2.096" display="inline" opacity=".722" transform="matrix(0.87541631,0,0,-0.87541641,-105.745,1391.7123)"><path id="path8464" fill="#fff" fill-opacity="1" stroke-width="2.096" d="m 266.4638,669.58833 -29.99999,30 h 29.99999 z" enable-background="new" opacity=".2"/><path id="path8466" fill="#fff" fill-opacity="1" stroke-width="2.096" d="m 206.46381,699.59002 -30,29.99831 h 30 z" enable-background="new" opacity=".1"/><path id="path8468" fill="#fff" fill-opacity="1" stroke-width="2.096" d="m 206.46381,729.58833 29.99856,30.00335 v -30.00335 z" enable-background="new" opacity=".1"/><path id="path8470" fill="#fff" fill-opacity="1" stroke-width="2.096" d="m 206.46381,729.58733 30,-29.999 h -30 z" enable-background="new" opacity=".4"/><path id="path8472" fill="#fff" fill-opacity="1" stroke-width="2.096" d="m 176.46381,699.5927 -29.99266,-30.00437 h 29.99266 z" enable-background="new" opacity=".7"/><path id="path8474" fill="#fff" fill-opacity="1" stroke-width="2.096" d="m 206.46381,639.58833 -30,29.99656 v -29.99656 z" enable-background="new" opacity=".7"/></g><g id="g15111" stroke-width="1.721" transform="matrix(0.5809699,0,0,0.5809699,391.69248,334.63429)"><g id="g6611" stroke-width="1.721" filter="url(#filter17318)" transform="matrix(6.5614724,0,0,6.5614735,7781.5067,2765.5352)"><g id="g6613" stroke-width="1.721"><g id="g6615" stroke-width="1.721"><path id="path6617" fill="#fff" stroke-width="1.721" d="m -1058.546,-305.293 c -2.297,0 -2.728,3.272 -1.436,3.272 1.292,0 3.733,-3.272 1.436,-3.272 z"/></g><g id="g6619" stroke-width="1.721"><path id="path6621" fill="#fff" stroke-width="1.721" d="m -1062.361,-302.427 c 0.688,0.042 1.443,-2.626 0.151,-2.457 -1.294,0.166 -0.839,2.415 -0.151,2.457 z"/></g><g id="g6623" stroke-width="1.721"><path id="path6625" fill="#fff" stroke-width="1.721" d="m -1065.515,-300.769 c 0.49,-0.216 0.064,-2.322 -0.769,-1.748 -0.831,0.575 0.28,1.963 0.769,1.748 z"/></g><g id="g6627" stroke-width="1.721"><path id="path6629" fill="#fff" stroke-width="1.721" d="m -1064.135,-301.872 c 0.582,-0.119 0.615,-2.508 -0.424,-2.081 -1.04,0.43 -0.159,2.2 0.424,2.081 z"/></g><g id="g6631" stroke-width="1.721"><path id="path6633" fill="#fff" stroke-width="1.721" d="m -1061.093,-296.525 c 0.103,0.79 -0.579,1.18 -1.248,0.671 -2.128,-1.62 3.522,-2.428 3.15,-4.641 -0.309,-1.837 -5.946,-1.271 -6.588,1.603 -0.434,1.944 1.789,4.642 4.108,4.642 1.142,0 2.458,-1.031 2.704,-2.335 0.188,-0.997 -2.213,-0.598 -2.126,0.06 z"/></g></g></g><g id="g6635" stroke-width="1.721" filter="url(#filter17318)" transform="matrix(2.6906873,0,0,2.6906878,-2066.2798,-230.4137)"><g id="g6637" stroke-width="1.721"><path id="path6639" fill="#fff" stroke-width="1.721" d="m 1107.21,376.961 c -1.408,0.037 -2.523,0.543 -3.344,1.514 -0.849,1.013 -1.274,2.412 -1.274,4.195 0,1.779 0.426,3.173 1.274,4.183 0.852,1.016 2.024,1.518 3.516,1.518 1.497,0 2.672,-0.502 3.519,-1.518 0.851,-1.01 1.273,-2.404 1.273,-4.183 0,-1.783 -0.423,-3.182 -1.273,-4.195 -0.847,-1.011 -2.021,-1.514 -3.519,-1.514 -0.057,0 -0.114,-0.003 -0.172,0 z m 0.106,2.053 c 0.023,0 0.043,0 0.066,0 0.738,0 1.308,0.319 1.711,0.958 0.402,0.638 0.607,1.54 0.607,2.698 0,1.155 -0.205,2.05 -0.607,2.687 -0.403,0.639 -0.973,0.962 -1.711,0.962 -0.732,0 -1.298,-0.323 -1.7,-0.962 -0.403,-0.637 -0.607,-1.532 -0.607,-2.687 0,-1.158 0.204,-2.061 0.607,-2.698 0.393,-0.62 0.935,-0.94 1.634,-0.958 z"/></g><g id="g6641" stroke-width="1.721"><path id="path6643" fill="#fff" stroke-width="1.721" d="m 1091.275,387.341 c -1.242,1.043 -3.092,1.03 -3.861,1.03 -1.551,0 -2.78,-0.511 -3.688,-1.533 -0.906,-1.025 -1.359,-2.416 -1.359,-4.169 0,-1.774 0.463,-3.169 1.386,-4.185 0.924,-1.017 2.186,-1.523 3.792,-1.523 0.621,0 1.211,0.067 1.777,0.206 0.571,0.135 1.107,0.338 1.61,0.609 l -0.646,1.911 c -0.283,-0.154 -0.605,-0.308 -0.907,-0.414 -0.512,-0.174 -1.025,-0.26 -1.54,-0.26 -0.958,0 -1.695,0.317 -2.217,0.953 -0.515,0.626 -0.772,1.528 -0.772,2.703 0,1.163 0.25,2.063 0.748,2.696 0.498,0.634 1.249,0.951 2.127,0.951 0.893,0 1.445,-0.226 1.739,-0.463 v -1.902 h -1.932 v -1.901 h 3.742"/></g><g id="g6645" stroke-width="1.721"><path id="path6647" fill="#fff" stroke-width="1.721" d="m 1092.916,377.157 h 1.518 l 4.788,6.611 v -6.611 h 2.042 v 11.001 h -1.515 l -4.787,-6.61 v 6.61 h -2.046 v -11.001"/></g><g id="g6649" stroke-width="1.721"><path id="path6652" fill="#fff" stroke-width="1.721" d="m 1113.75,377.157 h 3.059 l 2.119,6.867 2.135,-6.867 h 2.583 l 1.168,11.001 h -2.272 l -0.697,-6.879 -2.148,6.911 h -1.522 l -2.145,-7.146 -0.7,7.114 h -2.277 l 1.167,-11.001"/></g><g id="g6654" stroke-width="1.721"><path id="path6656" fill="#fff" stroke-width="1.721" d="m 1126.452,377.157 h 6.481 v 2.146 h -4.079 v 2.28 h 3.135 v 1.91 h -3.135 v 2.521 h 4.218 v 2.145 h -6.62 v -11.002"/></g></g><path color="#000" style="line-height:25px;-inkscape-font-specification:Cantarell;text-indent:0;text-align:start;text-decoration-line:none;text-transform:none;marker:none" id="path15056" fill="#fff" fill-opacity="1" fill-rule="nonzero" stroke="none" stroke-linecap="butt" stroke-linejoin="miter" stroke-opacity="1" stroke-width="3.757" marker-end="none" marker-mid="none" marker-start="none" d="m 987.16,777.72799 v 0.53505 h 1.69311 v 4.53695 h 0.60834 v -4.53695 h 1.70044 v -0.53505 z" baseline-shift="baseline" direction="ltr" font-family="Cantarell" font-size="medium" font-stretch="normal" font-style="normal" font-variant="normal" font-weight="normal" letter-spacing="0" text-anchor="start" text-decoration="none" visibility="visible" word-spacing="0" writing-mode="lr-tb"/><path color="#000" style="line-height:25px;-inkscape-font-specification:Cantarell;text-indent:0;text-align:start;text-decoration-line:none;text-transform:none;marker:none" id="path15058" fill="#fff" fill-opacity="1" fill-rule="nonzero" stroke="none" stroke-linecap="butt" stroke-linejoin="miter" stroke-opacity="1" stroke-width="3.757" marker-end="none" marker-mid="none" marker-start="none" d="m 991.86117,777.72799 v 5.072 h 0.60835 v -4.33906 l 1.56118,2.88049 h 0.60834 l 1.56118,-2.88049 v 4.33906 h 0.60835 v -5.072 h -0.83556 l -1.62715,2.96844 -1.64913,-2.96844 z" baseline-shift="baseline" direction="ltr" font-family="Cantarell" font-size="medium" font-stretch="normal" font-style="normal" font-variant="normal" font-weight="normal" letter-spacing="0" text-anchor="start" text-decoration="none" visibility="visible" word-spacing="0" writing-mode="lr-tb"/></g></g></svg>