<svg xmlns="http://www.w3.org/2000/svg" xmlns:svg="http://www.w3.org/2000/svg" id="svg8" width="64" height="64" version="1.1" viewBox="0 0 64 64"><metadata id="metadata5"/><g id="layer1" transform="translate(0,-1058.5197)"><rect id="rect10241" width="64" height="64" x="0" y="1058.52" fill="#edd400" fill-opacity="1" fill-rule="nonzero" stroke="none" stroke-dasharray="none" stroke-dashoffset="0" stroke-linecap="butt" stroke-linejoin="miter" stroke-miterlimit="4" stroke-opacity="1" stroke-width="1" marker-end="none" marker-mid="none" marker-start="none" clip-rule="nonzero" color="#000" color-interpolation="sRGB" color-interpolation-filters="linearRGB" color-rendering="auto" display="inline" enable-background="accumulate" image-rendering="auto" opacity="1" overflow="visible" paint-order="normal" shape-rendering="auto" text-rendering="auto" vector-effect="none" visibility="visible" style="isolation:auto;mix-blend-mode:normal;solid-color:#000;solid-opacity:1;marker:none"/><g id="g27305" fill="#fff" stroke-width=".4" display="inline" transform="matrix(-2.5,0,0,2.5,795.86195,353.48071)"><path clip-rule="nonzero" style="isolation:auto;mix-blend-mode:normal;solid-color:#000;solid-opacity:1;marker:none" id="rect27311" fill="#fff" fill-opacity="1" fill-rule="nonzero" stroke="none" stroke-dasharray="none" stroke-dashoffset="0" stroke-linecap="butt" stroke-linejoin="miter" stroke-miterlimit="4" stroke-opacity="1" stroke-width=".4" marker-end="none" marker-mid="none" marker-start="none" d="M 125.48438,274.58984 124.05859,276 l -0.9082,0.2207 c -0.0884,0.0276 -0.15625,0.13433 -0.15625,0.25586 V 278 H 130 v -1.54492 c 0,-0.14377 -0.0693,-0.19958 -0.19922,-0.23438 L 129.02539,276 l -1.54492,-1.40039 a 3.328125,3.328125 0 0 1 -0.98047,0.15234 3.328125,3.328125 0 0 1 -1.01562,-0.16211 z" color="#000" color-interpolation="sRGB" color-interpolation-filters="linearRGB" color-rendering="auto" display="inline" enable-background="accumulate" image-rendering="auto" opacity="1" overflow="visible" paint-order="normal" shape-rendering="auto" text-rendering="auto" transform="matrix(-1,0,0,1,435.50023,23.01558)" visibility="visible"/><path clip-rule="nonzero" style="isolation:auto;mix-blend-mode:normal;solid-color:#000;solid-opacity:1;marker:none" id="path27313" fill="#fff" fill-opacity="1" fill-rule="nonzero" stroke="none" stroke-dasharray="none" stroke-dashoffset="0" stroke-linecap="butt" stroke-linejoin="miter" stroke-miterlimit="4" stroke-opacity="1" stroke-width=".4" marker-end="none" marker-mid="none" marker-start="none" d="m 129.59375,264.99023 a 1.5277282,1.5277282 0 0 0 -1.52734,1.52735 1.5277282,1.5277282 0 0 0 0.12109,0.59375 l -1.49805,1.82226 a 2.5,2.5 0 0 0 -0.18945,-0.01 2.5,2.5 0 0 0 -2.5,2.5 2.5,2.5 0 0 0 2.5,2.5 2.5,2.5 0 0 0 2.5,-2.5 2.5,2.5 0 0 0 -0.29297,-1.17383 l 0.87695,-2.20508 a 1.5277282,1.5277282 0 0 0 0.01,0 1.5277282,1.5277282 0 0 0 1.35547,-0.82617 l 1.95312,0.44922 a 1.5277282,1.5277282 0 0 0 1.50782,1.30469 1.5277282,1.5277282 0 0 0 1.52929,-1.52735 1.5277282,1.5277282 0 0 0 -1.52929,-1.52734 1.5277282,1.5277282 0 0 0 -1.36719,0.85156 l -1.94141,-0.49609 a 1.5277282,1.5277282 0 0 0 -1.50781,-1.28321 z" color="#000" color-interpolation="sRGB" color-interpolation-filters="linearRGB" color-rendering="auto" display="inline" enable-background="accumulate" image-rendering="auto" opacity="1" overflow="visible" paint-order="normal" shape-rendering="auto" text-rendering="auto" transform="matrix(-1,0,0,1,435.50023,23.01558)" visibility="visible"/><path id="path27321" fill="#fff" fill-opacity="1" fill-rule="nonzero" stroke="none" stroke-dasharray="none" stroke-dashoffset="0" stroke-linecap="butt" stroke-linejoin="miter" stroke-miterlimit="4" stroke-opacity="1" stroke-width=".4" marker-end="none" marker-mid="none" marker-start="none" d="m 302.50023,294.01558 1.06629,1.91069 -0.98216,2.08931 h -0.53125 l 0.44712,-2.46875 -1.45313,-0.26562 0.0194,1.73011 -0.57544,-0.004 -0.44398,-1.67945 -0.57812,0.1562 0.0157,2.5 -0.5625,0.0312 -0.82813,-2.5625 1.39553,-1.44525 0.006,-0.98548 2.99242,-0.006 z" clip-rule="nonzero" color="#000" color-interpolation="sRGB" color-interpolation-filters="linearRGB" color-rendering="auto" display="inline" enable-background="accumulate" image-rendering="auto" opacity="1" overflow="visible" paint-order="normal" shape-rendering="auto" text-rendering="auto" visibility="visible" style="isolation:auto;mix-blend-mode:normal;solid-color:#000;solid-opacity:1;marker:none"/></g></g></svg>