<svg xmlns="http://www.w3.org/2000/svg" xmlns:svg="http://www.w3.org/2000/svg" id="svg8" width="64" height="64" version="1.1" viewBox="0 0 64 64"><metadata id="metadata5"/><g id="layer1" transform="translate(0,-1058.5197)"><rect id="rect10833" width="64" height="64" x="0" y="1058.52" fill="#4a86cf" fill-opacity="1" fill-rule="nonzero" stroke="none" stroke-dasharray="none" stroke-dashoffset="0" stroke-linecap="butt" stroke-linejoin="miter" stroke-miterlimit="4" stroke-opacity="1" stroke-width="1" marker-end="none" marker-mid="none" marker-start="none" clip-rule="nonzero" color="#000" color-interpolation="sRGB" color-interpolation-filters="linearRGB" color-rendering="auto" display="inline" enable-background="accumulate" image-rendering="auto" opacity="1" overflow="visible" paint-order="normal" shape-rendering="auto" text-rendering="auto" vector-effect="none" visibility="visible" style="isolation:auto;mix-blend-mode:normal;solid-color:#000;solid-opacity:1;marker:none;font-variant-east_asian:normal"/><g id="layer1-8" fill="#fff" stroke-width="5.513" transform="matrix(0.18139808,0,0,0.18139808,8.21981,1067.8731)"><g id="g6230" fill="#fff" stroke-width="5.513" transform="matrix(1.9597288,0,0,1.9597288,324.04608,245.45404)"><path id="path9" fill="#fff" fill-opacity="1" fill-rule="nonzero" stroke="none" stroke-dasharray="none" stroke-miterlimit="4" stroke-opacity="1" stroke-width="13.582" d="m -63.883826,-115.2699 c -22.295562,0 -26.477906,31.755906 -13.935406,31.755906 12.540687,0 36.231872,-31.755906 13.935406,-31.755906 z"/><path id="path11" fill="#fff" fill-opacity="1" fill-rule="nonzero" stroke="none" stroke-dasharray="none" stroke-miterlimit="4" stroke-opacity="1" stroke-width="13.582" d="m -100.90505,-87.448931 c 6.678161,0.407812 14.005193,-25.485559 1.45363,-23.857029 -12.54703,1.62853 -8.1345,23.449216 -1.45363,23.857029 z"/><path id="path13" fill="#fff" fill-opacity="1" fill-rule="nonzero" stroke="none" stroke-dasharray="none" stroke-miterlimit="4" stroke-opacity="1" stroke-width="13.582" d="m -131.51092,-71.359369 c 4.74966,-2.090718 0.61172,-22.54025 -7.46478,-16.963187 -8.07288,5.577969 2.71512,19.053 7.46478,16.963187 z"/><path id="path15" fill="#fff" fill-opacity="1" fill-rule="nonzero" stroke="none" stroke-dasharray="none" stroke-miterlimit="4" stroke-opacity="1" stroke-width="13.582" d="m -118.12833,-82.063087 c 5.6541,-1.152751 5.96404,-24.345503 -4.1189,-20.184903 -10.08475,4.161496 -1.53066,21.339465 4.1189,20.184903 z"/><path id="newshape" fill="#fff" fill-opacity="1" fill-rule="nonzero" stroke="none" stroke-dasharray="none" stroke-miterlimit="4" stroke-opacity="1" stroke-width="13.582" d="m -88.603607,-30.161244 c 1.003219,7.661438 -5.620563,11.445031 -12.107503,6.505969 -20.65072,-15.722531 34.191909,-23.565219 30.576878,-45.046062 -3.000594,-17.829563 -57.706378,-12.340407 -63.935938,15.556687 -4.21678,18.869937 17.35741,45.04788 39.868657,45.04788 11.074375,0 23.847968,-9.999568 26.23775,-22.66713 1.825187,-9.659719 -21.477219,-5.789125 -20.639844,0.602656 z"/></g></g></g></svg>