<svg xmlns="http://www.w3.org/2000/svg" id="Layer_1" data-name="Layer 1" viewBox="0 0 1116 720"><title>20thbday-logo</title><polygon fill="#4a86cf" points="260.62 382 194.51 382 194.51 448.11 260.62 382" opacity=".1"/><polygon fill="#4a86cf" points="128.41 382 194.51 382 194.51 315.89 128.41 382" opacity=".11"/><polygon fill="#4a86cf" points="128.41 183.68 194.51 183.68 194.51 117.57 128.41 183.68" opacity=".15"/><polygon fill="#4a86cf" points="260.53 448.11 260.53 514.21 326.64 514.21 260.53 448.11" opacity=".19"/><polygon fill="#4a86cf" points="260.53 382 326.64 382 326.64 315.89 260.53 382" opacity=".3"/><polygon fill="#4a86cf" points="260.53 249.79 326.64 249.79 326.64 183.68 260.53 249.79" opacity=".13"/><polygon fill="#4a86cf" points="392.75 117.57 326.64 117.57 326.64 183.68 392.75 117.57" opacity=".11"/><polygon fill="#4a86cf" points="326.64 315.89 392.75 315.89 392.75 249.79 326.64 315.89" opacity=".12"/><polygon fill="#4a86cf" points="392.75 249.79 392.75 315.89 458.85 315.89 392.75 249.79" opacity=".06"/><polygon fill="#4a86cf" points="326.64 249.79 260.53 249.79 260.53 315.89 326.64 249.79" opacity=".24"/><polygon fill="#4a86cf" points="194.47 249.79 194.47 315.89 260.58 315.89 194.47 249.79" opacity=".09"/><polygon fill="#4a86cf" points="657.18 183.68 657.18 117.57 591.07 117.57 657.18 183.68" opacity=".2"/><polygon fill="#4a86cf" points="657.18 382 657.18 315.89 591.07 315.89 657.18 382" opacity=".34"/><polygon fill="#4a86cf" points="657.18 382 591.07 382 591.07 448.11 657.18 382" opacity=".07"/><polygon fill="#4a86cf" points="657.18 514.21 591.07 514.21 591.07 580.32 657.18 514.21" opacity=".11"/><polygon fill="#4a86cf" points="723.37 379.25 657.26 379.25 657.26 445.35 723.37 379.25" opacity=".22"/><polygon fill="#4a86cf" points="789.39 249.79 723.28 249.79 723.28 315.89 789.39 249.79" opacity=".24"/><polygon fill="#4a86cf" points="789.39 315.89 855.5 315.89 855.5 249.79 789.39 315.89" opacity=".11"/><polygon fill="#4a86cf" points="723.28 448.11 789.39 448.11 789.39 382 723.28 448.11" opacity=".29"/><polygon fill="#4a86cf" points="591.07 514.21 657.18 514.21 657.18 448.11 591.07 514.21" opacity=".29"/><polygon fill="#4a86cf" points="921.6 315.89 987.71 315.89 987.71 249.79 921.6 315.89" opacity=".08"/><polygon fill="#4a86cf" points="525 448.11 591.11 448.11 591.11 382 525 448.11" opacity=".18"/><polygon fill="#4a86cf" points="855.5 448.11 921.6 448.11 921.6 382 855.5 448.11" opacity=".1"/><polygon fill="#4a86cf" points="723.28 315.89 723.28 382 789.39 382 723.28 315.89" opacity=".09"/><polygon fill="#4a86cf" points="525 249.79 525 315.89 591.11 315.89 525 249.79" opacity=".09"/><polygon fill="#4a86cf" points="789.39 514.21 789.39 580.32 855.5 580.32 789.39 514.21" opacity=".18"/><polygon fill="#4a86cf" points="921.6 315.89 855.5 316.25 855.85 382.35 921.6 315.89" opacity=".17"/><polygon fill="#4a86cf" points="855.58 448.11 789.48 448.46 789.83 514.57 855.58 448.11" opacity=".3"/><polygon fill="#4a86cf" points="789.39 382 789.39 448.11 855.5 448.11 789.39 382" opacity=".16"/><polygon fill="#4a86cf" points="855.5 448.11 855.5 514.21 921.6 514.21 855.5 448.11" opacity=".17"/><polygon fill="#4a86cf" points="458.9 183.68 392.79 183.68 392.79 249.79 458.9 183.68" opacity=".16"/><polygon fill="#4a86cf" points="458.85 315.89 392.75 315.89 392.75 382 458.85 315.89" opacity=".22"/><polygon fill="#4a86cf" points="392.75 448.11 392.75 382 326.64 382 392.75 448.11" opacity=".48"/><polygon fill="#4a86cf" points="458.85 514.21 458.85 580.32 524.96 580.32 458.85 514.21" opacity=".08"/><polygon fill="#4a86cf" points="524.96 382 524.96 315.89 458.85 315.89 524.96 382" opacity=".2"/><polygon fill="#4a86cf" points="524.96 448.11 524.96 382 458.85 382 524.96 448.11" opacity=".23"/><polygon fill="#4a86cf" points="723.28 646.43 723.28 580.32 657.17 580.32 723.28 646.43" opacity=".09"/><polygon fill="#4a86cf" points="326.64 448.11 326.64 514.21 392.75 514.21 326.64 448.11" opacity=".14"/><polygon fill="#4a86cf" points="392.75 382 392.75 448.11 458.85 448.11 392.75 382" opacity=".31"/><polygon fill="#4a86cf" points="326.64 315.89 260.53 315.89 260.53 382 326.64 315.89" opacity=".13"/><text fill="#4a86cf" font-family="SourceSansPro-Light, Source Sans Pro" font-size="68.862" letter-spacing=".131em" transform="translate(297.22 597.34)">YEARS <tspan x="242.25" y="0" font-family="SourceSansPro-SemiBold, Source Sans Pro" font-weight="700">STRONG</tspan></text><path fill="#4a86cf" d="M298.38,513.7V462.27c24.89-23.27,47.12-45,67.74-65.2s38.36-39.18,53.26-56.93,26.52-34.28,34.89-49.59,12.55-29.9,12.55-43.77q0-28.77-14.69-43.77t-40.4-15q-21.44,0-38,11.93a209.46,209.46,0,0,0-31.22,27.86l-49-48.36q28.77-30.61,58.77-46.22T424,117.61q28.77,0,52.34,8.88A120.22,120.22,0,0,1,517,151.58a109.54,109.54,0,0,1,26.32,38.87q9.18,22.65,9.18,50.81,0,24.49-10.41,49.89A272.52,272.52,0,0,1,514.27,342a539.49,539.49,0,0,1-39.79,50.81C461.05,408,433,437.8,433,437.8H571.51V513.7Z"/><path fill="#4a86cf" d="M710.07,514.21q-30.69,0-56-12.94t-43-38.22q-17.76-25.28-27.68-62.59t-9.93-86.06q0-48.75,9.93-85.46t27.68-61.69q17.75-25,43-37.31t56-12.34q30.69,0,56,12.34t43,37.31q17.75,25,27.68,61.69t9.93,85.46q0,48.75-9.93,86.06t-27.68,62.59q-17.76,25.28-43,38.22T710.07,514.21Zm0-68.61a40.46,40.46,0,0,0,21.06-5.72q9.62-5.71,16.85-20.76t11.13-40.32q3.91-25.28,3.91-64.4t-3.91-64.1q-3.92-25-11.13-39.12t-16.85-19.56a42.26,42.26,0,0,0-21.06-5.42,41.08,41.08,0,0,0-20.46,5.42Q680,197,672.76,211.19t-11.44,39.12q-4.22,25-4.21,64.1t4.21,64.4q4.2,25.28,11.44,40.32t16.85,20.76A39.35,39.35,0,0,0,710.07,445.61Z"/></svg>