<svg xmlns="http://www.w3.org/2000/svg" xmlns:svg="http://www.w3.org/2000/svg" id="svg8183" width="128" height="128" version="1.0"><metadata id="metadata8188"/><g id="layer1"><path id="path6626" fill="#3b80ae" fill-opacity="1" stroke="none" stroke-dasharray="none" stroke-dashoffset="0" stroke-linecap="round" stroke-linejoin="miter" stroke-miterlimit="4" stroke-opacity="1" stroke-width="2.531" d="M -401,-398 A 62,62 0 1 1 -525,-398 A 62,62 0 1 1 -401,-398 z" transform="matrix(0.9840274,0,0,0.9840274,519.61438,455.67305)"/><path id="path6668" fill="#fff" fill-opacity="1" stroke="none" stroke-dasharray="none" stroke-dashoffset="0" stroke-linecap="round" stroke-linejoin="round" stroke-miterlimit="4" stroke-opacity="1" stroke-width="1" d="M 12.408371,7.1446853 A 1.3102987,1.3102987 0 1 1 9.7877734,7.1446853 A 1.3102987,1.3102987 0 1 1 12.408371,7.1446853 z" transform="matrix(7.1599931,0,0,7.1599938,-16.461186,-16.096522)"/><path id="path6670" fill="#fff" fill-opacity="1" fill-rule="evenodd" stroke="none" stroke-linecap="round" stroke-linejoin="miter" stroke-opacity="1" stroke-width="1" d="M 94.309635,45.033713 C 93.90095,45.103312 93.514766,45.272769 93.183759,45.528016 L 63,50.475777 L 32.978766,45.459785 C 32.202707,44.868115 31.111599,44.690937 30.24445,45.13021 C 29.3773,45.569477 28.80884,46.610622 28.796889,47.601346 C 28.784958,48.592197 29.38813,49.446705 30.24445,49.907764 L 53.769055,57.75237 L 53.608195,75.760942 L 45.307356,102.73197 C 44.507856,103.96012 44.75153,105.53741 45.950685,106.35619 C 47.149923,107.17509 48.850577,106.92558 49.650095,105.69729 L 63.046014,76.584697 L 76.189082,105.64698 C 76.899777,106.92084 78.483981,107.36335 79.727612,106.63546 C 80.97124,105.90758 81.4033,104.28498 80.692662,103.01111 L 72.545888,75.924047 L 72.224227,58.970197 L 96.078896,49.81127 C 97.042727,49.118995 97.461455,47.808409 97.043971,46.681222 C 96.626486,45.553912 95.47922,44.897123 94.309635,45.033713 z"/></g></svg>