<svg xmlns="http://www.w3.org/2000/svg" xmlns:svg="http://www.w3.org/2000/svg" id="svg2" width="2700" height="600" version="1.1" viewBox="0 0 2700 600"><metadata id="metadata7"/><g id="layer1" transform="translate(0,-452.36218)"><rect id="rect7349-0" width="2698.97" height="592.555" x="6.633" y="458.392" fill="#fff" fill-opacity="1" fill-rule="nonzero" stroke="none" stroke-dasharray="none" stroke-dashoffset="0" stroke-linecap="round" stroke-linejoin="miter" stroke-miterlimit="4" stroke-opacity="1" stroke-width="10" clip-rule="nonzero" color="#000" color-interpolation="sRGB" color-interpolation-filters="linearRGB" color-rendering="auto" display="inline" enable-background="accumulate" image-rendering="auto" opacity="1" overflow="visible" shape-rendering="auto" text-rendering="auto" visibility="visible" style="marker:none"/><rect id="rect7349" width="667.384" height="598.212" x="686.219" y="452.736" fill="#000" fill-opacity="1" fill-rule="nonzero" stroke="none" stroke-dasharray="none" stroke-dashoffset="0" stroke-linecap="round" stroke-linejoin="miter" stroke-miterlimit="4" stroke-opacity="1" stroke-width="10" clip-rule="nonzero" color="#000" color-interpolation="sRGB" color-interpolation-filters="linearRGB" color-rendering="auto" display="inline" enable-background="accumulate" image-rendering="auto" opacity="1" overflow="visible" shape-rendering="auto" text-rendering="auto" visibility="visible" style="marker:none"/><rect clip-rule="nonzero" style="marker:none" id="rect7288" width="229.81" height="83.439" x="-3197.318" y="885.985" fill="#000" fill-opacity="1" fill-rule="nonzero" stroke="none" stroke-dasharray="none" stroke-dashoffset="0" stroke-linecap="round" stroke-linejoin="miter" stroke-miterlimit="4" stroke-opacity="1" stroke-width="20" color="#000" color-interpolation="sRGB" color-interpolation-filters="linearRGB" color-rendering="auto" display="inline" enable-background="accumulate" image-rendering="auto" opacity="1" overflow="visible" rx="25.456" ry="25.456" shape-rendering="auto" text-rendering="auto" visibility="visible"/><path id="path7286" fill="#000" fill-opacity="1" fill-rule="evenodd" stroke="none" stroke-linecap="butt" stroke-linejoin="miter" stroke-opacity="1" stroke-width="1" d="m -2869.015,614.3192 109.6686,126.22074 -13.6916,20.43515 -146.644,-101.0734 z"/><circle id="path6450-6-9" cx="-2773.055" cy="746.132" r="17.143" fill="#fff" fill-opacity="1" fill-rule="nonzero" stroke="#000" stroke-dasharray="none" stroke-dashoffset="0" stroke-linecap="round" stroke-linejoin="miter" stroke-miterlimit="4" stroke-opacity="1" stroke-width="10" clip-rule="nonzero" color="#000" color-interpolation="sRGB" color-interpolation-filters="linearRGB" color-rendering="auto" display="inline" enable-background="accumulate" image-rendering="auto" opacity="1" overflow="visible" shape-rendering="auto" text-rendering="auto" visibility="visible" style="marker:none"/><path id="path6482" fill="#000" fill-opacity="1" fill-rule="evenodd" stroke="#000" stroke-linecap="butt" stroke-linejoin="miter" stroke-opacity="1" stroke-width="1" d="m -3114.9025,748.17603 193.1675,-141.32774 43.2783,53.7469 -147.4933,186.02161 z"/><circle clip-rule="nonzero" style="marker:none" id="path6450-6" cx="-2636.188" cy="1367.665" r="34.643" fill="#fff" fill-opacity="1" fill-rule="nonzero" stroke="#000" stroke-dasharray="none" stroke-dashoffset="0" stroke-linecap="round" stroke-linejoin="miter" stroke-miterlimit="4" stroke-opacity="1" stroke-width="10" color="#000" color-interpolation="sRGB" color-interpolation-filters="linearRGB" color-rendering="auto" display="inline" enable-background="accumulate" image-rendering="auto" opacity="1" overflow="visible" shape-rendering="auto" text-rendering="auto" transform="matrix(0.96592583,0.25881905,-0.25881905,0.96592583,0,0)" visibility="visible"/><circle clip-rule="nonzero" style="marker:none" id="path6450" cx="-2762.26" cy="1570.229" r="62.857" fill="#fff" fill-opacity="1" fill-rule="nonzero" stroke="#000" stroke-dasharray="none" stroke-dashoffset="0" stroke-linecap="round" stroke-linejoin="miter" stroke-miterlimit="4" stroke-opacity="1" stroke-width="10" color="#000" color-interpolation="sRGB" color-interpolation-filters="linearRGB" color-rendering="auto" display="inline" enable-background="accumulate" image-rendering="auto" opacity="1" overflow="visible" shape-rendering="auto" text-rendering="auto" transform="matrix(0.96592583,0.25881905,-0.25881905,0.96592583,0,0)" visibility="visible"/><path id="path7292" fill="none" fill-rule="evenodd" stroke="#000" stroke-dasharray="none" stroke-linecap="butt" stroke-linejoin="miter" stroke-miterlimit="4" stroke-opacity="1" stroke-width="10" d="m -2772.5546,762.34603 0,50.5"/><rect clip-rule="nonzero" style="marker:none" id="rect7288-6" width="229.81" height="83.439" x="3401.044" y="885.985" fill="#000" fill-opacity="1" fill-rule="nonzero" stroke="none" stroke-dasharray="none" stroke-dashoffset="0" stroke-linecap="round" stroke-linejoin="miter" stroke-miterlimit="4" stroke-opacity="1" stroke-width="20" color="#000" color-interpolation="sRGB" color-interpolation-filters="linearRGB" color-rendering="auto" display="inline" enable-background="accumulate" image-rendering="auto" opacity="1" overflow="visible" rx="25.456" ry="25.456" shape-rendering="auto" text-rendering="auto" visibility="visible"/><path id="path7286-7" fill="#000" fill-opacity="1" fill-rule="evenodd" stroke="none" stroke-linecap="butt" stroke-linejoin="miter" stroke-opacity="1" stroke-width="1" d="m 3661.9233,567.36218 138.6001,93.53553 -7.9361,23.28249 -167.8069,-59.67515 z"/><circle id="path6450-6-9-0" cx="3794.78" cy="671.648" r="17.143" fill="#fff" fill-opacity="1" fill-rule="nonzero" stroke="#000" stroke-dasharray="none" stroke-dashoffset="0" stroke-linecap="round" stroke-linejoin="miter" stroke-miterlimit="4" stroke-opacity="1" stroke-width="10" clip-rule="nonzero" color="#000" color-interpolation="sRGB" color-interpolation-filters="linearRGB" color-rendering="auto" display="inline" enable-background="accumulate" image-rendering="auto" opacity="1" overflow="visible" shape-rendering="auto" text-rendering="auto" visibility="visible" style="marker:none"/><path id="path6482-5" fill="#000" fill-opacity="1" fill-rule="evenodd" stroke="#000" stroke-linecap="butt" stroke-linejoin="miter" stroke-opacity="1" stroke-width="1" d="m 3459.059,760.2983 150.0071,-186.50754 55.7143,40.71429 -94.3216,217.85713 z"/><circle id="path6450-6-8" cx="3637.995" cy="599.083" r="34.643" fill="#fff" fill-opacity="1" fill-rule="nonzero" stroke="#000" stroke-dasharray="none" stroke-dashoffset="0" stroke-linecap="round" stroke-linejoin="miter" stroke-miterlimit="4" stroke-opacity="1" stroke-width="10" clip-rule="nonzero" color="#000" color-interpolation="sRGB" color-interpolation-filters="linearRGB" color-rendering="auto" display="inline" enable-background="accumulate" image-rendering="auto" opacity="1" overflow="visible" shape-rendering="auto" text-rendering="auto" visibility="visible" style="marker:none"/><circle id="path6450-4" cx="3511.923" cy="801.648" r="62.857" fill="#fff" fill-opacity="1" fill-rule="nonzero" stroke="#000" stroke-dasharray="none" stroke-dashoffset="0" stroke-linecap="round" stroke-linejoin="miter" stroke-miterlimit="4" stroke-opacity="1" stroke-width="10" clip-rule="nonzero" color="#000" color-interpolation="sRGB" color-interpolation-filters="linearRGB" color-rendering="auto" display="inline" enable-background="accumulate" image-rendering="auto" opacity="1" overflow="visible" shape-rendering="auto" text-rendering="auto" visibility="visible" style="marker:none"/><path id="path7292-1" fill="none" fill-rule="evenodd" stroke="#000" stroke-dasharray="none" stroke-linecap="butt" stroke-linejoin="miter" stroke-miterlimit="4" stroke-opacity="1" stroke-width="10" d="m 3795.2804,687.86218 0,50.5"/><path id="path7296-9-1-5" fill="#5c3566" fill-opacity="1" fill-rule="evenodd" stroke="none" stroke-dasharray="none" stroke-dashoffset="0" stroke-linecap="butt" stroke-linejoin="miter" stroke-miterlimit="4" stroke-opacity="1" stroke-width="20" d="m 3769.7238,1287.8238 -21.9434,29.9726 11.2617,29.3652 8.4649,0 0.3281,-23.2226 12.7773,-18.875 28.1289,0 12.7774,18.875 0.3281,23.2226 8.4648,0 11.2618,-29.3652 -21.9434,-29.9726 z" baseline-shift="baseline" clip-rule="nonzero" color="#000" color-interpolation="sRGB" color-interpolation-filters="linearRGB" color-rendering="auto" direction="ltr" display="inline" enable-background="accumulate" font-family="sans-serif" font-size="medium" font-stretch="normal" font-style="normal" font-variant="normal" font-weight="normal" image-rendering="auto" letter-spacing="normal" opacity="1" overflow="visible" shape-rendering="auto" text-anchor="start" text-decoration="none" text-rendering="auto" visibility="visible" word-spacing="normal" writing-mode="lr-tb" style="line-height:normal;text-indent:0;text-align:start;text-decoration-line:none;text-decoration-style:solid;text-decoration-color:#000;text-transform:none;block-progression:tb;white-space:normal;isolation:auto;mix-blend-mode:normal;solid-color:#000;solid-opacity:1"/><path id="rect7450-5" fill="#5c3566" fill-opacity="1" fill-rule="nonzero" stroke="none" stroke-dasharray="none" stroke-dashoffset="0" stroke-linecap="round" stroke-linejoin="miter" stroke-miterlimit="4" stroke-opacity="1" stroke-width="20" d="m 3784.6554,1292.1845 21.625,0 -5.1259,42.875 -11.3732,0 z" clip-rule="nonzero" color="#000" color-interpolation="sRGB" color-interpolation-filters="linearRGB" color-rendering="auto" display="inline" enable-background="accumulate" image-rendering="auto" opacity="1" overflow="visible" shape-rendering="auto" text-rendering="auto" visibility="visible" style="marker:none"/><path id="path7492" fill="#5c3566" fill-opacity="1" fill-rule="nonzero" stroke="none" stroke-dasharray="none" stroke-dashoffset="0" stroke-linecap="round" stroke-linejoin="miter" stroke-miterlimit="4" stroke-opacity="1" stroke-width="20" d="m -2772.582,816.76599 a 47,47 0 0 0 -47,47 47,47 0 0 0 0.8418,8.63672 l 92.2754,0 a 47,47 0 0 0 0.8828,-8.63672 47,47 0 0 0 -47,-47 z" clip-rule="nonzero" color="#000" color-interpolation="sRGB" color-interpolation-filters="linearRGB" color-rendering="auto" display="inline" enable-background="accumulate" image-rendering="auto" opacity="1" overflow="visible" shape-rendering="auto" text-rendering="auto" visibility="visible" style="marker:none"/><rect clip-rule="nonzero" style="marker:none" id="rect7288-6-2" width="229.81" height="83.439" x="-2575.05" y="861.943" fill="#000" fill-opacity="1" fill-rule="nonzero" stroke="none" stroke-dasharray="none" stroke-dashoffset="0" stroke-linecap="round" stroke-linejoin="miter" stroke-miterlimit="4" stroke-opacity="1" stroke-width="20" color="#000" color-interpolation="sRGB" color-interpolation-filters="linearRGB" color-rendering="auto" display="inline" enable-background="accumulate" image-rendering="auto" opacity="1" overflow="visible" rx="25.456" ry="25.456" shape-rendering="auto" text-rendering="auto" visibility="visible"/><path id="path7286-7-7" fill="#000" fill-opacity="1" fill-rule="evenodd" stroke="none" stroke-linecap="butt" stroke-linejoin="miter" stroke-opacity="1" stroke-width="1" d="m -2285.2021,572.27545 126.198,109.69484 -10.7083,22.14472 -159.3054,-79.63719 z"/><circle clip-rule="nonzero" style="marker:none" id="path6450-6-9-0-6" cx="-2065.799" cy="950.189" r="17.143" fill="#fff" fill-opacity="1" fill-rule="nonzero" stroke="#000" stroke-dasharray="none" stroke-dashoffset="0" stroke-linecap="round" stroke-linejoin="miter" stroke-miterlimit="4" stroke-opacity="1" stroke-width="10" color="#000" color-interpolation="sRGB" color-interpolation-filters="linearRGB" color-rendering="auto" display="inline" enable-background="accumulate" image-rendering="auto" opacity="1" overflow="visible" shape-rendering="auto" text-rendering="auto" transform="matrix(0.99257952,0.12159728,-0.12159728,0.99257952,0,0)" visibility="visible"/><path id="path6482-5-2" fill="none" fill-opacity="1" fill-rule="evenodd" stroke="#000" stroke-dasharray="none" stroke-linecap="butt" stroke-linejoin="miter" stroke-miterlimit="4" stroke-opacity="1" stroke-width="10" d="m -2509.0216,744.61213 170.5729,-166.88309 46.8501,37.68688 -114.6126,198.27126 z"/><circle clip-rule="nonzero" style="marker:none" id="path6450-6-8-3" cx="-2222.584" cy="877.624" r="34.643" fill="#fff" fill-opacity="1" fill-rule="nonzero" stroke="#000" stroke-dasharray="none" stroke-dashoffset="0" stroke-linecap="round" stroke-linejoin="miter" stroke-miterlimit="4" stroke-opacity="1" stroke-width="10" color="#000" color-interpolation="sRGB" color-interpolation-filters="linearRGB" color-rendering="auto" display="inline" enable-background="accumulate" image-rendering="auto" opacity="1" overflow="visible" shape-rendering="auto" text-rendering="auto" transform="matrix(0.99257952,0.12159728,-0.12159728,0.99257952,0,0)" visibility="visible"/><circle clip-rule="nonzero" style="marker:none" id="path6450-4-9" cx="-2348.655" cy="1080.188" r="62.857" fill="#fff" fill-opacity="1" fill-rule="nonzero" stroke="#000" stroke-dasharray="none" stroke-dashoffset="0" stroke-linecap="round" stroke-linejoin="miter" stroke-miterlimit="4" stroke-opacity="1" stroke-width="10" color="#000" color-interpolation="sRGB" color-interpolation-filters="linearRGB" color-rendering="auto" display="inline" enable-background="accumulate" image-rendering="auto" opacity="1" overflow="visible" shape-rendering="auto" text-rendering="auto" transform="matrix(0.99257952,0.12159728,-0.12159728,0.99257952,0,0)" visibility="visible"/><path id="path7292-9" fill="none" fill-rule="evenodd" stroke="#000" stroke-dasharray="none" stroke-linecap="butt" stroke-linejoin="miter" stroke-miterlimit="4" stroke-opacity="1" stroke-width="10" d="m -2165.3366,704.6303 0,50.5"/><circle clip-rule="nonzero" style="marker:none" id="path6450-4-9-9-1" cx="-2053.613" cy="1044.044" r="40.23" fill="#000" fill-opacity="1" fill-rule="nonzero" stroke="none" stroke-dasharray="none" stroke-dashoffset="0" stroke-linecap="round" stroke-linejoin="miter" stroke-miterlimit="4" stroke-opacity="1" stroke-width="10" color="#000" color-interpolation="sRGB" color-interpolation-filters="linearRGB" color-rendering="auto" display="inline" enable-background="accumulate" image-rendering="auto" opacity="1" overflow="visible" shape-rendering="auto" text-rendering="auto" transform="matrix(0.99257952,0.12159728,-0.12159728,0.99257952,0,0)" visibility="visible"/><circle clip-rule="nonzero" style="marker:none" id="path6450-4-9-9-1-0" cx="-2050.735" cy="1059.307" r="29.73" fill="#fff" fill-opacity="1" fill-rule="nonzero" stroke="none" stroke-dasharray="none" stroke-dashoffset="0" stroke-linecap="round" stroke-linejoin="miter" stroke-miterlimit="4" stroke-opacity="1" stroke-width="10" color="#000" color-interpolation="sRGB" color-interpolation-filters="linearRGB" color-rendering="auto" display="inline" enable-background="accumulate" image-rendering="auto" opacity="1" overflow="visible" shape-rendering="auto" text-rendering="auto" transform="matrix(0.99257952,0.12159728,-0.12159728,0.99257952,0,0)" visibility="visible"/><rect clip-rule="nonzero" style="marker:none" id="rect7288-6-2-6" width="229.81" height="83.439" x="64.95" y="2670.084" fill="#000" fill-opacity="1" fill-rule="nonzero" stroke="none" stroke-dasharray="none" stroke-dashoffset="0" stroke-linecap="round" stroke-linejoin="miter" stroke-miterlimit="4" stroke-opacity="1" stroke-width="20" color="#000" color-interpolation="sRGB" color-interpolation-filters="linearRGB" color-rendering="auto" display="inline" enable-background="accumulate" image-rendering="auto" opacity="1" overflow="visible" rx="16.263" ry="16.263" shape-rendering="auto" text-rendering="auto" visibility="visible"/><path id="path7286-7-7-2" fill="#000" fill-opacity="1" fill-rule="evenodd" stroke="none" stroke-linecap="butt" stroke-linejoin="miter" stroke-opacity="1" stroke-width="1" d="m 354.79792,2377.5875 126.19796,109.6948 -10.7083,22.1447 -159.30536,-79.6372 z"/><circle clip-rule="nonzero" style="marker:none" id="path6450-6-9-0-6-4" cx="774.13" cy="2421.087" r="17.143" fill="#fff" fill-opacity="1" fill-rule="nonzero" stroke="#000" stroke-dasharray="none" stroke-dashoffset="0" stroke-linecap="round" stroke-linejoin="miter" stroke-miterlimit="4" stroke-opacity="1" stroke-width="10" color="#000" color-interpolation="sRGB" color-interpolation-filters="linearRGB" color-rendering="auto" display="inline" enable-background="accumulate" image-rendering="auto" opacity="1" overflow="visible" shape-rendering="auto" text-rendering="auto" transform="matrix(0.99257952,0.12159728,-0.12159728,0.99257952,0,0)" visibility="visible"/><path id="path6482-5-2-6" fill="#000" fill-opacity="1" fill-rule="evenodd" stroke="none" stroke-linecap="butt" stroke-linejoin="miter" stroke-opacity="1" stroke-width="1" d="m 131.7909,2541.7366 169.38536,-165.3205 59.47555,51.1402 -126.73797,201.9429 z"/><circle clip-rule="nonzero" style="marker:none" id="path6450-6-8-3-2" cx="617.345" cy="2348.523" r="34.643" fill="#000" fill-opacity="1" fill-rule="nonzero" stroke="#000" stroke-dasharray="none" stroke-dashoffset="0" stroke-linecap="round" stroke-linejoin="miter" stroke-miterlimit="4" stroke-opacity="1" stroke-width="10" color="#000" color-interpolation="sRGB" color-interpolation-filters="linearRGB" color-rendering="auto" display="inline" enable-background="accumulate" image-rendering="auto" opacity="1" overflow="visible" shape-rendering="auto" text-rendering="auto" transform="matrix(0.99257952,0.12159728,-0.12159728,0.99257952,0,0)" visibility="visible"/><circle clip-rule="nonzero" style="marker:none" id="path6450-4-9-5" cx="491.273" cy="2551.087" r="62.857" fill="#000" fill-opacity="1" fill-rule="nonzero" stroke="#000" stroke-dasharray="none" stroke-dashoffset="0" stroke-linecap="round" stroke-linejoin="miter" stroke-miterlimit="4" stroke-opacity="1" stroke-width="10" color="#000" color-interpolation="sRGB" color-interpolation-filters="linearRGB" color-rendering="auto" display="inline" enable-background="accumulate" image-rendering="auto" opacity="1" overflow="visible" shape-rendering="auto" text-rendering="auto" transform="matrix(0.99257952,0.12159728,-0.12159728,0.99257952,0,0)" visibility="visible"/><path id="path7292-9-9" fill="none" fill-rule="evenodd" stroke="#000" stroke-dasharray="none" stroke-linecap="butt" stroke-linejoin="miter" stroke-miterlimit="4" stroke-opacity="1" stroke-width="20" d="m 474.66339,2509.9423 1e-5,50.5"/><circle clip-rule="nonzero" style="marker:none" id="path6450-6-8-3-2-9" cx="617.345" cy="2348.523" r="21.976" fill="#fff" fill-opacity="1" fill-rule="nonzero" stroke="#000" stroke-dasharray="none" stroke-dashoffset="0" stroke-linecap="round" stroke-linejoin="miter" stroke-miterlimit="4" stroke-opacity="1" stroke-width="10" color="#000" color-interpolation="sRGB" color-interpolation-filters="linearRGB" color-rendering="auto" display="inline" enable-background="accumulate" image-rendering="auto" opacity="1" overflow="visible" shape-rendering="auto" text-rendering="auto" transform="matrix(0.99257952,0.12159728,-0.12159728,0.99257952,0,0)" visibility="visible"/><circle clip-rule="nonzero" style="marker:none" id="path6450-4-9-5-4" cx="491.273" cy="2551.087" r="44.539" fill="#fff" fill-opacity="1" fill-rule="nonzero" stroke="#000" stroke-dasharray="none" stroke-dashoffset="0" stroke-linecap="round" stroke-linejoin="miter" stroke-miterlimit="4" stroke-opacity="1" stroke-width="10" color="#000" color-interpolation="sRGB" color-interpolation-filters="linearRGB" color-rendering="auto" display="inline" enable-background="accumulate" image-rendering="auto" opacity="1" overflow="visible" shape-rendering="auto" text-rendering="auto" transform="matrix(0.99257952,0.12159727,-0.12159727,0.99257952,0,0)" visibility="visible"/><circle clip-rule="nonzero" style="marker:none" id="path6450-4-9-5-4-5" cx="491.273" cy="2551.087" r="13.962" fill="#000" fill-opacity="1" fill-rule="nonzero" stroke="none" stroke-dasharray="none" stroke-dashoffset="0" stroke-linecap="round" stroke-linejoin="miter" stroke-miterlimit="4" stroke-opacity="1" stroke-width="10" color="#000" color-interpolation="sRGB" color-interpolation-filters="linearRGB" color-rendering="auto" display="inline" enable-background="accumulate" image-rendering="auto" opacity="1" overflow="visible" shape-rendering="auto" text-rendering="auto" transform="matrix(0.99257952,0.12159727,-0.12159727,0.99257952,0,0)" visibility="visible"/><path id="path7303" fill="#000" fill-opacity="1" fill-rule="evenodd" stroke="none" stroke-dasharray="none" stroke-dashoffset="0" stroke-linecap="butt" stroke-linejoin="miter" stroke-miterlimit="4" stroke-opacity="1" stroke-width="15" d="m 468.41752,2556.4901 -58.89744,40.1161 27.99101,46.5543 8.74778,-5.8018 -6.07141,-35.7067 34.283,-24.7034 34.34991,24.7507 -6.07141,35.7067 8.74776,5.8019 27.99101,-46.5545 -58.54861,-40.1092 z" baseline-shift="baseline" clip-rule="nonzero" color="#000" color-interpolation="sRGB" color-interpolation-filters="linearRGB" color-rendering="auto" direction="ltr" display="inline" enable-background="accumulate" font-family="sans-serif" font-size="medium" font-stretch="normal" font-style="normal" font-variant="normal" font-weight="normal" image-rendering="auto" letter-spacing="normal" opacity="1" overflow="visible" shape-rendering="auto" text-anchor="start" text-decoration="none" text-rendering="auto" visibility="visible" word-spacing="normal" writing-mode="lr-tb" style="line-height:normal;text-indent:0;text-align:start;text-decoration-line:none;text-decoration-style:solid;text-decoration-color:#000;text-transform:none;block-progression:tb;white-space:normal;isolation:auto;mix-blend-mode:normal;solid-color:#000;solid-opacity:1"/><rect id="rect7409" width="55.154" height="28.815" x="447.775" y="2559.251" fill="#000" fill-opacity="1" fill-rule="nonzero" stroke="none" stroke-dasharray="none" stroke-dashoffset="0" stroke-linecap="round" stroke-linejoin="miter" stroke-miterlimit="4" stroke-opacity="1" stroke-width="20" clip-rule="nonzero" color="#000" color-interpolation="sRGB" color-interpolation-filters="linearRGB" color-rendering="auto" display="inline" enable-background="accumulate" image-rendering="auto" opacity="1" overflow="visible" shape-rendering="auto" text-rendering="auto" visibility="visible" style="marker:none"/><rect id="rect7426-2" width="45.432" height="8.662" x="-220.456" y="2559.768" fill="#fff" fill-opacity="1" fill-rule="nonzero" stroke="none" stroke-dasharray="none" stroke-dashoffset="0" stroke-linecap="round" stroke-linejoin="miter" stroke-miterlimit="4" stroke-opacity="1" stroke-width="5" clip-rule="nonzero" color="#000" color-interpolation="sRGB" color-interpolation-filters="linearRGB" color-rendering="auto" display="inline" enable-background="accumulate" image-rendering="auto" opacity="1" overflow="visible" shape-rendering="auto" text-rendering="auto" transform="matrix(0.96592583,-0.25881905,0.25881905,0.96592583,0,0)" visibility="visible" style="marker:none"/><rect id="rect7426-2-8" width="45.432" height="8.662" x="-220.812" y="2576.122" fill="#fff" fill-opacity="1" fill-rule="nonzero" stroke="none" stroke-dasharray="none" stroke-dashoffset="0" stroke-linecap="round" stroke-linejoin="miter" stroke-miterlimit="4" stroke-opacity="1" stroke-width="5" clip-rule="nonzero" color="#000" color-interpolation="sRGB" color-interpolation-filters="linearRGB" color-rendering="auto" display="inline" enable-background="accumulate" image-rendering="auto" opacity="1" overflow="visible" shape-rendering="auto" text-rendering="auto" transform="matrix(0.96592583,-0.25881905,0.25881905,0.96592583,0,0)" visibility="visible" style="marker:none"/><rect clip-rule="nonzero" style="marker:none" id="rect7288-6-2-6-8" width="229.81" height="83.439" x="64.95" y="864.772" fill="#000" fill-opacity="1" fill-rule="nonzero" stroke="none" stroke-dasharray="none" stroke-dashoffset="0" stroke-linecap="round" stroke-linejoin="miter" stroke-miterlimit="4" stroke-opacity="1" stroke-width="20" color="#000" color-interpolation="sRGB" color-interpolation-filters="linearRGB" color-rendering="auto" display="inline" enable-background="accumulate" image-rendering="auto" opacity="1" overflow="visible" rx="16.263" ry="16.263" shape-rendering="auto" text-rendering="auto" visibility="visible"/><path id="path7286-7-7-2-0" fill="#000" fill-opacity="1" fill-rule="evenodd" stroke="none" stroke-linecap="butt" stroke-linejoin="miter" stroke-opacity="1" stroke-width="1" d="m 354.79792,572.27552 126.19796,109.6948 -10.7083,22.1447 -159.30536,-79.6372 z"/><circle clip-rule="nonzero" style="marker:none" id="path6450-6-9-0-6-4-7" cx="554.609" cy="629.172" r="17.143" fill="#000" fill-opacity="1" fill-rule="nonzero" stroke="#000" stroke-dasharray="none" stroke-dashoffset="0" stroke-linecap="round" stroke-linejoin="miter" stroke-miterlimit="4" stroke-opacity="1" stroke-width="10" color="#000" color-interpolation="sRGB" color-interpolation-filters="linearRGB" color-rendering="auto" display="inline" enable-background="accumulate" image-rendering="auto" opacity="1" overflow="visible" shape-rendering="auto" text-rendering="auto" transform="matrix(0.99257952,0.12159728,-0.12159728,0.99257952,0,0)" visibility="visible"/><path id="path6482-5-2-6-5" fill="#000" fill-opacity="1" fill-rule="evenodd" stroke="#fff" stroke-dasharray="none" stroke-linecap="butt" stroke-linejoin="miter" stroke-miterlimit="4" stroke-opacity="1" stroke-width="10" d="m 327.97266,561.21374 c -12.11284,-0.24418 -23.32654,5.10315 -30.85743,13.85352 L 131.79102,736.42468 c -11.61805,10.55469 -19.66871,25.14211 -21.72266,41.9082 -4.54983,37.13958 21.96197,71.05564 59.10156,75.60547 26.27954,3.21942 50.93092,-9.12584 64.7207,-29.77148 l 0.0234,0.0195 0.47071,-0.74805 c 0.19559,-0.30125 0.38129,-0.60939 0.57226,-0.91406 l 125.69531,-200.2793 -0.0664,-0.0566 c 3.10966,-4.84419 5.20846,-10.43708 5.95312,-16.51562 2.65507,-21.6729 -12.85638,-41.51486 -34.52929,-44.16993 -1.35456,-0.16594 -2.70062,-0.26212 -4.03711,-0.28906 z"/><path id="path7292-9-9-3" fill="none" fill-rule="evenodd" stroke="#000" stroke-dasharray="none" stroke-linecap="butt" stroke-linejoin="miter" stroke-miterlimit="4" stroke-opacity="1" stroke-width="20" d="m 474.66339,704.63032 1e-5,50.5"/><circle clip-rule="nonzero" style="marker:none" id="path6450-6-8-3-2-9-1" cx="397.824" cy="556.608" r="21.976" fill="#fff" fill-opacity="1" fill-rule="nonzero" stroke="#000" stroke-dasharray="none" stroke-dashoffset="0" stroke-linecap="round" stroke-linejoin="miter" stroke-miterlimit="4" stroke-opacity="1" stroke-width="10" color="#000" color-interpolation="sRGB" color-interpolation-filters="linearRGB" color-rendering="auto" display="inline" enable-background="accumulate" image-rendering="auto" opacity="1" overflow="visible" shape-rendering="auto" text-rendering="auto" transform="matrix(0.99257952,0.12159728,-0.12159728,0.99257952,0,0)" visibility="visible"/><circle clip-rule="nonzero" style="marker:none" id="path6450-4-9-5-4-9" cx="271.752" cy="759.172" r="44.539" fill="#fff" fill-opacity="1" fill-rule="nonzero" stroke="#000" stroke-dasharray="none" stroke-dashoffset="0" stroke-linecap="round" stroke-linejoin="miter" stroke-miterlimit="4" stroke-opacity="1" stroke-width="10" color="#000" color-interpolation="sRGB" color-interpolation-filters="linearRGB" color-rendering="auto" display="inline" enable-background="accumulate" image-rendering="auto" opacity="1" overflow="visible" shape-rendering="auto" text-rendering="auto" transform="matrix(0.99257952,0.12159727,-0.12159727,0.99257952,0,0)" visibility="visible"/><path id="path7303-9" fill="#000" fill-opacity="1" fill-rule="evenodd" stroke="none" stroke-dasharray="none" stroke-dashoffset="0" stroke-linecap="butt" stroke-linejoin="miter" stroke-miterlimit="4" stroke-opacity="1" stroke-width="15" d="m 468.41752,751.17809 -58.89744,40.11617 27.99101,46.55427 8.74778,-5.80181 -6.07141,-35.70668 34.283,-24.70344 34.34991,24.75074 -6.07141,35.70668 8.74776,5.80193 27.99101,-46.55452 -58.54861,-40.10923 z" baseline-shift="baseline" clip-rule="nonzero" color="#000" color-interpolation="sRGB" color-interpolation-filters="linearRGB" color-rendering="auto" direction="ltr" display="inline" enable-background="accumulate" font-family="sans-serif" font-size="medium" font-stretch="normal" font-style="normal" font-variant="normal" font-weight="normal" image-rendering="auto" letter-spacing="normal" opacity="1" overflow="visible" shape-rendering="auto" text-anchor="start" text-decoration="none" text-rendering="auto" visibility="visible" word-spacing="normal" writing-mode="lr-tb" style="line-height:normal;text-indent:0;text-align:start;text-decoration-line:none;text-decoration-style:solid;text-decoration-color:#000;text-transform:none;block-progression:tb;white-space:normal;isolation:auto;mix-blend-mode:normal;solid-color:#000;solid-opacity:1"/><rect id="rect7409-6" width="55.154" height="28.815" x="447.775" y="753.939" fill="#000" fill-opacity="1" fill-rule="nonzero" stroke="none" stroke-dasharray="none" stroke-dashoffset="0" stroke-linecap="round" stroke-linejoin="miter" stroke-miterlimit="4" stroke-opacity="1" stroke-width="20" clip-rule="nonzero" color="#000" color-interpolation="sRGB" color-interpolation-filters="linearRGB" color-rendering="auto" display="inline" enable-background="accumulate" image-rendering="auto" opacity="1" overflow="visible" shape-rendering="auto" text-rendering="auto" visibility="visible" style="marker:none"/><rect id="rect7426-2-5" width="45.432" height="8.662" x="452.042" y="718.034" fill="#fff" fill-opacity="1" fill-rule="nonzero" stroke="none" stroke-dasharray="none" stroke-dashoffset="0" stroke-linecap="round" stroke-linejoin="miter" stroke-miterlimit="4" stroke-opacity="1" stroke-width="5" clip-rule="nonzero" color="#000" color-interpolation="sRGB" color-interpolation-filters="linearRGB" color-rendering="auto" display="inline" enable-background="accumulate" image-rendering="auto" opacity="1" overflow="visible" shape-rendering="auto" text-rendering="auto" visibility="visible" style="marker:none"/><rect id="rect7426-2-8-4" width="45.432" height="8.662" x="451.686" y="734.388" fill="#fff" fill-opacity="1" fill-rule="nonzero" stroke="none" stroke-dasharray="none" stroke-dashoffset="0" stroke-linecap="round" stroke-linejoin="miter" stroke-miterlimit="4" stroke-opacity="1" stroke-width="5" clip-rule="nonzero" color="#000" color-interpolation="sRGB" color-interpolation-filters="linearRGB" color-rendering="auto" display="inline" enable-background="accumulate" image-rendering="auto" opacity="1" overflow="visible" shape-rendering="auto" text-rendering="auto" visibility="visible" style="marker:none"/><rect clip-rule="nonzero" style="marker:none" id="rect7288-6-2-6-8-7" width="229.81" height="83.439" x="781.713" y="858.555" fill="#edd400" fill-opacity="1" fill-rule="nonzero" stroke="none" stroke-dasharray="none" stroke-dashoffset="0" stroke-linecap="round" stroke-linejoin="miter" stroke-miterlimit="4" stroke-opacity="1" stroke-width="20" color="#000" color-interpolation="sRGB" color-interpolation-filters="linearRGB" color-rendering="auto" display="inline" enable-background="accumulate" image-rendering="auto" opacity="1" overflow="visible" rx="16.263" ry="16.263" shape-rendering="auto" text-rendering="auto" visibility="visible"/><path id="path7286-7-7-2-0-6" fill="#edd400" fill-opacity="1" fill-rule="evenodd" stroke="none" stroke-linecap="butt" stroke-linejoin="miter" stroke-opacity="1" stroke-width="1" d="m 1085.3613,578.05335 c 2.7338,6.76911 3.8503,14.28998 2.9043,22.01172 -0.6486,5.29493 -2.2363,10.26273 -4.5371,14.77539 l 0.2188,0.18555 -14.9668,23.84766 118.0703,59.02343 10.709,-22.14453 z"/><path id="path6450-6-9-0-6-4-7-7" fill="#edd400" fill-opacity="1" fill-rule="nonzero" stroke="none" stroke-dasharray="none" stroke-dashoffset="0" stroke-linecap="round" stroke-linejoin="miter" stroke-miterlimit="4" stroke-opacity="1" stroke-width="10" d="m 1191.1914,663.58656 c -11.1795,-0.22084 -21.0306,8.12066 -22.418,19.44531 -1.191,9.72253 4.2054,18.81423 12.6543,22.76562 l 0,6.01954 20,0 0,-6.72852 c 6.0058,-3.3299 10.4096,-9.38149 11.3028,-16.67188 1.4798,-12.07963 -7.2075,-23.19008 -19.2871,-24.66992 -0.755,-0.0925 -1.5067,-0.14543 -2.252,-0.16015 z m -9.7637,56.89257 0,7.69141 20,0 0,-7.69141 -20,0 z m 0,16.35352 0,10.68555 -0.2988,0.20312 -16.5898,0 0,11.29883 -38.2559,26.05664 27.9922,46.55469 8.748,-5.80274 -6.0722,-35.70507 18.8574,-13.5879 30.8515,0 18.9239,13.63477 -6.0723,35.70703 8.7481,5.80078 27.9921,-46.55468 -36.5585,-25.04493 0,-12.35742 -18.0391,0 -0.2266,-0.15429 0,-10.73438 -20,0 z" baseline-shift="baseline" clip-rule="nonzero" color="#000" color-interpolation="sRGB" color-interpolation-filters="linearRGB" color-rendering="auto" direction="ltr" display="inline" enable-background="accumulate" font-family="sans-serif" font-size="medium" font-stretch="normal" font-style="normal" font-variant="normal" font-weight="normal" image-rendering="auto" letter-spacing="normal" opacity="1" overflow="visible" shape-rendering="auto" text-anchor="start" text-decoration="none" text-rendering="auto" visibility="visible" word-spacing="normal" writing-mode="lr-tb" style="line-height:normal;text-indent:0;text-align:start;text-decoration-line:none;text-decoration-style:solid;text-decoration-color:#000;text-transform:none;block-progression:tb;white-space:normal;isolation:auto;mix-blend-mode:normal;solid-color:#000;solid-opacity:1;marker:none"/><path id="path6482-5-2-6-5-8-9" fill="#edd400" fill-opacity="1" fill-rule="evenodd" stroke="none" stroke-dasharray="none" stroke-dashoffset="0" stroke-linecap="butt" stroke-linejoin="miter" stroke-miterlimit="4" stroke-opacity="1" stroke-width="10" d="m 1044.6339,559.99635 c -10.58,-0.21328 -20.3798,4.46153 -26.9668,12.11523 l -0.1406,0.16602 -165.545,161.57031 -0.066,0.0605 c -10.7718,9.78592 -18.2163,23.26809 -20.121,38.81641 -4.2201,34.44801 20.2982,65.81312 54.746,70.0332 24.3737,2.98594 47.1827,-8.46146 59.9551,-27.58398 l 0.5723,-0.85742 c 0.119,-0.18881 0.2416,-0.38584 0.416,-0.66406 l 0,-0.002 123.4004,-196.62109 -0.1016,-0.084 2.3594,-3.67578 c 13.2387,-21.00542 0.3103,-44.10218 -24.9765,-53.02148 -1.1892,-0.14568 -2.367,-0.22845 -3.5313,-0.25195 z m -0.3594,17.66015 c 0.5763,0.0126 1.1569,0.0553 1.7422,0.12695 9.3651,1.14729 15.9344,9.549 14.7871,18.91407 -1.1473,9.36506 -9.551,15.93439 -18.916,14.78711 -9.3651,-1.14728 -15.9324,-9.55096 -14.7851,-18.91602 1.0756,-8.77975 8.5279,-15.1015 17.1718,-14.91211 z M 894.9483,740.83033 c 1.3385,0.0284 2.6886,0.12461 4.0469,0.29102 21.7336,2.6625 37.1,22.31913 34.4375,44.05273 -2.6625,21.73359 -22.3211,37.10196 -44.0547,34.43945 -21.7336,-2.6625 -37.1,-22.32109 -34.4375,-44.05468 2.4961,-20.37525 19.9305,-35.15452 40.0078,-34.72852 z" baseline-shift="baseline" clip-rule="nonzero" color="#000" color-interpolation="sRGB" color-interpolation-filters="linearRGB" color-rendering="auto" direction="ltr" display="inline" enable-background="accumulate" font-family="sans-serif" font-size="medium" font-stretch="normal" font-style="normal" font-variant="normal" font-weight="normal" image-rendering="auto" letter-spacing="normal" opacity="1" overflow="visible" shape-rendering="auto" text-anchor="start" text-decoration="none" text-rendering="auto" visibility="visible" word-spacing="normal" writing-mode="lr-tb" style="line-height:normal;text-indent:0;text-align:start;text-decoration-line:none;text-decoration-style:solid;text-decoration-color:#000;text-transform:none;block-progression:tb;white-space:normal;isolation:auto;mix-blend-mode:normal;solid-color:#000;solid-opacity:1"/><rect clip-rule="nonzero" style="marker:none" id="rect7288-6-2-6-8-7-7" width="229.81" height="83.439" x="1461.713" y="858.555" fill="#ebd200" fill-opacity="1" fill-rule="nonzero" stroke="none" stroke-dasharray="none" stroke-dashoffset="0" stroke-linecap="round" stroke-linejoin="miter" stroke-miterlimit="4" stroke-opacity="1" stroke-width="20" color="#000" color-interpolation="sRGB" color-interpolation-filters="linearRGB" color-rendering="auto" display="inline" enable-background="accumulate" image-rendering="auto" opacity="1" overflow="visible" rx="16.263" ry="16.263" shape-rendering="auto" text-rendering="auto" visibility="visible"/><path id="path7286-7-7-2-0-6-0" fill="#ebd200" fill-opacity="1" fill-rule="evenodd" stroke="none" stroke-linecap="butt" stroke-linejoin="miter" stroke-opacity="1" stroke-width="1" d="m 1765.3605,578.05299 c 2.7338,6.76911 3.8503,14.28998 2.9043,22.01172 -0.6486,5.29493 -2.2363,10.26273 -4.5371,14.77539 l 0.2187,0.18554 -14.9668,23.84766 99.8594,49.91992 c 1.0545,7.41377 5.8418,13.84888 12.5879,17.00391 l 0,6.01953 20,0 0,-6.72852 c 6.0058,-3.3299 10.4095,-9.38148 11.3027,-16.67187 1.4798,-12.07963 -7.2075,-23.19008 -19.2871,-24.66992 -0.755,-0.0925 -1.5066,-0.14544 -2.252,-0.16016 -2.2225,-0.0439 -4.3858,0.26445 -6.4472,0.85352 l -99.3828,-86.38672 z m 96.0664,142.42578 0,7.6914 20,0 0,-7.6914 -20,0 z m 0,16.35351 0,10.68555 -0.2988,0.20312 -16.5899,0 0,11.29883 -38.2559,26.05664 27.9922,46.55469 8.7481,-5.80273 -6.0723,-35.70508 18.8574,-13.58789 30.8516,0 18.9238,13.63476 -6.0722,35.70704 8.748,5.80078 27.9922,-46.55469 -36.5586,-25.04492 0,-12.35743 -18.0391,0 -0.2265,-0.15429 0,-10.73438 -20,0 z"/><path id="path6482-5-2-6-5-8-9-3" fill="#ebd200" fill-opacity="1" fill-rule="evenodd" stroke="none" stroke-dasharray="none" stroke-dashoffset="0" stroke-linecap="butt" stroke-linejoin="miter" stroke-miterlimit="4" stroke-opacity="1" stroke-width="10" d="m 1724.6339,559.99635 c -10.58,-0.21328 -20.3798,4.46153 -26.9668,12.11523 l -0.1406,0.16602 -165.5449,161.57031 -0.066,0.0605 c -10.7718,9.78592 -18.2163,23.26809 -20.1211,38.81641 -4.2201,34.44801 20.2982,65.81312 54.7461,70.0332 24.3737,2.98594 47.1825,-8.46146 59.955,-27.58398 l 0.5723,-0.85742 c 0.119,-0.18881 0.2416,-0.38584 0.416,-0.66406 l 0,-0.002 123.4004,-196.62109 -0.1016,-0.084 2.3594,-3.67578 c 13.2387,-21.00542 0.3103,-44.10218 -24.9765,-53.02148 -1.1892,-0.14568 -2.367,-0.22845 -3.5313,-0.25195 z m -0.3594,17.66015 c 0.5763,0.0126 1.1569,0.0553 1.7422,0.12695 9.3651,1.14729 15.9344,9.549 14.7871,18.91407 -1.1473,9.36506 -9.551,15.93439 -18.916,14.78711 -9.3651,-1.14728 -15.9324,-9.55096 -14.7851,-18.91602 1.0756,-8.77975 8.5279,-15.1015 17.1718,-14.91211 z m -149.3261,163.17383 c 1.3384,0.0284 2.6885,0.12461 4.0468,0.29102 21.7336,2.6625 37.1,22.31913 34.4375,44.05273 -2.6625,21.73359 -22.3211,37.10196 -44.0546,34.43945 -21.7337,-2.6625 -37.1001,-22.32109 -34.4376,-44.05468 2.4961,-20.37525 19.9306,-35.15452 40.0079,-34.72852 z" baseline-shift="baseline" clip-rule="nonzero" color="#000" color-interpolation="sRGB" color-interpolation-filters="linearRGB" color-rendering="auto" direction="ltr" display="inline" enable-background="accumulate" font-family="sans-serif" font-size="medium" font-stretch="normal" font-style="normal" font-variant="normal" font-weight="normal" image-rendering="auto" letter-spacing="normal" opacity="1" overflow="visible" shape-rendering="auto" text-anchor="start" text-decoration="none" text-rendering="auto" visibility="visible" word-spacing="normal" writing-mode="lr-tb" style="line-height:normal;text-indent:0;text-align:start;text-decoration-line:none;text-decoration-style:solid;text-decoration-color:#000;text-transform:none;block-progression:tb;white-space:normal;isolation:auto;mix-blend-mode:normal;solid-color:#000;solid-opacity:1"/><rect id="rect7349-4" width="667.384" height="598.212" x="2034.219" y="452.736" fill="#000" fill-opacity="1" fill-rule="nonzero" stroke="none" stroke-dasharray="none" stroke-dashoffset="0" stroke-linecap="round" stroke-linejoin="miter" stroke-miterlimit="4" stroke-opacity="1" stroke-width="10" clip-rule="nonzero" color="#000" color-interpolation="sRGB" color-interpolation-filters="linearRGB" color-rendering="auto" display="inline" enable-background="accumulate" image-rendering="auto" opacity="1" overflow="visible" shape-rendering="auto" text-rendering="auto" visibility="visible" style="marker:none"/><rect clip-rule="nonzero" style="marker:none" id="rect7288-6-2-6-8-7-2" width="229.81" height="83.439" x="2129.713" y="858.555" fill="#fff" fill-opacity="1" fill-rule="nonzero" stroke="none" stroke-dasharray="none" stroke-dashoffset="0" stroke-linecap="round" stroke-linejoin="miter" stroke-miterlimit="4" stroke-opacity="1" stroke-width="20" color="#000" color-interpolation="sRGB" color-interpolation-filters="linearRGB" color-rendering="auto" display="inline" enable-background="accumulate" image-rendering="auto" opacity="1" overflow="visible" rx="16.263" ry="16.263" shape-rendering="auto" text-rendering="auto" visibility="visible"/><path id="path7286-7-7-2-0-6-6" fill="#fff" fill-opacity="1" fill-rule="evenodd" stroke="none" stroke-linecap="butt" stroke-linejoin="miter" stroke-opacity="1" stroke-width="1" d="m 2433.3613,578.05335 c 2.7338,6.76911 3.8503,14.28998 2.9043,22.01172 -0.6486,5.29493 -2.2363,10.26273 -4.5371,14.77539 l 0.2188,0.18555 -14.9668,23.84766 118.0703,59.02343 10.709,-22.14453 z"/><path id="path6450-6-9-0-6-4-7-7-8" fill="#fff" fill-opacity="1" fill-rule="nonzero" stroke="none" stroke-dasharray="none" stroke-dashoffset="0" stroke-linecap="round" stroke-linejoin="miter" stroke-miterlimit="4" stroke-opacity="1" stroke-width="10" d="m 2539.1914,663.58656 c -11.1795,-0.22084 -21.0306,8.12066 -22.418,19.44531 -1.191,9.72253 4.2054,18.81423 12.6543,22.76562 l 0,6.01954 20,0 0,-6.72852 c 6.0058,-3.3299 10.4096,-9.38149 11.3028,-16.67188 1.4798,-12.07963 -7.2075,-23.19008 -19.2871,-24.66992 -0.755,-0.0925 -1.5067,-0.14543 -2.252,-0.16015 z m -9.7637,56.89257 0,7.69141 20,0 0,-7.69141 -20,0 z m 0,16.35352 0,10.68555 -0.2988,0.20312 -16.5898,0 0,11.29883 -38.2559,26.05664 27.9922,46.55469 8.748,-5.80274 -6.0722,-35.70507 18.8574,-13.5879 30.8515,0 18.9239,13.63477 -6.0723,35.70703 8.7481,5.80078 27.9921,-46.55468 -36.5585,-25.04493 0,-12.35742 -18.0391,0 -0.2266,-0.15429 0,-10.73438 -20,0 z" baseline-shift="baseline" clip-rule="nonzero" color="#000" color-interpolation="sRGB" color-interpolation-filters="linearRGB" color-rendering="auto" direction="ltr" display="inline" enable-background="accumulate" font-family="sans-serif" font-size="medium" font-stretch="normal" font-style="normal" font-variant="normal" font-weight="normal" image-rendering="auto" letter-spacing="normal" opacity="1" overflow="visible" shape-rendering="auto" text-anchor="start" text-decoration="none" text-rendering="auto" visibility="visible" word-spacing="normal" writing-mode="lr-tb" style="line-height:normal;text-indent:0;text-align:start;text-decoration-line:none;text-decoration-style:solid;text-decoration-color:#000;text-transform:none;block-progression:tb;white-space:normal;isolation:auto;mix-blend-mode:normal;solid-color:#000;solid-opacity:1;marker:none"/><path id="path6482-5-2-6-5-8-9-8" fill="#fff" fill-opacity="1" fill-rule="evenodd" stroke="none" stroke-dasharray="none" stroke-dashoffset="0" stroke-linecap="butt" stroke-linejoin="miter" stroke-miterlimit="4" stroke-opacity="1" stroke-width="10" d="m 2392.6339,559.99635 c -10.58,-0.21328 -20.3798,4.46153 -26.9668,12.11523 l -0.1406,0.16602 -165.545,161.57031 -0.066,0.0605 c -10.7718,9.78592 -18.2163,23.26809 -20.121,38.81641 -4.2201,34.44801 20.2982,65.81312 54.746,70.0332 24.3737,2.98594 47.1827,-8.46146 59.9551,-27.58398 l 0.5723,-0.85742 c 0.119,-0.18881 0.2416,-0.38584 0.416,-0.66406 l 0,-0.002 123.4004,-196.62109 -0.1016,-0.084 2.3594,-3.67578 c 13.2387,-21.00542 0.3103,-44.10218 -24.9765,-53.02148 -1.1892,-0.14568 -2.367,-0.22845 -3.5313,-0.25195 z m -0.3594,17.66015 c 0.5763,0.0126 1.1569,0.0553 1.7422,0.12695 9.3651,1.14729 15.9344,9.549 14.7871,18.91407 -1.1473,9.36506 -9.551,15.93439 -18.916,14.78711 -9.3651,-1.14728 -15.9324,-9.55096 -14.7851,-18.91602 1.0756,-8.77975 8.5279,-15.1015 17.1718,-14.91211 z m -149.3262,163.17383 c 1.3385,0.0284 2.6886,0.12461 4.0469,0.29102 21.7336,2.6625 37.1,22.31913 34.4375,44.05273 -2.6625,21.73359 -22.3211,37.10196 -44.0547,34.43945 -21.7336,-2.6625 -37.1,-22.32109 -34.4375,-44.05468 2.4961,-20.37525 19.9305,-35.15452 40.0078,-34.72852 z" baseline-shift="baseline" clip-rule="nonzero" color="#000" color-interpolation="sRGB" color-interpolation-filters="linearRGB" color-rendering="auto" direction="ltr" display="inline" enable-background="accumulate" font-family="sans-serif" font-size="medium" font-stretch="normal" font-style="normal" font-variant="normal" font-weight="normal" image-rendering="auto" letter-spacing="normal" opacity="1" overflow="visible" shape-rendering="auto" text-anchor="start" text-decoration="none" text-rendering="auto" visibility="visible" word-spacing="normal" writing-mode="lr-tb" style="line-height:normal;text-indent:0;text-align:start;text-decoration-line:none;text-decoration-style:solid;text-decoration-color:#000;text-transform:none;block-progression:tb;white-space:normal;isolation:auto;mix-blend-mode:normal;solid-color:#000;solid-opacity:1"/></g></svg>