<svg xmlns="http://www.w3.org/2000/svg" xmlns:svg="http://www.w3.org/2000/svg" id="svg2" width="700" height="700" version="1.1"><defs id="defs4"><linearGradient id="linearGradient6621"><stop id="stop6622" offset="0" stop-color="#f5a108" stop-opacity="0"/><stop id="stop6623" offset="1" stop-color="#fefdc3" stop-opacity=".743"/></linearGradient></defs><metadata id="metadata7"/><g id="layer1" transform="translate(0,-352.36218)"><g id="layer1-6" transform="translate(53.032749,-56.719069)"><g id="g9410" transform="matrix(6.0829612,0,0,6.0829612,-2591.7641,1137.2413)"><path id="path9405" fill="#c71807" fill-opacity="1" fill-rule="evenodd" stroke="none" d="m 474.51296,-94.243312 c 19.8934,-19.885108 47.2316,-1.556921 47.05177,17.301597 -0.16439,17.239966 -13.30918,25.4964 -46.33246,56.161135 -34.56542,-28.526979 -46.74406,-35.105408 -46.56424,-55.56005 0.17983,-21.173657 23.58363,-37.06458 45.84493,-17.902682 z"/><g id="g9409" fill="#fff" fill-opacity="1" fill-rule="nonzero" stroke="none" transform="matrix(0.3237835,0,0,0.3237835,459.0031,-84.660724)"><g id="g9411" fill="#fff" fill-opacity="1"><path id="path9413" fill="#fff" fill-opacity="1" d="M 86.068,0 C 61.466,0 56.851,35.041 70.691,35.041 84.529,35.041 110.671,0 86.068,0 z"/><path id="path9415" fill="#fff" fill-opacity="1" d="M 45.217,30.699 C 52.586,31.149 60.671,2.577 46.821,4.374 32.976,6.171 37.845,30.249 45.217,30.699 z"/><path id="path9417" fill="#fff" fill-opacity="1" d="M 11.445,48.453 C 16.686,46.146 12.12,23.581 3.208,29.735 -5.7,35.89 6.204,50.759 11.445,48.453 z"/><path id="path9419" fill="#fff" fill-opacity="1" d="M 26.212,36.642 C 32.451,35.37 32.793,9.778 21.667,14.369 10.539,18.961 19.978,37.916 26.212,36.642 l 0,0 z"/><path id="path9421" fill="#fff" fill-opacity="1" d="m 58.791,93.913 c 1.107,8.454 -6.202,12.629 -13.36,7.179 C 22.644,83.743 83.16,75.088 79.171,51.386 75.86,31.712 15.495,37.769 8.621,68.553 3.968,89.374 27.774,118.26 52.614,118.26 c 12.22,0 26.315,-11.034 28.952,-25.012 C 83.58,82.589 57.867,86.86 58.791,93.913 l 0,0 z"/></g></g></g></g></g></svg>