<svg xmlns="http://www.w3.org/2000/svg" xmlns:svg="http://www.w3.org/2000/svg" xmlns:xlink="http://www.w3.org/1999/xlink" id="svg2" width="1052.362" height="744.094" version="1.0"><defs id="defs4"><linearGradient id="linearGradient6210"><stop id="stop6212" offset="0" stop-color="#CACFC5" stop-opacity="1"/><stop id="stop6214" offset="1" stop-color="#FEFEFE" stop-opacity="1"/></linearGradient><radialGradient id="radialGradient3847" cx="605.714" cy="486.648" r="117.143" fx="605.714" fy="486.648" gradientTransform="matrix(-2.77439,0,0,1.96971,112.762,-872.885)" gradientUnits="userSpaceOnUse" xlink:href="#linearGradient5060"/><radialGradient id="radialGradient3845" cx="605.714" cy="486.648" r="117.143" fx="605.714" fy="486.648" gradientTransform="matrix(2.77439,0,0,1.96971,-1891.63,-872.885)" gradientUnits="userSpaceOnUse" xlink:href="#linearGradient5060"/><linearGradient id="linearGradient3843" x1="302.857" x2="302.857" y1="366.648" y2="609.505" gradientTransform="matrix(2.77439,0,0,1.96971,-1892.18,-872.885)" gradientUnits="userSpaceOnUse" xlink:href="#linearGradient5048"/><linearGradient id="linearGradient2787" x1="24.926" x2="24.926" y1="40" y2="19.539" gradientTransform="translate(-42.4375,-7.8125)" gradientUnits="userSpaceOnUse" xlink:href="#linearGradient2781"/><linearGradient id="linearGradient3680" x1="23.069" x2="23.069" y1="6.799" y2="12.403" gradientTransform="translate(-42.4375,-7.8125)" gradientUnits="userSpaceOnUse" xlink:href="#linearGradient3674"/><linearGradient id="linearGradient3696" x1="9.5" x2="9.5" y1="16.264" y2="13.409" gradientTransform="translate(-42.4375,-7.8125)" gradientUnits="userSpaceOnUse" xlink:href="#linearGradient3690"/><linearGradient id="linearGradient9394"><stop id="stop9396" offset="0" stop-color="#6D706B" stop-opacity="1"/><stop id="stop9402" offset=".5" stop-color="#8B8E89" stop-opacity="1"/><stop id="stop9398" offset="1" stop-color="#555753" stop-opacity="1"/></linearGradient><linearGradient id="linearGradient5060"><stop id="stop5062" offset="0" stop-color="#000" stop-opacity="1"/><stop id="stop5064" offset="1" stop-color="#000" stop-opacity="0"/></linearGradient><linearGradient id="linearGradient5048"><stop id="stop5050" offset="0" stop-color="#000" stop-opacity="0"/><stop id="stop5056" offset=".5" stop-color="#000" stop-opacity="1"/><stop id="stop5052" offset="1" stop-color="#000" stop-opacity="0"/></linearGradient><linearGradient id="linearGradient3674"><stop id="stop3676" offset="0" stop-color="#3465A4" stop-opacity="1"/><stop id="stop3678" offset="1" stop-color="#729FCF" stop-opacity="1"/></linearGradient><linearGradient id="linearGradient2781"><stop id="stop2783" offset="0" stop-color="#D3D7CF" stop-opacity="1"/><stop id="stop2785" offset="1" stop-color="#EEEEEC" stop-opacity="1"/></linearGradient><linearGradient id="linearGradient3690"><stop id="stop3692" offset="0" stop-color="#fff" stop-opacity="1"/><stop id="stop3694" offset="1" stop-color="#fff" stop-opacity=".469"/></linearGradient><linearGradient id="linearGradient2378"><stop id="stop2380" offset="0" stop-color="#FFF" stop-opacity="1"/><stop id="stop4146" offset=".25" stop-color="#FEFEDE" stop-opacity=".918"/><stop id="stop2386" offset=".5" stop-color="#F5F328" stop-opacity="1"/><stop id="stop2382" offset="1" stop-color="#F5F32D" stop-opacity=".122"/></linearGradient><marker id="Torso" orient="auto" overflow="visible" refX="0" refY="0"><g id="g4659" transform="scale(0.7,0.7)"><path id="path4661" fill="none" fill-opacity=".75" fill-rule="evenodd" stroke="#000" stroke-width="1.25" d="M -4.7792281,-3.239542 C -2.4288541,-2.8736027 0.52103922,-1.3019943 0.25792722,0.38794346 C -0.0051877922,2.0778819 -2.2126741,2.6176539 -4.5630471,2.2517169 C -6.9134221,1.8857769 -8.521035,0.75201414 -8.257922,-0.93792336 C -7.994809,-2.6278615 -7.1296041,-3.6054813 -4.7792281,-3.239542 z" style="marker:none"/><path id="path4663" fill="none" fill-opacity=".75" fill-rule="evenodd" stroke="#000" stroke-width="1pt" marker-end="none" d="M 4.4598789,0.088665736 C -2.5564571,-4.378332 5.2248769,-3.9061806 -0.84829578,-8.7197331"/><path id="path4665" fill="none" fill-opacity=".75" fill-rule="evenodd" stroke="#000" stroke-width="1pt" marker-end="none" marker-start="none" d="M 4.9298719,0.057520736 C -1.3872731,1.7494689 1.8027579,5.4782079 -4.9448731,7.5462725"/><rect id="rect4667" width="2.637" height="2.761" x="-10.392" y="-1.741" fill-rule="evenodd" stroke-width="1pt" marker-end="none" transform="matrix(0.527536,-0.849533,0.887668,0.460484,0,0)"/><rect id="rect4669" width="2.733" height="2.861" x="4.959" y="-7.963" fill-rule="evenodd" stroke-width="1pt" marker-end="none" transform="matrix(0.671205,-0.741272,0.790802,0.612072,0,0)"/><path id="path4671" fill="red" fill-opacity=".75" fill-rule="evenodd" stroke="#000" stroke-width="1pt" marker-end="none" marker-start="none" d="m 16.779951,-28.685045 c 0,0.335412 -0.271905,0.607317 -0.607317,0.607317 -0.335412,0 -0.607317,-0.271905 -0.607317,-0.607317 0,-0.335412 0.271905,-0.607318 0.607317,-0.607318 0.335412,0 0.607317,0.271906 0.607317,0.607318 z" transform="matrix(0,-1.10952,1.10952,0,25.9665,19.7162)"/><path id="path4673" fill="red" fill-opacity=".75" fill-rule="evenodd" stroke="#000" stroke-width="1pt" marker-end="none" marker-start="none" d="m 16.779951,-28.685045 c 0,0.335412 -0.271905,0.607317 -0.607317,0.607317 -0.335412,0 -0.607317,-0.271905 -0.607317,-0.607317 0,-0.335412 0.271905,-0.607318 0.607317,-0.607318 0.335412,0 0.607317,0.271906 0.607317,0.607318 z" transform="matrix(0,-1.10952,1.10952,0,26.8245,16.9913)"/></g></marker><marker id="CurveIn" orient="auto" overflow="visible" refX="0" refY="0"><path id="path4701" fill="none" fill-rule="evenodd" stroke="#000" stroke-width="1pt" marker-end="none" marker-start="none" d="M 4.625493,-5.0456926 C 1.865493,-5.0456926 -0.37450702,-2.8056926 -0.37450702,-0.04569258 C -0.37450702,2.7143074 1.865493,4.9543074 4.625493,4.9543074" transform="scale(0.6,0.6)"/></marker><linearGradient id="linearGradient2445" x1="14.287" x2="21.163" y1="6.274" y2="23.02" gradientTransform="matrix(1.167685,0,0,1.226835,-4.033601,-0.814707)" gradientUnits="userSpaceOnUse" xlink:href="#linearGradient6240"/><linearGradient id="linearGradient6240"><stop id="stop6242" offset="0" stop-color="#fff" stop-opacity="1"/><stop id="stop6244" offset="1" stop-color="#fff" stop-opacity="0"/></linearGradient><linearGradient id="linearGradient2457" x1="12.456" x2="42.993" y1="6.69" y2="6.69" gradientTransform="matrix(1.101745,0,0,1.930442,-2.366845,-2.913957)" gradientUnits="userSpaceOnUse" xlink:href="#linearGradient5137"/><linearGradient id="linearGradient5137"><stop id="stop5139" offset="0" stop-color="#eeeeec" stop-opacity="1"/><stop id="stop5141" offset="1" stop-color="#e6e6e3" stop-opacity="0"/></linearGradient><linearGradient id="linearGradient2461" x1="31.052" x2="31.052" y1="22.41" y2="33.144" gradientTransform="matrix(1.120104,0,0,1.457918,-2.863487,-0.229099)" gradientUnits="userSpaceOnUse" xlink:href="#linearGradient5233"/><linearGradient id="linearGradient5233"><stop id="stop5235" offset="0" stop-color="#729fcf" stop-opacity=".941"/><stop id="stop5237" offset="1" stop-color="#204a87" stop-opacity="1"/></linearGradient><radialGradient id="radialGradient6989" cx="318.035" cy="90.563" r="18.606" fx="318.035" fy="90.563" gradientTransform="matrix(0.9288572,2.6280209e-6,-8.1854474e-7,0.3017001,22.656541,62.141708)" gradientUnits="userSpaceOnUse" xlink:href="#linearGradient6983"/><linearGradient id="linearGradient6983"><stop id="stop6985" offset="0" stop-color="#2e3436" stop-opacity="1"/><stop id="stop6987" offset="1" stop-color="#2e3436" stop-opacity="0"/></linearGradient><radialGradient id="radialGradient6939" cx="-464.707" cy="-357.845" r="63.512" fx="-464.707" fy="-357.845" gradientTransform="matrix(1.1869922,0,0,0.8727603,86.896626,-45.532075)" gradientUnits="userSpaceOnUse" xlink:href="#linearGradient6915"/><linearGradient id="linearGradient6915"><stop id="stop6917" offset="0" stop-color="#7fa5d7" stop-opacity="1"/><stop id="stop6919" offset="1" stop-color="#3a71b7" stop-opacity="1"/></linearGradient><radialGradient id="radialGradient8978" cx="323.855" cy="72.046" r="15.419" fx="323.855" fy="72.046" gradientTransform="matrix(1.0541479,0,0,2.7641865,-17.53606,-127.10337)" gradientUnits="userSpaceOnUse" xlink:href="#linearGradient8972"/><linearGradient id="linearGradient8972"><stop id="stop8974" offset="0" stop-color="#fff" stop-opacity="1"/><stop id="stop8976" offset="1" stop-color="#fff" stop-opacity="0"/></linearGradient><radialGradient id="radialGradient8993" cx="320.484" cy="55.028" r="16.234" fx="320.484" fy="55.028" gradientTransform="matrix(2.2696808,0,0,2.5886157,-407.01413,-89.281881)" gradientUnits="userSpaceOnUse" xlink:href="#linearGradient8987"/><linearGradient id="linearGradient8987"><stop id="stop8989" offset="0" stop-color="#fff" stop-opacity="1"/><stop id="stop8991" offset="1" stop-color="#fff" stop-opacity="0"/></linearGradient><linearGradient id="linearGradient6621"><stop id="stop6622" offset="0" stop-color="#f5a108" stop-opacity="0"/><stop id="stop6623" offset="1" stop-color="#fefdc3" stop-opacity=".743"/></linearGradient><path id="path7062-9" fill="none" stroke="#000" stroke-dasharray="none" stroke-linejoin="round" stroke-miterlimit="4" stroke-opacity="1" stroke-width="2" d="m 226,311.34448 a 32.25,32.25 0 1 1 -64.5,0 32.25,32.25 0 1 1 64.5,0 z" transform="matrix(-1,0,0,-1,387.84345,619.43013)"/><path id="path7062-5" fill="none" stroke="#000" stroke-dasharray="none" stroke-linejoin="round" stroke-miterlimit="4" stroke-opacity="1" stroke-width="2" d="m 226,311.34448 a 32.25,32.25 0 1 1 -64.5,0 32.25,32.25 0 1 1 64.5,0 z" transform="matrix(-1,0,0,-1,387.84345,619.43013)"/><path id="path7199-7" fill="none" stroke="none" d="m 229.25,309.84448 a 34.25,34.25 0 1 1 -68.5,0 34.25,34.25 0 1 1 68.5,0 z" transform="matrix(0.91240876,0,0,0.91240876,158.83029,24.889663)"/></defs><metadata id="metadata7"/><g id="layer1"><path id="path6132" fill="#018094" fill-opacity="1" fill-rule="evenodd" stroke="#2e3436" stroke-linecap="butt" stroke-linejoin="miter" stroke-opacity="1" stroke-width=".715" d="m 13.520157,275.49343 103.747303,-74.58275 103.0989,-36.96712 88.1852,0 106.34099,35.02148 101.80204,75.87984 -57.06101,81.71674 -50.57682,-10.3767 0.64842,242.55608 c 0,0 -72.46101,4.37772 -144.92202,4.86412 -72.46101,0.48641 -144.92202,-2.91839 -144.92202,-2.91839 l 0.64843,-244.50181 -49.928375,11.02527 z"/><path id="path6134" fill="none" fill-opacity=".75" fill-rule="evenodd" stroke="#eeeeec" stroke-linecap="butt" stroke-linejoin="miter" stroke-opacity="1" stroke-width=".715" d="M 115.97063,201.00152 C 129.80359,261.39887 129.3713,341.92865 120.50957,346.78816" opacity=".6"/><path id="path6136" fill="none" fill-opacity=".75" fill-rule="evenodd" stroke="#eeeeec" stroke-linecap="butt" stroke-linejoin="miter" stroke-opacity="1" stroke-width=".715" d="M 413.83346,200.3073 C 400.00048,260.70462 400.43277,341.23436 409.29452,346.094" opacity=".6"/><path id="path6138" fill="none" fill-opacity=".75" fill-rule="evenodd" stroke="#eeeeec" stroke-linecap="butt" stroke-linejoin="miter" stroke-opacity="1" stroke-width=".715" d="M 23.246518,267.71089 L 82.252776,353.31887" opacity=".6"/><path id="path6140" fill="none" fill-opacity=".75" fill-rule="evenodd" stroke="#eeeeec" stroke-linecap="butt" stroke-linejoin="miter" stroke-opacity="1" stroke-width=".715" d="M 507.94091,267.71089 L 448.93463,353.31887" opacity=".6"/><path id="path6144" fill="none" fill-opacity=".75" fill-rule="evenodd" stroke="#eeeeec" stroke-linecap="butt" stroke-linejoin="miter" stroke-opacity="1" stroke-width=".715" d="M 200.91373,172.37467 C 200.91373,172.37467 221.8485,218.58456 262.51369,220.36705 C 303.20208,222.15055 327.35576,171.72613 327.35576,171.72613" opacity=".6"/><path id="path6146" fill="none" stroke="#2e3436" stroke-linecap="butt" stroke-linejoin="miter" stroke-opacity="1" stroke-width=".715" d="m 228,178.09448 72.77052,0"/><path id="path6148" fill="none" fill-opacity=".75" fill-rule="evenodd" stroke="#eeeeec" stroke-linecap="butt" stroke-linejoin="miter" stroke-opacity="1" stroke-width=".715" d="M 119.86114,575.77011 C 119.86114,575.77011 191.67374,580.95848 263.81053,580.95848 C 335.94733,580.95848 408.40834,575.77011 408.40834,575.77011" opacity=".6"/><path id="path3577" fill="#018094" fill-opacity="1" fill-rule="evenodd" stroke="#2e3436" stroke-linecap="butt" stroke-linejoin="miter" stroke-opacity="1" stroke-width=".715" d="M 541.55218,279.77301 L 645.29947,205.19025 L 748.39841,168.22314 L 836.58362,168.22314 L 942.92456,203.24462 L 1044.7266,279.12446 L 987.6656,360.8412 L 937.08881,350.46449 L 937.73722,593.02057 C 937.73722,593.02057 865.27617,597.3983 792.81521,597.8847 C 720.35417,598.3711 647.89316,594.9663 647.89316,594.9663 L 648.54158,350.46449 L 598.6132,361.48977 L 541.55218,279.77301 z"/><path id="path3579" fill="none" fill-opacity=".75" fill-rule="evenodd" stroke="#eeeeec" stroke-linecap="butt" stroke-linejoin="miter" stroke-opacity="1" stroke-width=".715" d="M 644.00264,205.2811 C 657.8356,265.67844 657.40332,346.20824 648.54158,351.06773" opacity=".6"/><path id="path3581" fill="none" fill-opacity=".75" fill-rule="evenodd" stroke="#eeeeec" stroke-linecap="butt" stroke-linejoin="miter" stroke-opacity="1" stroke-width=".715" d="M 941.86548,204.58688 C 928.03253,264.9842 928.46473,345.51394 937.32654,350.37357" opacity=".6"/><path id="path3583" fill="none" fill-opacity=".75" fill-rule="evenodd" stroke="#eeeeec" stroke-linecap="butt" stroke-linejoin="miter" stroke-opacity="1" stroke-width=".715" d="M 551.27848,271.99046 L 610.28477,357.59845" opacity=".6"/><path id="path3585" fill="none" fill-opacity=".75" fill-rule="evenodd" stroke="#eeeeec" stroke-linecap="butt" stroke-linejoin="miter" stroke-opacity="1" stroke-width=".715" d="M 1035.973,271.99046 L 976.96667,357.59845" opacity=".6"/><path id="path3593" fill="none" fill-opacity=".75" fill-rule="evenodd" stroke="#eeeeec" stroke-linecap="butt" stroke-linejoin="miter" stroke-opacity="1" stroke-width=".715" d="M 647.89316,580.04969 C 647.89316,580.04969 719.70575,585.23805 791.84257,585.23805 C 863.97936,585.23805 936.44039,580.04969 936.44039,580.04969" opacity=".6"/><path id="path3595" fill="none" fill-opacity=".75" fill-rule="evenodd" stroke="#000" stroke-linecap="butt" stroke-linejoin="miter" stroke-opacity="1" stroke-width=".715" d="M 748.72258,168.8717 L 836.25937,168.54741"/><text id="text5343" x="201.872" y="653.806" fill="#000" fill-opacity="1" stroke="none" stroke-linecap="butt" stroke-linejoin="miter" stroke-opacity="1" stroke-width="1" font-family="Bitstream Vera Sans" font-size="30.917" font-style="normal" font-weight="bold" xml:space="preserve" style="-inkscape-font-specification:Bitstream Vera Sans Bold"><tspan id="tspan5345" x="201.872" y="653.806">front</tspan></text><text id="text5347" x="759.925" y="653.806" fill="#000" fill-opacity="1" stroke="none" stroke-linecap="butt" stroke-linejoin="miter" stroke-opacity="1" stroke-width="1" font-family="Bitstream Vera Sans" font-size="30.917" font-style="normal" font-weight="bold" xml:space="preserve" style="-inkscape-font-specification:Bitstream Vera Sans Bold"><tspan id="tspan5349" x="759.925" y="653.806">back</tspan></text><path id="path8308" fill="none" fill-rule="evenodd" stroke="#3465a4" stroke-dasharray="none" stroke-linecap="butt" stroke-linejoin="miter" stroke-miterlimit="4" stroke-opacity="1" stroke-width="3"/><path id="path8336" fill="none" fill-rule="evenodd" stroke="#3465a4" stroke-dasharray="none" stroke-linecap="butt" stroke-linejoin="miter" stroke-miterlimit="4" stroke-opacity="1" stroke-width="3"/><path id="path8338" fill="none" fill-rule="evenodd" stroke="#3465a4" stroke-dasharray="none" stroke-linecap="butt" stroke-linejoin="miter" stroke-miterlimit="4" stroke-opacity="1" stroke-width="3"/><path id="path8340" fill="none" fill-rule="evenodd" stroke="#3465a4" stroke-dasharray="none" stroke-linecap="butt" stroke-linejoin="miter" stroke-miterlimit="4" stroke-opacity="1" stroke-width="3"/><path id="path8342" fill="none" fill-rule="evenodd" stroke="#3465a4" stroke-dasharray="none" stroke-linecap="butt" stroke-linejoin="miter" stroke-miterlimit="4" stroke-opacity="1" stroke-width="3"/><g id="g4116" transform="translate(-2.8284271,5.6568542)"><flowRoot id="flowRoot2816-8-2-9" fill="#eeeeec" fill-opacity="1" stroke="none" font-family="Helvetica Neue LT Com" font-size="10" font-stretch="normal" font-style="normal" font-variant="normal" font-weight="900" text-anchor="start" transform="matrix(10.834208,0,0,10.834208,6802.2221,177.8363)" writing-mode="lr-tb" xml:space="preserve" style="text-align:start;line-height:125%;-inkscape-font-specification:Helvetica Neue LT Com Heavy"><flowRegion id="flowRegion2818-4-7-6"><rect id="rect2820-72-6-04" width="25.774" height="10.599" x="-614.286" y="15.219" fill="#eeeeec" font-family="Helvetica Neue LT Com" font-size="10" font-stretch="normal" font-style="normal" font-variant="normal" font-weight="900" text-anchor="start" writing-mode="lr-tb" style="text-align:start;line-height:125%;-inkscape-font-specification:Helvetica Neue LT Com Heavy"/></flowRegion><flowPara id="flowPara2822-4-1-1">FOR</flowPara></flowRoot></g><path id="path6132-3" fill="none" fill-opacity="1" fill-rule="evenodd" stroke="#2e3436" stroke-linecap="butt" stroke-linejoin="miter" stroke-opacity="1" stroke-width=".715" d="m 220.36636,163.94356 c 0,0 12.96838,36.9671 43.44417,37.61565 29.82735,0.64855 44.74103,-37.61565 44.74103,-37.61565"/><path id="path6132-3-1" fill="#000" fill-opacity="1" stroke="none" stroke-linecap="butt" stroke-linejoin="miter" stroke-opacity="1" stroke-width=".715" d="m 220.36636,163.94356 c 0,0 12.96838,36.9671 43.44417,37.61565 29.82735,0.64855 44.74103,-37.61565 44.74103,-37.61565" opacity=".25"/><path id="rect3259-2-8-6-8-7" fill="#fff" fill-opacity="1" stroke="none" stroke-width="2" d="m 223.33703,269.28118 0,45.30763 c 0,13.40893 9.77094,23.82547 18.40619,31.55353 8.63531,7.72806 17.19271,12.94504 17.19271,12.94504 l 3.2362,1.8204 3.4386,-2.02266 c 0,0 8.3773,-5.16229 16.9903,-12.94504 8.6131,-7.78275 18.4063,-18.1195 18.4063,-31.35127 l 0,-45.30763 z" baseline-shift="baseline" color="#bebebe" direction="ltr" display="inline" enable-background="accumulate" font-family="Sans" font-size="medium" font-stretch="normal" font-style="normal" font-variant="normal" font-weight="normal" letter-spacing="normal" overflow="visible" text-anchor="start" text-decoration="none" visibility="visible" word-spacing="normal" writing-mode="lr-tb" style="text-indent:0;text-align:start;line-height:normal;text-transform:none;block-progression:tb;marker:none;-inkscape-font-specification:Sans"/><g id="g15043-8-8" fill="#2e3436" fill-opacity="1" fill-rule="nonzero" stroke="none" transform="matrix(0.43378449,0,0,0.43378449,241.30498,282.84284)"><g id="g15045-2-6" fill="#2e3436" fill-opacity="1"><path id="path15047-5-5" fill="#018094" fill-opacity="1" d="M 86.068,0 C 61.466,0 56.851,35.041 70.691,35.041 84.529,35.041 110.671,0 86.068,0 z"/><path id="path15049-5-9" fill="#018094" fill-opacity="1" d="M 45.217,30.699 C 52.586,31.149 60.671,2.577 46.821,4.374 32.976,6.171 37.845,30.249 45.217,30.699 z"/><path id="path15051-1-5" fill="#018094" fill-opacity="1" d="M 11.445,48.453 C 16.686,46.146 12.12,23.581 3.208,29.735 -5.7,35.89 6.204,50.759 11.445,48.453 z"/><path id="path15053-6-9" fill="#018094" fill-opacity="1" d="M 26.212,36.642 C 32.451,35.37 32.793,9.778 21.667,14.369 10.539,18.961 19.978,37.916 26.212,36.642 l 0,0 z"/><path id="path15055-2-1" fill="#018094" fill-opacity="1" d="m 58.791,93.913 c 1.107,8.454 -6.202,12.629 -13.36,7.179 C 22.644,83.743 83.16,75.088 79.171,51.386 75.86,31.712 15.495,37.769 8.621,68.553 3.968,89.374 27.774,118.26 52.614,118.26 c 12.22,0 26.315,-11.034 28.952,-25.012 C 83.58,82.589 57.867,86.86 58.791,93.913 l 0,0 z"/></g></g></g></svg>