<svg xmlns="http://www.w3.org/2000/svg" xmlns:svg="http://www.w3.org/2000/svg" xmlns:xlink="http://www.w3.org/1999/xlink" id="svg2" width="744.094" height="1052.362" version="1.1" viewBox="0 0 744.094 1052.362"><defs id="defs4"><clipPath id="clipPath12358" clipPathUnits="userSpaceOnUse"><g id="g12360" fill="#fff" fill-opacity="1" fill-rule="nonzero" stroke="none" stroke-miterlimit="4" transform="matrix(0.94706579,0,0,0.94706579,54.391516,20.546588)"><g id="g12362" fill="#fff" fill-opacity="1"><path id="path12364" fill="#fff" fill-opacity="1" d="M 86.068,0 C 61.466,0 56.851,35.041 70.691,35.041 84.529,35.041 110.671,0 86.068,0 Z"/><path id="path12366" fill="#fff" fill-opacity="1" d="M 45.217,30.699 C 52.586,31.149 60.671,2.577 46.821,4.374 32.976,6.171 37.845,30.249 45.217,30.699 Z"/><path id="path12368" fill="#fff" fill-opacity="1" d="M 11.445,48.453 C 16.686,46.146 12.12,23.581 3.208,29.735 -5.7,35.89 6.204,50.759 11.445,48.453 Z"/><path id="path12370" fill="#fff" fill-opacity="1" d="M 26.212,36.642 C 32.451,35.37 32.793,9.778 21.667,14.369 10.539,18.961 19.978,37.916 26.212,36.642 l 0,0 z"/><path id="path12372" fill="#fff" fill-opacity="1" d="m 58.791,93.913 c 1.107,8.454 -6.202,12.629 -13.36,7.179 C 22.644,83.743 83.16,75.088 79.171,51.386 75.86,31.712 15.495,37.769 8.621,68.553 3.968,89.374 27.774,118.26 52.614,118.26 c 12.22,0 26.315,-11.034 28.952,-25.012 C 83.58,82.589 57.867,86.86 58.791,93.913 l 0,0 z"/></g></g></clipPath></defs><metadata id="metadata7"/><g id="layer1"><rect clip-rule="nonzero" style="marker:none" id="rect9474" width="2631.428" height="1302.857" x="-937.143" y="-110.495" fill="#fff" fill-opacity="1" fill-rule="nonzero" stroke="none" stroke-dasharray="none" stroke-dashoffset="0" stroke-linecap="round" stroke-linejoin="round" stroke-miterlimit="4" stroke-opacity="1" stroke-width="1" color="#000" color-interpolation="sRGB" color-interpolation-filters="linearRGB" color-rendering="auto" display="inline" enable-background="accumulate" image-rendering="auto" opacity="1" overflow="visible" rx="1.569" ry="1.569" shape-rendering="auto" text-rendering="auto" visibility="visible"/><rect clip-rule="nonzero" style="marker:none" id="rect6426-9-2" width="745.493" height="1052.579" x="1.254" y="-1.227" fill="#fff" fill-opacity="1" fill-rule="nonzero" stroke="#2e3436" stroke-dasharray="none" stroke-dashoffset="0" stroke-linecap="round" stroke-linejoin="round" stroke-miterlimit="4" stroke-opacity="1" stroke-width="1" color="#000" color-interpolation="sRGB" color-interpolation-filters="linearRGB" color-rendering="auto" display="inline" enable-background="accumulate" image-rendering="auto" opacity="1" overflow="visible" rx="1.569" ry="1.569" shape-rendering="auto" text-rendering="auto" visibility="visible"/><rect clip-rule="nonzero" style="marker:none" id="rect6426" width="745.493" height="1052.579" x="-816.343" y="1.804" fill="#f57900" fill-opacity="1" fill-rule="nonzero" stroke="none" stroke-dasharray="none" stroke-dashoffset="0" stroke-linecap="round" stroke-linejoin="round" stroke-miterlimit="4" stroke-opacity="1" stroke-width="6" color="#000" color-interpolation="sRGB" color-interpolation-filters="linearRGB" color-rendering="auto" display="inline" enable-background="accumulate" image-rendering="auto" opacity="1" overflow="visible" rx="1.569" ry="1.569" shape-rendering="auto" text-rendering="auto" visibility="visible"/><g id="g7232" transform="matrix(1.672937,0,0,1.672937,-1063.9281,8.6088407)"><path id="path15047-7" fill="#eeeeec" fill-opacity="1" fill-rule="nonzero" stroke="none" d="m 301.82534,161.99996 c -18.13111,0 -21.53226,25.82442 -11.3325,25.82442 10.1983,0 29.46434,-25.82442 11.3325,-25.82442 z"/><path id="path15049-2" fill="#eeeeec" fill-opacity="1" fill-rule="nonzero" stroke="none" d="m 271.71909,184.62441 c 5.43079,0.33165 11.38925,-20.72525 1.18213,-19.40089 -10.20345,1.32432 -6.61513,19.06927 -1.18213,19.40089 z"/><path id="path15051-0" fill="#eeeeec" fill-opacity="1" fill-rule="nonzero" stroke="none" d="m 246.82991,197.7087 c 3.86251,-1.70019 0.49746,-18.33007 -6.07047,-13.79473 -6.56498,4.53611 2.20799,15.49422 6.07047,13.79473 z"/><path id="path15053-9" fill="#eeeeec" fill-opacity="1" fill-rule="nonzero" stroke="none" d="m 257.71287,189.00427 c 4.598,-0.93744 4.85005,-19.79815 -3.34957,-16.41468 -8.20107,3.38421 -1.24476,17.35358 3.34957,16.41468 l 0,0 z"/><path id="path15055-1" fill="#eeeeec" fill-opacity="1" fill-rule="nonzero" stroke="none" d="m 281.72284,231.21168 c 0.81582,6.2304 -4.57074,9.30727 -9.84602,5.29077 -16.7935,-12.78583 27.8054,-19.16436 24.8656,-36.63218 -2.44014,-14.4993 -46.92775,-10.03541 -51.99373,12.65168 -3.42915,15.34457 14.11534,36.63291 32.42184,36.63291 9.00586,0 19.39353,-8.13181 21.33695,-18.43328 1.48427,-7.85542 -17.46561,-4.7078 -16.78464,0.4901 l 0,0 z"/><path id="path15059-8" fill="#eeeeec" fill-opacity="1" stroke="none" d="m 394.44212,192.52036 c -4.56579,0.12298 -8.17147,1.76395 -10.82308,4.91102 -2.74597,3.27506 -4.12712,7.80028 -4.12712,13.57134 0,5.75512 1.38123,10.26795 4.12712,13.54297 2.75936,3.27508 6.5479,4.91098 11.38029,4.91098 4.84571,0 8.64375,-1.6359 11.38971,-4.91098 2.74589,-3.27502 4.11769,-7.78785 4.11768,-13.54297 -2e-5,-5.77106 -1.37179,-10.29628 -4.11768,-13.57134 -2.74596,-3.275 -6.54405,-4.91096 -11.38971,-4.91102 -0.18865,0 -0.37161,-0.004 -0.55721,0 z m 0.34,6.64874 c 0.0729,-0.002 0.14318,0 0.21721,0 2.38245,4e-5 4.22855,1.03097 5.5343,3.0977 1.30565,2.0668 1.96437,4.98393 1.96439,8.73592 0,3.73606 -0.65878,6.6314 -1.96439,8.69809 -1.30569,2.06684 -3.1519,3.10714 -5.5343,3.10714 -2.36911,0 -4.20027,-1.0403 -5.50596,-3.10714 -1.30569,-2.06669 -1.96437,-4.96203 -1.96441,-8.69809 0,-3.75197 0.65878,-6.66912 1.96441,-8.73592 1.26482,-2.00213 3.02585,-3.03508 5.28875,-3.0977 z" font-family="Bitstream Vera Sans" font-size="148.7" font-stretch="normal" font-style="normal" font-variant="normal" font-weight="bold" text-anchor="start" writing-mode="lr-tb" style="line-height:125%;text-align:start"/><path id="path15061-7" fill="#eeeeec" fill-opacity="1" stroke="none" d="m 342.86404,226.11817 c -4.02177,3.37747 -10.00534,3.33863 -12.49809,3.33863 -5.02078,0 -8.99834,-1.6534 -11.9327,-4.96024 -2.93442,-3.32274 -4.40156,-7.82191 -4.40156,-13.49759 0,-5.73925 1.49409,-10.2543 4.48232,-13.54525 2.98824,-3.29091 7.08019,-4.93637 12.27597,-4.93639 2.00558,2e-5 3.9237,0.22259 5.75433,0.66772 1.84409,0.44516 3.58051,1.10494 5.20922,1.97931 l -2.09161,6.18357 c -0.91567,-0.50126 -1.96401,-0.99527 -2.93588,-1.34257 -1.65566,-0.55639 -3.318,-0.83463 -4.98708,-0.83465 -3.09595,2e-5 -5.4852,1.02548 -7.16773,3.07631 -1.66912,2.03498 -2.50365,4.9523 -2.50365,8.75195 0,3.7679 0.8076,6.67729 2.42291,8.72815 1.6152,2.05085 4.04266,3.07626 6.88501,3.07626 2.88757,0 4.6761,-0.72785 5.62996,-1.49477 l 0,-6.1602 -6.25585,0 0,-6.1526 12.11443,0" font-family="Bitstream Vera Sans" font-size="148.7" font-stretch="normal" font-style="normal" font-variant="normal" font-weight="bold" text-anchor="start" writing-mode="lr-tb" style="line-height:125%;text-align:start"/><path id="path15063-3" fill="#eeeeec" fill-opacity="1" stroke="none" d="m 348.17742,193.16119 4.90431,0 15.49682,21.39746 0,-21.39746 6.61406,0 0,35.60402 -4.90431,0 -15.49678,-21.39747 0,21.39747 -6.6141,0 0,-35.60402" font-family="Bitstream Vera Sans" font-size="148.7" font-stretch="normal" font-style="normal" font-variant="normal" font-weight="bold" text-anchor="start" writing-mode="lr-tb" style="line-height:125%;text-align:start"/><path id="path15065-5" fill="#eeeeec" fill-opacity="1" stroke="none" d="m 415.60926,193.16119 9.89333,0 6.865,22.22727 6.90519,-22.22727 8.36227,0 3.77769,35.60402 -7.34956,0 -2.26652,-22.26355 -6.94559,22.37033 -4.92658,0 -6.94558,-23.12588 -2.26674,23.0191 -7.3696,0 3.77764,-35.60402" font-family="Bitstream Vera Sans" font-size="148.7" font-stretch="normal" font-style="normal" font-variant="normal" font-weight="bold" text-anchor="start" writing-mode="lr-tb" style="line-height:125%;text-align:start"/><path id="path15067-8" fill="#eeeeec" fill-opacity="1" stroke="none" d="m 456.71765,193.16119 20.97804,0 0,6.93958 -13.20484,0 0,7.38506 10.15088,0 0,6.18403 -10.15088,0 0,8.1558 13.649,0 0,6.93955 -21.4222,0 0,-35.60402" font-family="Bitstream Vera Sans" font-size="148.7" font-stretch="normal" font-style="normal" font-variant="normal" font-weight="bold" text-anchor="start" writing-mode="lr-tb" style="line-height:125%;text-align:start"/><path id="path9048" fill="#eeeeec" fill-opacity="1" stroke="none" d="m 484.57223,186.15274 5.71976,0 0,0.76989 -2.40011,0 0,5.99149 -0.91932,0 0,-5.99149 -2.40033,0 0,-0.76989" font-family="Bitstream Vera Sans" font-size="30.69" font-style="normal" font-weight="normal" letter-spacing=".252"/><path id="path9050" fill="#eeeeec" fill-opacity="1" stroke="none" d="m 491.25598,186.15274 1.36304,0 1.72556,4.60118 1.73452,-4.60118 1.36304,0 0,6.76138 -0.89215,0 0,-5.93713 -1.74352,4.6374 -0.91931,0 -1.74349,-4.6374 0,5.93713 -0.88769,0 0,-6.76138" font-family="Bitstream Vera Sans" font-size="30.69" font-style="normal" font-weight="normal" letter-spacing=".252"/></g><g id="g7312" fill="#87a4b1" fill-opacity="1" transform="matrix(0.76175044,0,0,0.76175044,-197.87485,111.99647)"><path font-style="normal" style="line-height:125%;-inkscape-font-specification:'Cantarell Bold';text-align:start" id="path8946" fill="#87a4b1" fill-opacity="1" stroke="none" d="m 380.95721,500.40004 0,-23.27793 -25.8099,0 0,8.82111 15.927,0 0,10.86303 c -2.45031,1.96025 -6.0441,3.34876 -10.78136,3.34876 -12.25153,0 -21.07265,-8.41274 -21.07265,-20.1742 0,-12.08818 9.63789,-19.19408 19.76582,-19.19408 5.71738,0 11.18974,2.04192 14.29346,3.67546 l 1.47019,0.81677 4.16552,-7.92266 -1.38851,-0.81677 c -4.81893,-2.69534 -11.3531,-4.98229 -18.94904,-4.98229 -19.03071,0 -29.48537,13.96677 -29.48537,28.83195 0,13.96674 9.31119,29.07699 29.64872,29.07699 13.64003,0 20.09253,-6.77919 22.21612,-9.06614" font-family="Cantarell" font-size="81.677" font-stretch="normal" font-variant="normal" font-weight="bold" letter-spacing="0" text-anchor="start" word-spacing="0" writing-mode="lr-tb"/><path font-style="normal" style="line-height:125%;-inkscape-font-specification:'Cantarell Bold';text-align:start" id="path8948" fill="#87a4b1" fill-opacity="1" stroke="none" d="m 416.47519,509.46618 c 22.2161,0 23.19625,-14.37515 23.19625,-21.236 0,-3.67546 -0.0817,-4e-5 -0.0817,-36.26456 l -9.96458,0 0,35.93785 c 0,1.71521 -0.16336,3.34875 -0.57174,4.81894 -1.22515,4.90061 -5.88075,7.59595 -12.57825,7.59595 -6.53415,0 -9.63788,-2.61366 -10.618,-3.67546 -2.28695,-2.45031 -2.53198,-5.309 -2.53198,-8.73943 l 0,-35.93785 -10.04627,0 0,36.83629 0,0.49007 c 0,6.28911 0.32674,20.1742 23.19625,20.1742" font-family="Cantarell" font-size="81.677" font-stretch="normal" font-variant="normal" font-weight="bold" letter-spacing="0" text-anchor="start" word-spacing="0" writing-mode="lr-tb"/><path font-style="normal" style="line-height:125%;-inkscape-font-specification:'Cantarell Bold';text-align:start" id="path8950" fill="#87a4b1" fill-opacity="1" stroke="none" d="m 469.0356,451.96562 -21.15435,56.68379 9.80123,0 5.63571,-14.8652 20.82761,0 5.7174,14.8652 10.373,0 -21.236,-56.68379 -9.9646,0 m 11.9248,32.67077 -14.4568,0 7.2692,-21.07265 7.1876,21.07265" font-family="Cantarell" font-size="81.677" font-stretch="normal" font-variant="normal" font-weight="bold" letter-spacing="0" text-anchor="start" word-spacing="0" writing-mode="lr-tb"/><path font-style="normal" style="line-height:125%;-inkscape-font-specification:'Cantarell Bold';text-align:start" id="path8952" fill="#87a4b1" fill-opacity="1" stroke="none" d="m 527.7319,461.19511 c 1.7152,0 3.3488,0.0817 4.9006,0.32671 6.7792,1.0618 14.7836,6.37081 14.7836,18.45899 0,5.30899 -1.4702,8.73943 -2.4503,10.618 -4.6556,8.57607 -13.7218,8.82111 -19.9292,8.82111 l -6.5342,0 0,-38.22481 9.2295,0 m -0.245,-9.22949 -19.0307,0 0,56.68379 14.1301,0 c 4.7372,0 9.7195,0 14.5385,-1.22516 15.7636,-3.75713 20.3375,-17.23384 20.3375,-28.75027 0,-12.49656 -6.5342,-26.70836 -29.9754,-26.70836" font-family="Cantarell" font-size="81.677" font-stretch="normal" font-variant="normal" font-weight="bold" letter-spacing="0" text-anchor="start" word-spacing="0" writing-mode="lr-tb"/><path font-style="normal" style="line-height:125%;-inkscape-font-specification:'Cantarell Bold';text-align:start" id="path8954" fill="#87a4b1" fill-opacity="1" stroke="none" d="m 568.1186,508.64941 37.6531,0 0,-9.22949 -27.6068,0 0,-15.35527 25.4832,0 0,-9.22949 -25.4832,0 0,-13.64005 27.6068,0 0,-9.22949 -37.6531,0 0,56.68379" font-family="Cantarell" font-size="81.677" font-stretch="normal" font-variant="normal" font-weight="bold" letter-spacing="0" text-anchor="start" word-spacing="0" writing-mode="lr-tb"/><path font-style="normal" style="line-height:125%;-inkscape-font-specification:'Cantarell Bold';text-align:start" id="path8956" fill="#87a4b1" fill-opacity="1" stroke="none" d="m 643.1044,451.55724 c -18.3773,0 -30.0571,12.49658 -30.0571,28.83195 0,16.09034 11.1897,29.07699 29.567,29.07699 5.2274,0 11.3531,-1.22516 17.3155,-3.75714 l 1.4702,-0.57174 -3.267,-8.00434 -1.4702,0.49006 c -4.4106,1.55186 -8.6578,2.36863 -12.2516,2.36863 -13.2316,0 -21.236,-9.14782 -21.236,-19.68414 0,-10.2096 7.4326,-19.4391 19.7658,-19.4391 2.532,0 6.6976,0.32671 12.9867,2.53198 l 1.5518,0.57174 3.1038,-8.65775 -1.4702,-0.57174 c -5.9624,-2.36863 -11.5982,-3.1854 -16.0087,-3.1854" font-family="Cantarell" font-size="81.677" font-stretch="normal" font-variant="normal" font-weight="bold" letter-spacing="0" text-anchor="start" word-spacing="0" writing-mode="lr-tb"/></g><image id="image7407" width="221.879" height="91.256" x="434.573" y="435.948" image-rendering="optimizeSpeed" preserveAspectRatio="none" xlink:href="file:///home/andreasn/Pictures/Screenshot%20from%202015-11-04%2014-23-23.png"/><flowRoot id="flowRoot7410" fill="#000" fill-opacity="1" stroke="none" stroke-linecap="butt" stroke-linejoin="miter" stroke-opacity="1" stroke-width="1" font-family="Sans" font-size="18" font-style="normal" font-weight="normal" letter-spacing="0" transform="translate(-20.705644,47.672132)" word-spacing="0" xml:space="preserve" style="line-height:125%"><flowRegion id="flowRegion7412"><rect id="rect7414" width="267.69" height="77.782" x="60.609" y="497.788"/></flowRegion><flowPara id="flowPara7416">Karlsruhe, Germany</flowPara></flowRoot><flowRoot id="flowRoot7410-6" fill="#000" fill-opacity="1" stroke="none" stroke-linecap="butt" stroke-linejoin="miter" stroke-opacity="1" stroke-width="1" font-family="Sans" font-size="18" font-style="normal" font-weight="normal" letter-spacing="0" transform="translate(332.1516,50.529274)" word-spacing="0" xml:space="preserve" style="line-height:125%"><flowRegion id="flowRegion7412-2"><rect id="rect7414-4" width="267.69" height="77.782" x="60.609" y="497.788"/></flowRegion><flowPara id="flowPara7416-0">New Delhi, India</flowPara></flowRoot><text id="text7228-7" x="-642.711" y="519.841" fill="#fff" fill-opacity="1" stroke="none" stroke-linecap="butt" stroke-linejoin="miter" stroke-opacity="1" stroke-width="1" font-family="Sans" font-size="44.633" font-style="normal" font-weight="normal" letter-spacing="0" word-spacing="0" xml:space="preserve" style="line-height:125%"><tspan id="tspan7230-0" x="-642.711" y="519.841">Conferences 2016</tspan></text><path id="rect10004-8-31" fill="#ecedea" fill-opacity="1" fill-rule="nonzero" stroke="none" stroke-width="1" d="m -389.94247,910.36011 0,71.2343 -71.23432,0 z" color="#000" display="inline" enable-background="accumulate" opacity=".108" overflow="visible" visibility="visible" style="marker:none"/><path id="rect10004-0-3" fill="#f7f7f7" fill-opacity="1" fill-rule="nonzero" stroke="none" stroke-width="1" d="m -531.19899,910.36011 0,71.2343 71.2343,0 z" color="#000" display="inline" enable-background="accumulate" opacity=".108" overflow="visible" visibility="visible" style="marker:none"/><path id="rect10004-8-4-9" fill="#ecedea" fill-opacity="1" fill-rule="nonzero" stroke="none" stroke-width="1" d="m -531.45999,910.36011 0,71.2343 -71.234,0 z" color="#000" display="inline" enable-background="accumulate" opacity=".108" overflow="visible" visibility="visible" style="marker:none"/><path id="rect10004-8-8-9-7" fill="#ecedea" fill-opacity="1" fill-rule="nonzero" stroke="none" stroke-width="1" d="m -531.45999,981.33361 0,71.23409 -71.234,0 z" color="#000" display="inline" enable-background="accumulate" opacity=".108" overflow="visible" visibility="visible" style="marker:none"/><path id="rect10004-9-2" fill="#f7f7f7" fill-opacity="1" fill-rule="nonzero" stroke="none" stroke-width="1" d="m -318.44707,840.07701 0,-71.2344 -71.2346,0 z" color="#000" display="inline" enable-background="accumulate" opacity=".108" overflow="visible" visibility="visible" style="marker:none"/><path id="rect10004-8-8-3-1" fill="#f7f7f7" fill-opacity="1" fill-rule="nonzero" stroke="none" stroke-width="1" d="m -461.17679,911.05041 0,-71.2344 71.23432,0 z" color="#000" display="inline" enable-background="accumulate" opacity=".108" overflow="visible" visibility="visible" style="marker:none"/><path id="rect10004-0-8-7" fill="#f7f7f7" fill-opacity="1" fill-rule="nonzero" stroke="none" stroke-width="1" d="m -531.19899,840.07701 0,-71.2344 71.2343,0 z" color="#000" display="inline" enable-background="accumulate" opacity=".108" overflow="visible" visibility="visible" style="marker:none"/><path id="rect10004-8-8-9-4-4" fill="#ecedea" fill-opacity="1" fill-rule="nonzero" stroke="none" stroke-width="1" d="m -531.45999,839.81601 0,71.2344 -71.234,0 z" color="#000" display="inline" enable-background="accumulate" opacity=".108" overflow="visible" visibility="visible" style="marker:none"/><path id="rect10004-4-04-1" fill="#ecedea" fill-opacity="1" fill-rule="nonzero" stroke="none" stroke-width="1" d="m -603.54159,910.36011 0,71.2343 -71.2343,0 z" color="#000" display="inline" enable-background="accumulate" opacity=".108" overflow="visible" visibility="visible" style="marker:none"/><path id="rect10004-3-4-9-3" fill="#f7f7f7" fill-opacity="1" fill-rule="nonzero" stroke="none" stroke-width="1" d="m -603.54159,1052.5677 0,-71.23409 -71.2343,0 z" color="#000" display="inline" enable-background="accumulate" opacity=".108" overflow="visible" visibility="visible" style="marker:none"/><path id="rect10004-8-8-7-50-9" fill="#ecedea" fill-opacity="1" fill-rule="nonzero" stroke="none" stroke-width="1" d="m -675.03689,981.33361 0,71.23409 -71.2345,0 z" color="#000" display="inline" enable-background="accumulate" opacity=".108" overflow="visible" visibility="visible" style="marker:none"/><path id="rect10004-0-0-7-6" fill="#f7f7f7" fill-opacity="1" fill-rule="nonzero" stroke="none" stroke-width="1" d="m -816.29349,981.59441 0,-71.2343 71.2343,0 z" color="#000" display="inline" enable-background="accumulate" opacity=".108" overflow="visible" visibility="visible" style="marker:none"/><path id="rect10004-3-8-1-11-4" fill="#ecedea" fill-opacity="1" fill-rule="nonzero" stroke="none" stroke-width="1" d="m -745.05919,981.33361 0,71.23409 -71.2343,0 z" color="#000" display="inline" enable-background="accumulate" opacity=".108" overflow="visible" visibility="visible" style="marker:none"/><path id="rect10004-9-0-59-4" fill="#f7f7f7" fill-opacity="1" fill-rule="nonzero" stroke="none" stroke-width="1" d="m -603.54159,768.84261 0,71.2344 -71.2343,0 z" color="#000" display="inline" enable-background="accumulate" opacity=".108" overflow="visible" visibility="visible" style="marker:none"/><path id="rect10004-3-5-1-4-3" fill="#f7f7f7" fill-opacity="1" fill-rule="nonzero" stroke="none" stroke-width="1" d="m -603.54159,839.81601 0,71.2344 -71.2343,0 z" color="#000" display="inline" enable-background="accumulate" opacity=".108" overflow="visible" visibility="visible" style="marker:none"/><path id="rect10004-8-8-3-5-1-9" fill="#ecedea" fill-opacity="1" fill-rule="nonzero" stroke="none" stroke-width="1" d="m -675.03689,839.81601 0,71.2344 -71.2345,0 z" color="#000" display="inline" enable-background="accumulate" opacity=".108" overflow="visible" visibility="visible" style="marker:none"/><path id="rect10004-3-8-4-4-7-9" fill="#ecedea" fill-opacity="1" fill-rule="nonzero" stroke="none" stroke-width="1" d="m -816.29349,839.81601 0,71.2344 71.2343,0 z" color="#000" display="inline" enable-background="accumulate" opacity=".108" overflow="visible" visibility="visible" style="marker:none"/><path id="rect10004-8-31-5" fill="#f7f7f7" fill-opacity="1" fill-rule="nonzero" stroke="none" stroke-width="1" d="m -315.17677,765.59441 0,-71.2343 71.2343,0 z" color="#000" display="inline" enable-background="accumulate" opacity=".108" overflow="visible" visibility="visible" style="marker:none"/><path id="rect10004-8-8-3-1-9" fill="#ecedea" fill-opacity="1" fill-rule="nonzero" stroke="none" stroke-width="1" d="m -243.94247,623.81601 0,71.2344 -71.2343,0 z" color="#000" display="inline" enable-background="accumulate" opacity=".108" overflow="visible" visibility="visible" style="marker:none"/><path id="rect10004-4-6-7-3" fill="#f7f7f7" fill-opacity="1" fill-rule="nonzero" stroke="none" stroke-width="1" d="m -603.55809,71.272124 0,71.234366 -71.2341,0 z" color="#000" display="inline" enable-background="accumulate" opacity=".108" overflow="visible" visibility="visible" style="marker:none"/><path id="rect10004-0-0-0-1-0" fill="#f7f7f7" fill-opacity="1" fill-rule="nonzero" stroke="none" stroke-width="1" d="m -745.07559,142.50649 0,-71.234366 -71.2342,0 z" color="#000" display="inline" enable-background="accumulate" opacity=".108" overflow="visible" visibility="visible" style="marker:none"/><path id="rect10004-3-8-1-7-3-9" fill="#f7f7f7" fill-opacity="1" fill-rule="nonzero" stroke="none" stroke-width="1" d="m -745.07559,142.24556 0,71.23433 -71.2342,0 z" color="#000" display="inline" enable-background="accumulate" opacity=".108" overflow="visible" visibility="visible" style="marker:none"/><path id="rect10004-8-8-3-5-4-7-7" fill="#f7f7f7" fill-opacity="1" fill-rule="nonzero" stroke="none" stroke-width="1" d="m -675.05339,0.728094 0,71.23437 -71.2342,0 z" color="#000" display="inline" enable-background="accumulate" opacity=".108" overflow="visible" visibility="visible" style="marker:none"/><path id="rect10004-3-8-4-4-6-9-5" fill="#f7f7f7" fill-opacity="1" fill-rule="nonzero" stroke="none" stroke-width="1" d="m -745.07559,0.728094 0,71.23437 -71.2342,0 z" color="#000" display="inline" enable-background="accumulate" opacity=".108" overflow="visible" visibility="visible" style="marker:none"/><rect clip-rule="nonzero" style="marker:none" id="rect7678" width="745.493" height="406.081" x="2.02" y="1.804" fill="#babdb6" fill-opacity="1" fill-rule="nonzero" stroke="none" stroke-dasharray="none" stroke-dashoffset="0" stroke-linecap="round" stroke-linejoin="round" stroke-miterlimit="4" stroke-opacity="1" stroke-width="6" color="#000" color-interpolation="sRGB" color-interpolation-filters="linearRGB" color-rendering="auto" display="inline" enable-background="accumulate" image-rendering="auto" opacity="1" overflow="visible" rx="1.569" ry="1.569" shape-rendering="auto" text-rendering="auto" visibility="visible"/><flowRoot id="flowRoot7680" fill="#000" fill-opacity="1" stroke="none" stroke-linecap="butt" stroke-linejoin="miter" stroke-opacity="1" stroke-width="1" font-family="Sans" font-size="18" font-style="normal" font-weight="normal" letter-spacing="0" transform="matrix(0.89537111,0,0,0.89537111,15.224948,151.24958)" word-spacing="0" xml:space="preserve" style="line-height:125%"><flowRegion id="flowRegion7682"><rect id="rect7684" width="354.968" height="518.316" x="28.284" y="474.555"/></flowRegion><flowPara id="flowPara8719" font-size="15.357">GUADEC is the GNOME&apos;s primary annual event, and brings developers, enthusiasts, leaders, governments and businesses together from all over the world.</flowPara><flowPara id="flowPara8721" font-size="15.357"/><flowPara id="flowPara8729" font-size="15.357">On average, GUADEC has 200 attendees each year. This includes a wide range of participants, including representatives from key open source projects, including systemd, the Linux kernel, xorg, Wayland, PulseAudio, and more.</flowPara><flowPara id="flowPara8733" font-size="15.357"/><flowPara id="flowPara8735" font-size="15.357">GUADEC typically takes place over six days, with</flowPara><flowPara id="flowPara8745" font-size="15.357">three days of talks, followed by three days of hack days. It has a strong social media and web presence, and also incorpates social events. Past events have included outreach events with local businesses and government agencies.</flowPara><flowPara id="flowPara8747" font-size="15.357"/><flowPara id="flowPara8749" font-size="15.357">In 2016, GUADEC is being held in Karlsruhe,</flowPara><flowPara id="flowPara8757" font-size="15.357">Germany. The city hosts 4 higher education institutes offering computer science related degrees. It has a strong traditions in science and technology, as well as arts and design.</flowPara></flowRoot><flowRoot id="flowRoot7680-8" fill="#000" fill-opacity="1" stroke="none" stroke-linecap="butt" stroke-linejoin="miter" stroke-opacity="1" stroke-width="1" font-family="Sans" font-size="18" font-style="normal" font-weight="normal" letter-spacing="0" transform="translate(370.62235,100)" word-spacing="0" xml:space="preserve" style="line-height:125%"><flowRegion id="flowRegion7682-4"><rect id="rect7684-9" width="315.423" height="475.22" x="28.284" y="474.555"/></flowRegion><flowPara id="flowPara9102" font-size="13.75">GNOME.Asia Summit is the GNOME project&apos;s annual conference in Asia. It brings together open source developers, business representatives and enthusiasts from Asia, and has been steadily growing in size.</flowPara><flowPara id="flowPara9104" font-size="13.75"/><flowPara id="flowPara9114" font-size="13.75">The event is located in a different city each year. In the past, it has been held in Beijing (China), HoChiMinh (Vietnam), Taipei (Taiwan), Bangalore (India), Hong Kong, and Seoul (Korea) and Depok (Indonesia).</flowPara><flowPara id="flowPara9116" font-size="13.75"/><flowPara id="flowPara9124" font-size="13.75">GNOME.Asia summit 2015 attracted more than 322 attendees, including 48 speakers from all over the world. There was a booth area with 10 booths from sponsors and communities.</flowPara><flowPara id="flowPara9126" font-size="13.75"/><flowPara id="flowPara9134" font-size="13.75">In 2016, GNOME.Asia will be held in New Delhi, India, at the Manav Rachna International University (MRIU). This huge city, with its growing IT sector, promises to provide excellent exposure for the event.</flowPara></flowRoot><text id="text9188" x="325.269" y="203.834" fill="#000" fill-opacity="1" stroke="none" stroke-linecap="butt" stroke-linejoin="miter" stroke-opacity="1" stroke-width="1" font-family="Sans" font-size="18" font-style="normal" font-weight="normal" letter-spacing="0" word-spacing="0" xml:space="preserve" style="line-height:125%"><tspan id="tspan9190" x="325.269" y="203.834">photo</tspan></text><rect clip-rule="nonzero" style="marker:none" id="rect6426-9" width="745.493" height="1052.579" x="821.254" y="-1.227" fill="#fff" fill-opacity="1" fill-rule="nonzero" stroke="#2e3436" stroke-dasharray="none" stroke-dashoffset="0" stroke-linecap="round" stroke-linejoin="round" stroke-miterlimit="4" stroke-opacity="1" stroke-width="1" color="#000" color-interpolation="sRGB" color-interpolation-filters="linearRGB" color-rendering="auto" display="inline" enable-background="accumulate" image-rendering="auto" opacity="1" overflow="visible" rx="1.569" ry="1.569" shape-rendering="auto" text-rendering="auto" visibility="visible"/><image id="image9269" width="620" height="318" x="886.021" y="713.555" image-rendering="optimizeSpeed" preserveAspectRatio="none" xlink:href="file:///home/andreasn/Pictures/Screenshot%20from%202015-11-04%2014-50-31.png"/><rect clip-rule="nonzero" style="marker:none" id="rect7678-9" width="486.893" height="381.936" x="822.968" y="-1.515" fill="#babdb6" fill-opacity="1" fill-rule="nonzero" stroke="none" stroke-dasharray="none" stroke-dashoffset="0" stroke-linecap="round" stroke-linejoin="round" stroke-miterlimit="4" stroke-opacity="1" stroke-width="6" color="#000" color-interpolation="sRGB" color-interpolation-filters="linearRGB" color-rendering="auto" display="inline" enable-background="accumulate" image-rendering="auto" opacity="1" overflow="visible" rx="1.569" ry="1.569" shape-rendering="auto" text-rendering="auto" visibility="visible"/><text id="text9188-4" x="1039.141" y="220.718" fill="#000" fill-opacity="1" stroke="none" stroke-linecap="butt" stroke-linejoin="miter" stroke-opacity="1" stroke-width="1" font-family="Sans" font-size="18" font-style="normal" font-weight="normal" letter-spacing="0" word-spacing="0" xml:space="preserve" style="line-height:125%"><tspan id="tspan9190-1" x="1039.141" y="220.718">photo</tspan></text><rect clip-rule="nonzero" style="marker:none" id="rect7678-9-6" width="250.518" height="218.291" x="1313.902" y="-1.515" fill="#babdb6" fill-opacity="1" fill-rule="nonzero" stroke="none" stroke-dasharray="none" stroke-dashoffset="0" stroke-linecap="round" stroke-linejoin="round" stroke-miterlimit="4" stroke-opacity="1" stroke-width="6" color="#000" color-interpolation="sRGB" color-interpolation-filters="linearRGB" color-rendering="auto" display="inline" enable-background="accumulate" image-rendering="auto" opacity="1" overflow="visible" rx="1.569" ry="1.569" shape-rendering="auto" text-rendering="auto" visibility="visible"/><rect clip-rule="nonzero" style="marker:none" id="rect7678-9-6-9" width="250.518" height="159.703" x="1313.902" y="218.485" fill="#babdb6" fill-opacity="1" fill-rule="nonzero" stroke="none" stroke-dasharray="none" stroke-dashoffset="0" stroke-linecap="round" stroke-linejoin="round" stroke-miterlimit="4" stroke-opacity="1" stroke-width="6" color="#000" color-interpolation="sRGB" color-interpolation-filters="linearRGB" color-rendering="auto" display="inline" enable-background="accumulate" image-rendering="auto" opacity="1" overflow="visible" rx="1.569" ry="1.569" shape-rendering="auto" text-rendering="auto" visibility="visible"/><rect clip-rule="nonzero" style="marker:none" id="rect7678-9-6-9-0" width="453.066" height="276.88" x="1110.65" y="384.602" fill="#babdb6" fill-opacity="1" fill-rule="nonzero" stroke="none" stroke-dasharray="none" stroke-dashoffset="0" stroke-linecap="round" stroke-linejoin="round" stroke-miterlimit="4" stroke-opacity="1" stroke-width="6" color="#000" color-interpolation="sRGB" color-interpolation-filters="linearRGB" color-rendering="auto" display="inline" enable-background="accumulate" image-rendering="auto" opacity="1" overflow="visible" rx="1.569" ry="1.569" shape-rendering="auto" text-rendering="auto" visibility="visible"/><rect clip-rule="nonzero" style="marker:none" id="rect7678-9-6-5" width="284.863" height="275.87" x="820.244" y="385.612" fill="#babdb6" fill-opacity="1" fill-rule="nonzero" stroke="none" stroke-dasharray="none" stroke-dashoffset="0" stroke-linecap="round" stroke-linejoin="round" stroke-miterlimit="4" stroke-opacity="1" stroke-width="6" color="#000" color-interpolation="sRGB" color-interpolation-filters="linearRGB" color-rendering="auto" display="inline" enable-background="accumulate" image-rendering="auto" opacity="1" overflow="visible" rx="1.569" ry="1.569" shape-rendering="auto" text-rendering="auto" visibility="visible"/><text id="text9188-4-8" x="1414.185" y="111.825" fill="#000" fill-opacity="1" stroke="none" stroke-linecap="butt" stroke-linejoin="miter" stroke-opacity="1" stroke-width="1" font-family="Sans" font-size="18" font-style="normal" font-weight="normal" letter-spacing="0" word-spacing="0" xml:space="preserve" style="line-height:125%"><tspan id="tspan9190-1-5" x="1414.185" y="111.825">photo</tspan></text><text id="text9188-4-8-1" x="1412.368" y="297.886" fill="#000" fill-opacity="1" stroke="none" stroke-linecap="butt" stroke-linejoin="miter" stroke-opacity="1" stroke-width="1" font-family="Sans" font-size="18" font-style="normal" font-weight="normal" letter-spacing="0" word-spacing="0" xml:space="preserve" style="line-height:125%"><tspan id="tspan9190-1-5-6" x="1412.368" y="297.886">photo</tspan></text><text id="text9188-4-8-1-5" x="1309.129" y="530.028" fill="#000" fill-opacity="1" stroke="none" stroke-linecap="butt" stroke-linejoin="miter" stroke-opacity="1" stroke-width="1" font-family="Sans" font-size="18" font-style="normal" font-weight="normal" letter-spacing="0" word-spacing="0" xml:space="preserve" style="line-height:125%"><tspan id="tspan9190-1-5-6-1" x="1309.129" y="530.028">photo</tspan></text><text id="text9188-4-8-1-5-2" x="931.332" y="538.11" fill="#000" fill-opacity="1" stroke="none" stroke-linecap="butt" stroke-linejoin="miter" stroke-opacity="1" stroke-width="1" font-family="Sans" font-size="18" font-style="normal" font-weight="normal" letter-spacing="0" word-spacing="0" xml:space="preserve" style="line-height:125%"><tspan id="tspan9190-1-5-6-1-2" x="931.332" y="538.11">photo</tspan></text></g></svg>