<svg xmlns="http://www.w3.org/2000/svg" xmlns:svg="http://www.w3.org/2000/svg" id="svg4414" width="1280" height="1656.469" version="1.1" viewBox="0 0 1200 1552.94"><metadata id="metadata4419"/><g id="layer1" transform="translate(-881.78577,-769.49377)"><rect clip-rule="nonzero" style="marker:none" id="rect6426" width="1200" height="1552.94" x="881.786" y="769.494" fill="#f57900" fill-opacity="1" fill-rule="nonzero" stroke="none" stroke-dasharray="none" stroke-dashoffset="0" stroke-linecap="round" stroke-linejoin="round" stroke-miterlimit="4" stroke-opacity="1" stroke-width="6" color="#000" color-interpolation="sRGB" color-interpolation-filters="linearRGB" color-rendering="auto" display="inline" enable-background="accumulate" image-rendering="auto" opacity="1" overflow="visible" rx="1.569" ry="1.569" shape-rendering="auto" text-rendering="auto" visibility="visible"/><g id="g3374" transform="translate(0,-1.7989845)"><g id="g3494" transform="matrix(1.6107383,0,0,1.6107383,2196.7002,770.11999)"><path id="rect10004-4-6-7-3" fill="#f7f7f7" fill-opacity="1" fill-rule="nonzero" stroke="none" stroke-width="1" d="m -603.55809,71.272124 0,71.234366 -71.2341,0 z" color="#000" display="inline" enable-background="accumulate" opacity=".108" overflow="visible" visibility="visible" style="marker:none"/><path id="rect10004-0-0-0-1-0" fill="#f7f7f7" fill-opacity="1" fill-rule="nonzero" stroke="none" stroke-width="1" d="m -745.07559,142.50649 0,-71.234366 -71.2342,0 z" color="#000" display="inline" enable-background="accumulate" opacity=".108" overflow="visible" visibility="visible" style="marker:none"/><path id="rect10004-3-8-1-7-3-9" fill="#f7f7f7" fill-opacity="1" fill-rule="nonzero" stroke="none" stroke-width="1" d="m -745.07559,142.24556 0,71.23433 -71.2342,0 z" color="#000" display="inline" enable-background="accumulate" opacity=".108" overflow="visible" visibility="visible" style="marker:none"/><path id="rect10004-8-8-3-5-4-7-7" fill="#f7f7f7" fill-opacity="1" fill-rule="nonzero" stroke="none" stroke-width="1" d="m -675.05339,0.728094 0,71.23437 -71.2342,0 z" color="#000" display="inline" enable-background="accumulate" opacity=".108" overflow="visible" visibility="visible" style="marker:none"/><path id="rect10004-3-8-4-4-6-9-5" fill="#f7f7f7" fill-opacity="1" fill-rule="nonzero" stroke="none" stroke-width="1" d="m -745.07559,0.728094 0,71.23437 -71.2342,0 z" color="#000" display="inline" enable-background="accumulate" opacity=".108" overflow="visible" visibility="visible" style="marker:none"/></g></g><g id="g7232" transform="matrix(2.6946637,0,0,2.6946637,482.9904,741.05309)"><path id="path15047-7" fill="#fff" fill-opacity="1" fill-rule="nonzero" stroke="none" d="m 301.82534,161.99996 c -18.13111,0 -21.53226,25.82442 -11.3325,25.82442 10.1983,0 29.46434,-25.82442 11.3325,-25.82442 z"/><path id="path15049-2" fill="#fff" fill-opacity="1" fill-rule="nonzero" stroke="none" d="m 271.71909,184.62441 c 5.43079,0.33165 11.38925,-20.72525 1.18213,-19.40089 -10.20345,1.32432 -6.61513,19.06927 -1.18213,19.40089 z"/><path id="path15051-0" fill="#fff" fill-opacity="1" fill-rule="nonzero" stroke="none" d="m 246.82991,197.7087 c 3.86251,-1.70019 0.49746,-18.33007 -6.07047,-13.79473 -6.56498,4.53611 2.20799,15.49422 6.07047,13.79473 z"/><path id="path15053-9" fill="#fff" fill-opacity="1" fill-rule="nonzero" stroke="none" d="m 257.71287,189.00427 c 4.598,-0.93744 4.85005,-19.79815 -3.34957,-16.41468 -8.20107,3.38421 -1.24476,17.35358 3.34957,16.41468 l 0,0 z"/><path id="path15055-1" fill="#fff" fill-opacity="1" fill-rule="nonzero" stroke="none" d="m 281.72284,231.21168 c 0.81582,6.2304 -4.57074,9.30727 -9.84602,5.29077 -16.7935,-12.78583 27.8054,-19.16436 24.8656,-36.63218 -2.44014,-14.4993 -46.92775,-10.03541 -51.99373,12.65168 -3.42915,15.34457 14.11534,36.63291 32.42184,36.63291 9.00586,0 19.39353,-8.13181 21.33695,-18.43328 1.48427,-7.85542 -17.46561,-4.7078 -16.78464,0.4901 l 0,0 z"/><path id="path15059-8" fill="#fff" fill-opacity="1" stroke="none" d="m 394.44212,192.52036 c -4.56579,0.12298 -8.17147,1.76395 -10.82308,4.91102 -2.74597,3.27506 -4.12712,7.80028 -4.12712,13.57134 0,5.75512 1.38123,10.26795 4.12712,13.54297 2.75936,3.27508 6.5479,4.91098 11.38029,4.91098 4.84571,0 8.64375,-1.6359 11.38971,-4.91098 2.74589,-3.27502 4.11769,-7.78785 4.11768,-13.54297 -2e-5,-5.77106 -1.37179,-10.29628 -4.11768,-13.57134 -2.74596,-3.275 -6.54405,-4.91096 -11.38971,-4.91102 -0.18865,0 -0.37161,-0.004 -0.55721,0 z m 0.34,6.64874 c 0.0729,-0.002 0.14318,0 0.21721,0 2.38245,4e-5 4.22855,1.03097 5.5343,3.0977 1.30565,2.0668 1.96437,4.98393 1.96439,8.73592 0,3.73606 -0.65878,6.6314 -1.96439,8.69809 -1.30569,2.06684 -3.1519,3.10714 -5.5343,3.10714 -2.36911,0 -4.20027,-1.0403 -5.50596,-3.10714 -1.30569,-2.06669 -1.96437,-4.96203 -1.96441,-8.69809 0,-3.75197 0.65878,-6.66912 1.96441,-8.73592 1.26482,-2.00213 3.02585,-3.03508 5.28875,-3.0977 z" font-family="Bitstream Vera Sans" font-size="148.7" font-stretch="normal" font-style="normal" font-variant="normal" font-weight="bold" text-anchor="start" writing-mode="lr-tb" style="line-height:125%;text-align:start"/><path id="path15061-7" fill="#fff" fill-opacity="1" stroke="none" d="m 342.86404,226.11817 c -4.02177,3.37747 -10.00534,3.33863 -12.49809,3.33863 -5.02078,0 -8.99834,-1.6534 -11.9327,-4.96024 -2.93442,-3.32274 -4.40156,-7.82191 -4.40156,-13.49759 0,-5.73925 1.49409,-10.2543 4.48232,-13.54525 2.98824,-3.29091 7.08019,-4.93637 12.27597,-4.93639 2.00558,2e-5 3.9237,0.22259 5.75433,0.66772 1.84409,0.44516 3.58051,1.10494 5.20922,1.97931 l -2.09161,6.18357 c -0.91567,-0.50126 -1.96401,-0.99527 -2.93588,-1.34257 -1.65566,-0.55639 -3.318,-0.83463 -4.98708,-0.83465 -3.09595,2e-5 -5.4852,1.02548 -7.16773,3.07631 -1.66912,2.03498 -2.50365,4.9523 -2.50365,8.75195 0,3.7679 0.8076,6.67729 2.42291,8.72815 1.6152,2.05085 4.04266,3.07626 6.88501,3.07626 2.88757,0 4.6761,-0.72785 5.62996,-1.49477 l 0,-6.1602 -6.25585,0 0,-6.1526 12.11443,0" font-family="Bitstream Vera Sans" font-size="148.7" font-stretch="normal" font-style="normal" font-variant="normal" font-weight="bold" text-anchor="start" writing-mode="lr-tb" style="line-height:125%;text-align:start"/><path id="path15063-3" fill="#fff" fill-opacity="1" stroke="none" d="m 348.17742,193.16119 4.90431,0 15.49682,21.39746 0,-21.39746 6.61406,0 0,35.60402 -4.90431,0 -15.49678,-21.39747 0,21.39747 -6.6141,0 0,-35.60402" font-family="Bitstream Vera Sans" font-size="148.7" font-stretch="normal" font-style="normal" font-variant="normal" font-weight="bold" text-anchor="start" writing-mode="lr-tb" style="line-height:125%;text-align:start"/><path id="path15065-5" fill="#fff" fill-opacity="1" stroke="none" d="m 415.60926,193.16119 9.89333,0 6.865,22.22727 6.90519,-22.22727 8.36227,0 3.77769,35.60402 -7.34956,0 -2.26652,-22.26355 -6.94559,22.37033 -4.92658,0 -6.94558,-23.12588 -2.26674,23.0191 -7.3696,0 3.77764,-35.60402" font-family="Bitstream Vera Sans" font-size="148.7" font-stretch="normal" font-style="normal" font-variant="normal" font-weight="bold" text-anchor="start" writing-mode="lr-tb" style="line-height:125%;text-align:start"/><path id="path15067-8" fill="#fff" fill-opacity="1" stroke="none" d="m 456.71765,193.16119 20.97804,0 0,6.93958 -13.20484,0 0,7.38506 10.15088,0 0,6.18403 -10.15088,0 0,8.1558 13.649,0 0,6.93955 -21.4222,0 0,-35.60402" font-family="Bitstream Vera Sans" font-size="148.7" font-stretch="normal" font-style="normal" font-variant="normal" font-weight="bold" text-anchor="start" writing-mode="lr-tb" style="line-height:125%;text-align:start"/><path id="path9048" fill="#eeeeec" fill-opacity="1" stroke="none" d="m 484.57223,186.15274 5.71976,0 0,0.76989 -2.40011,0 0,5.99149 -0.91932,0 0,-5.99149 -2.40033,0 0,-0.76989" font-family="Bitstream Vera Sans" font-size="30.69" font-style="normal" font-weight="normal" letter-spacing=".252"/><path id="path9050" fill="#fff" fill-opacity="1" stroke="none" d="m 491.25598,186.15274 1.36304,0 1.72556,4.60118 1.73452,-4.60118 1.36304,0 0,6.76138 -0.89215,0 0,-5.93713 -1.74352,4.6374 -0.91931,0 -1.74349,-4.6374 0,5.93713 -0.88769,0 0,-6.76138" font-family="Bitstream Vera Sans" font-size="30.69" font-style="normal" font-weight="normal" letter-spacing=".252"/></g><text id="text7228-7" x="1161.461" y="1564.514" fill="#fff" fill-opacity="1" stroke="none" stroke-linecap="butt" stroke-linejoin="miter" stroke-opacity="1" stroke-width="1" font-family="Sans" font-size="71.893" font-style="normal" font-weight="normal" letter-spacing="0" word-spacing="0" xml:space="preserve" style="line-height:125%"><tspan id="tspan7230-0" x="1161.461" y="1564.514">Conferences 2016</tspan></text><g id="g3382" transform="translate(0,2.9233158)"><path id="rect10004-8-31" fill="#ecedea" fill-opacity="1" fill-rule="nonzero" stroke="none" stroke-width="1" d="m 1568.6049,2090.4512 0,114.7398 -114.7398,0 z" color="#000" display="inline" enable-background="accumulate" opacity=".108" overflow="visible" visibility="visible" style="marker:none"/><path id="rect10004-0-3" fill="#f7f7f7" fill-opacity="1" fill-rule="nonzero" stroke="none" stroke-width="1" d="m 1341.0776,2090.4512 0,114.7398 114.7398,0 z" color="#000" display="inline" enable-background="accumulate" opacity=".108" overflow="visible" visibility="visible" style="marker:none"/><path id="rect10004-8-4-9" fill="#ecedea" fill-opacity="1" fill-rule="nonzero" stroke="none" stroke-width="1" d="m 1340.6572,2090.4512 0,114.7398 -114.7393,0 z" color="#000" display="inline" enable-background="accumulate" opacity=".108" overflow="visible" visibility="visible" style="marker:none"/><path id="rect10004-8-8-9-7" fill="#ecedea" fill-opacity="1" fill-rule="nonzero" stroke="none" stroke-width="1" d="m 1340.6572,2204.7709 0,114.7395 -114.7393,0 z" color="#000" display="inline" enable-background="accumulate" opacity=".108" overflow="visible" visibility="visible" style="marker:none"/><path id="rect10004-9-2" fill="#f7f7f7" fill-opacity="1" fill-rule="nonzero" stroke="none" stroke-width="1" d="m 1683.7653,1977.2435 0,-114.74 -114.7403,0 z" color="#000" display="inline" enable-background="accumulate" opacity=".108" overflow="visible" visibility="visible" style="marker:none"/><path id="rect10004-8-8-3-1" fill="#f7f7f7" fill-opacity="1" fill-rule="nonzero" stroke="none" stroke-width="1" d="m 1453.8651,2091.5631 0,-114.74 114.7398,0 z" color="#000" display="inline" enable-background="accumulate" opacity=".108" overflow="visible" visibility="visible" style="marker:none"/><path id="rect10004-0-8-7" fill="#f7f7f7" fill-opacity="1" fill-rule="nonzero" stroke="none" stroke-width="1" d="m 1341.0776,1977.2435 0,-114.74 114.7398,0 z" color="#000" display="inline" enable-background="accumulate" opacity=".108" overflow="visible" visibility="visible" style="marker:none"/><path id="rect10004-8-8-9-4-4" fill="#ecedea" fill-opacity="1" fill-rule="nonzero" stroke="none" stroke-width="1" d="m 1340.6572,1976.8231 0,114.74 -114.7393,0 z" color="#000" display="inline" enable-background="accumulate" opacity=".108" overflow="visible" visibility="visible" style="marker:none"/><path id="rect10004-4-04-1" fill="#ecedea" fill-opacity="1" fill-rule="nonzero" stroke="none" stroke-width="1" d="m 1224.5526,2090.4512 0,114.7398 -114.7398,0 z" color="#000" display="inline" enable-background="accumulate" opacity=".108" overflow="visible" visibility="visible" style="marker:none"/><path id="rect10004-3-4-9-3" fill="#f7f7f7" fill-opacity="1" fill-rule="nonzero" stroke="none" stroke-width="1" d="m 1224.5526,2319.5104 0,-114.7395 -114.7398,0 z" color="#000" display="inline" enable-background="accumulate" opacity=".108" overflow="visible" visibility="visible" style="marker:none"/><path id="rect10004-8-8-7-50-9" fill="#ecedea" fill-opacity="1" fill-rule="nonzero" stroke="none" stroke-width="1" d="m 1109.3924,2204.7709 0,114.7395 -114.74016,0 z" color="#000" display="inline" enable-background="accumulate" opacity=".108" overflow="visible" visibility="visible" style="marker:none"/><path id="rect10004-0-0-7-6" fill="#f7f7f7" fill-opacity="1" fill-rule="nonzero" stroke="none" stroke-width="1" d="m 881.86497,2205.191 0,-114.7398 114.73981,0 z" color="#000" display="inline" enable-background="accumulate" opacity=".108" overflow="visible" visibility="visible" style="marker:none"/><path id="rect10004-3-8-1-11-4" fill="#ecedea" fill-opacity="1" fill-rule="nonzero" stroke="none" stroke-width="1" d="m 996.60478,2204.7709 0,114.7395 -114.73981,0 z" color="#000" display="inline" enable-background="accumulate" opacity=".108" overflow="visible" visibility="visible" style="marker:none"/><path id="rect10004-9-0-59-4" fill="#f7f7f7" fill-opacity="1" fill-rule="nonzero" stroke="none" stroke-width="1" d="m 1224.5526,1862.5035 0,114.74 -114.7398,0 z" color="#000" display="inline" enable-background="accumulate" opacity=".108" overflow="visible" visibility="visible" style="marker:none"/><path id="rect10004-3-5-1-4-3" fill="#f7f7f7" fill-opacity="1" fill-rule="nonzero" stroke="none" stroke-width="1" d="m 1224.5526,1976.8231 0,114.74 -114.7398,0 z" color="#000" display="inline" enable-background="accumulate" opacity=".108" overflow="visible" visibility="visible" style="marker:none"/><path id="rect10004-8-8-3-5-1-9" fill="#ecedea" fill-opacity="1" fill-rule="nonzero" stroke="none" stroke-width="1" d="m 1109.3924,1976.8231 0,114.74 -114.74016,0 z" color="#000" display="inline" enable-background="accumulate" opacity=".108" overflow="visible" visibility="visible" style="marker:none"/><path id="rect10004-3-8-4-4-7-9" fill="#ecedea" fill-opacity="1" fill-rule="nonzero" stroke="none" stroke-width="1" d="m 881.86497,1976.8231 0,114.74 114.73981,0 z" color="#000" display="inline" enable-background="accumulate" opacity=".108" overflow="visible" visibility="visible" style="marker:none"/><path id="rect10004-8-31-5" fill="#f7f7f7" fill-opacity="1" fill-rule="nonzero" stroke="none" stroke-width="1" d="m 1689.0329,1857.2715 0,-114.7398 114.7398,0 z" color="#000" display="inline" enable-background="accumulate" opacity=".108" overflow="visible" visibility="visible" style="marker:none"/><path id="rect10004-8-8-3-1-9" fill="#ecedea" fill-opacity="1" fill-rule="nonzero" stroke="none" stroke-width="1" d="m 1803.7727,1628.9036 0,114.74 -114.7398,0 z" color="#000" display="inline" enable-background="accumulate" opacity=".108" overflow="visible" visibility="visible" style="marker:none"/></g></g></svg>