<svg xmlns="http://www.w3.org/2000/svg" xmlns:svg="http://www.w3.org/2000/svg" id="svg2" width="242.687" height="116.006" version="1.1"><metadata id="metadata7"/><g id="layer1" transform="translate(-450.08531,-491.50208)"><rect id="rect5028-7-4" width="31.44" height="52.705" x="508.376" y="491.502" fill="#6b8e9f" fill-opacity="1" fill-rule="nonzero" stroke="none" stroke-width="1" color="#000" display="inline" enable-background="new" overflow="visible" visibility="visible" style="marker:none"/><rect id="rect5030-3-8" width="31.44" height="52.705" x="464.71" y="491.502" fill="#6b8e9f" fill-opacity="1" fill-rule="nonzero" stroke="none" stroke-width="1" color="#000" display="inline" enable-background="new" overflow="visible" visibility="visible" style="marker:none"/><g id="g5036-0-9" fill="#6b8e9f" fill-opacity="1" transform="matrix(0.47965424,0,0,0.47965424,153.01283,193.19928)"><path id="path5032-8-8" fill="#6b8e9f" fill-opacity="1" fill-rule="nonzero" stroke="none" stroke-width="1" d="m 889,701.36218 c 0,3.31371 -2.68629,6 -6,6 -3.31371,0 -6,-2.68629 -6,-6 0,-3.31371 2.68629,-6 6,-6 C 886.31371,695.36218 889,698.04847 889,701.36218 Z" color="#000" display="inline" enable-background="new" overflow="visible" visibility="visible" style="marker:none"/><rect id="rect5034-9-4" width="3" height="16.625" x="881.625" y="705.862" fill="#6b8e9f" fill-opacity="1" fill-rule="nonzero" stroke="none" stroke-width="1" color="#000" display="inline" enable-background="new" overflow="visible" visibility="visible" style="marker:none"/></g><g id="g5040-9-2" fill="#6b8e9f" fill-opacity="1" transform="matrix(0.47965424,0,0,0.47965424,162.12976,193.19928)"><path d="m 889,701.36218 c 0,3.31371 -2.68629,6 -6,6 -3.31371,0 -6,-2.68629 -6,-6 0,-3.31371 2.68629,-6 6,-6 C 886.31371,695.36218 889,698.04847 889,701.36218 Z" style="marker:none" id="path5042-5-1" fill="#6b8e9f" fill-opacity="1" fill-rule="nonzero" stroke="none" stroke-width="1" color="#000" display="inline" enable-background="new" overflow="visible" visibility="visible"/><rect id="rect5044-7-6" width="3" height="16.625" x="881.625" y="705.862" fill="#6b8e9f" fill-opacity="1" fill-rule="nonzero" stroke="none" stroke-width="1" color="#000" display="inline" enable-background="new" overflow="visible" visibility="visible" style="marker:none"/></g><g id="g5046-3-2" fill="#6b8e9f" fill-opacity="1" transform="matrix(0.47965424,0,0,0.47965424,171.24669,193.19928)"><path id="path5048-7-5" fill="#6b8e9f" fill-opacity="1" fill-rule="nonzero" stroke="none" stroke-width="1" d="m 889,701.36218 c 0,3.31371 -2.68629,6 -6,6 -3.31371,0 -6,-2.68629 -6,-6 0,-3.31371 2.68629,-6 6,-6 C 886.31371,695.36218 889,698.04847 889,701.36218 Z" color="#000" display="inline" enable-background="new" overflow="visible" visibility="visible" style="marker:none"/><rect id="rect5050-2-6" width="3" height="16.625" x="881.625" y="705.862" fill="#6b8e9f" fill-opacity="1" fill-rule="nonzero" stroke="none" stroke-width="1" color="#000" display="inline" enable-background="new" overflow="visible" visibility="visible" style="marker:none"/></g><g id="g5052-6-3" fill="#6b8e9f" fill-opacity="1" transform="matrix(0.47965424,0,0,0.47965424,143.8959,193.19928)"><path d="m 889,701.36218 c 0,3.31371 -2.68629,6 -6,6 -3.31371,0 -6,-2.68629 -6,-6 0,-3.31371 2.68629,-6 6,-6 C 886.31371,695.36218 889,698.04847 889,701.36218 Z" style="marker:none" id="path5054-7-1" fill="#6b8e9f" fill-opacity="1" fill-rule="nonzero" stroke="none" stroke-width="1" color="#000" display="inline" enable-background="new" overflow="visible" visibility="visible"/><rect id="rect5056-8-7" width="3" height="16.625" x="881.625" y="705.862" fill="#6b8e9f" fill-opacity="1" fill-rule="nonzero" stroke="none" stroke-width="1" color="#000" display="inline" enable-background="new" overflow="visible" visibility="visible" style="marker:none"/></g><g id="g6541-6-2" fill="#6b8e9f" fill-opacity="1" transform="matrix(0.47965424,0,0,0.47965424,198.59749,193.19928)"><path d="m 889,701.36218 c 0,3.31371 -2.68629,6 -6,6 -3.31371,0 -6,-2.68629 -6,-6 0,-3.31371 2.68629,-6 6,-6 C 886.31371,695.36218 889,698.04847 889,701.36218 Z" style="marker:none" id="path6543-9-7" fill="#6b8e9f" fill-opacity="1" fill-rule="nonzero" stroke="none" stroke-width="1" color="#000" display="inline" enable-background="new" overflow="visible" visibility="visible"/><rect id="rect6545-0-6" width="3" height="16.625" x="881.625" y="705.862" fill="#6b8e9f" fill-opacity="1" fill-rule="nonzero" stroke="none" stroke-width="1" color="#000" display="inline" enable-background="new" overflow="visible" visibility="visible" style="marker:none"/></g><g id="g6547-3-9" fill="#6b8e9f" fill-opacity="1" transform="matrix(0.47965424,0,0,0.47965424,207.71442,193.19928)"><path id="path6549-8-2" fill="#6b8e9f" fill-opacity="1" fill-rule="nonzero" stroke="none" stroke-width="1" d="m 889,701.36218 c 0,3.31371 -2.68629,6 -6,6 -3.31371,0 -6,-2.68629 -6,-6 0,-3.31371 2.68629,-6 6,-6 C 886.31371,695.36218 889,698.04847 889,701.36218 Z" color="#000" display="inline" enable-background="new" overflow="visible" visibility="visible" style="marker:none"/><rect id="rect6551-3-6" width="3" height="16.625" x="881.625" y="705.862" fill="#6b8e9f" fill-opacity="1" fill-rule="nonzero" stroke="none" stroke-width="1" color="#000" display="inline" enable-background="new" overflow="visible" visibility="visible" style="marker:none"/></g><g id="g6553-7-3" fill="#6b8e9f" fill-opacity="1" transform="matrix(0.47965424,0,0,0.47965424,216.83135,193.19928)"><path d="m 889,701.36218 c 0,3.31371 -2.68629,6 -6,6 -3.31371,0 -6,-2.68629 -6,-6 0,-3.31371 2.68629,-6 6,-6 C 886.31371,695.36218 889,698.04847 889,701.36218 Z" style="marker:none" id="path6555-5-4" fill="#6b8e9f" fill-opacity="1" fill-rule="nonzero" stroke="none" stroke-width="1" color="#000" display="inline" enable-background="new" overflow="visible" visibility="visible"/><rect id="rect6557-2-4" width="3" height="16.625" x="881.625" y="705.862" fill="#6b8e9f" fill-opacity="1" fill-rule="nonzero" stroke="none" stroke-width="1" color="#000" display="inline" enable-background="new" overflow="visible" visibility="visible" style="marker:none"/></g><g id="g6559-5-1" fill="#6b8e9f" fill-opacity="1" transform="matrix(0.47965424,0,0,0.47965424,189.48056,193.19928)"><path id="path6561-8-8" fill="#6b8e9f" fill-opacity="1" fill-rule="nonzero" stroke="none" stroke-width="1" d="m 889,701.36218 c 0,3.31371 -2.68629,6 -6,6 -3.31371,0 -6,-2.68629 -6,-6 0,-3.31371 2.68629,-6 6,-6 C 886.31371,695.36218 889,698.04847 889,701.36218 Z" color="#000" display="inline" enable-background="new" overflow="visible" visibility="visible" style="marker:none"/><rect id="rect6563-7-9" width="3" height="16.625" x="881.625" y="705.862" fill="#6b8e9f" fill-opacity="1" fill-rule="nonzero" stroke="none" stroke-width="1" color="#000" display="inline" enable-background="new" overflow="visible" visibility="visible" style="marker:none"/></g><g id="g6565-1-0" fill="#6b8e9f" fill-opacity="1" transform="matrix(0.47965424,0,0,0.47965424,235.06522,193.19928)"><path id="path6567-8-9" fill="#6b8e9f" fill-opacity="1" fill-rule="nonzero" stroke="none" stroke-width="1" d="m 889,701.36218 c 0,3.31371 -2.68629,6 -6,6 -3.31371,0 -6,-2.68629 -6,-6 0,-3.31371 2.68629,-6 6,-6 C 886.31371,695.36218 889,698.04847 889,701.36218 Z" color="#000" display="inline" enable-background="new" overflow="visible" visibility="visible" style="marker:none"/><rect id="rect6569-4-5" width="3" height="16.625" x="881.625" y="705.862" fill="#6b8e9f" fill-opacity="1" fill-rule="nonzero" stroke="none" stroke-width="1" color="#000" display="inline" enable-background="new" overflow="visible" visibility="visible" style="marker:none"/></g><g id="g6571-9-7" fill="#6b8e9f" fill-opacity="1" transform="matrix(0.47965424,0,0,0.47965424,244.18215,193.19928)"><path d="m 889,701.36218 c 0,3.31371 -2.68629,6 -6,6 -3.31371,0 -6,-2.68629 -6,-6 0,-3.31371 2.68629,-6 6,-6 C 886.31371,695.36218 889,698.04847 889,701.36218 Z" style="marker:none" id="path6573-1-8" fill="#6b8e9f" fill-opacity="1" fill-rule="nonzero" stroke="none" stroke-width="1" color="#000" display="inline" enable-background="new" overflow="visible" visibility="visible"/><rect id="rect6575-1-0" width="3" height="16.625" x="881.625" y="705.862" fill="#6b8e9f" fill-opacity="1" fill-rule="nonzero" stroke="none" stroke-width="1" color="#000" display="inline" enable-background="new" overflow="visible" visibility="visible" style="marker:none"/></g><g id="g6577-2-7" fill="#6b8e9f" fill-opacity="1" transform="matrix(0.47965424,0,0,0.47965424,253.29908,193.19928)"><path id="path6579-3-9" fill="#6b8e9f" fill-opacity="1" fill-rule="nonzero" stroke="none" stroke-width="1" d="m 889,701.36218 c 0,3.31371 -2.68629,6 -6,6 -3.31371,0 -6,-2.68629 -6,-6 0,-3.31371 2.68629,-6 6,-6 C 886.31371,695.36218 889,698.04847 889,701.36218 Z" color="#000" display="inline" enable-background="new" overflow="visible" visibility="visible" style="marker:none"/><rect id="rect6581-1-0" width="3" height="16.625" x="881.625" y="705.862" fill="#6b8e9f" fill-opacity="1" fill-rule="nonzero" stroke="none" stroke-width="1" color="#000" display="inline" enable-background="new" overflow="visible" visibility="visible" style="marker:none"/></g><g id="g6583-1-3" fill="#6b8e9f" fill-opacity="1" transform="matrix(0.47965424,0,0,0.47965424,225.94828,193.19928)"><path d="m 889,701.36218 c 0,3.31371 -2.68629,6 -6,6 -3.31371,0 -6,-2.68629 -6,-6 0,-3.31371 2.68629,-6 6,-6 C 886.31371,695.36218 889,698.04847 889,701.36218 Z" style="marker:none" id="path6585-4-3" fill="#6b8e9f" fill-opacity="1" fill-rule="nonzero" stroke="none" stroke-width="1" color="#000" display="inline" enable-background="new" overflow="visible" visibility="visible"/><rect id="rect6587-9-3" width="3" height="16.625" x="881.625" y="705.862" fill="#6b8e9f" fill-opacity="1" fill-rule="nonzero" stroke="none" stroke-width="1" color="#000" display="inline" enable-background="new" overflow="visible" visibility="visible" style="marker:none"/></g><path d="m 450.08531,538.51357 242.68653,0 0,68.99444 L 450.08531,607.50801 Z" style="marker:none" id="rect3008-2-7-1-9-7" fill="#6b8e9f" fill-opacity="1" fill-rule="nonzero" stroke="none" stroke-width="1" color="#000" display="inline" enable-background="new" overflow="visible" visibility="visible"/></g></svg>