<svg xmlns="http://www.w3.org/2000/svg" xmlns:svg="http://www.w3.org/2000/svg" id="svg2" width="240.487" height="148.79" version="1.1"><metadata id="metadata7"/><g id="layer1" transform="translate(-449.87031,-495.70353)"><path id="path6207-1-9" fill="#6b8e9f" fill-opacity="1" stroke="none" d="m 467.48661,596.32988 0,-27.05663 4.51036,-5.32012 14.57205,0 9.71464,-11.40027 3.81651,0 2.42866,-22.49652 2.42875,22.49652 4.51036,0 5.37776,-6.38415 0,-17.78442 2.60215,-4.7121 1.90821,-27.66465 1.90822,27.66465 2.42874,4.7121 0,16.26439 1.66555,2.35605 1.38785,0 1.28348,-2.35605 0,-16.26439 3.15658,-4.7121 2.04779,-27.96866 2.04762,27.96866 3.33015,4.7121 0,18.62044 3.46946,0 4.85741,-10.56425 5.55125,23.10454 26.02151,0.304 18.04148,-7.29616 4.6839,-11.24826 0,-6.99217 4.6838,-5.77613 5.2044,0.30401 0,-6.38415 2.0818,-5.47214 2.4285,4.86412 -0.3468,6.08015 36.0831,0 3.4695,15.20035 18.215,10.94425 0,12.7683 10.2352,10.64025 0,20.06445 L 467.48661,596.32988 Z"/><path d="m 449.87031,575.49903 240.48664,0 0,68.99444 L 449.87031,644.49347 Z" style="marker:none" id="rect3008-2-7-1-9" fill="#6b8e9f" fill-opacity="1" fill-rule="nonzero" stroke="none" stroke-width="1" color="#000" display="inline" enable-background="new" overflow="visible" visibility="visible"/></g></svg>