<svg xmlns="http://www.w3.org/2000/svg" xmlns:svg="http://www.w3.org/2000/svg" id="svg2" width="1559.949" height="551.391" version="1.1"><metadata id="metadata7"/><g id="layer1" transform="translate(317.11751,-230.95255)"><g id="g7332-8-6-2" fill="#6b8e9f" fill-opacity="1" transform="matrix(2.386413,0,0,2.3942513,-525.88831,-1714.6151)"><path id="path6207-1-1-2" fill="#6b8e9f" fill-opacity="1" stroke="none" d="m 462.9377,929.82559 0,-31.51998 5.2544,-6.19774 16.9759,0 11.3172,-13.2809 4.4461,0 2.8293,-26.20762 2.8294,26.20762 5.2544,0 6.2649,-7.4373 0,-20.71819 3.0314,-5.48943 2.223,-32.22829 2.223,32.22829 2.8294,5.48943 0,18.94741 1.9403,2.74471 1.6168,0 1.4952,-2.74471 0,-18.94741 3.6773,-5.48943 2.3856,-32.58245 2.3854,32.58245 3.8795,5.48943 0,21.69212 4.0418,0 5.6587,-12.30696 6.467,26.91594 30.3141,0.35415 21.0177,-8.49976 5.4565,-13.10381 0,-8.14562 5.4565,-6.72898 6.0629,0.35416 0,-7.4373 2.4252,-6.37484 2.8292,5.66652 -0.4041,7.08315 42.0355,0 4.0419,17.70785 21.2198,12.74965 0,14.8746 11.9236,12.3955 0,23.37434 -251.4048,-1.4166"/><rect id="rect5028-7-7-7" width="36.626" height="61.399" x="170.261" y="850.792" fill="#6b8e9f" fill-opacity="1" fill-rule="nonzero" stroke="none" stroke-width="1" color="#000" display="inline" enable-background="new" overflow="visible" visibility="visible" style="marker:none"/><rect id="rect5030-3-7-1" width="36.626" height="61.399" x="119.392" y="850.792" fill="#6b8e9f" fill-opacity="1" fill-rule="nonzero" stroke="none" stroke-width="1" color="#000" display="inline" enable-background="new" overflow="visible" visibility="visible" style="marker:none"/><g id="g5036-0-2-1" fill="#6b8e9f" fill-opacity="1" transform="matrix(0.55877953,0,0,0.55877953,-207.11092,503.27998)"><path d="m 889,701.36218 c 0,3.31371 -2.68629,6 -6,6 -3.31371,0 -6,-2.68629 -6,-6 0,-3.31371 2.68629,-6 6,-6 3.31371,0 6,2.68629 6,6 z" style="marker:none" id="path5032-8-3-6" fill="#6b8e9f" fill-opacity="1" fill-rule="nonzero" stroke="none" stroke-width="1" color="#000" display="inline" enable-background="new" overflow="visible" visibility="visible"/><rect id="rect5034-9-4-8" width="3" height="16.625" x="881.625" y="705.862" fill="#6b8e9f" fill-opacity="1" fill-rule="nonzero" stroke="none" stroke-width="1" color="#000" display="inline" enable-background="new" overflow="visible" visibility="visible" style="marker:none"/></g><g id="g5040-9-7-5" fill="#6b8e9f" fill-opacity="1" transform="matrix(0.55877953,0,0,0.55877953,-196.49003,503.27998)"><path id="path5042-5-7-9" fill="#6b8e9f" fill-opacity="1" fill-rule="nonzero" stroke="none" stroke-width="1" d="m 889,701.36218 c 0,3.31371 -2.68629,6 -6,6 -3.31371,0 -6,-2.68629 -6,-6 0,-3.31371 2.68629,-6 6,-6 3.31371,0 6,2.68629 6,6 z" color="#000" display="inline" enable-background="new" overflow="visible" visibility="visible" style="marker:none"/><rect id="rect5044-7-5-6" width="3" height="16.625" x="881.625" y="705.862" fill="#6b8e9f" fill-opacity="1" fill-rule="nonzero" stroke="none" stroke-width="1" color="#000" display="inline" enable-background="new" overflow="visible" visibility="visible" style="marker:none"/></g><g id="g5046-3-0-8" fill="#6b8e9f" fill-opacity="1" transform="matrix(0.55877953,0,0,0.55877953,-185.86914,503.27998)"><path d="m 889,701.36218 c 0,3.31371 -2.68629,6 -6,6 -3.31371,0 -6,-2.68629 -6,-6 0,-3.31371 2.68629,-6 6,-6 3.31371,0 6,2.68629 6,6 z" style="marker:none" id="path5048-7-1-1" fill="#6b8e9f" fill-opacity="1" fill-rule="nonzero" stroke="none" stroke-width="1" color="#000" display="inline" enable-background="new" overflow="visible" visibility="visible"/><rect id="rect5050-2-2-3" width="3" height="16.625" x="881.625" y="705.862" fill="#6b8e9f" fill-opacity="1" fill-rule="nonzero" stroke="none" stroke-width="1" color="#000" display="inline" enable-background="new" overflow="visible" visibility="visible" style="marker:none"/></g><g id="g5052-6-6-0" fill="#6b8e9f" fill-opacity="1" transform="matrix(0.55877953,0,0,0.55877953,-217.73181,503.27998)"><path id="path5054-7-8-7" fill="#6b8e9f" fill-opacity="1" fill-rule="nonzero" stroke="none" stroke-width="1" d="m 889,701.36218 c 0,3.31371 -2.68629,6 -6,6 -3.31371,0 -6,-2.68629 -6,-6 0,-3.31371 2.68629,-6 6,-6 3.31371,0 6,2.68629 6,6 z" color="#000" display="inline" enable-background="new" overflow="visible" visibility="visible" style="marker:none"/><rect id="rect5056-8-8-6" width="3" height="16.625" x="881.625" y="705.862" fill="#6b8e9f" fill-opacity="1" fill-rule="nonzero" stroke="none" stroke-width="1" color="#000" display="inline" enable-background="new" overflow="visible" visibility="visible" style="marker:none"/></g><g id="g6541-6-7-0" fill="#6b8e9f" fill-opacity="1" transform="matrix(0.55877953,0,0,0.55877953,-154.00647,503.27998)"><path id="path6543-9-5-3" fill="#6b8e9f" fill-opacity="1" fill-rule="nonzero" stroke="none" stroke-width="1" d="m 889,701.36218 c 0,3.31371 -2.68629,6 -6,6 -3.31371,0 -6,-2.68629 -6,-6 0,-3.31371 2.68629,-6 6,-6 3.31371,0 6,2.68629 6,6 z" color="#000" display="inline" enable-background="new" overflow="visible" visibility="visible" style="marker:none"/><rect id="rect6545-0-7-8" width="3" height="16.625" x="881.625" y="705.862" fill="#6b8e9f" fill-opacity="1" fill-rule="nonzero" stroke="none" stroke-width="1" color="#000" display="inline" enable-background="new" overflow="visible" visibility="visible" style="marker:none"/></g><g id="g6547-3-2-8" fill="#6b8e9f" fill-opacity="1" transform="matrix(0.55877953,0,0,0.55877953,-143.38558,503.27998)"><path d="m 889,701.36218 c 0,3.31371 -2.68629,6 -6,6 -3.31371,0 -6,-2.68629 -6,-6 0,-3.31371 2.68629,-6 6,-6 3.31371,0 6,2.68629 6,6 z" style="marker:none" id="path6549-8-7-4" fill="#6b8e9f" fill-opacity="1" fill-rule="nonzero" stroke="none" stroke-width="1" color="#000" display="inline" enable-background="new" overflow="visible" visibility="visible"/><rect id="rect6551-3-7-8" width="3" height="16.625" x="881.625" y="705.862" fill="#6b8e9f" fill-opacity="1" fill-rule="nonzero" stroke="none" stroke-width="1" color="#000" display="inline" enable-background="new" overflow="visible" visibility="visible" style="marker:none"/></g><g id="g6553-7-7-6" fill="#6b8e9f" fill-opacity="1" transform="matrix(0.55877953,0,0,0.55877953,-132.76469,503.27998)"><path id="path6555-5-9-1" fill="#6b8e9f" fill-opacity="1" fill-rule="nonzero" stroke="none" stroke-width="1" d="m 889,701.36218 c 0,3.31371 -2.68629,6 -6,6 -3.31371,0 -6,-2.68629 -6,-6 0,-3.31371 2.68629,-6 6,-6 3.31371,0 6,2.68629 6,6 z" color="#000" display="inline" enable-background="new" overflow="visible" visibility="visible" style="marker:none"/><rect id="rect6557-2-1-1" width="3" height="16.625" x="881.625" y="705.862" fill="#6b8e9f" fill-opacity="1" fill-rule="nonzero" stroke="none" stroke-width="1" color="#000" display="inline" enable-background="new" overflow="visible" visibility="visible" style="marker:none"/></g><g id="g6559-5-7-4" fill="#6b8e9f" fill-opacity="1" transform="matrix(0.55877953,0,0,0.55877953,-164.62736,503.27998)"><path d="m 889,701.36218 c 0,3.31371 -2.68629,6 -6,6 -3.31371,0 -6,-2.68629 -6,-6 0,-3.31371 2.68629,-6 6,-6 3.31371,0 6,2.68629 6,6 z" style="marker:none" id="path6561-8-2-8" fill="#6b8e9f" fill-opacity="1" fill-rule="nonzero" stroke="none" stroke-width="1" color="#000" display="inline" enable-background="new" overflow="visible" visibility="visible"/><rect id="rect6563-7-6-5" width="3" height="16.625" x="881.625" y="705.862" fill="#6b8e9f" fill-opacity="1" fill-rule="nonzero" stroke="none" stroke-width="1" color="#000" display="inline" enable-background="new" overflow="visible" visibility="visible" style="marker:none"/></g><g id="g6565-1-3-9" fill="#6b8e9f" fill-opacity="1" transform="matrix(0.55877953,0,0,0.55877953,-111.52291,503.27998)"><path d="m 889,701.36218 c 0,3.31371 -2.68629,6 -6,6 -3.31371,0 -6,-2.68629 -6,-6 0,-3.31371 2.68629,-6 6,-6 3.31371,0 6,2.68629 6,6 z" style="marker:none" id="path6567-8-7-6" fill="#6b8e9f" fill-opacity="1" fill-rule="nonzero" stroke="none" stroke-width="1" color="#000" display="inline" enable-background="new" overflow="visible" visibility="visible"/><rect id="rect6569-4-1-7" width="3" height="16.625" x="881.625" y="705.862" fill="#6b8e9f" fill-opacity="1" fill-rule="nonzero" stroke="none" stroke-width="1" color="#000" display="inline" enable-background="new" overflow="visible" visibility="visible" style="marker:none"/></g><g id="g6571-9-1-3" fill="#6b8e9f" fill-opacity="1" transform="matrix(0.55877953,0,0,0.55877953,-100.90202,503.27998)"><path id="path6573-1-8-0" fill="#6b8e9f" fill-opacity="1" fill-rule="nonzero" stroke="none" stroke-width="1" d="m 889,701.36218 c 0,3.31371 -2.68629,6 -6,6 -3.31371,0 -6,-2.68629 -6,-6 0,-3.31371 2.68629,-6 6,-6 3.31371,0 6,2.68629 6,6 z" color="#000" display="inline" enable-background="new" overflow="visible" visibility="visible" style="marker:none"/><rect id="rect6575-1-8-5" width="3" height="16.625" x="881.625" y="705.862" fill="#6b8e9f" fill-opacity="1" fill-rule="nonzero" stroke="none" stroke-width="1" color="#000" display="inline" enable-background="new" overflow="visible" visibility="visible" style="marker:none"/></g><g id="g6577-2-1-7" fill="#6b8e9f" fill-opacity="1" transform="matrix(0.55877953,0,0,0.55877953,-90.28113,503.27998)"><path d="m 889,701.36218 c 0,3.31371 -2.68629,6 -6,6 -3.31371,0 -6,-2.68629 -6,-6 0,-3.31371 2.68629,-6 6,-6 3.31371,0 6,2.68629 6,6 z" style="marker:none" id="path6579-3-2-4" fill="#6b8e9f" fill-opacity="1" fill-rule="nonzero" stroke="none" stroke-width="1" color="#000" display="inline" enable-background="new" overflow="visible" visibility="visible"/><rect id="rect6581-1-4-1" width="3" height="16.625" x="881.625" y="705.862" fill="#6b8e9f" fill-opacity="1" fill-rule="nonzero" stroke="none" stroke-width="1" color="#000" display="inline" enable-background="new" overflow="visible" visibility="visible" style="marker:none"/></g><g id="g6583-1-5-5" fill="#6b8e9f" fill-opacity="1" transform="matrix(0.55877953,0,0,0.55877953,-122.1438,503.27998)"><path id="path6585-4-9-1" fill="#6b8e9f" fill-opacity="1" fill-rule="nonzero" stroke="none" stroke-width="1" d="m 889,701.36218 c 0,3.31371 -2.68629,6 -6,6 -3.31371,0 -6,-2.68629 -6,-6 0,-3.31371 2.68629,-6 6,-6 3.31371,0 6,2.68629 6,6 z" color="#000" display="inline" enable-background="new" overflow="visible" visibility="visible" style="marker:none"/><rect id="rect6587-9-1-2" width="3" height="16.625" x="881.625" y="705.862" fill="#6b8e9f" fill-opacity="1" fill-rule="nonzero" stroke="none" stroke-width="1" color="#000" display="inline" enable-background="new" overflow="visible" visibility="visible" style="marker:none"/></g></g><path d="m -317.11751,453.97552 1559.94931,0 0,328.36776 -1559.94931,0 z" style="marker:none" id="rect3008-2-7-1-2-1" fill="#6b8e9f" fill-opacity="1" fill-rule="nonzero" stroke="none" stroke-width="1" color="#000" display="inline" enable-background="new" overflow="visible" visibility="visible"/></g></svg>