<svg xmlns="http://www.w3.org/2000/svg" xmlns:svg="http://www.w3.org/2000/svg" id="svg14682" width="560" height="460" version="1.1" viewBox="0 0 148.167 121.708"><metadata id="metadata14679"/><g id="layer1" transform="translate(127.75595,112.34822)"><path id="path6143" fill="#4a86cf" fill-opacity="1" fill-rule="nonzero" stroke="none" stroke-dasharray="none" stroke-dashoffset="0" stroke-linecap="butt" stroke-linejoin="miter" stroke-miterlimit="4" stroke-opacity="1" stroke-width=".282" d="M -127.75595,4.0684426 H 20.410711 V -112.34822 H -127.75595 Z" color="#000" display="inline" enable-background="new" opacity="1" overflow="visible" visibility="visible" style="marker:none"/><g id="g4597" fill="#fff" stroke-width="3.706" transform="matrix(0.07138593,0,0,0.07138593,-115.02371,-117.10631)"><g id="g4595" fill="#fff" stroke-width="3.706" transform="translate(925.8326,120.8762)"><g id="g4575" fill="#fff" fill-opacity="1" fill-rule="nonzero" stroke="none" stroke-miterlimit="4" stroke-width="3.706" transform="matrix(2.914897,0,0,2.914897,-717.5904,128.5015)"><g id="g4573" fill="#fff" fill-opacity="1" stroke-width="3.706"><path id="path4563" fill="#fff" fill-opacity="1" stroke-width="3.706" d="M 86.068,0 C 61.466,0 56.851,35.041 70.691,35.041 84.529,35.041 110.671,0 86.068,0 Z"/><path id="path4565" fill="#fff" fill-opacity="1" stroke-width="3.706" d="M 45.217,30.699 C 52.586,31.149 60.671,2.577 46.821,4.374 32.976,6.171 37.845,30.249 45.217,30.699 Z"/><path id="path4567" fill="#fff" fill-opacity="1" stroke-width="3.706" d="M 11.445,48.453 C 16.686,46.146 12.12,23.581 3.208,29.735 -5.7,35.89 6.204,50.759 11.445,48.453 Z"/><path id="path4569" fill="#fff" fill-opacity="1" stroke-width="3.706" d="M 26.212,36.642 C 32.451,35.37 32.793,9.778 21.667,14.369 10.539,18.961 19.978,37.916 26.212,36.642 Z"/><path id="path4571" fill="#fff" fill-opacity="1" stroke-width="3.706" d="m 58.791,93.913 c 1.107,8.454 -6.202,12.629 -13.36,7.179 C 22.644,83.743 83.16,75.088 79.171,51.386 75.86,31.712 15.495,37.769 8.621,68.553 3.968,89.374 27.774,118.26 52.614,118.26 c 12.22,0 26.315,-11.034 28.952,-25.012 C 83.58,82.589 57.867,86.86 58.791,93.913 Z"/></g></g><g id="g4587" fill="#fff" stroke-width="3.706" transform="matrix(1.098291,0,0,1.098291,41.06056,-50.07504)"><path id="path4577" fill="#fff" fill-opacity="1" stroke="none" stroke-linecap="butt" stroke-linejoin="miter" stroke-opacity="1" stroke-width="4.942" d="m -565.99523,509.46063 c -8.08731,0.21792 -14.47394,3.12448 -19.17071,8.69866 -4.86385,5.80101 -7.31024,13.81651 -7.31024,24.03862 0,10.19394 2.44651,18.18745 7.31024,23.98846 4.88761,5.801 11.59815,8.69866 20.15764,8.69866 8.5831,0 15.3105,-2.89766 20.17436,-8.69866 4.86373,-5.80101 7.29358,-13.79452 7.29353,-23.98846 -5e-5,-10.22211 -2.4298,-18.23761 -7.29353,-24.03862 -4.86386,-5.80075 -11.59131,-8.69866 -20.17436,-8.69866 -0.33434,0 -0.6582,-0.009 -0.98693,0 z m 0.60221,11.77669 c 0.12927,-0.003 0.25357,0 0.38472,0 4.21998,0 7.48996,1.8261 9.8028,5.48697 2.31266,3.66086 3.47944,8.82788 3.47949,15.47362 0,6.61757 -1.16692,11.74604 -3.47949,15.40691 -2.31274,3.66086 -5.58286,5.50352 -9.8028,5.50352 -4.19632,0 -7.43983,-1.84266 -9.75257,-5.50352 -2.31274,-3.66087 -3.47944,-8.78934 -3.47949,-15.40691 0,-6.64574 1.16684,-11.81276 3.47949,-15.47362 2.24035,-3.54647 5.35963,-5.37604 9.36785,-5.48697 z" font-family="Bitstream Vera Sans" font-size="148.7" font-stretch="normal" font-style="normal" font-variant="normal" font-weight="bold" text-anchor="start" writing-mode="lr-tb" style="line-height:125%;text-align:start"/><path id="path4579" fill="#fff" fill-opacity="1" stroke="none" stroke-linecap="butt" stroke-linejoin="miter" stroke-opacity="1" stroke-width="4.942" d="m -657.35432,568.97161 c -7.12362,5.98235 -17.72219,5.91366 -22.13752,5.91366 -8.8932,0 -15.93855,-2.92879 -21.13613,-8.78612 -5.19765,-5.88525 -7.7964,-13.85456 -7.7964,-23.90791 0,-10.16578 2.64646,-18.16325 7.93945,-23.99241 5.293,-5.82892 12.54098,-8.74363 21.74413,-8.74363 3.55245,0 6.94991,0.39433 10.19254,1.18273 3.26638,0.78841 6.34203,1.95706 9.22697,3.50595 l -3.70487,10.9527 c -1.62185,-0.88773 -3.4788,-1.76286 -5.20022,-2.37807 -2.93262,-0.98557 -5.87712,-1.47823 -8.83351,-1.47823 -5.48379,0 -9.71581,1.81623 -12.69601,5.44892 -2.95649,3.60454 -4.4347,8.7718 -4.4347,15.50204 0,6.67415 1.4305,11.82733 4.29167,15.46003 2.86099,3.6327 7.16068,5.44892 12.19522,5.44892 5.11476,0 8.28269,-1.28922 9.97226,-2.64762 v -10.91144 h -11.08087 v -10.89809 h 21.45799" font-family="Bitstream Vera Sans" font-size="148.7" font-stretch="normal" font-style="normal" font-variant="normal" font-weight="bold" text-anchor="start" writing-mode="lr-tb" style="line-height:125%;text-align:start"/><path id="path4581" fill="#fff" fill-opacity="1" stroke="none" stroke-linecap="butt" stroke-linejoin="miter" stroke-opacity="1" stroke-width="4.942" d="m -528.50252,510.59568 h 17.5241 l 12.15952,39.37066 12.23105,-39.37066 h 14.81181 l 6.69132,63.06461 h -13.01787 l -4.0148,-39.4349 -12.30257,39.62391 h -8.72628 l -12.30263,-40.9623 -4.01479,40.77329 h -13.05365 l 6.69132,-63.06461" font-family="Bitstream Vera Sans" font-size="148.7" font-stretch="normal" font-style="normal" font-variant="normal" font-weight="bold" text-anchor="start" writing-mode="lr-tb" style="line-height:125%;text-align:start"/><path id="path4583" fill="#fff" fill-opacity="1" stroke="none" stroke-linecap="butt" stroke-linejoin="miter" stroke-opacity="1" stroke-width="4.942" d="m -455.68828,510.59568 h 37.15811 v 12.29183 h -23.38928 v 13.08097 h 17.97969 v 10.95369 h -17.97969 v 14.44629 h 24.17608 v 12.29183 h -37.94491 v -63.06461" font-family="Bitstream Vera Sans" font-size="148.7" font-stretch="normal" font-style="normal" font-variant="normal" font-weight="bold" text-anchor="start" writing-mode="lr-tb" style="line-height:125%;text-align:start"/><path id="path4585" fill="#fff" fill-opacity="1" stroke="none" stroke-linecap="butt" stroke-linejoin="miter" stroke-opacity="1" stroke-width="4.942" d="m -647.94283,510.59568 h 8.6869 l 27.44915,37.90083 v -37.90083 h 11.71533 v 63.06461 h -8.6869 l -27.4491,-37.90083 v 37.90083 h -11.71538 v -63.06461" font-family="Bitstream Vera Sans" font-size="148.7" font-stretch="normal" font-style="normal" font-variant="normal" font-weight="bold" text-anchor="start" writing-mode="lr-tb" style="line-height:125%;text-align:start"/></g><text id="text4593" x="-406.524" y="527.923" fill="#fff" fill-opacity="1" stroke="none" stroke-linecap="butt" stroke-linejoin="miter" stroke-opacity="1" stroke-width="4.942" font-family="Bitstream Vera Sans" font-size="25.888" font-style="normal" font-weight="normal" xml:space="preserve"><tspan id="tspan4591" x="-406.524" y="527.923" fill="#fff" stroke-width="4.942" letter-spacing="9.332"><tspan id="tspan4589" fill="#fff" stroke-width="4.942" letter-spacing=".213">TM</tspan></tspan></text></g></g><flowRoot id="flowRoot14482" fill="#fff" fill-opacity="1" stroke="none" stroke-width="1.379" font-family="Source Sans Pro" font-size="40" font-stretch="normal" font-style="normal" font-variant="normal" font-weight="normal" letter-spacing=".41" text-anchor="start" transform="matrix(0.22624772,0,0,0.22624772,9.8029665,-237.35129)" word-spacing="0" writing-mode="lr-tb" xml:space="preserve" style="line-height:89.99999762%;-inkscape-font-specification:'Source Sans Pro, Normal';font-variant-ligatures:normal;font-variant-caps:normal;font-variant-numeric:normal;font-feature-settings:normal;text-align:start"><flowRegion font-style="normal" style="line-height:89.99999762%;-inkscape-font-specification:'Source Sans Pro, Normal';font-variant-ligatures:normal;font-variant-caps:normal;font-variant-numeric:normal;font-feature-settings:normal;text-align:start" id="flowRegion14478" fill="#fff" fill-opacity="1" stroke-width="1.379" font-family="Source Sans Pro" font-size="40" font-stretch="normal" font-variant="normal" font-weight="normal" letter-spacing=".41" text-anchor="start" writing-mode="lr-tb"><rect font-size="40" style="line-height:89.99999762%;-inkscape-font-specification:'Source Sans Pro, Normal';font-variant-ligatures:normal;font-variant-caps:normal;font-variant-numeric:normal;font-feature-settings:normal;text-align:start" id="rect14476" width="201.706" height="162.971" x="-354.286" y="652.362" fill="#fff" fill-opacity="1" stroke-width="1.379" font-family="Source Sans Pro" font-stretch="normal" font-style="normal" font-variant="normal" font-weight="normal" letter-spacing=".41" text-anchor="start" writing-mode="lr-tb"/></flowRegion><flowPara font-style="normal" style="line-height:89.99999762%;-inkscape-font-specification:'Source Sans Pro, Normal';font-variant-ligatures:normal;font-variant-caps:normal;font-variant-numeric:normal;font-feature-settings:normal;text-align:start" id="flowPara14480" fill="#fff" fill-opacity="1" stroke-width="1.379" font-family="Source Sans Pro" font-size="40" font-stretch="normal" font-variant="normal" font-weight="normal" letter-spacing=".41" text-anchor="start" writing-mode="lr-tb">FOSDEM</flowPara><flowPara font-style="normal" style="line-height:89.99999762%;-inkscape-font-specification:'Source Sans Pro, Normal';font-variant-ligatures:normal;font-variant-caps:normal;font-variant-numeric:normal;font-feature-settings:normal;text-align:start" id="flowPara14498" fill="#fff" fill-opacity="1" stroke-width="1.379" font-family="Source Sans Pro" font-size="40" font-stretch="normal" font-variant="normal" font-weight="normal" letter-spacing=".41" text-anchor="start" writing-mode="lr-tb">BEER EVENT</flowPara></flowRoot><flowRoot id="flowRoot14496" fill="#fff" fill-opacity="1" stroke="none" stroke-linecap="butt" stroke-linejoin="miter" stroke-opacity="1" stroke-width="2.052" font-family="sans-serif" font-size="37.333" font-style="normal" font-weight="normal" letter-spacing="0" transform="matrix(0.12892522,0,0,0.12892522,-79.058611,-140.18835)" word-spacing="0" xml:space="preserve" style="line-height:61.56669617px"><flowRegion id="flowRegion14486" fill="#fff" stroke-width="6.562" font-size="37.333" style="line-height:61.56669617px"><rect id="rect14484" width="670.161" height="229.398" x="70.711" y="647.897" fill="#fff" stroke-width="2.052" font-size="37.333" style="line-height:61.56669617px"/></flowRegion><flowPara id="flowPara14488" fill="#fff" stroke-width="6.562" font-family="Source Sans Pro" font-size="37.333" font-stretch="normal" font-style="normal" font-variant="normal" font-weight="300" style="line-height:61.56669617px;-inkscape-font-specification:'Source Sans Pro Light'">SATURDAY 20:00</flowPara><flowPara id="flowPara14492" fill="#fff" stroke-width="6.562" font-family="Source Sans Pro" font-size="37.333" font-stretch="normal" font-style="normal" font-variant="normal" font-weight="300" style="line-height:61.56669617px;-inkscape-font-specification:'Source Sans Pro Light'">at<flowSpan style="line-height:61.56669617px;-inkscape-font-specification:'Source Sans Pro Semi-Bold'" id="flowSpan14490" fill="#fff" stroke-width="2.052" font-family="Source Sans Pro" font-stretch="normal" font-style="normal" font-variant="normal" font-weight="600">LA BECASSE</flowSpan></flowPara><flowPara id="flowPara14604" fill="#fff" stroke-width="6.562" font-family="Source Sans Pro" font-size="37.333" font-stretch="normal" font-style="normal" font-variant="normal" font-weight="300" style="line-height:61.56669617px;-inkscape-font-specification:'Source Sans Pro Light'">Rue de Tabora 11 (city center)</flowPara></flowRoot><path id="path14538" fill="#fff" fill-opacity="1" fill-rule="nonzero" stroke="none" stroke-dasharray="none" stroke-dashoffset="0" stroke-linecap="butt" stroke-linejoin="miter" stroke-miterlimit="4" stroke-opacity="1" stroke-width=".282" d="M -127.75595,9.3601226 H 20.410711 V -27.152376 H -127.75595 Z" color="#000" display="inline" enable-background="new" opacity="1" overflow="visible" visibility="visible" style="marker:none"/><flowRoot font-style="normal" style="line-height:40.21822739px" id="flowRoot14506" fill="#8b8b89" fill-opacity="1" stroke="none" stroke-width="2.007" font-family="Sans" font-size="21.45" font-weight="normal" letter-spacing="9.384" transform="matrix(0.15550674,0,0,0.15550674,-62.220783,-108.82289)" word-spacing="0" xml:space="preserve"><flowRegion id="flowRegion14502" fill="#8b8b89" fill-opacity="1" stroke-width="3.423" font-size="21.45" letter-spacing="9.384" style="line-height:40.21822739px"><rect fill="#8b8b89" style="line-height:40.21822739px" id="rect14500" width="655.867" height="148.113" x="-354.286" y="652.362" fill-opacity="1" stroke-width="2.007" font-size="21.45" letter-spacing="9.384"/></flowRegion><flowPara font-style="normal" style="line-height:40.21822739px;-inkscape-font-specification:'Source Sans Pro';text-align:start" id="flowPara14504" fill="#8b8b89" fill-opacity="1" stroke-width="3.423" font-family="Source Sans Pro" font-size="21.45" font-stretch="normal" font-variant="normal" font-weight="normal" letter-spacing="9.384" text-anchor="start" writing-mode="lr-tb">SPONSORED BY</flowPara></flowRoot><g id="g26" stroke-width="6.24" transform="matrix(0.04240374,0,0,0.04240374,-72.554408,-23.806485)"><path id="path2" fill="#5c3dcc" stroke-width="6.24" d="m 425.567,281.294 c -37.009,0 -67.011,-29.993 -67.011,-67.001 0,-37.009 30.002,-67.019 67.011,-67.019 37.008,0 67.018,30.01 67.018,67.019 0,37.008 -30.01,67.001 -67.018,67.001 m 0,-171.139 c -57.503,0 -104.139,46.619 -104.139,104.121 0,57.519 46.636,104.146 104.139,104.146 57.51,0 104.128,-46.627 104.128,-104.146 0,-57.503 -46.618,-104.121 -104.128,-104.121"/><polygon id="polygon4" fill="#5c3dcc" stroke-width="6.24" points="264.071 214.877 234.96 242.309 261.255 268.613 314.99 214.877 261.035 160.913 234.723 187.225"/><path id="path6-0" fill="#8b8b89" stroke-width="6.24" d="m 164.286,319.591 c -25.948,0 -49.503,-9.008 -69.962,-26.812 -22.97,-20.061 -34.6,-46.509 -34.6,-78.597 0,-28.484 10.535,-53.227 31.308,-73.542 20.544,-20.221 45.635,-30.485 74.526,-30.485 28.67,0 53.591,10.382 74.042,30.833 l -27.161,27.168 c -13.189,-13.182 -28.517,-19.585 -46.881,-19.585 -18.712,0 -34.286,6.387 -47.637,19.483 -13.309,13.046 -19.772,28.127 -19.772,46.127 0,20.798 7.016,37.033 21.409,49.613 13.437,11.68 28.068,17.38 44.728,17.38 19.034,0 34.803,-6.361 48.222,-19.441 l 26.83,27.517 c -20.664,20.137 -45.916,30.341 -75.052,30.341"/><path id="path8-7" fill="#5c3dcc" stroke-width="6.24" d="m 185.144,416.206 c 17.346,0 33.666,12.775 33.666,34.42 0,21.732 -16.32,34.49 -33.666,34.49 -17.347,0 -33.582,-12.758 -33.582,-34.49 0,-21.646 16.235,-34.42 33.582,-34.42 m 0,58.29 c 11.188,0 22.198,-7.922 22.198,-23.87 0,-15.963 -11.01,-23.886 -22.198,-23.886 -11.104,0 -22.105,7.923 -22.105,23.886 0,15.948 11.001,23.87 22.105,23.87"/><polygon id="polygon10" fill="#5c3dcc" stroke-width="6.24" points="257.54 417.605 257.54 473.097 287.856 473.097 287.856 483.725 246.352 483.725 246.352 417.605"/><polygon id="polygon12" fill="#5c3dcc" stroke-width="6.24" points="324.991 417.605 324.991 473.097 355.308 473.097 355.308 483.725 313.803 483.725 313.803 417.605"/><path id="path14-6" fill="#5c3dcc" stroke-width="6.24" d="m 424.422,467.116 h -27.976 l -6.149,16.608 H 378.44 l 25.734,-66.128 h 12.97 l 25.744,66.128 h -12.224 z m -24.057,-10.339 h 20.138 l -10.077,-27.051 z"/><path id="path16-3" fill="#5c3dcc" stroke-width="6.24" d="m 494.647,417.597 c 12.697,0 20.145,7.473 20.145,17.812 0,7.007 -4.104,12.224 -9.789,14.275 6.99,1.866 11.842,7.932 11.842,15.77 0,10.628 -8.211,18.279 -20.519,18.279 h -24.438 v -66.137 h 22.759 z m -1.494,27.992 c 6.523,0 10.45,-3.732 10.45,-9.238 0,-5.59 -3.927,-9.236 -10.73,-9.236 h -9.889 v 18.475 h 10.169 z m 1.214,28.619 c 6.718,0 11.094,-3.631 11.094,-9.501 0,-5.699 -3.833,-9.703 -10.721,-9.703 h -11.756 v 19.204 z"/><path id="path18-7" fill="#5c3dcc" stroke-width="6.24" d="m 578.206,416.206 c 17.354,0 33.675,12.775 33.675,34.42 0,21.732 -16.32,34.49 -33.675,34.49 -17.355,0 -33.572,-12.758 -33.572,-34.49 0,-21.646 16.218,-34.42 33.572,-34.42 m 0,58.29 c 11.196,0 22.199,-7.922 22.199,-23.87 0,-15.963 -11.003,-23.886 -22.199,-23.886 -11.096,0 -22.104,7.923 -22.104,23.886 0,15.948 11.008,23.87 22.104,23.87"/><path id="path20-6" fill="#5c3dcc" stroke-width="6.24" d="m 759.236,467.116 h -27.975 l -6.15,16.608 h -11.85 l 25.735,-66.128 h 12.962 l 25.752,66.128 h -12.231 z m -24.055,-10.339 h 20.137 l -10.06,-27.051 z"/><path id="path22-1" fill="#5c3dcc" stroke-width="6.24" d="m 117.056,460.467 c -3.495,9.363 -11.943,14.029 -20.519,14.029 -11.095,0 -22.113,-7.922 -22.113,-23.87 0,-15.963 11.018,-23.886 22.113,-23.886 8.61,0 17.075,4.708 20.553,14.124 H 129 c -4.088,-15.667 -17.906,-24.659 -32.462,-24.659 -17.346,0 -33.573,12.775 -33.573,34.42 0,21.725 16.227,34.498 33.573,34.498 14.531,0 28.339,-8.974 32.445,-24.657 h -11.927 z"/><path id="path24-5" fill="#5c3dcc" stroke-width="6.24" d="m 662.809,458.117 h -9.619 v 26.117 h -11.281 v -66.129 h 26.312 c 12.773,0 20.705,8.864 20.705,20.061 0,9.415 -5.225,16.601 -14.445,18.839 l 15.854,27.229 h -12.681 z m 3.834,-9.883 c 6.889,0 10.9,-4.021 10.9,-10.068 0,-6.167 -4.471,-10.17 -11.375,-10.17 h -12.979 v 20.238 z"/></g><g id="g6166" stroke-width=".892" transform="matrix(0.29655283,0,0,0.29655283,-312.41477,26.391075)"><path id="path6154" fill="#fff" fill-opacity="1" stroke-width="3.785" d="m 1037.3477,-423.85476 44.0651,-44.06725 v 44.06725 z" enable-background="new" opacity=".2"/><path id="path6156" fill="#fff" fill-opacity="1" stroke-width="3.785" d="m 1081.4103,-423.85342 40.904,40.90262 h -40.904 z" enable-background="new" opacity=".2"/><path id="path6158" fill="#fff" fill-opacity="1" stroke-width="3.785" d="m 999.48233,-301.5719 40.90397,-40.93404 h -40.90397 z" enable-background="new" opacity=".1"/><path id="path6160" fill="#fff" fill-opacity="1" stroke-width="3.785" d="m 1081.291,-383.41366 -40.904,40.90262 h 40.904 z" enable-background="new" opacity=".2"/></g></g></svg>