<svg xmlns="http://www.w3.org/2000/svg" xmlns:svg="http://www.w3.org/2000/svg" id="svg2" width="793.701" height="1122.52" version="1.1" viewBox="0 0 793.701 1122.52" xml:space="preserve"><metadata id="metadata8"/><g id="layer1"><g id="g141" transform="matrix(1.3333333,0,0,-1.3333333,-164.38701,202.51975)"><path id="path14" fill="#000" fill-opacity="1" fill-rule="nonzero" stroke="none" d="m 386.449,105.936 c -4.465,0 -5.301,-6.36 -2.789,-6.36 2.512,0 7.254,6.36 2.789,6.36 z"/><path id="path16" fill="#000" fill-opacity="1" fill-rule="nonzero" stroke="none" d="m 379.035,100.365 c 1.34,-0.082 2.805,5.106 0.293,4.778 -2.516,-0.324 -1.629,-4.696 -0.293,-4.778 z"/><path id="path18" fill="#000" fill-opacity="1" fill-rule="nonzero" stroke="none" d="m 372.906,97.143 c 0.953,0.418 0.121,4.515 -1.496,3.398 -1.617,-1.117 0.547,-3.816 1.496,-3.398 z"/><path id="path20" fill="#000" fill-opacity="1" fill-rule="nonzero" stroke="none" d="m 375.586,99.287 c 1.133,0.231 1.195,4.875 -0.824,4.043 -2.02,-0.836 -0.305,-4.273 0.824,-4.043 z"/><path id="path22" fill="#000" fill-opacity="1" fill-rule="nonzero" stroke="none" d="m 381.5,88.893 c 0.199,-1.535 -1.125,-2.293 -2.426,-1.301 -4.136,3.148 6.848,4.719 6.125,9.02 -0.601,3.57 -11.558,2.472 -12.804,-3.118 -0.844,-3.777 3.476,-9.019 7.984,-9.019 2.219,0 4.773,2.004 5.254,4.539 0.367,1.933 -4.301,1.16 -4.133,-0.121 z"/><path id="path24" fill="#000" fill-opacity="1" fill-rule="nonzero" stroke="none" d="m 409.258,98.42 c -1.125,-0.027 -2.012,-0.433 -2.664,-1.207 -0.68,-0.809 -1.02,-1.922 -1.02,-3.344 0,-1.418 0.34,-2.527 1.02,-3.336 0.679,-0.804 1.609,-1.207 2.801,-1.207 1.195,0 2.128,0.403 2.804,1.207 0.676,0.809 1.016,1.918 1.016,3.336 0,1.422 -0.34,2.535 -1.016,3.344 -0.676,0.805 -1.609,1.207 -2.804,1.207 -0.047,0 -0.09,0.004 -0.137,0 z m 0.082,-1.637 c 0.019,0 0.035,0 0.055,0 0.585,0 1.043,-0.254 1.363,-0.761 0.32,-0.508 0.484,-1.227 0.484,-2.153 0,-0.918 -0.164,-1.632 -0.484,-2.14 -0.32,-0.512 -0.778,-0.766 -1.363,-0.766 -0.583,0 -1.036,0.254 -1.356,0.766 -0.32,0.508 -0.484,1.222 -0.484,2.14 0,0.926 0.164,1.645 0.484,2.153 0.313,0.492 0.746,0.746 1.301,0.761 z"/><path id="path26" fill="#000" fill-opacity="1" fill-rule="nonzero" stroke="none" d="m 396.555,90.147 c -0.989,-0.832 -2.461,-0.821 -3.078,-0.821 -1.235,0 -2.215,0.407 -2.938,1.219 -0.723,0.82 -1.082,1.93 -1.082,3.324 0,1.414 0.367,2.528 1.102,3.336 0.738,0.813 1.746,1.215 3.023,1.215 0.496,0 0.965,-0.055 1.418,-0.164 0.453,-0.109 0.883,-0.269 1.281,-0.484 l -0.515,-1.524 c -0.223,0.121 -0.481,0.246 -0.723,0.328 -0.406,0.141 -0.816,0.207 -1.227,0.207 -0.761,0 -1.351,-0.254 -1.765,-0.757 -0.41,-0.5 -0.617,-1.219 -0.617,-2.157 0,-0.925 0.199,-1.644 0.597,-2.148 0.399,-0.504 0.996,-0.758 1.696,-0.758 0.711,0 1.152,0.18 1.386,0.367 v 1.52 h -1.539 v 1.515 h 2.981"/><path id="path28" fill="#000" fill-opacity="1" fill-rule="nonzero" stroke="none" d="m 397.863,98.264 h 1.207 l 3.817,-5.27 v 5.27 h 1.629 v -8.77 h -1.207 l -3.817,5.27 v -5.27 h -1.629 v 8.77"/><path id="path30" fill="#000" fill-opacity="1" fill-rule="nonzero" stroke="none" d="m 414.469,98.264 h 2.437 l 1.692,-5.473 1.699,5.473 h 2.058 l 0.93,-8.77 h -1.808 l -0.559,5.485 -1.711,-5.508 h -1.211 l -1.711,5.695 -0.558,-5.672 h -1.817 l 0.934,8.77"/><path id="path32" fill="#000" fill-opacity="1" fill-rule="nonzero" stroke="none" d="m 424.594,98.264 h 5.164 v -1.711 h -3.25 v -1.816 h 2.5 v -1.524 h -2.5 v -2.008 h 3.359 v -1.711 h -5.273 v 8.77"/><path id="path34" fill="#000" fill-opacity="1" fill-rule="nonzero" stroke="none" d="m 431.453,99.99 h 1.41 v -0.191 h -0.593 v -1.477 h -0.227 v 1.477 h -0.59 v 0.191"/><path id="path36" fill="#000" fill-opacity="1" fill-rule="nonzero" stroke="none" d="m 433.098,99.99 h 0.336 l 0.425,-1.132 0.426,1.132 h 0.336 v -1.668 h -0.219 v 1.465 l -0.429,-1.144 h -0.227 l -0.43,1.144 v -1.465 h -0.218 v 1.668"/><text id="text40" x="346.465" y="-89.317" fill="#000" fill-opacity="1" fill-rule="nonzero" stroke="none" font-family="Source Sans Pro Light" font-size="12.449" font-variant="normal" font-weight="300" transform="scale(1,-1)" writing-mode="lr-tb" style="-inkscape-font-specification:SourceSansPro-Light"><tspan id="tspan38" x="346.465 352.988 359.561 438.248 445.269 451.929 458.551 461.713 467.726 471.535 477.548 484.17 489.523" y="-89.317">TheConference</tspan></text><text stroke-width=".998" style="-inkscape-font-specification:Cantarell-Bold" id="text44" x="340.714" y="-49.811" fill="#000" fill-opacity="1" fill-rule="nonzero" stroke="none" font-family="Cantarell" font-size="39.122" font-variant="normal" font-weight="bold" transform="scale(1.0020838,-0.99792053)" writing-mode="lr-tb"><tspan id="tspan42" x="340.714 369.468 397.245 422.987 451.154 472.945" y="-49.811" stroke-width=".998">GUADEC</tspan></text></g></g><g id="g10" display="inline" transform="matrix(1.3333333,0,0,-1.3333333,0,1122.5197)"><flowRoot id="flowRoot143" font-family="sans-serif" font-size="40" transform="matrix(0.75000002,0,0,-0.75000002,5.1240386,774.0195)" xml:space="preserve"><flowRegion id="flowRegion145"><rect id="rect147" width="923.545" height="474.841" x="-68.619" y="383.246"/></flowRegion><flowPara style="-inkscape-font-specification:'Source Sans Pro, Normal';font-variant-ligatures:normal;font-variant-caps:normal;font-variant-numeric:normal;font-feature-settings:normal;text-align:center" id="flowPara149" font-family="Source Sans Pro" font-size="160" font-stretch="normal" font-style="normal" font-variant="normal" font-weight="normal" text-anchor="middle" writing-mode="lr-tb">TURING</flowPara></flowRoot></g><g id="g235" display="none" transform="matrix(1.3333333,0,0,-1.3333333,0,1122.5197)"><flowRoot id="flowRoot233" font-family="sans-serif" font-size="40" transform="matrix(0.75000002,0,0,-0.75000002,5.1240386,774.0195)" xml:space="preserve"><flowRegion id="flowRegion229"><rect id="rect227" width="923.545" height="474.841" x="-68.619" y="383.246"/></flowRegion><flowPara id="flowPara231" font-family="Source Sans Pro" font-size="160" font-stretch="normal" font-style="normal" font-variant="normal" font-weight="normal" text-anchor="middle" writing-mode="lr-tb" style="-inkscape-font-specification:'Source Sans Pro, Normal';font-variant-ligatures:normal;font-variant-caps:normal;font-variant-numeric:normal;font-feature-settings:normal;text-align:center">HOPPER</flowPara></flowRoot></g></svg>