<svg xmlns="http://www.w3.org/2000/svg" xmlns:svg="http://www.w3.org/2000/svg" id="svg2022" width="168mm" height="869.291" version="1.1" viewBox="0 0 168 230"><defs id="defs2016"><clipPath id="clipPath118" clipPathUnits="userSpaceOnUse"><path id="path116" d="M 0,898.583 H 651.969 V 0 H 0 Z"/></clipPath></defs><metadata id="metadata2019"/><g id="layer1" transform="translate(10,-77.000018)"><text stroke-width=".353" style="-inkscape-font-specification:SourceSansPro-Bold" id="text4476" x="-56.637" y="277.853" fill="#000" fill-opacity="1" fill-rule="nonzero" stroke="none" font-family="Source Sans Pro" font-size="4.939" font-stretch="normal" font-variant="normal" font-weight="bold" writing-mode="lr-tb"><tspan id="tspan4472" x="-56.637 -53.544 -50.047 -46.646 -43.297 -40.455" y="277.853" stroke-width=".353" font-size="4.939">BONUS:</tspan> <tspan id="tspan4474" x="-80.622 -77.922" y="177.767" stroke-width=".353" font-size="4.939">1</tspan></text><text id="text4480" x="44.127" y="184.117" fill="#000" fill-opacity="1" fill-rule="nonzero" stroke="none" stroke-width=".353" font-family="Source Sans Pro" font-size="4.939" font-stretch="normal" font-style="normal" font-variant="normal" font-weight="300" writing-mode="lr-tb" style="-inkscape-font-specification:'Source Sans Pro Light'"><tspan id="tspan4478" x="44.127 48.064 50.764 53.218 54.813 55.836 58.618 61.353 63.822 65.893 66.916 70.009 73.261 76.595 80.204 82.838 83.86 85.829 87.311 89.822 92.542 95.323 96.346 97.64 100.375 101.996" y="184.117" stroke-width=".353" font-family="Source Sans Pro" font-size="4.939" font-stretch="normal" font-style="normal" font-variant="normal" font-weight="300" style="-inkscape-font-specification:'Source Sans Pro Light'">What does GNOME stand for?</tspan></text><text stroke-width=".353" style="-inkscape-font-specification:SourceSansPro-Light" id="text4488" x="21.29" y="198.928" fill="#000" fill-opacity="1" fill-rule="nonzero" stroke="none" font-family="Source Sans Pro Light" font-size="4.939" font-stretch="normal" font-variant="normal" font-weight="300" writing-mode="lr-tb"><tspan id="tspan4486" x="21.29 25.227 27.927 30.381 31.976 32.999 36.45 38.961 41.031 42.054 43.649 46.349 48.818 49.841 52.31 54.34 56.851 59.095 60.691 61.713 64.495 66.949 68.488 70.958 71.98 73.576 76.275 78.73 80.325 81.347 84.441 87.693 91.026 94.636 97.269 98.292 101.743 104.253 106.324 107.347 108.64 111.376 114.081 116.801 119.582 122.052 124.833" y="198.928" stroke-width=".353" font-size="4.939">What was the exact date that GNOME was founded?</tspan></text><text id="text4496" x="34.078" y="213.74" fill="#000" fill-opacity="1" fill-rule="nonzero" stroke="none" stroke-width=".353" font-family="Source Sans Pro" font-size="4.939" font-stretch="normal" font-style="normal" font-variant="normal" font-weight="300" writing-mode="lr-tb" style="-inkscape-font-specification:'Source Sans Pro Light'"><tspan id="tspan4494" x="34.078 38.015 40.715 43.184 44.754 47.223 48.246 51.027 52.198 54.98 56.002 57.597 60.297 62.767 63.789 65.134 66.305 67.926 69.894 71.489 72.511 75.605 78.749 81.439 84.527 87.16 90.044 91.066 92.549 95.06 97.371 99.84 100.863 103.644 104.856 107.366 109.576 112.045" y="213.74" stroke-width=".353" font-family="Source Sans Pro" font-size="4.939" font-stretch="normal" font-style="normal" font-variant="normal" font-weight="300" style="-inkscape-font-specification:'Source Sans Pro Light'">Where did the first GUADEC take place?</tspan></text><text id="text4504" x="25.206" y="228.552" fill="#000" fill-opacity="1" fill-rule="nonzero" stroke="none" stroke-width=".353" font-family="Source Sans Pro" font-size="4.939" font-stretch="normal" font-style="normal" font-variant="normal" font-weight="300" writing-mode="lr-tb" style="-inkscape-font-specification:'Source Sans Pro Light'"><tspan id="tspan4502" x="25.206 28.458 30.968 35.12 37.59 38.612 41.348 44.068 46.537 47.56 50.295 51.64 52.663 54.258 56.957 59.427 60.45 62.96 65.742 68.523 70.594 71.616 74.352 77.072 78.094 79.69 82.389 84.859 85.881 89.133 91.664 95.167 97.375 100.11 104.262 106.732 108.352 110.423 111.446 114.15 116.661 119.095 121.564" y="228.552" stroke-width=".353" font-family="Source Sans Pro" font-size="4.939" font-stretch="normal" font-style="normal" font-variant="normal" font-weight="300" style="-inkscape-font-specification:'Source Sans Pro Light'">Name one of the apps on the Newcomers page.</tspan></text><text id="text4512" x="33.458" y="243.364" fill="#000" fill-opacity="1" fill-rule="nonzero" stroke="none" stroke-width=".353" font-family="Source Sans Pro" font-size="4.939" font-stretch="normal" font-style="normal" font-variant="normal" font-weight="300" writing-mode="lr-tb" style="-inkscape-font-specification:'Source Sans Pro Light'"><tspan id="tspan4510" x="33.458 34.685 37.405 38.428 41.93 44.63 45.8 48.096 50.796 51.818 54.027 56.762 59.467 62.187 63.782 65.587 67.816 68.839 72.29 74.801 76.871 77.894 80.987 84.239 87.573 91.183 93.816 94.838 96.132 98.867 101.572 104.292 107.074 109.543 112.325" y="243.364" stroke-width=".353" font-family="Source Sans Pro" font-size="4.939" font-stretch="normal" font-style="normal" font-variant="normal" font-weight="300" style="-inkscape-font-specification:'Source Sans Pro Light'">In which country was GNOME founded?</tspan></text><text id="text4520" x="12.486" y="258.175" fill="#000" fill-opacity="1" fill-rule="nonzero" stroke="none" stroke-width=".353" font-family="Source Sans Pro" font-size="4.939" font-stretch="normal" font-style="normal" font-variant="normal" font-weight="300" writing-mode="lr-tb" style="-inkscape-font-specification:'Source Sans Pro Light'"><tspan id="tspan4518" x="12.486 15.738 18.249 22.4 24.87 25.893 28.342 29.364 33.516 36.251 38.47 39.641 42.111 43.134 45.869 47.49 48.512 51.192 53.702 54.725 56.795 59.495 62.23 65.733 66.755 67.926 70.646 71.669 75.171 77.871 79.042 81.337 84.037 85.06 88.153 91.405 94.739 98.348 100.981 102.004 106.156 108.666 110.977 113.447 115.518 116.54 119.051 120.073 122.318 124.828 128.98 131.45 134.185" y="258.175" stroke-width=".353" font-family="Source Sans Pro" font-size="4.939" font-stretch="normal" font-style="normal" font-variant="normal" font-weight="300" style="-inkscape-font-specification:'Source Sans Pro Light'">Name 1 movie or TV show in which GNOME makes a cameo!</tspan></text><g id="g5443"><g id="g4524" stroke-width="1.223" transform="matrix(0.28835581,0,0,-0.28835581,123.04627,97.092625)"><path id="path4522" fill="#000" fill-opacity="1" fill-rule="nonzero" stroke="none" stroke-width="1.223" d="M 0,0 H -6.503 V -6.503 Z"/></g><g id="g4528" stroke-width="1.223" transform="matrix(0.28835581,0,0,-0.28835581,117.41939,91.479837)"><path id="path4526" fill="#000" fill-opacity="1" fill-rule="nonzero" stroke="none" stroke-width="1.223" d="M 0,0 H 6.503 V 6.503 Z"/></g><g id="g4532" stroke-width="1.223" transform="matrix(0.28835581,0,0,-0.28835581,139.79061,98.446975)"><path id="path4530" fill="#000" fill-opacity="1" fill-rule="nonzero" stroke="none" stroke-width="1.223" d="M 0,0 V -6.503 H 6.504 Z"/></g><g id="g4536" stroke-width="1.223" transform="matrix(0.28835581,0,0,-0.28835581,141.66717,94.70948)"><path id="path4534" fill="#000" fill-opacity="1" fill-rule="nonzero" stroke="none" stroke-width="1.223" d="M 0,0 V -6.503 H 6.504 Z"/></g><g id="g4540" stroke-width="1.223" transform="matrix(0.28835581,0,0,-0.28835581,143.5294,100.32227)"><path id="path4538" fill="#000" fill-opacity="1" fill-rule="nonzero" stroke="none" stroke-width="1.223" d="M 0,0 H -6.503 V -6.503 Z"/></g><g id="g4544" stroke-width="1.223" transform="matrix(0.28835581,0,0,-0.28835581,121.16971,97.105601)"><path id="path4542" fill="#000" fill-opacity="1" fill-rule="nonzero" stroke="none" stroke-width="1.223" d="M 0,0 V 6.503 H -6.503 Z"/></g><g id="g4548" stroke-width="1.223" transform="matrix(0.28835581,0,0,-0.28835581,121.16971,91.479837)"><path id="path4546" fill="#000" fill-opacity="1" fill-rule="nonzero" stroke="none" stroke-width="1.223" d="M 0,0 V -6.503 H 6.503 Z"/></g><text stroke-width=".353" style="-inkscape-font-specification:SourceSansPro-Light" id="text4552" x="123.575" y="102.68" fill="#000" fill-opacity="1" fill-rule="nonzero" stroke="none" font-family="Source Sans Pro Light" font-size="1.953" font-stretch="normal" font-variant="normal" font-weight="300" writing-mode="lr-tb"><tspan id="tspan4550" x="123.575 124.704 125.966 127.249 128.568 129.842" y="102.68" stroke-width=".353">YEARS</tspan></text><text stroke-width=".353" style="-inkscape-font-specification:SourceSansPro-SemiBold" id="text4556" x="130.488" y="102.68" fill="#000" fill-opacity="1" fill-rule="nonzero" stroke="none" font-family="Source Sans Pro SemiBold" font-size="1.953" font-stretch="normal" font-variant="normal" font-weight="600" writing-mode="lr-tb"><tspan id="tspan4554" x="130.488 131.809 133.131 134.543 136.116 137.653" y="102.68" stroke-width=".353">STRONG</tspan></text><g id="g4560" stroke-width="1.223" transform="matrix(0.28835581,0,0,-0.28835581,123.64859,100.3075)"><path id="path4558" fill="#000" fill-opacity="1" fill-rule="nonzero" stroke="none" stroke-width="1.223" d="m 0,0 v 5.059 c 2.448,2.289 4.636,4.426 6.663,6.414 2.027,1.987 3.774,3.854 5.24,5.601 1.465,1.746 2.609,3.372 3.433,4.878 0.822,1.505 1.234,2.941 1.234,4.306 0,1.887 -0.481,3.322 -1.445,4.306 -0.964,0.983 -2.289,1.475 -3.975,1.475 -1.406,0 -2.65,-0.391 -3.734,-1.174 -1.084,-0.783 -2.107,-1.697 -3.071,-2.74 l -4.819,4.757 c 1.887,2.008 3.815,3.524 5.783,4.547 1.966,1.024 4.315,1.536 7.045,1.536 1.887,0 3.604,-0.292 5.15,-0.873 1.545,-0.583 2.88,-1.406 4.005,-2.469 1.123,-1.065 1.987,-2.34 2.59,-3.825 0.601,-1.486 0.903,-3.152 0.903,-4.998 0,-1.607 -0.342,-3.243 -1.024,-4.908 C 23.295,20.225 22.382,18.558 21.237,16.893 20.094,15.227 18.788,13.56 17.323,11.895 16.003,10.394 13.242,7.466 13.242,7.466 L 26.868,7.468 V 0 Z"/></g><g id="g4564" stroke-width="1.223" transform="matrix(0.28835581,0,0,-0.28835581,135.32674,98.37601)"><path id="path4562" fill="#000" fill-opacity="1" fill-rule="nonzero" stroke="none" stroke-width="1.223" d="m 0,0 c 0.75,0 1.441,0.187 2.072,0.562 0.631,0.375 1.185,1.056 1.658,2.043 0.474,0.986 0.838,2.309 1.095,3.967 0.257,1.658 0.386,3.769 0.386,6.335 0,2.565 -0.129,4.667 -0.386,6.305 C 4.568,20.85 4.204,22.132 3.73,23.061 3.257,23.987 2.703,24.629 2.072,24.985 1.441,25.34 0.75,25.518 0,25.518 -0.71,25.518 -1.382,25.34 -2.013,24.985 -2.645,24.629 -3.196,23.987 -3.67,23.061 -4.144,22.132 -4.52,20.85 -4.795,19.212 -5.071,17.574 -5.21,15.472 -5.21,12.907 -5.21,10.341 -5.071,8.23 -4.795,6.572 -4.52,4.914 -4.144,3.591 -3.67,2.605 -3.196,1.618 -2.645,0.937 -2.013,0.562 -1.382,0.187 -0.71,0 0,0 m 0,-6.75 c -2.013,0 -3.848,0.425 -5.506,1.274 -1.657,0.848 -3.069,2.101 -4.232,3.759 -1.165,1.658 -2.073,3.71 -2.724,6.157 -0.651,2.447 -0.977,5.27 -0.977,8.467 0,3.197 0.326,5.999 0.977,8.407 0.651,2.407 1.559,4.43 2.724,6.069 1.163,1.637 2.575,2.861 4.232,3.67 1.658,0.809 3.493,1.214 5.506,1.214 2.014,0 3.849,-0.405 5.507,-1.214 1.657,-0.809 3.068,-2.033 4.232,-3.67 1.164,-1.639 2.073,-3.662 2.724,-6.069 0.651,-2.408 0.977,-5.21 0.977,-8.407 C 13.44,9.71 13.114,6.887 12.463,4.44 11.812,1.993 10.903,-0.059 9.739,-1.717 8.575,-3.375 7.164,-4.628 5.507,-5.476 3.849,-6.325 2.014,-6.75 0,-6.75"/></g><g id="g4568" stroke-width="1.223" transform="matrix(0.28835581,0,0,-0.28835581,132.35561,104.6327)"><path id="path4566" fill="#000" fill-opacity="1" fill-rule="nonzero" stroke="none" stroke-width="1.223" d="M 0,0 C 0.055,-0.006 0.109,-0.011 0.163,-0.019 0.317,-0.041 0.464,-0.083 0.588,-0.182 0.712,-0.28 0.776,-0.411 0.794,-0.566 0.816,-0.766 0.769,-0.955 0.699,-1.139 0.586,-1.436 0.418,-1.702 0.223,-1.952 c -0.26,-0.332 -0.557,-0.626 -0.91,-0.861 -0.171,-0.115 -0.352,-0.21 -0.553,-0.262 -0.142,-0.036 -0.283,-0.046 -0.424,0.003 -0.18,0.062 -0.294,0.192 -0.37,0.359 -0.095,0.208 -0.119,0.428 -0.108,0.653 0.022,0.41 0.146,0.789 0.367,1.134 0.239,0.374 0.56,0.652 0.981,0.807 0.181,0.067 0.367,0.103 0.56,0.114 0.01,0.001 0.021,0.003 0.033,0.005 z"/></g><g id="g4572" stroke-width="1.223" transform="matrix(0.28835581,0,0,-0.28835581,131.57417,105.65601)"><path id="path4570" fill="#000" fill-opacity="1" fill-rule="nonzero" stroke="none" stroke-width="1.223" d="M 0,0 C 0.341,-0.003 0.677,-0.036 1.005,-0.129 1.242,-0.196 1.466,-0.29 1.659,-0.446 1.84,-0.592 1.962,-0.775 2,-1.007 2.046,-1.282 1.995,-1.541 1.863,-1.785 1.734,-2.025 1.554,-2.223 1.353,-2.403 1.062,-2.662 0.741,-2.879 0.413,-3.086 c -0.316,-0.2 -0.636,-0.396 -0.95,-0.598 -0.225,-0.144 -0.443,-0.298 -0.628,-0.492 -0.068,-0.072 -0.131,-0.149 -0.183,-0.232 -0.135,-0.217 -0.132,-0.438 0.013,-0.648 0.161,-0.232 0.372,-0.408 0.637,-0.514 0.156,-0.063 0.318,-0.078 0.48,-0.023 0.202,0.07 0.324,0.217 0.387,0.417 0.038,0.125 0.046,0.253 0.028,0.381 -0.014,0.105 0.019,0.19 0.087,0.265 0.086,0.096 0.195,0.159 0.312,0.21 0.283,0.125 0.582,0.18 0.89,0.177 0.161,-0.002 0.321,-0.023 0.47,-0.091 0.11,-0.05 0.199,-0.122 0.242,-0.24 C 2.231,-4.562 2.226,-4.652 2.207,-4.742 2.104,-5.234 1.865,-5.655 1.525,-6.021 1.229,-6.34 0.882,-6.587 0.479,-6.753 c -0.322,-0.133 -0.656,-0.194 -1.004,-0.17 -0.45,0.03 -0.872,0.152 -1.275,0.348 -0.627,0.307 -1.148,0.743 -1.586,1.284 -0.313,0.386 -0.562,0.81 -0.73,1.279 -0.114,0.318 -0.183,0.645 -0.186,0.985 -0.004,0.487 0.142,0.928 0.417,1.329 0.222,0.323 0.504,0.584 0.826,0.805 0.406,0.279 0.849,0.478 1.317,0.625 0.304,0.096 0.613,0.165 0.927,0.21 0.27,0.04 0.543,0.06 0.815,0.058"/></g><g id="g4576" stroke-width="1.223" transform="matrix(0.28835581,0,0,-0.28835581,131.09968,105.07002)"><path id="path4574" fill="#000" fill-opacity="1" fill-rule="nonzero" stroke="none" stroke-width="1.223" d="M 0,0 C -0.002,0.229 0.025,0.446 0.122,0.649 0.278,0.976 0.544,1.132 0.9,1.135 1.135,1.137 1.306,1.005 1.387,0.775 1.442,0.618 1.455,0.455 1.445,0.291 1.425,-0.073 1.329,-0.417 1.161,-0.739 1.097,-0.863 1.021,-0.978 0.919,-1.075 0.853,-1.138 0.779,-1.19 0.685,-1.201 0.574,-1.214 0.484,-1.167 0.404,-1.097 0.285,-0.991 0.209,-0.856 0.148,-0.711 0.053,-0.481 0.007,-0.241 0,0"/></g><g id="g4580" stroke-width="1.223" transform="matrix(0.28835581,0,0,-0.28835581,130.90905,105.28897)"><path id="path4578" fill="#000" fill-opacity="1" fill-rule="nonzero" stroke="none" stroke-width="1.223" d="m 0,0 c -0.004,-0.222 -0.029,-0.451 -0.114,-0.669 -0.03,-0.074 -0.066,-0.144 -0.118,-0.205 -0.085,-0.099 -0.19,-0.124 -0.312,-0.084 -0.102,0.034 -0.185,0.098 -0.258,0.174 -0.195,0.202 -0.32,0.444 -0.393,0.713 -0.048,0.177 -0.065,0.356 -0.032,0.538 0.055,0.303 0.295,0.537 0.6,0.579 0.172,0.024 0.306,-0.045 0.408,-0.18 C -0.123,0.738 -0.074,0.589 -0.042,0.435 -0.012,0.295 -0.002,0.153 0,0"/></g><g id="g4584" stroke-width="1.223" transform="matrix(0.28835581,0,0,-0.28835581,130.47764,105.72346)"><path id="path4582" fill="#000" fill-opacity="1" fill-rule="nonzero" stroke="none" stroke-width="1.223" d="m 0,0 c -0.002,-0.106 -0.011,-0.233 -0.061,-0.353 -0.054,-0.132 -0.141,-0.19 -0.277,-0.175 -0.054,0.006 -0.109,0.024 -0.159,0.046 -0.12,0.053 -0.22,0.135 -0.31,0.229 -0.182,0.19 -0.318,0.406 -0.38,0.665 -0.04,0.169 -0.037,0.337 0.045,0.496 0.072,0.139 0.183,0.239 0.326,0.3 0.162,0.07 0.306,0.03 0.432,-0.087 C -0.281,1.026 -0.214,0.907 -0.158,0.78 -0.06,0.554 0,0.267 0,0"/></g></g><g id="g4588" stroke-width="1.223" transform="matrix(0.28835581,0,0,-0.28835581,20.150541,152.24043)"><path id="path4586" fill="#000" fill-opacity="1" fill-rule="nonzero" stroke="none" stroke-width="1.223" d="m 18.597073,0 c -4.179,0 -7.579,-3.4 -7.579,-7.579 v -45.815 c 0,-4.179 3.4,-7.578 7.579,-7.578 H 354.89607 c 4.179,0 7.579,3.399 7.579,7.578 v 45.815 c 0,4.179 -3.4,7.579 -7.579,7.579 z M 354.89607,-61.468 H 18.597073 c -4.452,0 -8.075,3.622 -8.075,8.074 v 45.815 c 0,4.452 3.623,8.075 8.075,8.075 H 354.89607 c 4.453,0 8.075,-3.623 8.075,-8.075 v -45.815 c 0,-4.452 -3.622,-8.074 -8.075,-8.074"/></g><flowRoot style="line-height:100%" id="flowRoot5346" font-family="sans-serif" font-size="40" transform="matrix(0.26458333,0,0,0.26458333,-159.71832,108.75002)" xml:space="preserve"><flowRegion style="line-height:100%" id="flowRegion5348"><rect style="line-height:100%" id="rect5350" width="459.797" height="278.59" x="652.565" y="17.083"/></flowRegion><flowPara style="line-height:100%;-inkscape-font-specification:'Source Sans Pro Bold';text-align:center" id="flowPara5352" font-family="Source Sans Pro" font-size="58.667" font-stretch="normal" font-style="normal" font-variant="normal" font-weight="bold" text-anchor="middle">20th Birthday Trivia</flowPara></flowRoot><text id="text5447" x="37.777" y="184.117" fill="#000" fill-opacity="1" fill-rule="nonzero" stroke="none" stroke-width=".353" font-family="Source Sans Pro" font-size="4.939" font-stretch="normal" font-style="normal" font-variant="normal" font-weight="bold" text-anchor="start" writing-mode="lr" style="-inkscape-font-specification:'Source Sans Pro, Bold';text-align:start;font-variant-ligatures:normal;font-variant-caps:normal;font-variant-numeric:normal;font-feature-settings:normal"><tspan id="tspan5445" x="37.777" y="184.117" stroke-width=".353" font-family="Source Sans Pro" font-size="4.939" font-stretch="normal" font-style="normal" font-variant="normal" font-weight="bold" text-anchor="start" writing-mode="lr" style="-inkscape-font-specification:'Source Sans Pro, Bold';text-align:start;font-variant-ligatures:normal;font-variant-caps:normal;font-variant-numeric:normal;font-feature-settings:normal">1</tspan></text><text id="text5451" x="14.94" y="198.928" fill="#000" fill-opacity="1" fill-rule="nonzero" stroke="none" stroke-width=".353" font-family="Source Sans Pro" font-size="4.939" font-stretch="normal" font-style="normal" font-variant="normal" font-weight="bold" text-anchor="start" writing-mode="lr-tb" style="-inkscape-font-specification:'Source Sans Pro, Bold';font-variant-ligatures:normal;font-variant-caps:normal;font-variant-numeric:normal;font-feature-settings:normal;text-align:start"><tspan font-stretch="normal" style="-inkscape-font-specification:'Source Sans Pro, Bold';font-variant-ligatures:normal;font-variant-caps:normal;font-variant-numeric:normal;font-feature-settings:normal;text-align:start" id="tspan5449" x="14.94" y="198.928" stroke-width=".353" font-family="Source Sans Pro" font-size="4.939" font-style="normal" font-variant="normal" font-weight="bold" text-anchor="start" writing-mode="lr-tb">2</tspan></text><text id="text5455" x="27.728" y="213.74" fill="#000" fill-opacity="1" fill-rule="nonzero" stroke="none" stroke-width=".353" font-family="Source Sans Pro" font-size="4.939" font-stretch="normal" font-style="normal" font-variant="normal" font-weight="bold" text-anchor="start" writing-mode="lr-tb" style="-inkscape-font-specification:'Source Sans Pro, Bold';font-variant-ligatures:normal;font-variant-caps:normal;font-variant-numeric:normal;font-feature-settings:normal;text-align:start"><tspan font-stretch="normal" style="-inkscape-font-specification:'Source Sans Pro, Bold';font-variant-ligatures:normal;font-variant-caps:normal;font-variant-numeric:normal;font-feature-settings:normal;text-align:start" id="tspan5453" x="27.728" y="213.74" stroke-width=".353" font-family="Source Sans Pro" font-size="4.939" font-style="normal" font-variant="normal" font-weight="bold" text-anchor="start" writing-mode="lr-tb">3</tspan></text><text id="text5459" x="18.856" y="228.552" fill="#000" fill-opacity="1" fill-rule="nonzero" stroke="none" stroke-width=".353" font-family="Source Sans Pro" font-size="4.939" font-stretch="normal" font-style="normal" font-variant="normal" font-weight="bold" text-anchor="start" writing-mode="lr-tb" style="-inkscape-font-specification:'Source Sans Pro, Bold';font-variant-ligatures:normal;font-variant-caps:normal;font-variant-numeric:normal;font-feature-settings:normal;text-align:start"><tspan font-stretch="normal" style="-inkscape-font-specification:'Source Sans Pro, Bold';font-variant-ligatures:normal;font-variant-caps:normal;font-variant-numeric:normal;font-feature-settings:normal;text-align:start" id="tspan5457" x="18.856" y="228.552" stroke-width=".353" font-family="Source Sans Pro" font-size="4.939" font-style="normal" font-variant="normal" font-weight="bold" text-anchor="start" writing-mode="lr-tb">4</tspan></text><text id="text5463" x="27.108" y="243.364" fill="#000" fill-opacity="1" fill-rule="nonzero" stroke="none" stroke-width=".353" font-family="Source Sans Pro" font-size="4.939" font-stretch="normal" font-style="normal" font-variant="normal" font-weight="bold" text-anchor="start" writing-mode="lr-tb" style="-inkscape-font-specification:'Source Sans Pro, Bold';font-variant-ligatures:normal;font-variant-caps:normal;font-variant-numeric:normal;font-feature-settings:normal;text-align:start"><tspan font-stretch="normal" style="-inkscape-font-specification:'Source Sans Pro, Bold';font-variant-ligatures:normal;font-variant-caps:normal;font-variant-numeric:normal;font-feature-settings:normal;text-align:start" id="tspan5461" x="27.108" y="243.364" stroke-width=".353" font-family="Source Sans Pro" font-size="4.939" font-style="normal" font-variant="normal" font-weight="bold" text-anchor="start" writing-mode="lr-tb">5</tspan></text><text id="text5467" x="6.136" y="258.175" fill="#000" fill-opacity="1" fill-rule="nonzero" stroke="none" stroke-width=".353" font-family="Source Sans Pro" font-size="4.939" font-stretch="normal" font-style="normal" font-variant="normal" font-weight="bold" text-anchor="start" writing-mode="lr-tb" style="-inkscape-font-specification:'Source Sans Pro, Bold';font-variant-ligatures:normal;font-variant-caps:normal;font-variant-numeric:normal;font-feature-settings:normal;text-align:start"><tspan font-stretch="normal" style="-inkscape-font-specification:'Source Sans Pro, Bold';font-variant-ligatures:normal;font-variant-caps:normal;font-variant-numeric:normal;font-feature-settings:normal;text-align:start" id="tspan5465" x="6.136" y="258.175" stroke-width=".353" font-family="Source Sans Pro" font-size="4.939" font-style="normal" font-variant="normal" font-weight="bold" text-anchor="start" writing-mode="lr-tb">6</tspan></text><text id="text5471" x="65.406" y="276.167" fill="#000" fill-opacity="1" fill-rule="nonzero" stroke="none" stroke-width=".353" font-family="Source Sans Pro" font-size="4.939" font-stretch="normal" font-style="normal" font-variant="normal" font-weight="bold" text-anchor="start" writing-mode="lr-tb" style="-inkscape-font-specification:'Source Sans Pro, Bold';font-variant-ligatures:normal;font-variant-caps:normal;font-variant-numeric:normal;font-feature-settings:normal;text-align:start"><tspan font-stretch="normal" style="-inkscape-font-specification:'Source Sans Pro, Bold';font-variant-ligatures:normal;font-variant-caps:normal;font-variant-numeric:normal;font-feature-settings:normal;text-align:start" id="tspan5469" x="65.406" y="276.167" stroke-width=".353" font-family="Source Sans Pro" font-size="4.939" font-style="normal" font-variant="normal" font-weight="bold" text-anchor="start" writing-mode="lr-tb">BONUS:</tspan></text><flowRoot id="flowRoot6771" font-family="Source Sans Pro" font-size="18.667" font-stretch="normal" font-style="normal" font-variant="normal" font-weight="300" text-anchor="middle" transform="matrix(0.26458333,0,0,0.26458333,-37.937443,254.50909)" xml:space="preserve" style="line-height:20px;-inkscape-font-specification:'Source Sans Pro Light';text-align:center"><flowRegion style="line-height:20px;-inkscape-font-specification:'Source Sans Pro Light';text-align:center" id="flowRegion6767" font-family="Source Sans Pro" font-size="18.667" font-stretch="normal" font-style="normal" font-variant="normal" font-weight="300" text-anchor="middle"><rect id="rect6765" width="535.147" height="109.026" x="154.688" y="94.482" font-family="Source Sans Pro" font-size="18.667" font-stretch="normal" font-style="normal" font-variant="normal" font-weight="300" text-anchor="middle" style="line-height:20px;-inkscape-font-specification:'Source Sans Pro Light';text-align:center"/></flowRegion><flowPara id="flowPara6769" fill="#000" fill-opacity="1" stroke="none" stroke-dasharray="none" stroke-dashoffset="0" stroke-linecap="butt" stroke-linejoin="miter" stroke-miterlimit="4" stroke-opacity="1" stroke-width=".353" baseline-shift="baseline" direction="ltr" dominant-baseline="auto" font-family="Source Sans Pro" font-size="18.667" font-stretch="normal" font-style="normal" font-variant="normal" font-weight="300" letter-spacing="normal" opacity="1" text-anchor="middle" text-decoration="none" vector-effect="none" word-spacing="normal" writing-mode="lr-tb" style="line-height:20px;-inkscape-font-specification:'Source Sans Pro, Light';font-variant-ligatures:normal;font-variant-position:normal;font-variant-caps:normal;font-variant-numeric:normal;font-variant-alternates:normal;font-variant-east-asian:normal;font-feature-settings:normal;text-indent:0;text-align:center;text-decoration-line:none;text-decoration-style:solid;text-decoration-color:#000;text-transform:none;text-orientation:mixed;white-space:normal;shape-padding:0">Nominate someone you&apos;d like to see featured on the Engagement blog</flowPara><flowPara id="flowPara6797" font-family="Source Sans Pro" font-size="18.667" font-stretch="normal" font-style="normal" font-variant="normal" font-weight="300" text-anchor="middle" writing-mode="lr-tb" style="line-height:20px;-inkscape-font-specification:'Source Sans Pro, Light';font-variant-ligatures:normal;font-variant-caps:normal;font-variant-numeric:normal;font-feature-settings:normal;text-align:center">(https://blogs.gnome.org/engagement/).</flowPara><flowPara id="flowPara6799" font-family="Source Sans Pro" font-size="18.667" font-stretch="normal" font-style="normal" font-variant="normal" font-weight="300" text-anchor="middle" writing-mode="lr-tb" style="line-height:20px;-inkscape-font-specification:'Source Sans Pro, Light';font-variant-ligatures:normal;font-variant-caps:normal;font-variant-numeric:normal;font-feature-settings:normal;text-align:center">Include why, and your e-mail!</flowPara></flowRoot><flowRoot id="flowRoot6809" font-family="sans-serif" font-size="40" transform="matrix(0.26458333,0,0,0.26458333,-21.234926,130.49718)" xml:space="preserve" style="line-height:11px"><flowRegion id="flowRegion6803" style="line-height:11px"><rect id="rect6801" width="410.539" height="108.225" x="154.688" y="94.482" style="line-height:11.00000014px"/></flowRegion><flowPara id="flowPara6805" font-family="Source Sans Pro" font-size="16" font-stretch="normal" font-style="normal" font-variant="normal" font-weight="bold" text-anchor="middle" writing-mode="lr-tb" style="line-height:11px;-inkscape-font-specification:'Source Sans Pro, Bold';font-variant-ligatures:normal;font-variant-caps:normal;font-variant-numeric:normal;font-feature-settings:normal;text-align:center">RAFFLE:</flowPara><flowPara id="flowPara6807" font-family="Source Sans Pro" font-size="16" font-stretch="normal" font-style="normal" font-variant="normal" font-weight="bold" text-anchor="middle" writing-mode="lr-tb" style="line-height:11px;-inkscape-font-specification:'Source Sans Pro, Bold';font-variant-ligatures:normal;font-variant-caps:normal;font-variant-numeric:normal;font-feature-settings:normal;text-align:center">1 ticket for every correct answer</flowPara></flowRoot></g><g id="printing-marks" display="inline" transform="translate(10,71.999982)"><path id="cropTL1" fill="none" stroke="#000" stroke-width=".224" d="m -5,148.0002 h -5"/><path id="cropTL2" fill="none" stroke="#000" stroke-width=".224" d="m 9.2316533e-7,153 v 5"/><path id="cropTR1" fill="none" stroke="#000" stroke-width=".224" d="m -5,-61.999795 h -5"/><path id="cropTR2" fill="none" stroke="#000" stroke-width=".224" d="m 9.2316284e-7,-66.999982 v -5"/><path id="cropBL1" fill="none" stroke="#000" stroke-width=".224" d="m 153,148.00001 h 5"/><path id="cropBL2" fill="none" stroke="#000" stroke-width=".224" d="m 148.0004,153 v 5"/><path id="cropBR1" fill="none" stroke="#000" stroke-width=".224" d="m 153,-61.999982 h 5"/><path id="cropBR2" fill="none" stroke="#000" stroke-width=".224" d="m 148,-66.999982 v -5"/></g></svg>