<svg xmlns="http://www.w3.org/2000/svg" xmlns:svg="http://www.w3.org/2000/svg" id="svg2022" width="168mm" height="869.291" version="1.1" viewBox="0 0 168 230"><defs id="defs2016"><clipPath id="clipPath118" clipPathUnits="userSpaceOnUse"><path id="path116" d="M 0,898.583 H 651.969 V 0 H 0 Z"/></clipPath></defs><metadata id="metadata2019"/><g id="layer1" transform="translate(10,-77.000018)"><path id="path4948" stroke-width=".265" d="m 46.431405,186.22037 h -33.17083 a 2.4813163,2.4813163 0 0 1 -2.47846,-2.47846 v -33.17083 a 2.4813163,2.4813163 0 0 1 2.47846,-2.47846 h 33.17083 a 2.4813163,2.4813163 0 0 1 2.478461,2.47846 v 33.17083 a 2.4813163,2.4813163 0 0 1 -2.478461,2.47846 z m -33.17083,-37.97641 a 2.3385478,2.3385478 0 0 0 -2.335692,2.33569 v 33.16226 a 2.3385478,2.3385478 0 0 0 2.335692,2.3357 h 33.17083 a 2.3385478,2.3385478 0 0 0 2.335693,-2.3357 v -33.17083 a 2.3385478,2.3385478 0 0 0 -2.335693,-2.33569 z"/><path id="path4964" stroke-width=".265" d="m 90.583987,186.22037 h -33.17083 a 2.4813163,2.4813163 0 0 1 -2.478461,-2.47846 v -33.17083 a 2.4813163,2.4813163 0 0 1 2.478461,-2.47846 h 33.17083 a 2.4813163,2.4813163 0 0 1 2.478461,2.47846 v 33.17083 a 2.4813163,2.4813163 0 0 1 -2.478461,2.47846 z m -33.17083,-37.97641 a 2.3385478,2.3385478 0 0 0 -2.335692,2.33569 v 33.16226 a 2.3385478,2.3385478 0 0 0 2.335692,2.3357 h 33.17083 a 2.3385478,2.3385478 0 0 0 2.335692,-2.3357 v -33.17083 a 2.3385478,2.3385478 0 0 0 -2.335692,-2.33569 z"/><path id="path4992" stroke-width=".265" d="m 134.73942,186.22037 h -33.17368 a 2.4813163,2.4813163 0 0 1 -2.478462,-2.47846 v -33.17083 a 2.4813163,2.4813163 0 0 1 2.478462,-2.47846 h 33.17368 a 2.4813163,2.4813163 0 0 1 2.47846,2.47846 v 33.17083 a 2.4813163,2.4813163 0 0 1 -2.47846,2.47846 z m -33.17083,-37.97641 a 2.3385478,2.3385478 0 0 0 -2.335688,2.33569 v 33.16226 a 2.3385478,2.3385478 0 0 0 2.335688,2.3357 h 33.17083 a 2.3385478,2.3385478 0 0 0 2.3357,-2.3357 v -33.17083 a 2.3385478,2.3385478 0 0 0 -2.3357,-2.33569 z"/><path id="path5014" stroke-width=".265" d="m 46.431405,229.5192 h -33.17083 a 2.4813163,2.4813163 0 0 1 -2.47846,-2.47846 v -33.17083 a 2.4813163,2.4813163 0 0 1 2.47846,-2.47846 h 33.17083 a 2.4813163,2.4813163 0 0 1 2.478461,2.47846 v 33.17083 a 2.4813163,2.4813163 0 0 1 -2.478461,2.47846 z m -33.17083,-37.97642 a 2.3385478,2.3385478 0 0 0 -2.335692,2.3357 v 33.16226 a 2.3385478,2.3385478 0 0 0 2.335692,2.33569 h 33.17083 a 2.3385478,2.3385478 0 0 0 2.335693,-2.33569 v -33.17083 a 2.3385478,2.3385478 0 0 0 -2.335693,-2.33569 z"/><path id="path5040" stroke-width=".265" d="m 90.583987,229.5192 h -33.17083 a 2.4813163,2.4813163 0 0 1 -2.478461,-2.47846 v -33.17083 a 2.4813163,2.4813163 0 0 1 2.478461,-2.47846 h 33.17083 a 2.4813163,2.4813163 0 0 1 2.478461,2.47846 v 33.17083 a 2.4813163,2.4813163 0 0 1 -2.478461,2.47846 z m -33.17083,-37.97642 a 2.3385478,2.3385478 0 0 0 -2.335692,2.3357 v 33.16226 a 2.3385478,2.3385478 0 0 0 2.335692,2.33569 h 33.17083 a 2.3385478,2.3385478 0 0 0 2.335692,-2.33569 v -33.17083 a 2.3385478,2.3385478 0 0 0 -2.335692,-2.33569 z"/><path id="path5064" stroke-width=".265" d="m 134.73942,229.5192 h -33.17368 a 2.4813163,2.4813163 0 0 1 -2.478462,-2.47846 v -33.17083 a 2.4813163,2.4813163 0 0 1 2.478462,-2.47846 h 33.17368 a 2.4813163,2.4813163 0 0 1 2.46704,2.47846 v 33.17083 a 2.4813163,2.4813163 0 0 1 -2.46704,2.47846 z m -33.17083,-37.97642 a 2.3385478,2.3385478 0 0 0 -2.338544,2.32713 v 33.17083 a 2.3385478,2.3385478 0 0 0 2.335694,2.33569 h 33.17368 a 2.3385478,2.3385478 0 0 0 2.3357,-2.33569 v -33.17083 a 2.3385478,2.3385478 0 0 0 -2.3357,-2.33569 z"/><path id="path5086" stroke-width=".265" d="m 46.431405,272.81803 h -33.17083 a 2.4813163,2.4813163 0 0 1 -2.47846,-2.47846 v -33.17083 a 2.4813163,2.4813163 0 0 1 2.47846,-2.47847 h 33.17083 a 2.4813163,2.4813163 0 0 1 2.478461,2.47847 v 33.17083 a 2.4813163,2.4813163 0 0 1 -2.478461,2.47846 z m -33.17083,-37.97642 a 2.3385478,2.3385478 0 0 0 -2.335692,2.33569 v 33.16227 a 2.3385478,2.3385478 0 0 0 2.335692,2.33569 h 33.17083 a 2.3385478,2.3385478 0 0 0 2.335693,-2.33569 v -33.17083 a 2.3385478,2.3385478 0 0 0 -2.335693,-2.3357 z"/><path id="path5116" stroke-width=".265" d="m 90.583987,272.81803 h -33.17083 a 2.4813163,2.4813163 0 0 1 -2.478461,-2.47846 v -33.17083 a 2.4813163,2.4813163 0 0 1 2.478461,-2.47847 h 33.17083 a 2.4813163,2.4813163 0 0 1 2.478461,2.47847 v 33.17083 a 2.4813163,2.4813163 0 0 1 -2.478461,2.47846 z m -33.17083,-37.97642 a 2.3385478,2.3385478 0 0 0 -2.335692,2.33569 v 33.16227 a 2.3385478,2.3385478 0 0 0 2.335692,2.33569 h 33.17083 a 2.3385478,2.3385478 0 0 0 2.335692,-2.33569 v -33.17083 a 2.3385478,2.3385478 0 0 0 -2.335692,-2.3357 z"/><path id="path5126" stroke-width=".265" d="m 134.73942,272.81803 h -33.17368 a 2.4813163,2.4813163 0 0 1 -2.478462,-2.47846 v -33.17083 a 2.4813163,2.4813163 0 0 1 2.478462,-2.47847 h 33.17368 a 2.4813163,2.4813163 0 0 1 2.47846,2.47847 v 33.17083 a 2.4813163,2.4813163 0 0 1 -2.47846,2.47846 z m -33.17083,-37.97642 a 2.3385478,2.3385478 0 0 0 -2.335688,2.33569 v 33.16227 a 2.3385478,2.3385478 0 0 0 2.335688,2.33569 h 33.17083 a 2.3385478,2.3385478 0 0 0 2.3357,-2.33569 v -33.17083 a 2.3385478,2.3385478 0 0 0 -2.3357,-2.3357 z"/><path id="path5218" stroke-width=".265" d="M 122.31286,114.15385 H 25.684289 a 2.3214156,2.3214156 0 0 1 -2.321416,-2.32142 V 96.390595 a 2.3214156,2.3214156 0 0 1 2.321416,-2.321416 h 96.628571 a 2.3214156,2.3214156 0 0 1 2.32998,2.321416 v 15.441835 a 2.3214156,2.3214156 0 0 1 -2.32998,2.32142 z M 25.684289,94.211948 a 2.1815025,2.1815025 0 0 0 -2.178647,2.178647 v 15.441835 a 2.1815025,2.1815025 0 0 0 2.178647,2.17865 h 96.628571 a 2.1815025,2.1815025 0 0 0 2.17864,-2.17865 V 96.390595 a 2.1815025,2.1815025 0 0 0 -2.17864,-2.178647 z"/><flowRoot id="flowRoot5874" stroke-width=".927" font-family="Source Sans Pro" font-size="12" font-stretch="normal" font-style="normal" font-variant="normal" font-weight="300" text-anchor="middle" transform="matrix(0.26458333,0,0,0.26458333,-10,66.416688)" writing-mode="lr-tb" xml:space="preserve" style="-inkscape-font-specification:'Source Sans Pro, Light';font-variant-ligatures:normal;font-variant-caps:normal;font-variant-numeric:normal;font-feature-settings:normal;text-align:center"><flowRegion id="flowRegion5876" font-family="Source Sans Pro" font-size="12" font-stretch="normal" font-style="normal" font-variant="normal" font-weight="300" text-anchor="middle" writing-mode="lr-tb" style="-inkscape-font-specification:'Source Sans Pro, Light';font-variant-ligatures:normal;font-variant-caps:normal;font-variant-numeric:normal;font-feature-settings:normal;text-align:center"><rect id="rect5878" width="123.181" height="58.254" x="88.143" y="321.269" font-family="Source Sans Pro" font-size="12" font-stretch="normal" font-style="normal" font-variant="normal" font-weight="300" text-anchor="middle" writing-mode="lr" style="-inkscape-font-specification:'Source Sans Pro, Light';font-variant-ligatures:normal;font-variant-caps:normal;font-variant-numeric:normal;font-feature-settings:normal;text-align:center"/></flowRegion><flowPara id="flowPara5880">Someone who is a GNOME foundation member</flowPara></flowRoot><flowRoot id="flowRoot5888" stroke-width=".927" font-family="Source Sans Pro" font-size="12" font-stretch="normal" font-style="normal" font-variant="normal" font-weight="300" text-anchor="middle" transform="matrix(0.26458333,0,0,0.26458333,34.299059,66.416688)" writing-mode="lr-tb" xml:space="preserve" style="-inkscape-font-specification:'Source Sans Pro, Light';font-variant-ligatures:normal;font-variant-caps:normal;font-variant-numeric:normal;font-feature-settings:normal;text-align:center"><flowRegion style="-inkscape-font-specification:'Source Sans Pro, Light';font-variant-ligatures:normal;font-variant-caps:normal;font-variant-numeric:normal;font-feature-settings:normal;text-align:center" id="flowRegion5884" font-family="Source Sans Pro" font-size="12" font-stretch="normal" font-style="normal" font-variant="normal" font-weight="300" text-anchor="middle" writing-mode="lr-tb"><rect id="rect5882" width="123.181" height="58.254" x="88.143" y="321.269" font-family="Source Sans Pro" font-size="12" font-stretch="normal" font-style="normal" font-variant="normal" font-weight="300" text-anchor="middle" writing-mode="lr" style="-inkscape-font-specification:'Source Sans Pro, Light';font-variant-ligatures:normal;font-variant-caps:normal;font-variant-numeric:normal;font-feature-settings:normal;text-align:center"/></flowRegion><flowPara id="flowPara5886">Someone who attended the last 3 GUADECs (excluding 2017)</flowPara></flowRoot><flowRoot id="flowRoot5896" stroke-width=".927" font-family="Source Sans Pro" font-size="12" font-stretch="normal" font-style="normal" font-variant="normal" font-weight="300" text-anchor="middle" transform="matrix(0.26458333,0,0,0.26458333,78.468945,66.416688)" writing-mode="lr-tb" xml:space="preserve" style="-inkscape-font-specification:'Source Sans Pro, Light';font-variant-ligatures:normal;font-variant-caps:normal;font-variant-numeric:normal;font-feature-settings:normal;text-align:center"><flowRegion id="flowRegion5892" font-family="Source Sans Pro" font-size="12" font-stretch="normal" font-style="normal" font-variant="normal" font-weight="300" text-anchor="middle" writing-mode="lr-tb" style="-inkscape-font-specification:'Source Sans Pro, Light';font-variant-ligatures:normal;font-variant-caps:normal;font-variant-numeric:normal;font-feature-settings:normal;text-align:center"><rect id="rect5890" width="123.181" height="58.254" x="88.143" y="321.269" font-family="Source Sans Pro" font-size="12" font-stretch="normal" font-style="normal" font-variant="normal" font-weight="300" text-anchor="middle" writing-mode="lr" style="-inkscape-font-specification:'Source Sans Pro, Light';font-variant-ligatures:normal;font-variant-caps:normal;font-variant-numeric:normal;font-feature-settings:normal;text-align:center"/></flowRegion><flowPara id="flowPara5894">Someone who made their first contribution to GNOME this year</flowPara></flowRoot><flowRoot id="flowRoot5904" stroke-width=".927" font-family="Source Sans Pro" font-size="12" font-stretch="normal" font-style="normal" font-variant="normal" font-weight="300" text-anchor="middle" transform="matrix(0.26458333,0,0,0.26458333,-10,110.33754)" writing-mode="lr-tb" xml:space="preserve" style="-inkscape-font-specification:'Source Sans Pro, Light';font-variant-ligatures:normal;font-variant-caps:normal;font-variant-numeric:normal;font-feature-settings:normal;text-align:center"><flowRegion style="-inkscape-font-specification:'Source Sans Pro, Light';font-variant-ligatures:normal;font-variant-caps:normal;font-variant-numeric:normal;font-feature-settings:normal;text-align:center" id="flowRegion5900" font-family="Source Sans Pro" font-size="12" font-stretch="normal" font-style="normal" font-variant="normal" font-weight="300" text-anchor="middle" writing-mode="lr-tb"><rect id="rect5898" width="123.181" height="58.254" x="88.143" y="321.269" font-family="Source Sans Pro" font-size="12" font-stretch="normal" font-style="normal" font-variant="normal" font-weight="300" text-anchor="middle" writing-mode="lr" style="-inkscape-font-specification:'Source Sans Pro, Light';font-variant-ligatures:normal;font-variant-caps:normal;font-variant-numeric:normal;font-feature-settings:normal;text-align:center"/></flowRegion><flowPara id="flowPara5902">Someone who is attending GUADEC for the first time</flowPara></flowRoot><flowRoot id="flowRoot5912" stroke-width=".927" font-family="Source Sans Pro" font-size="12" font-stretch="normal" font-style="normal" font-variant="normal" font-weight="300" text-anchor="middle" transform="matrix(0.26458333,0,0,0.26458333,34.299059,110.33754)" writing-mode="lr-tb" xml:space="preserve" style="-inkscape-font-specification:'Source Sans Pro, Light';font-variant-ligatures:normal;font-variant-caps:normal;font-variant-numeric:normal;font-feature-settings:normal;text-align:center"><flowRegion id="flowRegion5908" font-family="Source Sans Pro" font-size="12" font-stretch="normal" font-style="normal" font-variant="normal" font-weight="300" text-anchor="middle" writing-mode="lr-tb" style="-inkscape-font-specification:'Source Sans Pro, Light';font-variant-ligatures:normal;font-variant-caps:normal;font-variant-numeric:normal;font-feature-settings:normal;text-align:center"><rect id="rect5906" width="123.207" height="72.029" x="88.143" y="321.269" font-family="Source Sans Pro" font-size="12" font-stretch="normal" font-style="normal" font-variant="normal" font-weight="300" text-anchor="middle" writing-mode="lr" style="-inkscape-font-specification:'Source Sans Pro, Light';font-variant-ligatures:normal;font-variant-caps:normal;font-variant-numeric:normal;font-feature-settings:normal;text-align:center"/></flowRegion><flowPara id="flowPara5910">Someone who participated in GSoC or Outreachy (or OPW) with GNOME</flowPara></flowRoot><flowRoot id="flowRoot5920" stroke-width=".927" font-family="Source Sans Pro" font-size="12" font-stretch="normal" font-style="normal" font-variant="normal" font-weight="300" text-anchor="middle" transform="matrix(0.26458333,0,0,0.26458333,78.468945,110.33754)" writing-mode="lr-tb" xml:space="preserve" style="-inkscape-font-specification:'Source Sans Pro, Light';font-variant-ligatures:normal;font-variant-caps:normal;font-variant-numeric:normal;font-feature-settings:normal;text-align:center"><flowRegion style="-inkscape-font-specification:'Source Sans Pro, Light';font-variant-ligatures:normal;font-variant-caps:normal;font-variant-numeric:normal;font-feature-settings:normal;text-align:center" id="flowRegion5916" font-family="Source Sans Pro" font-size="12" font-stretch="normal" font-style="normal" font-variant="normal" font-weight="300" text-anchor="middle" writing-mode="lr-tb"><rect id="rect5914" width="123.181" height="58.254" x="88.143" y="321.269" font-family="Source Sans Pro" font-size="12" font-stretch="normal" font-style="normal" font-variant="normal" font-weight="300" text-anchor="middle" writing-mode="lr" style="-inkscape-font-specification:'Source Sans Pro, Light';font-variant-ligatures:normal;font-variant-caps:normal;font-variant-numeric:normal;font-feature-settings:normal;text-align:center"/></flowRegion><flowPara id="flowPara5918">Someone who has helped to organize a GUADEC</flowPara></flowRoot><flowRoot id="flowRoot5928" stroke-width=".927" font-family="Source Sans Pro" font-size="12" font-stretch="normal" font-style="normal" font-variant="normal" font-weight="300" text-anchor="middle" transform="matrix(0.26458333,0,0,0.26458333,-10,153.72919)" writing-mode="lr-tb" xml:space="preserve" style="-inkscape-font-specification:'Source Sans Pro, Light';font-variant-ligatures:normal;font-variant-caps:normal;font-variant-numeric:normal;font-feature-settings:normal;text-align:center"><flowRegion id="flowRegion5924" font-family="Source Sans Pro" font-size="12" font-stretch="normal" font-style="normal" font-variant="normal" font-weight="300" text-anchor="middle" writing-mode="lr-tb" style="-inkscape-font-specification:'Source Sans Pro, Light';font-variant-ligatures:normal;font-variant-caps:normal;font-variant-numeric:normal;font-feature-settings:normal;text-align:center"><rect id="rect5922" width="123.181" height="58.254" x="88.143" y="321.269" font-family="Source Sans Pro" font-size="12" font-stretch="normal" font-style="normal" font-variant="normal" font-weight="300" text-anchor="middle" writing-mode="lr" style="-inkscape-font-specification:'Source Sans Pro, Light';font-variant-ligatures:normal;font-variant-caps:normal;font-variant-numeric:normal;font-feature-settings:normal;text-align:center"/></flowRegion><flowPara id="flowPara5926">Someone who has contributed photos to GNOME (THANK YOU! *)</flowPara></flowRoot><flowRoot id="flowRoot5936" stroke-width=".927" font-family="Source Sans Pro" font-size="12" font-stretch="normal" font-style="normal" font-variant="normal" font-weight="300" text-anchor="middle" transform="matrix(0.26458333,0,0,0.26458333,34.299059,153.72919)" writing-mode="lr-tb" xml:space="preserve" style="-inkscape-font-specification:'Source Sans Pro, Light';font-variant-ligatures:normal;font-variant-caps:normal;font-variant-numeric:normal;font-feature-settings:normal;text-align:center"><flowRegion style="-inkscape-font-specification:'Source Sans Pro, Light';font-variant-ligatures:normal;font-variant-caps:normal;font-variant-numeric:normal;font-feature-settings:normal;text-align:center" id="flowRegion5932" font-family="Source Sans Pro" font-size="12" font-stretch="normal" font-style="normal" font-variant="normal" font-weight="300" text-anchor="middle" writing-mode="lr-tb"><rect id="rect5930" width="123.207" height="72.029" x="88.143" y="321.269" font-family="Source Sans Pro" font-size="12" font-stretch="normal" font-style="normal" font-variant="normal" font-weight="300" text-anchor="middle" writing-mode="lr" style="-inkscape-font-specification:'Source Sans Pro, Light';font-variant-ligatures:normal;font-variant-caps:normal;font-variant-numeric:normal;font-feature-settings:normal;text-align:center"/></flowRegion><flowPara id="flowPara5934">Someone who IS A &quot;Friend of GNOME&quot;</flowPara></flowRoot><flowRoot id="flowRoot5944" stroke-width=".927" font-family="Source Sans Pro" font-size="12" font-stretch="normal" font-style="normal" font-variant="normal" font-weight="300" text-anchor="middle" transform="matrix(0.26458333,0,0,0.26458333,78.468945,153.72919)" writing-mode="lr-tb" xml:space="preserve" style="-inkscape-font-specification:'Source Sans Pro, Light';font-variant-ligatures:normal;font-variant-caps:normal;font-variant-numeric:normal;font-feature-settings:normal;text-align:center"><flowRegion id="flowRegion5940" font-family="Source Sans Pro" font-size="12" font-stretch="normal" font-style="normal" font-variant="normal" font-weight="300" text-anchor="middle" writing-mode="lr-tb" style="-inkscape-font-specification:'Source Sans Pro, Light';font-variant-ligatures:normal;font-variant-caps:normal;font-variant-numeric:normal;font-feature-settings:normal;text-align:center"><rect id="rect5938" width="123.181" height="58.254" x="88.143" y="321.269" font-family="Source Sans Pro" font-size="12" font-stretch="normal" font-style="normal" font-variant="normal" font-weight="300" text-anchor="middle" writing-mode="lr" style="-inkscape-font-specification:'Source Sans Pro, Light';font-variant-ligatures:normal;font-variant-caps:normal;font-variant-numeric:normal;font-feature-settings:normal;text-align:center"/></flowRegion><flowPara id="flowPara5942">Three different people who live in three different continents</flowPara></flowRoot><flowRoot id="flowRoot5952" stroke-width=".927" font-family="Source Sans Pro" font-size="12" font-stretch="normal" font-style="normal" font-variant="normal" font-weight="300" text-anchor="start" transform="matrix(0.26458333,0,0,0.26458333,-12.672293,198.17919)" writing-mode="lr-tb" xml:space="preserve" style="-inkscape-font-specification:'Source Sans Pro Light';font-variant-ligatures:normal;font-variant-caps:normal;font-variant-numeric:normal;font-feature-settings:normal;text-align:start"><flowRegion style="-inkscape-font-specification:'Source Sans Pro Light';font-variant-ligatures:normal;font-variant-caps:normal;font-variant-numeric:normal;font-feature-settings:normal;text-align:start" id="flowRegion5948" font-family="Source Sans Pro" font-size="12" font-stretch="normal" font-style="normal" font-variant="normal" font-weight="300" text-anchor="start" writing-mode="lr-tb"><rect id="rect5946" width="325.876" height="59.818" x="88.143" y="321.269" font-family="Source Sans Pro" font-size="12" font-stretch="normal" font-style="normal" font-variant="normal" font-weight="300" text-anchor="start" writing-mode="lr-tb" style="-inkscape-font-specification:'Source Sans Pro Light';font-variant-ligatures:normal;font-variant-caps:normal;font-variant-numeric:normal;font-feature-settings:normal;text-align:start"/></flowRegion><flowPara id="flowPara5950">* Submit your photos! Read how to do that here:</flowPara><flowPara id="flowPara6082">https://wiki.gnome.org/Engagement/Photos/HowTo</flowPara></flowRoot><flowRoot style="-inkscape-font-specification:'Source Sans Pro Bold'" id="flowRoot6727" fill="none" font-family="Source Sans Pro" font-size="16" font-stretch="normal" font-style="normal" font-variant="normal" font-weight="bold" xml:space="preserve"><flowRegion style="-inkscape-font-specification:'Source Sans Pro Bold'" id="flowRegion6729" fill="none" font-family="Source Sans Pro" font-size="16" font-stretch="normal" font-style="normal" font-variant="normal" font-weight="bold"><rect id="rect6731" width="345.963" height="67.851" x="182.521" y="87.499" fill="none" font-family="Source Sans Pro" font-size="16" font-stretch="normal" font-style="normal" font-variant="normal" font-weight="bold" style="-inkscape-font-specification:'Source Sans Pro Bold'"/></flowRegion><flowPara id="flowPara6733"/></flowRoot><flowRoot style="line-height:11px" id="flowRoot6735" font-family="sans-serif" font-size="40" transform="matrix(0.26458333,0,0,0.26458333,-21.232069,73.577445)" xml:space="preserve"><flowRegion style="line-height:11px" id="flowRegion6737"><rect style="line-height:11.00000014px" id="rect6739" width="410.539" height="108.225" x="154.688" y="94.482"/></flowRegion><flowPara style="line-height:11px;-inkscape-font-specification:'Source Sans Pro, Bold';font-variant-ligatures:normal;font-variant-caps:normal;font-variant-numeric:normal;font-feature-settings:normal;text-align:center" id="flowPara6741" font-family="Source Sans Pro" font-size="16" font-stretch="normal" font-style="normal" font-variant="normal" font-weight="bold" text-anchor="middle" writing-mode="lr-tb">RAFFLE:</flowPara><flowPara style="line-height:11px;-inkscape-font-specification:'Source Sans Pro, Bold';font-variant-ligatures:normal;font-variant-caps:normal;font-variant-numeric:normal;font-feature-settings:normal;text-align:center" id="flowPara6743" font-family="Source Sans Pro" font-size="16" font-stretch="normal" font-style="normal" font-variant="normal" font-weight="bold" text-anchor="middle" writing-mode="lr-tb">1 ticket for every row completed (max 3 tickets)</flowPara></flowRoot><flowRoot id="flowRoot6761" font-family="sans-serif" font-size="18.667" transform="matrix(0.26458333,0,0,0.26458333,-13.905732,100.03578)" xml:space="preserve" style="line-height:22px"><flowRegion id="flowRegion6755" font-size="18.667" style="line-height:22px"><rect id="rect6753" width="354.262" height="113.716" x="154.688" y="94.482" font-size="18.667" style="line-height:22px"/></flowRegion><flowPara id="flowPara6759" font-family="Source Sans Pro" font-size="18.667" font-stretch="normal" font-style="normal" font-variant="normal" font-weight="bold" text-anchor="middle" writing-mode="lr-tb" style="line-height:22px;-inkscape-font-specification:'Source Sans Pro, Bold';font-variant-ligatures:normal;font-variant-caps:normal;font-variant-numeric:normal;font-feature-settings:normal;text-align:center">Get someone to initial your sheet under the items they meet (no duplicates!)</flowPara></flowRoot></g><g id="printing-marks" display="inline" transform="translate(10,71.999982)"><path id="cropTL1" fill="none" stroke="#000" stroke-width=".224" d="m -5,148.0002 h -5"/><path id="cropTL2" fill="none" stroke="#000" stroke-width=".224" d="m 9.2316533e-7,153 v 5"/><path id="cropTR1" fill="none" stroke="#000" stroke-width=".224" d="m -5,-61.999795 h -5"/><path id="cropTR2" fill="none" stroke="#000" stroke-width=".224" d="m 9.2316284e-7,-66.999982 v -5"/><path id="cropBL1" fill="none" stroke="#000" stroke-width=".224" d="m 153,148.00001 h 5"/><path id="cropBL2" fill="none" stroke="#000" stroke-width=".224" d="m 148.0004,153 v 5"/><path id="cropBR1" fill="none" stroke="#000" stroke-width=".224" d="m 153,-61.999982 h 5"/><path id="cropBR2" fill="none" stroke="#000" stroke-width=".224" d="m 148,-66.999982 v -5"/></g></svg>