<svg xmlns="http://www.w3.org/2000/svg" xmlns:svg="http://www.w3.org/2000/svg" id="svg2022" width="168mm" height="869.291" version="1.1" viewBox="0 0 168 230"><defs id="defs2016"><clipPath id="clipPath118" clipPathUnits="userSpaceOnUse"><path id="path116" d="M 0,898.583 H 651.969 V 0 H 0 Z"/></clipPath><clipPath id="clipPath20" clipPathUnits="userSpaceOnUse"><path id="path18" d="M 0,895.748 H 651.969 V 0 H 0 Z"/></clipPath><clipPath id="clipPath28" clipPathUnits="userSpaceOnUse"><path id="path26" d="m 350.003,809.592 h 0.861 V 518.586 h -0.861 z"/></clipPath><clipPath id="clipPath116" clipPathUnits="userSpaceOnUse"><path id="path114" d="M 0,895.748 H 651.969 V 0 H 0 Z"/></clipPath><clipPath id="clipPath124" clipPathUnits="userSpaceOnUse"><path id="path122" d="m 191.084,815.829 h 37.935 v -37.935 h -37.935 z"/></clipPath><clipPath id="clipPath140" clipPathUnits="userSpaceOnUse"><path id="path138" d="m 60.6826,777.894 h 37.935 v -37.935 h -37.935 z"/></clipPath><clipPath id="clipPath156" clipPathUnits="userSpaceOnUse"><path id="path154" d="M 98.6176,853.764 H 136.553 V 815.829 H 98.6176 Z"/></clipPath><clipPath id="clipPath172" clipPathUnits="userSpaceOnUse"><path id="path170" d="M 60.6827,815.829 H 98.6176 V 777.894 H 60.6827 Z"/></clipPath><clipPath id="clipPath188" clipPathUnits="userSpaceOnUse"><path id="path186" d="m 120.869,236.311 h 408.747 v -0.86 H 120.869 Z"/></clipPath><clipPath id="clipPath202" clipPathUnits="userSpaceOnUse"><path id="path200" d="m 120.869,163.509 h 411.318 v -0.86 H 120.869 Z"/></clipPath></defs><metadata id="metadata2019"/><g id="layer1" transform="translate(10,-77.000018)"><g id="g4676" stroke-width="1.398" transform="matrix(0.25239023,0,0,-0.25239023,-6.6521175,306.09741)"><g id="g4674" stroke-width="1.398" clip-path="url(#clipPath20)"><g id="g4672" stroke-width="1.398"><g id="g4670" stroke-width="1.398"><g id="g4668" stroke-width="1.398" clip-path="url(#clipPath28)" opacity=".45"><path id="path4666" fill="#5682cb" fill-opacity="1" fill-rule="nonzero" stroke="none" stroke-width="1.398" d="m 350.864,807.017 h -0.861 v 2.575 h 0.861 z m 0,-5.151 h -0.861 v 2.575 h 0.861 z m 0,-5.15 h -0.861 v 2.575 h 0.861 z m 0,-5.15 h -0.861 v 2.575 h 0.861 z m 0,-5.151 h -0.861 v 2.576 h 0.861 z m 0,-5.151 h -0.861 v 2.575 h 0.861 z m 0,-5.15 h -0.861 v 2.575 h 0.861 z m 0,-5.15 h -0.861 v 2.575 h 0.861 z m 0,-5.151 h -0.861 v 2.575 h 0.861 z m 0,-5.151 h -0.861 v 2.575 h 0.861 z m 0,-5.15 h -0.861 v 2.575 h 0.861 z m 0,-5.151 h -0.861 v 2.575 h 0.861 z m 0,-5.15 h -0.861 v 2.575 h 0.861 z m 0,-5.151 h -0.861 v 2.575 h 0.861 z m 0,-5.151 h -0.861 v 2.575 h 0.861 z m 0,-5.15 h -0.861 v 2.575 h 0.861 z m 0,-5.15 h -0.861 v 2.575 h 0.861 z m 0,-5.151 h -0.861 v 2.575 h 0.861 z m 0,-5.151 h -0.861 v 2.575 h 0.861 z m 0,-5.15 h -0.861 v 2.575 h 0.861 z m 0,-5.151 h -0.861 v 2.575 h 0.861 z m 0,-5.15 h -0.861 v 2.575 h 0.861 z m 0,-5.151 h -0.861 v 2.575 h 0.861 z m 0,-5.151 h -0.861 v 2.575 h 0.861 z m 0,-5.15 h -0.861 v 2.575 h 0.861 z m 0,-5.15 h -0.861 v 2.575 h 0.861 z m 0,-5.151 h -0.861 v 2.575 h 0.861 z m 0,-5.15 h -0.861 v 2.575 h 0.861 z m 0,-5.152 h -0.861 v 2.575 h 0.861 z m 0,-5.15 h -0.861 v 2.575 h 0.861 z m 0,-5.15 h -0.861 v 2.575 h 0.861 z m 0,-5.151 h -0.861 v 2.575 h 0.861 z m 0,-5.15 h -0.861 v 2.575 h 0.861 z m 0,-5.151 h -0.861 v 2.576 h 0.861 z m 0,-5.151 h -0.861 v 2.575 h 0.861 z m 0,-5.15 h -0.861 v 2.575 h 0.861 z m 0,-5.151 h -0.861 v 2.575 h 0.861 z m 0,-5.15 h -0.861 v 2.575 h 0.861 z m 0,-5.15 h -0.861 v 2.575 h 0.861 z m 0,-5.151 h -0.861 v 2.575 h 0.861 z m 0,-5.151 h -0.861 v 2.575 h 0.861 z m 0,-5.151 h -0.861 v 2.575 h 0.861 z m 0,-5.15 h -0.861 v 2.575 h 0.861 z m 0,-5.15 h -0.861 v 2.575 h 0.861 z m 0,-5.151 h -0.861 v 2.575 h 0.861 z m 0,-5.15 h -0.861 v 2.575 h 0.861 z m 0,-5.152 h -0.861 v 2.576 h 0.861 z m 0,-5.15 h -0.861 v 2.575 h 0.861 z m 0,-5.15 h -0.861 v 2.575 h 0.861 z m 0,-5.151 h -0.861 v 2.575 h 0.861 z m 0,-5.15 h -0.861 v 2.575 h 0.861 z m 0,-5.15 h -0.861 v 2.575 h 0.861 z m 0,-5.152 h -0.861 v 2.576 h 0.861 z m 0,-5.15 h -0.861 v 2.575 h 0.861 z m 0,-5.151 h -0.861 v 2.575 h 0.861 z m 0,-5.15 h -0.861 v 2.575 h 0.861 z m 0,-5.15 h -0.861 v 2.575 h 0.861 z"/></g></g></g></g></g><text id="text4680" x="-140.317" y="-171.849" fill="#5682cb" fill-opacity="1" fill-rule="nonzero" stroke="none" stroke-width=".353" font-family="Source Sans Pro" font-size="6.726" font-stretch="normal" font-variant="normal" font-weight="bold" transform="scale(-1)" writing-mode="lr-tb" style="-inkscape-font-specification:SourceSansPro-Bold"><tspan id="tspan4678" x="-140.317 -136.766 -133.215 -131.197 -127.646" y="-171.849" stroke-width=".353">19:00</tspan></text><text id="text4684" x="-117.578" y="-171.849" fill="#5682cb" fill-opacity="1" fill-rule="nonzero" stroke="none" stroke-width=".353" font-family="Source Sans Pro Light" font-size="6.726" font-stretch="normal" font-variant="normal" font-weight="300" transform="scale(-1)" writing-mode="lr-tb" style="-inkscape-font-specification:SourceSansPro-Light"><tspan id="tspan4682" x="-117.578 -114.04 -111.908 -109.776 -108.236 -105.451 -102.149" y="-171.849" stroke-width=".353">Arrival</tspan></text><text id="text4688" x="-140.317" y="-157.49" fill="#5682cb" fill-opacity="1" fill-rule="nonzero" stroke="none" stroke-width=".353" font-family="Source Sans Pro" font-size="6.726" font-stretch="normal" font-variant="normal" font-weight="bold" transform="scale(-1)" writing-mode="lr-tb" style="-inkscape-font-specification:SourceSansPro-Bold"><tspan id="tspan4686" x="-140.317 -136.766 -133.215 -131.197 -127.646" y="-157.49" stroke-width=".353">19:30</tspan></text><text id="text4694" x="-117.578" y="-157.49" fill="#5682cb" fill-opacity="1" fill-rule="nonzero" stroke="none" stroke-width=".353" font-family="Source Sans Pro Light" font-size="6.726" font-stretch="normal" font-variant="normal" font-weight="300" transform="scale(-1)" writing-mode="lr-tb" style="-inkscape-font-specification:SourceSansPro-Light"><tspan id="tspan4690" x="-117.578 -112.399 -109.151 -107.557 -104.651 -101.053 -95.592" y="-157.49" stroke-width=".353">Welcome</tspan> <tspan id="tspan4692" x="-117.578 -113.785 -110.536 -108.471 -105.223 -99.762 -96.164 -92.586" y="-150.307" stroke-width=".353">Ceremony</tspan></text><text id="text4698" x="-140.317" y="-137.138" fill="#5682cb" fill-opacity="1" fill-rule="nonzero" stroke="none" stroke-width=".353" font-family="Source Sans Pro" font-size="6.726" font-stretch="normal" font-variant="normal" font-weight="bold" transform="scale(-1)" writing-mode="lr-tb" style="-inkscape-font-specification:SourceSansPro-Bold"><tspan id="tspan4696" x="-140.317 -136.766 -133.215 -131.197 -127.646" y="-137.138" stroke-width=".353">20:00</tspan></text><text id="text4702" x="-117.578" y="-137.138" fill="#5682cb" fill-opacity="1" fill-rule="nonzero" stroke="none" stroke-width=".353" font-family="Source Sans Pro Light" font-size="6.726" font-stretch="normal" font-variant="normal" font-weight="300" transform="scale(-1)" writing-mode="lr-tb" style="-inkscape-font-specification:SourceSansPro-Light"><tspan id="tspan4700" x="-117.578 -113.516 -111.975 -108.397 -104.819 -101.571" y="-137.138" stroke-width=".353">Dinner</tspan></text><text id="text4706" x="-140.317" y="-122.779" fill="#5682cb" fill-opacity="1" fill-rule="nonzero" stroke="none" stroke-width=".353" font-family="Source Sans Pro" font-size="6.726" font-stretch="normal" font-variant="normal" font-weight="bold" transform="scale(-1)" writing-mode="lr-tb" style="-inkscape-font-specification:SourceSansPro-Bold"><tspan id="tspan4704" x="-140.317 -136.766 -133.215 -131.197 -127.646" y="-122.779" stroke-width=".353">21:00</tspan></text><text id="text4710" x="-117.578" y="-122.779" fill="#5682cb" fill-opacity="1" fill-rule="nonzero" stroke="none" stroke-width=".353" font-family="Source Sans Pro Light" font-size="6.726" font-stretch="normal" font-variant="normal" font-weight="300" transform="scale(-1)" writing-mode="lr-tb" style="-inkscape-font-specification:SourceSansPro-Light"><tspan id="tspan4708" x="-117.578 -113.919 -110.617 -107.052 -105.458" y="-122.779" stroke-width=".353">Raﬀle</tspan></text><text id="text4714" x="-140.317" y="-108.42" fill="#5682cb" fill-opacity="1" fill-rule="nonzero" stroke="none" stroke-width=".353" font-family="Source Sans Pro" font-size="6.726" font-stretch="normal" font-variant="normal" font-weight="bold" transform="scale(-1)" writing-mode="lr-tb" style="-inkscape-font-specification:SourceSansPro-Bold"><tspan id="tspan4712" x="-140.317 -136.766 -133.215 -131.197 -127.646" y="-108.42" stroke-width=".353">22:00</tspan></text><text id="text4720" x="-117.578" y="-108.42" fill="#5682cb" fill-opacity="1" fill-rule="nonzero" stroke="none" stroke-width=".353" font-family="Source Sans Pro Light" font-size="6.726" font-stretch="normal" font-variant="normal" font-weight="300" transform="scale(-1)" writing-mode="lr-tb" style="-inkscape-font-specification:SourceSansPro-Light"><tspan id="tspan4716" x="-117.578 -113.193 -109.326 -105.788 -104.443 -99.836 -98.296 -96.197" y="-108.42" stroke-width=".353">Q&amp;A with</tspan> <tspan id="tspan4718" x="-117.578 -114.444 -111.195 -107.537 -104.288 -102.156 -100.616 -97.711" y="-101.237" stroke-width=".353">Federico</tspan></text><text id="text4724" x="-73.196" y="-171.849" fill="#5682cb" fill-opacity="1" fill-rule="nonzero" stroke="none" stroke-width=".353" font-family="Source Sans Pro" font-size="6.726" font-stretch="normal" font-variant="normal" font-weight="bold" transform="scale(-1)" writing-mode="lr-tb" style="-inkscape-font-specification:SourceSansPro-Bold"><tspan id="tspan4722" x="-73.196 -69.645 -66.094 -64.076 -60.525" y="-171.849" stroke-width=".353">22:30</tspan></text><text id="text4730" x="-50.457" y="-171.849" fill="#5682cb" fill-opacity="1" fill-rule="nonzero" stroke="none" stroke-width=".353" font-family="Source Sans Pro Light" font-size="6.726" font-stretch="normal" font-variant="normal" font-weight="300" transform="scale(-1)" writing-mode="lr-tb" style="-inkscape-font-specification:SourceSansPro-Light"><tspan id="tspan4726" x="-50.457 -46.664 -43.361 -40.322 -37.073 -35.728 -31.935 -28.686 -26.622 -23.374 -17.913 -14.315 -10.737" y="-171.849" stroke-width=".353">Cake Ceremony</tspan> <tspan id="tspan4728" x="-50.457 -47.235 -45.89 -42.669 -39.447 -36.723 -35.378 -29.917 -26.359 -23.635 -22.095" y="-164.666" stroke-width=".353">+ 90s music</tspan></text><text id="text4734" x="-73.196" y="-152.096" fill="#5682cb" fill-opacity="1" fill-rule="nonzero" stroke="none" stroke-width=".353" font-family="Source Sans Pro" font-size="6.726" font-stretch="normal" font-variant="normal" font-weight="bold" transform="scale(-1)" writing-mode="lr-tb" style="-inkscape-font-specification:SourceSansPro-Bold"><tspan id="tspan4732" x="-73.196 -69.645 -66.094 -64.076 -60.525" y="-152.096" stroke-width=".353">23:00</tspan></text><text id="text4742" x="-50.457" y="-152.096" fill="#5682cb" fill-opacity="1" fill-rule="nonzero" stroke="none" stroke-width=".353" font-family="Source Sans Pro Light" font-size="6.726" font-stretch="normal" font-variant="normal" font-weight="300" transform="scale(-1)" writing-mode="lr-tb" style="-inkscape-font-specification:SourceSansPro-Light"><tspan id="tspan4736" x="-50.457 -47.457 -44.155 -42.561 -39.313 -35.735 -33.636 -32.291 -28.787 -25.236 -21.638" y="-152.096" stroke-width=".353">Talent Show</tspan> <tspan id="tspan4738" x="-50.457 -48.58 -43.973 -42.433 -38.855 -37.51 -33.852 -30.253 -28.713 -25.135 -23.104 -20.38 -19.035 -17.334 -13.735" y="-144.913" stroke-width=".353">(win points for</tspan> <tspan id="tspan4740" x="-50.457 -48.359 -44.807 -41.559 -40.214 -36.663 -33.065 -29.507 -26.783 -23.535" y="-137.73" stroke-width=".353">the house)</tspan></text><text id="text4746" x="-73.196" y="-122.773" fill="#5682cb" fill-opacity="1" fill-rule="nonzero" stroke="none" stroke-width=".353" font-family="Source Sans Pro" font-size="6.726" font-stretch="normal" font-variant="normal" font-weight="bold" transform="scale(-1)" writing-mode="lr-tb" style="-inkscape-font-specification:SourceSansPro-Bold"><tspan id="tspan4744" x="-73.196 -69.645 -66.094 -64.076 -60.525" y="-122.773" stroke-width=".353">00:30</tspan></text><text id="text4750" x="-50.457" y="-122.773" fill="#5682cb" fill-opacity="1" fill-rule="nonzero" stroke="none" stroke-width=".353" font-family="Source Sans Pro Light" font-size="6.726" font-stretch="normal" font-variant="normal" font-weight="300" transform="scale(-1)" writing-mode="lr-tb" style="-inkscape-font-specification:SourceSansPro-Light"><tspan id="tspan4748" x="-50.457 -46.664 -45.07 -41.472 -38.748" y="-122.773" stroke-width=".353">Close</tspan></text><g id="g4822" stroke-width="1.398" transform="matrix(0.25239023,0,0,-0.25239023,-6.6521175,306.09741)"><g id="g4820" stroke-width="1.398" clip-path="url(#clipPath116)"><g id="g4762" stroke-width="1.398"><g id="g4760" stroke-width="1.398"><g id="g4758" stroke-width="1.398" clip-path="url(#clipPath124)" opacity=".1"><g id="g4756" stroke-width="1.398" transform="translate(229.0186,777.8942)"><path id="path4754" fill="#5682cb" fill-opacity="1" fill-rule="nonzero" stroke="none" stroke-width="1.398" d="M 0,0 H -37.935 L 0,37.935 Z"/></g></g></g></g><g id="g4774" stroke-width="1.398"><g id="g4772" stroke-width="1.398"><g id="g4770" stroke-width="1.398" clip-path="url(#clipPath140)" opacity=".1"><g id="g4768" stroke-width="1.398" transform="translate(98.6178,777.8942)"><path id="path4766" fill="#5682cb" fill-opacity="1" fill-rule="nonzero" stroke="none" stroke-width="1.398" d="M 0,0 V -37.935 L -37.935,0 Z"/></g></g></g></g><g id="g4786" stroke-width="1.398"><g id="g4784" stroke-width="1.398"><g id="g4782" stroke-width="1.398" clip-path="url(#clipPath156)" opacity=".26"><g id="g4780" stroke-width="1.398" transform="translate(136.5523,815.8293)"><path id="path4778" fill="#5682cb" fill-opacity="1" fill-rule="nonzero" stroke="none" stroke-width="1.398" d="M 0,0 H -37.935 L 0,37.935 Z"/></g></g></g></g><g id="g4798" stroke-width="1.398"><g id="g4796" stroke-width="1.398"><g id="g4794" stroke-width="1.398" clip-path="url(#clipPath172)" opacity=".5"><g id="g4792" stroke-width="1.398" transform="translate(60.6827,815.8293)"><path id="path4790" fill="#5682cb" fill-opacity="1" fill-rule="nonzero" stroke="none" stroke-width="1.398" d="M 0,0 H 37.935 L 0,-37.935 Z"/></g></g></g></g><g id="g4808" stroke-width="1.398"><g id="g4806" stroke-width="1.398"><g id="g4804" stroke-width="1.398" clip-path="url(#clipPath188)" opacity=".45"><path id="path4802" fill="#5682cb" fill-opacity="1" fill-rule="nonzero" stroke="none" stroke-width="1.398" d="m 123.44,235.451 h -2.571 v 0.86 h 2.571 z m 5.141,0 h -2.57 v 0.86 h 2.57 z m 5.141,0 h -2.571 v 0.86 h 2.571 z m 5.142,0 h -2.571 v 0.86 h 2.571 z m 5.141,0 h -2.57 v 0.86 h 2.57 z m 5.142,0 h -2.57 v 0.86 h 2.57 z m 5.141,0 h -2.57 v 0.86 h 2.57 z m 5.142,0 h -2.57 v 0.86 h 2.57 z m 5.141,0 H 162 v 0.86 h 2.571 z m 5.142,0 h -2.571 v 0.86 h 2.571 z m 5.142,0 h -2.571 v 0.86 h 2.571 z m 5.14,0 h -2.57 v 0.86 h 2.57 z m 5.142,0 h -2.57 v 0.86 h 2.57 z m 5.141,0 h -2.57 v 0.86 h 2.57 z m 5.142,0 h -2.57 v 0.86 h 2.57 z m 5.142,0 h -2.57 v 0.86 h 2.57 z m 5.141,0 h -2.571 v 0.86 h 2.571 z m 5.142,0 h -2.571 v 0.86 h 2.571 z m 5.141,0 h -2.571 v 0.86 h 2.571 z m 5.141,0 h -2.57 v 0.86 h 2.57 z m 5.142,0 h -2.57 v 0.86 h 2.57 z m 5.141,0 h -2.57 v 0.86 h 2.57 z m 5.142,0 h -2.57 v 0.86 h 2.57 z m 5.141,0 h -2.57 v 0.86 h 2.57 z m 5.142,0 h -2.571 v 0.86 h 2.571 z m 5.142,0 h -2.571 v 0.86 h 2.571 z m 5.141,0 h -2.571 v 0.86 h 2.571 z m 5.142,0 h -2.571 v 0.86 h 2.571 z m 5.14,0 h -2.57 v 0.86 h 2.57 z m 5.142,0 h -2.57 v 0.86 h 2.57 z m 5.142,0 h -2.57 v 0.86 h 2.57 z m 5.141,0 h -2.57 v 0.86 h 2.57 z m 5.142,0 h -2.571 v 0.86 h 2.571 z m 5.141,0 h -2.571 v 0.86 h 2.571 z m 5.142,0 h -2.571 v 0.86 h 2.571 z m 5.142,0 h -2.571 v 0.86 h 2.571 z m 5.14,0 h -2.57 v 0.86 h 2.57 z m 5.142,0 h -2.57 v 0.86 h 2.57 z m 5.141,0 h -2.57 v 0.86 h 2.57 z m 5.142,0 h -2.57 v 0.86 h 2.57 z m 5.142,0 h -2.57 v 0.86 h 2.57 z m 5.141,0 h -2.571 v 0.86 h 2.571 z m 5.142,0 h -2.571 v 0.86 h 2.571 z m 5.141,0 h -2.571 v 0.86 h 2.571 z m 5.141,0 h -2.57 v 0.86 h 2.57 z m 5.142,0 h -2.57 v 0.86 h 2.57 z m 5.141,0 h -2.57 v 0.86 h 2.57 z m 5.142,0 h -2.57 v 0.86 h 2.57 z m 5.142,0 h -2.571 v 0.86 h 2.571 z m 5.141,0 h -2.571 v 0.86 h 2.571 z m 5.142,0 h -2.571 v 0.86 h 2.571 z m 5.141,0 h -2.571 v 0.86 h 2.571 z m 5.141,0 h -2.57 v 0.86 h 2.57 z m 5.142,0 h -2.57 v 0.86 h 2.57 z m 5.141,0 h -2.57 v 0.86 h 2.57 z m 5.142,0 h -2.571 v 0.86 h 2.571 z m 5.141,0 h -2.571 v 0.86 h 2.571 z m 5.142,0 h -2.571 v 0.86 h 2.571 z m 5.141,0 h -2.57 v 0.86 h 2.57 z m 5.141,0 h -2.57 v 0.86 h 2.57 z m 5.142,0 h -2.57 v 0.86 h 2.57 z m 5.141,0 h -2.57 v 0.86 h 2.57 z m 5.142,0 h -2.571 v 0.86 h 2.571 z m 5.142,0 h -2.571 v 0.86 h 2.571 z m 5.141,0 h -2.571 v 0.86 h 2.571 z m 5.141,0 h -2.57 v 0.86 h 2.57 z m 5.141,0 h -2.57 v 0.86 h 2.57 z m 5.142,0 h -2.57 v 0.86 h 2.57 z m 5.142,0 h -2.571 v 0.86 h 2.571 z m 5.141,0 h -2.571 v 0.86 h 2.571 z m 5.142,0 h -2.571 v 0.86 h 2.571 z m 5.141,0 h -2.571 v 0.86 h 2.571 z m 5.141,0 h -2.57 v 0.86 h 2.57 z m 5.142,0 h -2.57 v 0.86 h 2.57 z m 5.141,0 h -2.57 v 0.86 h 2.57 z m 5.142,0 h -2.57 v 0.86 h 2.57 z m 5.141,0 h -2.571 v 0.86 h 2.571 z m 5.142,0 h -2.571 v 0.86 h 2.571 z m 5.142,0 h -2.571 v 0.86 h 2.571 z m 5.14,0 h -2.57 v 0.86 h 2.57 z"/></g></g></g><g id="g4818" stroke-width="1.398"><g id="g4816" stroke-width="1.398"><g id="g4814" stroke-width="1.398" clip-path="url(#clipPath202)" opacity=".45"><path id="path4812" fill="#5682cb" fill-opacity="1" fill-rule="nonzero" stroke="none" stroke-width="1.398" d="m 123.44,162.649 h -2.571 v 0.86 h 2.571 z m 5.141,0 h -2.57 v 0.86 h 2.57 z m 5.141,0 h -2.571 v 0.86 h 2.571 z m 5.142,0 h -2.571 v 0.86 h 2.571 z m 5.141,0 h -2.57 v 0.86 h 2.57 z m 5.142,0 h -2.57 v 0.86 h 2.57 z m 5.141,0 h -2.57 v 0.86 h 2.57 z m 5.142,0 h -2.57 v 0.86 h 2.57 z m 5.141,0 H 162 v 0.86 h 2.571 z m 5.142,0 h -2.571 v 0.86 h 2.571 z m 5.142,0 h -2.571 v 0.86 h 2.571 z m 5.14,0 h -2.57 v 0.86 h 2.57 z m 5.142,0 h -2.57 v 0.86 h 2.57 z m 5.141,0 h -2.57 v 0.86 h 2.57 z m 5.142,0 h -2.57 v 0.86 h 2.57 z m 5.142,0 h -2.57 v 0.86 h 2.57 z m 5.141,0 h -2.571 v 0.86 h 2.571 z m 5.142,0 h -2.571 v 0.86 h 2.571 z m 5.141,0 h -2.571 v 0.86 h 2.571 z m 5.141,0 h -2.57 v 0.86 h 2.57 z m 5.142,0 h -2.57 v 0.86 h 2.57 z m 5.141,0 h -2.57 v 0.86 h 2.57 z m 5.142,0 h -2.57 v 0.86 h 2.57 z m 5.141,0 h -2.57 v 0.86 h 2.57 z m 5.142,0 h -2.571 v 0.86 h 2.571 z m 5.142,0 h -2.571 v 0.86 h 2.571 z m 5.141,0 h -2.571 v 0.86 h 2.571 z m 5.142,0 h -2.571 v 0.86 h 2.571 z m 5.14,0 h -2.57 v 0.86 h 2.57 z m 5.142,0 h -2.57 v 0.86 h 2.57 z m 5.142,0 h -2.57 v 0.86 h 2.57 z m 5.141,0 h -2.57 v 0.86 h 2.57 z m 5.142,0 h -2.571 v 0.86 h 2.571 z m 5.141,0 h -2.571 v 0.86 h 2.571 z m 5.142,0 h -2.571 v 0.86 h 2.571 z m 5.142,0 h -2.571 v 0.86 h 2.571 z m 5.14,0 h -2.57 v 0.86 h 2.57 z m 5.142,0 h -2.57 v 0.86 h 2.57 z m 5.141,0 h -2.57 v 0.86 h 2.57 z m 5.142,0 h -2.57 v 0.86 h 2.57 z m 5.142,0 h -2.57 v 0.86 h 2.57 z m 5.141,0 h -2.571 v 0.86 h 2.571 z m 5.142,0 h -2.571 v 0.86 h 2.571 z m 5.141,0 h -2.571 v 0.86 h 2.571 z m 5.141,0 h -2.57 v 0.86 h 2.57 z m 5.142,0 h -2.57 v 0.86 h 2.57 z m 5.141,0 h -2.57 v 0.86 h 2.57 z m 5.142,0 h -2.57 v 0.86 h 2.57 z m 5.142,0 h -2.571 v 0.86 h 2.571 z m 5.141,0 h -2.571 v 0.86 h 2.571 z m 5.142,0 h -2.571 v 0.86 h 2.571 z m 5.141,0 h -2.571 v 0.86 h 2.571 z m 5.141,0 h -2.57 v 0.86 h 2.57 z m 5.142,0 h -2.57 v 0.86 h 2.57 z m 5.141,0 h -2.57 v 0.86 h 2.57 z m 5.142,0 h -2.571 v 0.86 h 2.571 z m 5.141,0 h -2.571 v 0.86 h 2.571 z m 5.142,0 h -2.571 v 0.86 h 2.571 z m 5.141,0 h -2.57 v 0.86 h 2.57 z m 5.141,0 h -2.57 v 0.86 h 2.57 z m 5.142,0 h -2.57 v 0.86 h 2.57 z m 5.141,0 h -2.57 v 0.86 h 2.57 z m 5.142,0 h -2.571 v 0.86 h 2.571 z m 5.142,0 h -2.571 v 0.86 h 2.571 z m 5.141,0 h -2.571 v 0.86 h 2.571 z m 5.141,0 h -2.57 v 0.86 h 2.57 z m 5.141,0 h -2.57 v 0.86 h 2.57 z m 5.142,0 h -2.57 v 0.86 h 2.57 z m 5.142,0 h -2.571 v 0.86 h 2.571 z m 5.141,0 h -2.571 v 0.86 h 2.571 z m 5.142,0 h -2.571 v 0.86 h 2.571 z m 5.141,0 h -2.571 v 0.86 h 2.571 z m 5.141,0 h -2.57 v 0.86 h 2.57 z m 5.142,0 h -2.57 v 0.86 h 2.57 z m 5.141,0 h -2.57 v 0.86 h 2.57 z m 5.142,0 h -2.57 v 0.86 h 2.57 z m 5.141,0 h -2.571 v 0.86 h 2.571 z m 5.142,0 h -2.571 v 0.86 h 2.571 z m 5.142,0 h -2.571 v 0.86 h 2.571 z m 5.14,0 h -2.57 v 0.86 h 2.57 z"/></g></g></g></g></g><text stroke-width=".353" style="-inkscape-font-specification:SourceSansPro-Light" id="text4828" x="56.053" y="216.98" fill="#5682cb" fill-opacity="1" fill-rule="nonzero" stroke="none" font-family="Source Sans Pro Light" font-size="6.074" font-stretch="normal" font-variant="normal" font-weight="300" writing-mode="lr-tb"><tspan id="tspan4824" x="56.053 59.935 63.129 66.294 70.175 73.114 76.249 79.923 81.138 82.596 85.779 86.994 90.954" y="216.98" stroke-width=".353">HASHTAG IT ON</tspan> <tspan id="tspan4826" x="43.146 47.027 49.961 51.401 54.705 55.92 59.133 61.593 62.808 65.474 68.456 71.687 73.582 76.795 78.66 81.594 82.809 84.704 87.911 90.844 92.059 93.657 96.87 100.101 101.674 102.889 104.219 106.035" y="278.047" stroke-width=".353">Help us capture the fun! :-)</tspan></text><text stroke-width=".353" style="-inkscape-font-specification:SourceSansPro-ExtraLight" id="text4832" x="23.893" y="234.957" fill="#5682cb" fill-opacity="1" fill-rule="nonzero" stroke="none" font-family="Source Sans Pro ExtraLight" font-size="18.092" font-stretch="normal" font-variant="normal" font-weight="200" writing-mode="lr-tb"><tspan id="tspan4830" x="23.893 33.228 44.952 55.119 59.317 68.724 77.047 80.665 93.293 102.52 113.375 117.573" y="234.957" stroke-width=".353">SOCIAL MEDIA</tspan></text><text stroke-width=".353" style="-inkscape-font-specification:Montserrat-Regular" id="text4836" x="28.627" y="257.742" fill="#5682cb" fill-opacity="1" fill-rule="nonzero" stroke="none" font-family="Montserrat" font-size="8.336" font-stretch="normal" font-variant="normal" font-weight="normal" writing-mode="lr-tb"><tspan id="tspan4834" x="28.627" y="257.742" stroke-width=".353">#</tspan></text><text stroke-width=".353" style="-inkscape-font-specification:SourceSansPro-Bold" id="text4840" x="34.754" y="257.742" fill="#5682cb" fill-opacity="1" fill-rule="nonzero" stroke="none" font-family="Source Sans Pro" font-size="8.336" font-stretch="normal" font-variant="normal" font-weight="bold" writing-mode="lr-tb"><tspan id="tspan4838" x="34.754 40.073 45.517 50.293 55.587 60.155 65.007" y="257.742" stroke-width=".353">GUADEC</tspan></text><text stroke-width=".353" style="-inkscape-font-specification:Montserrat-Regular" id="text4844" x="70.009" y="257.742" fill="#5682cb" fill-opacity="1" fill-rule="nonzero" stroke="none" font-family="Montserrat" font-size="8.336" font-stretch="normal" font-variant="normal" font-weight="normal" writing-mode="lr-tb"><tspan id="tspan4842" x="70.009" y="257.742" stroke-width=".353">#</tspan></text><text stroke-width=".353" style="-inkscape-font-specification:SourceSansPro-Bold" id="text4848" x="76.136" y="257.742" fill="#5682cb" fill-opacity="1" fill-rule="nonzero" stroke="none" font-family="Source Sans Pro" font-size="8.336" font-stretch="normal" font-variant="normal" font-weight="bold" writing-mode="lr-tb"><tspan id="tspan4846" x="76.136 81.455 86.223 90.85 97.994 102.312 106.997 111.39 114.708 117.901" y="257.742" stroke-width=".353">GnomeParty</tspan></text></g><g id="printing-marks" display="inline" transform="translate(10,71.999982)"><path id="cropTL1" fill="none" stroke="#000" stroke-width=".224" d="m -5,148.0002 h -5"/><path id="cropTL2" fill="none" stroke="#000" stroke-width=".224" d="m 9.2316533e-7,153 v 5"/><path id="cropTR1" fill="none" stroke="#000" stroke-width=".224" d="m -5,-61.999795 h -5"/><path id="cropTR2" fill="none" stroke="#000" stroke-width=".224" d="m 9.2316284e-7,-66.999982 v -5"/><path id="cropBL1" fill="none" stroke="#000" stroke-width=".224" d="m 153,148.00001 h 5"/><path id="cropBL2" fill="none" stroke="#000" stroke-width=".224" d="m 148.0004,153 v 5"/><path id="cropBR1" fill="none" stroke="#000" stroke-width=".224" d="m 153,-61.999982 h 5"/><path id="cropBR2" fill="none" stroke="#000" stroke-width=".224" d="m 148,-66.999982 v -5"/></g></svg>