<svg xmlns="http://www.w3.org/2000/svg" xmlns:svg="http://www.w3.org/2000/svg" id="svg34901" width="472.441" height="355.559" version="1.1" viewBox="0 0 472.441 355.559"><defs id="defs34895"><clipPath id="clip1"><path id="path7" d="M 6,6 H 227 V 250 H 6 Z"/></clipPath><clipPath id="clip2"><path id="path10" d="M 249.22266,128 C 249.22266,194.94922 194.94922,249.22266 128,249.22266 61.050781,249.22266 6.777344,194.94922 6.777344,128 6.777344,61.050781 61.050781,6.777344 128,6.777344 194.94922,6.777344 249.22266,61.050781 249.22266,128"/></clipPath><clipPath id="clip3"><path id="path13" d="M 86,29 H 248 V 212 H 86 Z"/></clipPath><clipPath id="clip4"><path id="path16" d="M 249.22266,128 C 249.22266,194.94922 194.94922,249.22266 128,249.22266 61.050781,249.22266 6.777344,194.94922 6.777344,128 6.777344,61.050781 61.050781,6.777344 128,6.777344 194.94922,6.777344 249.22266,61.050781 249.22266,128"/></clipPath><clipPath id="clip5"><path id="path19" d="M 72,67 H 189 V 184 H 72 Z"/></clipPath><clipPath id="clip6"><path id="path22" d="M 249.22266,128 C 249.22266,194.94922 194.94922,249.22266 128,249.22266 61.050781,249.22266 6.777344,194.94922 6.777344,128 6.777344,61.050781 61.050781,6.777344 128,6.777344 194.94922,6.777344 249.22266,61.050781 249.22266,128"/></clipPath><style id="style4603">.cls-1,.cls-10,.cls-11,.cls-12,.cls-13,.cls-14,.cls-15,.cls-16,.cls-17,.cls-18,.cls-19,.cls-2,.cls-20,.cls-21,.cls-22,.cls-23,.cls-24,.cls-26,.cls-3,.cls-4,.cls-5,.cls-6,.cls-7,.cls-8,.cls-9{fill:#4a86cf}.cls-1{opacity:.1}.cls-2{opacity:.11}.cls-3{opacity:.15}.cls-4{opacity:.19}.cls-5{opacity:.3}.cls-6{opacity:.13}.cls-7{opacity:.12}.cls-8{opacity:.06}.cls-9{opacity:.24}.cls-10{opacity:.09}.cls-11{opacity:.2}.cls-12{opacity:.34}.cls-13{opacity:.07}.cls-14{opacity:.22}.cls-15{opacity:.29}.cls-16{opacity:.08}.cls-17{opacity:.18}.cls-18{opacity:.17}.cls-19{opacity:.16}.cls-20{opacity:.48}.cls-21{opacity:.23}.cls-22{opacity:.14}.cls-23{opacity:.31}.cls-24{font-size:75px;font-family:SourceSansPro-Light,Source Sans Pro;letter-spacing:.13em}.cls-25{font-family:SourceSansPro-SemiBold,Source Sans Pro;font-weight:700}</style></defs><metadata id="metadata34898"/><g id="layer1" display="inline" transform="translate(37.79528,121.08662)"><g id="g6619" transform="translate(-2.5000001e-6,-83.149613)"><path id="path6613" fill="none" stroke="#000" stroke-width=".945" d="M 0,-18.897641 V -37.795279"/><path id="path6615" fill="none" stroke="#000" stroke-width=".945" d="M -18.897639,-4.1299212e-6 H -37.795277"/></g><g id="g4806" transform="matrix(-1,0,0,1,396.85042,-83.291343)"><path id="path4802" fill="none" stroke="#000" stroke-width=".945" d="M 0,-18.897641 V -37.795279"/><path id="path4804" fill="none" stroke="#000" stroke-width=".945" d="M -18.897639,-4.1299212e-6 H -37.795277"/></g><g id="g4812" transform="matrix(1,0,0,-1,0,196.67717)"><path id="path4808" fill="none" stroke="#000" stroke-width=".945" d="M 0,-18.897641 V -37.795279"/><path id="path4810" fill="none" stroke="#000" stroke-width=".945" d="M -18.897639,-4.1299212e-6 H -37.795277"/></g><g id="g4818" transform="rotate(-180,198.4252,98.267715)"><path id="path4814" fill="none" stroke="#000" stroke-width=".945" d="M 0,-18.897641 V -37.795279"/><path id="path4816" fill="none" stroke="#000" stroke-width=".945" d="M -18.897639,-4.1299212e-6 H -37.795277"/></g></g><flowRoot id="flowRoot8350" fill="#000" fill-opacity="1" stroke="none" stroke-linecap="butt" stroke-linejoin="miter" stroke-opacity="1" stroke-width=".214" display="inline" font-family="sans-serif" font-size="9.185" font-style="normal" font-weight="normal" letter-spacing="0" opacity="1" text-anchor="start" transform="matrix(1.2358239,0,0,1.2358239,-264.94868,-145.50112)" word-spacing="0" xml:space="preserve" style="line-height:6.00000048px;text-align:start"><flowRegion id="flowRegion8346" fill="#000" fill-opacity="1" stroke-width=".214" font-size="9.185" text-anchor="start" style="text-align:start"><rect id="rect8344" width="445" height="95" x="271" y="352" fill="#000" fill-opacity="1" stroke-width=".214" font-size="9.185" text-anchor="start" style="text-align:start"/></flowRegion><flowPara id="flowPara8348" fill="#000" fill-opacity="1" stroke-width=".108" font-family="Source Sans Pro" font-size="9.185" font-stretch="normal" font-style="normal" font-variant="normal" font-weight="300" text-anchor="start" style="-inkscape-font-specification:'Source Sans Pro Light';text-align:start">Sponsored by</flowPara></flowRoot><g id="g873" stroke-width="9.501" display="inline" opacity="1" transform="matrix(0.11011273,0,0,0.11011273,141.41031,275.45124)"><g id="g855" stroke-width="9.501" clip-path="url(#clip1)" clip-rule="nonzero" transform="translate(-1.1080525,-1.1080603)"><g id="g853" stroke-width="9.501" clip-path="url(#clip2)" clip-rule="nonzero"><path id="path851" fill="#de0021" fill-opacity="1" fill-rule="nonzero" stroke="none" stroke-width="9.501" d="M 226.07422,199.25 C 198.72656,236.89062 152.24609,255.5625 106.45703,247.29297 60.667969,239.02344 23.652344,205.27734 11.199219,160.44531 -1.253906,115.61328 13.054688,67.609375 48.015625,36.910156 82.980469,6.210938 132.42969,-1.769531 175.27344,16.378906 139.57422,9.902344 103.05078,22.242188 78.59375,49.042969 54.136719,75.847656 45.183594,113.34766 54.894531,148.30469 c 9.714844,34.96093 36.722657,62.47265 71.499999,72.82031 34.77734,10.35156 72.43359,2.08594 99.67969,-21.875"/></g></g><g id="g861" stroke-width="9.501" clip-path="url(#clip3)" clip-rule="nonzero" transform="translate(-1.1080525,-1.1080603)"><g id="g859" stroke-width="9.501" clip-path="url(#clip4)" clip-rule="nonzero"><path id="path857" fill="#51ba2b" fill-opacity="1" fill-rule="nonzero" stroke="none" stroke-width="9.501" d="m 86.578125,61.9375 c 22.886715,-27.5 59.777345,-39.023438 94.246095,-29.433594 34.47265,9.589844 60.11328,38.503906 65.51172,73.875004 5.39843,35.36718 -10.44922,70.61718 -40.49219,90.05078 -30.03906,19.43359 -68.6875,19.4414 -98.73437,0.0195 25.92187,9.75 55.07031,5.02344 76.58593,-12.42188 21.51172,-17.4414 32.16406,-44.98047 27.98438,-72.35937 C 207.5,84.289062 189.11719,61.175781 163.38281,50.945312 137.64453,40.714844 108.41406,44.898438 86.578125,61.9375"/></g></g><g id="g867" stroke-width="9.501" clip-path="url(#clip5)" clip-rule="nonzero" transform="translate(-1.1080525,-1.1080603)"><g id="g865" stroke-width="9.501" clip-path="url(#clip6)" clip-rule="nonzero"><path id="path863" fill="#4a4294" fill-opacity="1" fill-rule="nonzero" stroke="none" stroke-width="9.501" d="M 94.425781,80.109375 C 115.43359,63.238281 145.29297,63.0625 166.5,79.683594 c 21.20312,16.625 28.16016,45.664066 16.79297,70.089846 -11.3711,24.42968 -38.06641,37.80468 -64.44141,32.28515 -26.371091,-5.51953 -45.464841,-28.48047 -46.082029,-55.41406 4.730469,14.91016 18.125,25.39063 33.734379,26.39453 15.61328,1.00391 30.24218,-7.67187 36.83984,-21.85547 C 149.94531,117 147.16797,100.21875 136.34766,88.921875 125.52344,77.625 108.87891,74.125 94.425781,80.109375"/></g></g><text id="text871" x="255.95" y="196.527" fill="#000" fill-opacity="1" stroke="none" stroke-width="9.501" font-family="sans-serif" font-style="normal" font-weight="normal" letter-spacing="-.44" word-spacing="0" xml:space="preserve" style="line-height:0%"><tspan font-stretch="normal" style="line-height:1.25;-inkscape-font-specification:'DejaVu Sans Bold'" id="tspan869" x="255.95" y="196.527" stroke-width="9.501" font-family="DejaVu Sans" font-size="208" font-style="normal" font-variant="normal" font-weight="bold" letter-spacing="-2.24">Centricular</tspan></text></g><g id="g4747" stroke-width=".705" display="inline" opacity="1" transform="matrix(0.17469343,0,0,0.17469343,116.90487,61.139297)"><polygon id="polygon4609" stroke-width=".705" points="287.05 550.5 359.05 478.5 287.05 478.5" class="cls-1"/><polygon id="polygon4611" stroke-width=".705" points="287.05 406.5 215.05 478.5 287.05 478.5" class="cls-2"/><polygon id="polygon4613" stroke-width=".705" points="287.05 190.5 215.05 262.5 287.05 262.5" class="cls-3"/><polygon id="polygon4615" stroke-width=".705" points="430.95 622.5 358.95 550.5 358.95 622.5" class="cls-4"/><polygon id="polygon4617" stroke-width=".705" points="430.95 406.5 358.95 478.5 430.95 478.5" class="cls-5"/><polygon id="polygon4619" stroke-width=".705" points="430.95 262.5 358.95 334.5 430.95 334.5" class="cls-6"/><polygon id="polygon4621" stroke-width=".705" points="430.95 262.5 502.95 190.5 430.95 190.5" class="cls-2"/><polygon id="polygon4623" stroke-width=".705" points="502.95 334.5 430.95 406.5 502.95 406.5" class="cls-7"/><polygon id="polygon4625" stroke-width=".705" points="574.95 406.5 502.95 334.5 502.95 406.5" class="cls-8"/><polygon id="polygon4627" stroke-width=".705" points="358.95 406.5 430.95 334.5 358.95 334.5" class="cls-9"/><polygon id="polygon4629" stroke-width=".705" points="359 406.5 287 334.5 287 406.5" class="cls-10"/><polygon id="polygon4631" stroke-width=".705" points="718.95 190.5 790.95 262.5 790.95 190.5" class="cls-11"/><polygon id="polygon4633" stroke-width=".705" points="718.95 406.5 790.95 478.5 790.95 406.5" class="cls-12"/><polygon id="polygon4635" stroke-width=".705" points="718.95 550.5 790.95 478.5 718.95 478.5" class="cls-13"/><polygon id="polygon4637" stroke-width=".705" points="718.95 694.5 790.95 622.5 718.95 622.5" class="cls-2"/><polygon id="polygon4639" stroke-width=".705" points="791.05 547.5 863.05 475.5 791.05 475.5" class="cls-14"/><polygon id="polygon4641" stroke-width=".705" points="862.95 406.5 934.95 334.5 862.95 334.5" class="cls-9"/><polygon id="polygon4643" stroke-width=".705" points="1006.95 334.5 934.95 406.5 1006.95 406.5" class="cls-2"/><polygon id="polygon4645" stroke-width=".705" points="934.95 478.5 862.95 550.5 934.95 550.5" class="cls-15"/><polygon id="polygon4647" stroke-width=".705" points="790.95 550.5 718.95 622.5 790.95 622.5" class="cls-15"/><polygon id="polygon4649" stroke-width=".705" points="1150.95 334.5 1078.95 406.5 1150.95 406.5" class="cls-16"/><polygon id="polygon4651" stroke-width=".705" points="719 478.5 647 550.5 719 550.5" class="cls-17"/><polygon id="polygon4653" stroke-width=".705" points="1078.95 478.5 1006.95 550.5 1078.95 550.5" class="cls-1"/><polygon id="polygon4655" stroke-width=".705" points="934.95 478.5 862.95 406.5 862.95 478.5" class="cls-10"/><polygon id="polygon4657" stroke-width=".705" points="719 406.5 647 334.5 647 406.5" class="cls-10"/><polygon id="polygon4659" stroke-width=".705" points="1006.95 694.5 934.95 622.5 934.95 694.5" class="cls-17"/><polygon id="polygon4661" stroke-width=".705" points="1007.34 478.88 1078.95 406.5 1006.95 406.88" class="cls-18"/><polygon id="polygon4663" stroke-width=".705" points="935.43 622.88 1007.05 550.5 935.05 550.88" class="cls-5"/><polygon id="polygon4665" stroke-width=".705" points="1006.95 550.5 934.95 478.5 934.95 550.5" class="cls-19"/><polygon id="polygon4667" stroke-width=".705" points="1078.95 622.5 1006.95 550.5 1006.95 622.5" class="cls-18"/><polygon id="polygon4669" stroke-width=".705" points="503 334.5 575 262.5 503 262.5" class="cls-19"/><polygon id="polygon4671" stroke-width=".705" points="502.95 478.5 574.95 406.5 502.95 406.5" class="cls-14"/><polygon id="polygon4673" stroke-width=".705" points="430.95 478.5 502.95 550.5 502.95 478.5" class="cls-20"/><polygon id="polygon4675" stroke-width=".705" points="646.95 694.5 574.95 622.5 574.95 694.5" class="cls-16"/><polygon id="polygon4677" stroke-width=".705" points="574.95 406.5 646.95 478.5 646.95 406.5" class="cls-11"/><polygon id="polygon4679" stroke-width=".705" points="574.95 478.5 646.95 550.5 646.95 478.5" class="cls-21"/><polygon id="polygon4681" stroke-width=".705" points="790.95 694.5 862.95 766.5 862.95 694.5" class="cls-10"/><polygon id="polygon4683" stroke-width=".705" points="502.95 622.5 430.95 550.5 430.95 622.5" class="cls-22"/><polygon id="polygon4685" stroke-width=".705" points="574.95 550.5 502.95 478.5 502.95 550.5" class="cls-23"/><polygon id="polygon4687" stroke-width=".705" points="358.95 478.5 430.95 406.5 358.95 406.5" class="cls-6"/><text id="text4691" stroke-width=".705" class="cls-24" transform="translate(397.33,713.03)">YEARS <tspan id="tspan4689" x="265.42" y="0" stroke-width=".705" class="cls-25">STRONG</tspan></text><path id="path4693" stroke-width=".705" d="m 400.17,621.93 v -56 c 27.11,-25.34 51.32,-49 73.77,-71 22.45,-22 41.78,-42.67 58,-62 16.22,-19.33 28.89,-37.34 38,-54 9.11,-16.66 13.67,-32.56 13.67,-47.67 q 0,-31.33 -16,-47.67 -16,-16.34 -44,-16.33 -23.35,0 -41.34,13 a 228.13,228.13 0 0 0 -34,30.34 l -53.34,-52.68 q 31.33,-33.34 64,-50.34 32.67,-17 78,-17 31.33,0 57,9.67 a 130.94,130.94 0 0 1 44.34,27.34 119.31,119.31 0 0 1 28.73,42.29 q 10,24.67 10,55.34 0,26.68 -11.33,54.34 A 296.82,296.82 0 0 1 635.33,434.9 587.58,587.58 0 0 1 592,490.25 c -14.62,16.61 -45.18,49 -45.18,49 h 150.83 v 82.68 z" class="cls-26"/><path id="path4695" stroke-width=".705" d="m 848.56,622.5 q -33.43,0 -61,-14.09 -27.57,-14.09 -46.87,-41.62 -19.34,-27.53 -30.15,-68.17 -10.81,-40.64 -10.82,-93.73 0,-53.1 10.82,-93.08 10.82,-39.98 30.15,-67.19 19.37,-27.2 46.91,-40.62 27.54,-13.42 61,-13.44 33.43,0 61,13.44 27.57,13.44 46.87,40.64 19.33,27.21 30.15,67.19 10.82,39.98 10.82,93.08 0,53.09 -10.82,93.73 -10.82,40.64 -30.15,68.17 -19.47,27.5 -46.95,41.6 -27.48,14.1 -60.96,14.09 z m 0,-74.72 a 44.07,44.07 0 0 0 22.94,-6.23 q 10.48,-6.22 18.35,-22.62 7.87,-16.4 12.15,-43.93 4.26,-27.54 4.26,-70.14 0,-42.6 -4.26,-69.79 -4.27,-27.19 -12.13,-42.61 -7.86,-15.42 -18.35,-21.3 a 46,46 0 0 0 -22.94,-5.9 44.74,44.74 0 0 0 -22.29,5.9 q -10.49,5.9 -18.35,21.3 -7.86,15.4 -12.46,42.61 -4.59,27.21 -4.59,69.81 0,42.6 4.58,70.12 4.58,27.53 12.46,43.91 7.88,16.38 18.35,22.62 a 42.85,42.85 0 0 0 22.28,6.25 z" class="cls-26"/></g><flowRoot id="flowRoot6576" fill="#000" fill-opacity="1" stroke="none" stroke-linecap="butt" stroke-linejoin="miter" stroke-opacity="1" stroke-width=".231" display="inline" font-family="Source Sans Pro" font-size="27.839" font-stretch="normal" font-style="normal" font-variant="normal" font-weight="normal" letter-spacing=".663" opacity="1" text-anchor="middle" transform="matrix(1.087322,0,0,1.087322,-330.84752,-177.46913)" word-spacing="0" xml:space="preserve" style="line-height:120.00000477%;-inkscape-font-specification:'Source Sans Pro';text-align:center"><flowRegion id="flowRegion6572" fill="#000" fill-opacity="1" stroke-width=".231" font-family="Source Sans Pro" font-size="27.839" font-stretch="normal" font-style="normal" font-variant="normal" font-weight="normal" letter-spacing=".663" text-anchor="middle" style="line-height:120.00000477%;-inkscape-font-specification:'Source Sans Pro';text-align:center"><rect id="rect6570" width="500.57" height="125.16" x="271" y="352" fill="#000" fill-opacity="1" stroke-width=".231" font-family="Source Sans Pro" font-size="27.839" font-stretch="normal" font-style="normal" font-variant="normal" font-weight="normal" letter-spacing=".663" text-anchor="middle" style="line-height:120.00000477%;-inkscape-font-specification:'Source Sans Pro';text-align:center"/></flowRegion><flowPara id="flowPara6574" fill="#000" fill-opacity="1" stroke-width=".117" font-family="Source Sans Pro" font-size="27.839" font-stretch="normal" font-style="normal" font-variant="normal" font-weight="normal" letter-spacing=".663" text-anchor="middle" style="line-height:120.00000477%;-inkscape-font-specification:'Source Sans Pro';text-align:center">WELCOME DRINK</flowPara></flowRoot><flowRoot id="flowRoot6598" fill="#000" fill-opacity="1" stroke="none" stroke-linecap="butt" stroke-linejoin="miter" stroke-opacity="1" stroke-width=".366" display="inline" font-family="Source Sans Pro" font-size="16.541" font-stretch="normal" font-style="normal" font-variant="normal" font-weight="300" letter-spacing=".862" opacity="1" text-anchor="middle" transform="matrix(0.68625502,0,0,0.68625502,-143.59801,-0.826115)" word-spacing="0" xml:space="preserve" style="line-height:139.99999762%;-inkscape-font-specification:'Source Sans Pro Light';text-align:center"><flowRegion id="flowRegion6592" fill="#000" fill-opacity="1" stroke-width=".366" font-family="Source Sans Pro" font-size="16.541" font-stretch="normal" font-style="normal" font-variant="normal" font-weight="300" letter-spacing=".862" text-anchor="middle" style="line-height:139.99999762%;-inkscape-font-specification:'Source Sans Pro Light';text-align:center"><rect id="rect6590" width="563.973" height="85.146" x="271" y="352" fill="#000" fill-opacity="1" stroke-width=".366" font-family="Source Sans Pro" font-size="16.541" font-stretch="normal" font-style="normal" font-variant="normal" font-weight="300" letter-spacing=".862" text-anchor="middle" style="line-height:139.99999762%;-inkscape-font-specification:'Source Sans Pro Light';text-align:center"/></flowRegion><flowPara id="flowPara6596" fill="#000" fill-opacity="1" stroke-width=".185" font-family="Source Sans Pro" font-size="16.541" font-stretch="normal" font-style="normal" font-variant="normal" font-weight="300" letter-spacing=".862" text-anchor="middle" style="line-height:139.99999762%;-inkscape-font-specification:'Source Sans Pro Light';text-align:center">GNOME Twentieth Anniversary Party</flowPara></flowRoot></svg>